<svg width="650" height="650" viewBox="0 0 650 650" fill="none" xmlns="http://www.w3.org/2000/svg">
<g clip-path="url(#clip0_2100_2401)">
<rect width="650" height="650" rx="325" fill="white"/>
<path d="M-174 0H1061V650H-174" fill="#B31942"/>
<path d="M-174 75H1061ZM1061 175H-174ZM-174 275H1061ZM1061 375H-174ZM-174 475H1061ZM1061 575H-174Z" fill="black"/>
<path d="M-174 75H1061M1061 175H-174M-174 275H1061M1061 375H-174M-174 475H1061M1061 575H-174" stroke="white" stroke-width="50"/>
<path d="M-174 0H320V350H-174" fill="#0A3161"/>
<path d="M-9.33336 50L2.42235 86.1803L-28.3545 63.8197H9.68777L-21.0891 86.1803L-9.33336 50Z" fill="white"/>
<path d="M-9.33336 120L2.42235 156.18L-28.3545 133.82H9.68777L-21.0891 156.18L-9.33336 120Z" fill="white"/>
<path d="M-9.33336 190L2.42235 226.18L-28.3545 203.82H9.68777L-21.0891 226.18L-9.33336 190Z" fill="white"/>
<path d="M-9.33336 260L2.42235 296.18L-28.3545 273.82H9.68777L-21.0891 296.18L-9.33336 260Z" fill="white"/>
<path d="M31.8331 15L43.5889 51.1803L12.812 28.8197H50.8543L20.0774 51.1803L31.8331 15Z" fill="white"/>
<path d="M31.8331 85L43.5889 121.18L12.812 98.8197H50.8543L20.0774 121.18L31.8331 85Z" fill="white"/>
<path d="M31.8331 155L43.5889 191.18L12.812 168.82H50.8543L20.0774 191.18L31.8331 155Z" fill="white"/>
<path d="M31.8331 225L43.5889 261.18L12.812 238.82H50.8543L20.0774 261.18L31.8331 225Z" fill="white"/>
<path d="M31.8331 295L43.5889 331.18L12.812 308.82H50.8543L20.0774 331.18L31.8331 295Z" fill="white"/>
<path d="M72.9996 50L84.7554 86.1803L53.9785 63.8197H92.0208L61.2439 86.1803L72.9996 50Z" fill="white"/>
<path d="M72.9996 120L84.7554 156.18L53.9785 133.82H92.0208L61.2439 156.18L72.9996 120Z" fill="white"/>
<path d="M72.9996 190L84.7554 226.18L53.9785 203.82H92.0208L61.2439 226.18L72.9996 190Z" fill="white"/>
<path d="M72.9996 260L84.7554 296.18L53.9785 273.82H92.0208L61.2439 296.18L72.9996 260Z" fill="white"/>
<path d="M114.167 15L125.922 51.1803L95.1455 28.8197H133.188L102.411 51.1803L114.167 15Z" fill="white"/>
<path d="M114.167 85L125.922 121.18L95.1455 98.8197H133.188L102.411 121.18L114.167 85Z" fill="white"/>
<path d="M114.167 155L125.922 191.18L95.1455 168.82H133.188L102.411 191.18L114.167 155Z" fill="white"/>
<path d="M114.167 225L125.922 261.18L95.1455 238.82H133.188L102.411 261.18L114.167 225Z" fill="white"/>
<path d="M114.167 295L125.922 331.18L95.1455 308.82H133.188L102.411 331.18L114.167 295Z" fill="white"/>
<path d="M155.333 50L167.089 86.1803L136.312 63.8197H174.354L143.577 86.1803L155.333 50Z" fill="white"/>
<path d="M155.333 120L167.089 156.18L136.312 133.82H174.354L143.577 156.18L155.333 120Z" fill="white"/>
<path d="M155.333 190L167.089 226.18L136.312 203.82H174.354L143.577 226.18L155.333 190Z" fill="white"/>
<path d="M155.333 260L167.089 296.18L136.312 273.82H174.354L143.577 296.18L155.333 260Z" fill="white"/>
<path d="M196.5 15L208.256 51.1803L177.479 28.8197H215.521L184.744 51.1803L196.5 15Z" fill="white"/>
<path d="M196.5 85L208.256 121.18L177.479 98.8197H215.521L184.744 121.18L196.5 85Z" fill="white"/>
<path d="M196.5 155L208.256 191.18L177.479 168.82H215.521L184.744 191.18L196.5 155Z" fill="white"/>
<path d="M196.5 225L208.256 261.18L177.479 238.82H215.521L184.744 261.18L196.5 225Z" fill="white"/>
<path d="M196.5 295L208.256 331.18L177.479 308.82H215.521L184.744 331.18L196.5 295Z" fill="white"/>
<path d="M237.667 50L249.422 86.1803L218.646 63.8197H256.688L225.911 86.1803L237.667 50Z" fill="white"/>
<path d="M237.667 120L249.422 156.18L218.646 133.82H256.688L225.911 156.18L237.667 120Z" fill="white"/>
<path d="M237.667 190L249.422 226.18L218.646 203.82H256.688L225.911 226.18L237.667 190Z" fill="white"/>
<path d="M237.667 260L249.422 296.18L218.646 273.82H256.688L225.911 296.18L237.667 260Z" fill="white"/>
<path d="M278.833 15L290.589 51.1803L259.812 28.8197H297.854L267.077 51.1803L278.833 15Z" fill="white"/>
<path d="M278.833 85L290.589 121.18L259.812 98.8197H297.854L267.077 121.18L278.833 85Z" fill="white"/>
<path d="M278.833 155L290.589 191.18L259.812 168.82H297.854L267.077 191.18L278.833 155Z" fill="white"/>
<path d="M278.833 225L290.589 261.18L259.812 238.82H297.854L267.077 261.18L278.833 225Z" fill="white"/>
<path d="M278.833 295L290.589 331.18L259.812 308.82H297.854L267.077 331.18L278.833 295Z" fill="white"/>
</g>
<defs>
<clipPath id="clip0_2100_2401">
<rect width="650" height="650" rx="325" fill="white"/>
</clipPath>
</defs>
</svg>
