<svg width="24" height="25" viewBox="0 0 24 25" fill="none" xmlns="http://www.w3.org/2000/svg">
<path d="M6.69281 12.7032C6.60102 12.651 6.52479 12.5753 6.47198 12.4838C6.41917 12.3924 6.39168 12.2885 6.39234 12.1829V7.95617C6.39234 7.91727 6.39422 7.86149 6.39422 7.82961C5.63808 8.107 5.00357 8.64145 4.60172 9.33945L4.60125 9.33992C3.65391 10.9871 4.21781 13.0904 5.86172 14.0424L9.56109 16.1799C9.57797 16.1874 9.59766 16.1855 9.61312 16.1752L11.1595 15.2823L6.69281 12.7032ZM11.0391 4.51367C9.13734 4.51227 7.59422 6.05352 7.59281 7.9557V12.2274C7.59516 12.2457 7.60641 12.2616 7.62281 12.2696L9.16969 13.1626V13.1616L9.17203 8.00539C9.17152 7.89976 9.19912 7.7959 9.25201 7.70447C9.30489 7.61303 9.38116 7.53731 9.47297 7.48508L13.132 5.37195C13.1644 5.35274 13.2127 5.32555 13.2408 5.31055C12.622 4.79633 11.8434 4.51367 11.0391 4.51367ZM11.9995 10.2024L10.0102 11.3518V13.6487L11.9995 14.7971L13.9894 13.6487V11.3509L11.9995 10.2024ZM9.52312 17.1971C9.43191 17.2505 9.32812 17.2787 9.22242 17.2787C9.11672 17.2787 9.01293 17.2505 8.92172 17.1971L5.26266 15.084C5.22891 15.0648 5.18109 15.0352 5.15437 15.0193C5.01586 15.8127 5.16124 16.6296 5.565 17.3265H5.56547C6.51797 18.9718 8.62219 19.5357 10.2694 18.587L13.9683 16.4513C13.9823 16.4401 13.9913 16.4223 13.9898 16.4035V14.6176L9.52312 17.1971ZM16.3734 12.7285L14.827 11.8355V16.9941C14.8284 17.2093 14.7136 17.4085 14.5261 17.5149L10.8675 19.628C10.8356 19.6473 10.7869 19.6745 10.7587 19.6895C11.3772 20.2057 12.1577 20.4878 12.9633 20.4863C14.8627 20.4826 16.4011 18.9423 16.4034 17.0429V12.7712C16.4011 12.7529 16.3903 12.7365 16.3734 12.7285ZM18.8452 9.9793V9.97977H18.8461C18.8456 9.97977 18.8456 9.9793 18.8452 9.9793ZM18.4345 7.67727C17.4848 6.02914 15.3783 5.46336 13.7311 6.41399L10.0322 8.54774C10.0181 8.55899 10.0092 8.5768 10.0106 8.59508V10.381L14.4773 7.80149C14.6634 7.6932 14.8931 7.6932 15.0787 7.80149L18.7378 9.91508C18.7711 9.9343 18.8184 9.96242 18.8452 9.9793C18.9811 9.18758 18.8358 8.37289 18.4345 7.67727ZM18.1383 10.9552L14.4389 8.81961C14.4216 8.81211 14.4023 8.81399 14.3869 8.8243L12.8405 9.7168L17.3072 12.2963H17.3077C17.4937 12.4032 17.6081 12.6015 17.6062 12.8166V17.1699C18.3616 16.8917 18.9957 16.3576 19.3983 15.6605C20.3494 14.0138 19.785 11.9068 18.1383 10.9552ZM18.1383 10.9552L14.4389 8.81961C14.4216 8.81211 14.4023 8.81399 14.3869 8.8243L12.8405 9.7168L17.3072 12.2963H17.3077C17.4937 12.4032 17.6081 12.6015 17.6062 12.8166V17.1699C18.3616 16.8917 18.9957 16.3576 19.3983 15.6605C20.3494 14.0138 19.785 11.9068 18.1383 10.9552ZM10.0106 8.59508V10.381L14.4773 7.80149C14.6634 7.6932 14.8931 7.6932 15.0787 7.80149L18.7378 9.91508C18.7711 9.9343 18.8184 9.96242 18.8452 9.9793C18.9811 9.18758 18.8358 8.37289 18.4345 7.67727C17.4848 6.02914 15.3783 5.46336 13.7311 6.41399L10.0322 8.54774C10.0181 8.55899 10.0092 8.5768 10.0106 8.59508ZM18.8461 9.97977C18.8456 9.97977 18.8456 9.9793 18.8452 9.9793V9.97977H18.8461ZM16.3734 12.7285L14.827 11.8355V16.9941C14.8284 17.2093 14.7136 17.4085 14.5261 17.5149L10.8675 19.628C10.8356 19.6473 10.7869 19.6745 10.7587 19.6895C11.3772 20.2057 12.1577 20.4878 12.9633 20.4863C14.8627 20.4826 16.4011 18.9423 16.4034 17.0429V12.7712C16.4011 12.7529 16.3903 12.7365 16.3734 12.7285ZM13.9898 16.4035V14.6176L9.52312 17.1971C9.43191 17.2505 9.32812 17.2787 9.22242 17.2787C9.11672 17.2787 9.01293 17.2505 8.92172 17.1971L5.26266 15.084C5.22891 15.0648 5.18109 15.0352 5.15437 15.0193C5.01586 15.8127 5.16124 16.6296 5.565 17.3265H5.56547C6.51797 18.9718 8.62219 19.5357 10.2694 18.587L13.9683 16.4513C13.9823 16.4401 13.9913 16.4223 13.9898 16.4035ZM10.0102 13.6487L11.9995 14.7971L13.9894 13.6487V11.3509L11.9995 10.2024L10.0102 11.3518V13.6487ZM7.62281 12.2696L9.16969 13.1626V13.1616L9.17203 8.00539C9.17152 7.89976 9.19912 7.7959 9.25201 7.70447C9.30489 7.61303 9.38116 7.53731 9.47297 7.48508L13.132 5.37195C13.1644 5.35274 13.2127 5.32555 13.2408 5.31055C12.622 4.79633 11.8434 4.51367 11.0391 4.51367C9.13734 4.51227 7.59422 6.05352 7.59281 7.9557V12.2274C7.59516 12.2457 7.60641 12.2616 7.62281 12.2696ZM5.86172 14.0424L9.56109 16.1799C9.57797 16.1874 9.59766 16.1855 9.61312 16.1752L11.1595 15.2823L6.69281 12.7032C6.60102 12.651 6.52479 12.5753 6.47198 12.4838C6.41917 12.3924 6.39168 12.2885 6.39234 12.1829V7.95617C6.39234 7.91727 6.39422 7.86149 6.39422 7.82961C5.63808 8.107 5.00357 8.64145 4.60172 9.33945L4.60125 9.33992C3.65391 10.9871 4.21781 13.0904 5.86172 14.0424ZM18.1383 10.9552L14.4389 8.81961C14.4216 8.81211 14.4023 8.81399 14.3869 8.8243L12.8405 9.7168L17.3072 12.2963H17.3077C17.4937 12.4032 17.6081 12.6015 17.6062 12.8166V17.1699C18.3616 16.8917 18.9957 16.3576 19.3983 15.6605C20.3494 14.0138 19.785 11.9068 18.1383 10.9552ZM10.0106 8.59508V10.381L14.4773 7.80149C14.6634 7.6932 14.8931 7.6932 15.0787 7.80149L18.7378 9.91508C18.7711 9.9343 18.8184 9.96242 18.8452 9.9793C18.9811 9.18758 18.8358 8.37289 18.4345 7.67727C17.4848 6.02914 15.3783 5.46336 13.7311 6.41399L10.0322 8.54774C10.0181 8.55899 10.0092 8.5768 10.0106 8.59508ZM18.8461 9.97977C18.8456 9.97977 18.8456 9.9793 18.8452 9.9793V9.97977H18.8461ZM16.3734 12.7285L14.827 11.8355V16.9941C14.8284 17.2093 14.7136 17.4085 14.5261 17.5149L10.8675 19.628C10.8356 19.6473 10.7869 19.6745 10.7587 19.6895C11.3772 20.2057 12.1577 20.4878 12.9633 20.4863C14.8627 20.4826 16.4011 18.9423 16.4034 17.0429V12.7712C16.4011 12.7529 16.3903 12.7365 16.3734 12.7285ZM13.9898 16.4035V14.6176L9.52312 17.1971C9.43191 17.2505 9.32812 17.2787 9.22242 17.2787C9.11672 17.2787 9.01293 17.2505 8.92172 17.1971L5.26266 15.084C5.22891 15.0648 5.18109 15.0352 5.15437 15.0193C5.01586 15.8127 5.16124 16.6296 5.565 17.3265H5.56547C6.51797 18.9718 8.62219 19.5357 10.2694 18.587L13.9683 16.4513C13.9823 16.4401 13.9913 16.4223 13.9898 16.4035ZM10.0102 13.6487L11.9995 14.7971L13.9894 13.6487V11.3509L11.9995 10.2024L10.0102 11.3518V13.6487ZM7.62281 12.2696L9.16969 13.1626V13.1616L9.17203 8.00539C9.17152 7.89976 9.19912 7.7959 9.25201 7.70447C9.30489 7.61303 9.38116 7.53731 9.47297 7.48508L13.132 5.37195C13.1644 5.35274 13.2127 5.32555 13.2408 5.31055C12.622 4.79633 11.8434 4.51367 11.0391 4.51367C9.13734 4.51227 7.59422 6.05352 7.59281 7.9557V12.2274C7.59516 12.2457 7.60641 12.2616 7.62281 12.2696ZM5.86172 14.0424L9.56109 16.1799C9.57797 16.1874 9.59766 16.1855 9.61312 16.1752L11.1595 15.2823L6.69281 12.7032C6.60102 12.651 6.52479 12.5753 6.47198 12.4838C6.41917 12.3924 6.39168 12.2885 6.39234 12.1829V7.95617C6.39234 7.91727 6.39422 7.86149 6.39422 7.82961C5.63808 8.107 5.00357 8.64145 4.60172 9.33945L4.60125 9.33992C3.65391 10.9871 4.21781 13.0904 5.86172 14.0424ZM6.69281 12.7032C6.60102 12.651 6.52479 12.5753 6.47198 12.4838C6.41917 12.3924 6.39168 12.2885 6.39234 12.1829V7.95617C6.39234 7.91727 6.39422 7.86149 6.39422 7.82961C5.63808 8.107 5.00357 8.64145 4.60172 9.33945L4.60125 9.33992C3.65391 10.9871 4.21781 13.0904 5.86172 14.0424L9.56109 16.1799C9.57797 16.1874 9.59766 16.1855 9.61312 16.1752L11.1595 15.2823L6.69281 12.7032ZM11.0391 4.51367C9.13734 4.51227 7.59422 6.05352 7.59281 7.9557V12.2274C7.59516 12.2457 7.60641 12.2616 7.62281 12.2696L9.16969 13.1626V13.1616L9.17203 8.00539C9.17152 7.89976 9.19912 7.7959 9.25201 7.70447C9.30489 7.61303 9.38116 7.53731 9.47297 7.48508L13.132 5.37195C13.1644 5.35274 13.2127 5.32555 13.2408 5.31055C12.622 4.79633 11.8434 4.51367 11.0391 4.51367ZM11.9995 10.2024L10.0102 11.3518V13.6487L11.9995 14.7971L13.9894 13.6487V11.3509L11.9995 10.2024ZM9.52312 17.1971C9.43191 17.2505 9.32812 17.2787 9.22242 17.2787C9.11672 17.2787 9.01293 17.2505 8.92172 17.1971L5.26266 15.084C5.22891 15.0648 5.18109 15.0352 5.15437 15.0193C5.01586 15.8127 5.16124 16.6296 5.565 17.3265H5.56547C6.51797 18.9718 8.62219 19.5357 10.2694 18.587L13.9683 16.4513C13.9823 16.4401 13.9913 16.4223 13.9898 16.4035V14.6176L9.52312 17.1971ZM16.3734 12.7285L14.827 11.8355V16.9941C14.8284 17.2093 14.7136 17.4085 14.5261 17.5149L10.8675 19.628C10.8356 19.6473 10.7869 19.6745 10.7587 19.6895C11.3772 20.2057 12.1577 20.4878 12.9633 20.4863C14.8627 20.4826 16.4011 18.9423 16.4034 17.0429V12.7712C16.4011 12.7529 16.3903 12.7365 16.3734 12.7285ZM18.8452 9.9793V9.97977H18.8461C18.8456 9.97977 18.8456 9.9793 18.8452 9.9793ZM18.4345 7.67727C17.4848 6.02914 15.3783 5.46336 13.7311 6.41399L10.0322 8.54774C10.0181 8.55899 10.0092 8.5768 10.0106 8.59508V10.381L14.4773 7.80149C14.6634 7.6932 14.8931 7.6932 15.0787 7.80149L18.7378 9.91508C18.7711 9.9343 18.8184 9.96242 18.8452 9.9793C18.9811 9.18758 18.8358 8.37289 18.4345 7.67727ZM18.1383 10.9552L14.4389 8.81961C14.4216 8.81211 14.4023 8.81399 14.3869 8.8243L12.8405 9.7168L17.3072 12.2963H17.3077C17.4937 12.4032 17.6081 12.6015 17.6062 12.8166V17.1699C18.3616 16.8917 18.9957 16.3576 19.3983 15.6605C20.3494 14.0138 19.785 11.9068 18.1383 10.9552ZM18.1383 10.9552L14.4389 8.81961C14.4216 8.81211 14.4023 8.81399 14.3869 8.8243L12.8405 9.7168L17.3072 12.2963H17.3077C17.4937 12.4032 17.6081 12.6015 17.6062 12.8166V17.1699C18.3616 16.8917 18.9957 16.3576 19.3983 15.6605C20.3494 14.0138 19.785 11.9068 18.1383 10.9552ZM18.4345 7.67727C17.4848 6.02914 15.3783 5.46336 13.7311 6.41399L10.0322 8.54774C10.0181 8.55899 10.0092 8.5768 10.0106 8.59508V10.381L14.4773 7.80149C14.6634 7.6932 14.8931 7.6932 15.0787 7.80149L18.7378 9.91508C18.7711 9.9343 18.8184 9.96242 18.8452 9.9793C18.9811 9.18758 18.8358 8.37289 18.4345 7.67727ZM18.8452 9.9793V9.97977H18.8461C18.8456 9.97977 18.8456 9.9793 18.8452 9.9793ZM16.3734 12.7285L14.827 11.8355V16.9941C14.8284 17.2093 14.7136 17.4085 14.5261 17.5149L10.8675 19.628C10.8356 19.6473 10.7869 19.6745 10.7587 19.6895C11.3772 20.2057 12.1577 20.4878 12.9633 20.4863C14.8627 20.4826 16.4011 18.9423 16.4034 17.0429V12.7712C16.4011 12.7529 16.3903 12.7365 16.3734 12.7285ZM9.52312 17.1971C9.43191 17.2505 9.32812 17.2787 9.22242 17.2787C9.11672 17.2787 9.01293 17.2505 8.92172 17.1971L5.26266 15.084C5.22891 15.0648 5.18109 15.0352 5.15437 15.0193C5.01586 15.8127 5.16124 16.6296 5.565 17.3265H5.56547C6.51797 18.9718 8.62219 19.5357 10.2694 18.587L13.9683 16.4513C13.9823 16.4401 13.9913 16.4223 13.9898 16.4035V14.6176L9.52312 17.1971ZM11.9995 10.2024L10.0102 11.3518V13.6487L11.9995 14.7971L13.9894 13.6487V11.3509L11.9995 10.2024ZM11.0391 4.51367C9.13734 4.51227 7.59422 6.05352 7.59281 7.9557V12.2274C7.59516 12.2457 7.60641 12.2616 7.62281 12.2696L9.16969 13.1626V13.1616L9.17203 8.00539C9.17152 7.89976 9.19912 7.7959 9.25201 7.70447C9.30489 7.61303 9.38116 7.53731 9.47297 7.48508L13.132 5.37195C13.1644 5.35274 13.2127 5.32555 13.2408 5.31055C12.622 4.79633 11.8434 4.51367 11.0391 4.51367ZM6.69281 12.7032C6.60102 12.651 6.52479 12.5753 6.47198 12.4838C6.41917 12.3924 6.39168 12.2885 6.39234 12.1829V7.95617C6.39234 7.91727 6.39422 7.86149 6.39422 7.82961C5.63808 8.107 5.00357 8.64145 4.60172 9.33945L4.60125 9.33992C3.65391 10.9871 4.21781 13.0904 5.86172 14.0424L9.56109 16.1799C9.57797 16.1874 9.59766 16.1855 9.61312 16.1752L11.1595 15.2823L6.69281 12.7032Z" fill="#614D61"/>
<path d="M12 0.5C5.37281 0.5 0 5.87281 0 12.5C0 19.1272 5.37281 24.5 12 24.5C18.6272 24.5 24 19.1272 24 12.5C24 5.87281 18.6272 0.5 12 0.5ZM17.6063 17.1702V12.8169C17.6081 12.6017 17.4937 12.4034 17.3077 12.2966H17.3072L12.8405 9.71703L14.3869 8.82453C14.4023 8.81422 14.4216 8.81234 14.4389 8.81984L18.1383 10.9555C19.785 11.907 20.3494 14.0141 19.3983 15.6608C18.9957 16.3579 18.3616 16.8919 17.6063 17.1702ZM12.9633 20.4866C12.1577 20.488 11.3772 20.2059 10.7587 19.6897C10.7869 19.6747 10.8356 19.6475 10.8675 19.6283L14.5261 17.5152C14.7136 17.4087 14.8284 17.2095 14.827 16.9944V11.8358L16.3734 12.7288C16.3903 12.7367 16.4011 12.7531 16.4034 12.7714V17.0431C16.4011 18.9425 14.8627 20.4828 12.9633 20.4866ZM5.56547 17.3267H5.565C5.16124 16.6298 5.01586 15.813 5.15438 15.0195C5.18109 15.0355 5.22891 15.065 5.26266 15.0842L8.92172 17.1973C9.10734 17.3061 9.33703 17.3061 9.52312 17.1973L13.9898 14.6178V16.4037C13.9913 16.4225 13.9823 16.4403 13.9683 16.4516L10.2694 18.5872C8.62219 19.5359 6.51797 18.972 5.56547 17.3267ZM4.60172 9.33969C5.00357 8.64169 5.63808 8.10723 6.39422 7.82984C6.39422 7.86172 6.39234 7.9175 6.39234 7.95641V12.1831C6.39094 12.3983 6.50625 12.5975 6.69281 12.7034L11.1595 15.2825L9.61312 16.1755C9.59766 16.1858 9.57797 16.1877 9.56109 16.1802L5.86172 14.0427C4.21781 13.0906 3.65391 10.9873 4.60125 9.34016L4.60172 9.33969ZM18.4345 7.6775C18.8358 8.37342 18.9811 9.18778 18.8452 9.97953C18.8456 9.97953 18.8456 9.98 18.8461 9.98H18.8452V9.97953C18.8184 9.96266 18.7711 9.93453 18.7378 9.91531L15.0787 7.80172C14.9875 7.74853 14.8837 7.72051 14.778 7.72051C14.6724 7.72051 14.5686 7.74853 14.4773 7.80172L10.0106 10.3813V8.59531C10.0101 8.58627 10.0119 8.57724 10.0156 8.569C10.0194 8.56076 10.025 8.55354 10.0322 8.54797L13.7311 6.41422C15.3783 5.46359 17.4848 6.02937 18.4345 7.6775ZM11.9995 10.2027L13.9894 11.3511V13.6489L11.9995 14.7973L10.0102 13.6489V11.352L11.9995 10.2027ZM13.2408 5.31078C13.2127 5.32578 13.1644 5.35297 13.132 5.37219L9.47297 7.48531C9.38116 7.53754 9.3049 7.61326 9.25201 7.7047C9.19913 7.79614 9.17152 7.9 9.17203 8.00562L9.16969 13.1619V13.1628L7.62281 12.2698C7.60641 12.2619 7.59516 12.2459 7.59281 12.2277V7.95594C7.59422 6.05375 9.13734 4.5125 11.0391 4.51391C11.8434 4.51391 12.622 4.79656 13.2408 5.31078Z" fill="white"/>
<path d="M19.8709 10.8323C20.0767 10.2138 20.148 9.55848 20.08 8.91022C20.012 8.26195 19.8063 7.63569 19.4767 7.07336C18.4745 5.32774 16.4588 4.42961 14.4901 4.85196C14.0573 4.36441 13.5254 3.97488 12.9299 3.70941C12.3345 3.44394 11.6892 3.30865 11.0373 3.31258C9.0254 3.3079 7.23993 4.60352 6.62118 6.5179C5.98223 6.64872 5.37858 6.91449 4.85062 7.29743C4.32266 7.68036 3.88257 8.17163 3.55978 8.73837C2.54962 10.4798 2.77978 12.6745 4.12931 14.1674C3.92336 14.786 3.85191 15.4414 3.91973 16.0898C3.98756 16.7383 4.19309 17.3647 4.52259 17.9273C5.52525 19.6729 7.54087 20.571 9.50915 20.1487C9.94192 20.6362 10.4738 21.0258 11.0693 21.2912C11.6648 21.5566 12.31 21.6917 12.962 21.6876C14.9752 21.6927 16.7612 20.3962 17.3804 18.4799C18.0193 18.3491 18.6229 18.0833 19.1508 17.7004C19.6786 17.3174 20.1186 16.8262 20.4413 16.2595C21.4506 14.5181 21.2195 12.3252 19.8709 10.8323ZM18.4346 7.67758C18.8359 8.3735 18.9812 9.18786 18.8452 9.97961C18.8457 9.97961 18.8457 9.98008 18.8462 9.98008H18.8452V9.97961C18.8185 9.96274 18.7712 9.93461 18.7379 9.9154L15.0788 7.8018C14.9876 7.74862 14.8838 7.72059 14.7781 7.72059C14.6725 7.72059 14.5687 7.74862 14.4774 7.8018L10.0107 10.3813V8.5954C10.0102 8.58635 10.0119 8.57732 10.0157 8.56908C10.0194 8.56084 10.0251 8.55363 10.0323 8.54805L13.7312 6.4143C15.3784 5.46368 17.4849 6.02946 18.4346 7.67758ZM11.9996 10.2027L13.9895 11.3512V13.649L11.9996 14.7974L10.0102 13.649V11.3521L11.9996 10.2027ZM7.5929 7.95602C7.59431 6.05383 9.13743 4.51258 11.0392 4.51399C11.8435 4.51399 12.6221 4.79665 13.2409 5.31086C13.2127 5.32586 13.1645 5.35305 13.1321 5.37227L9.47306 7.4854C9.38125 7.53763 9.30499 7.61335 9.2521 7.70478C9.19922 7.79622 9.17161 7.90008 9.17212 8.00571L9.16978 13.162V13.1629L7.6229 12.2699C7.6065 12.262 7.59525 12.246 7.5929 12.2277V7.95602ZM4.60134 9.34024L4.60181 9.33977C5.00366 8.64177 5.63817 8.10731 6.39431 7.82993C6.39431 7.8618 6.39243 7.91758 6.39243 7.95649V12.1832C6.39103 12.3984 6.50634 12.5976 6.6929 12.7035L11.1596 15.2826L9.61322 16.1756C9.59775 16.1859 9.57806 16.1877 9.56118 16.1802L5.86181 14.0427C4.2179 13.0907 3.654 10.9874 4.60134 9.34024ZM5.56556 17.3268H5.56509C5.16133 16.6299 5.01595 15.813 5.15446 15.0196C5.18118 15.0356 5.229 15.0651 5.26275 15.0843L8.92181 17.1974C9.10743 17.3062 9.33712 17.3062 9.52322 17.1974L13.9899 14.6179V16.4038C13.9913 16.4226 13.9824 16.4404 13.9684 16.4516L10.2695 18.5873C8.62228 19.536 6.51806 18.9721 5.56556 17.3268ZM16.4035 17.0432C16.4012 18.9426 14.8627 20.4829 12.9634 20.4866C12.1578 20.4881 11.3773 20.206 10.7588 19.6898C10.787 19.6748 10.8357 19.6476 10.8676 19.6284L14.5262 17.5152C14.7137 17.4088 14.8285 17.2096 14.8271 16.9945V11.8359L16.3735 12.7288C16.3904 12.7368 16.4012 12.7532 16.4035 12.7715V17.0432ZM19.3984 15.6609C18.9958 16.3579 18.3617 16.892 17.6063 17.1702V12.817C17.6082 12.6018 17.4938 12.4035 17.3077 12.2966H17.3073L12.8406 9.71711L14.387 8.82462C14.4024 8.8143 14.4217 8.81243 14.439 8.81993L18.1384 10.9556C19.7851 11.9071 20.3495 14.0141 19.3984 15.6609Z" fill="white"/>
</svg>
