<svg width="60" height="58" viewBox="0 0 60 58" fill="none" xmlns="http://www.w3.org/2000/svg">
<path d="M46.2539 56.3164C49.3087 56.3164 51.7852 53.84 51.7852 50.7852C51.7852 47.7303 49.3087 45.2539 46.2539 45.2539C43.1991 45.2539 40.7227 47.7303 40.7227 50.7852C40.7227 53.84 43.1991 56.3164 46.2539 56.3164Z" fill="#BC4CC6"/>
<path d="M57.7617 57.6055C58.9979 57.6055 60 56.6034 60 55.3672C60 54.131 58.9979 53.1289 57.7617 53.1289C56.5256 53.1289 55.5234 54.131 55.5234 55.3672C55.5234 56.6034 56.5256 57.6055 57.7617 57.6055Z" fill="#BC4CC6"/>
<path d="M23.1445 25.7885C23.0977 25.519 23.0273 25.2612 22.9453 25.0033C22.875 24.7807 22.7813 24.5698 22.6523 24.3588C22.5586 24.1948 22.4414 24.0541 22.3008 23.9369C22.1836 23.8432 22.0312 23.808 21.8789 23.8315C21.7266 23.8666 21.5859 23.9604 21.5039 24.101C21.3984 24.2768 21.3281 24.476 21.3047 24.6752C21.2578 24.933 21.2461 25.1908 21.2695 25.4369C21.3047 26.0112 21.4102 26.5737 21.5977 27.1127C21.6797 27.3588 21.7852 27.5932 21.9023 27.8158C21.9961 27.9916 22.125 28.1557 22.2773 28.2846C22.3945 28.3901 22.5469 28.4369 22.6992 28.4135C22.8633 28.3783 22.9922 28.2729 23.0625 28.1205C23.1563 27.9213 23.2148 27.7221 23.25 27.4994C23.2852 27.2299 23.2969 26.9487 23.2734 26.6791C23.25 26.3979 23.2031 26.0932 23.1445 25.7885ZM30.4922 21.9448C30.3633 21.7455 30.2227 21.6518 30.0586 21.6869C29.9531 21.6987 29.8477 21.7573 29.7656 21.8393C29.6953 21.9213 29.6484 22.0151 29.625 22.1205C29.6016 22.2377 29.6016 22.3666 29.6133 22.4838C29.625 22.6244 29.6484 22.7651 29.6719 22.894C29.707 23.0698 29.7422 23.2338 29.7891 23.3862C29.8359 23.5385 29.8594 23.6908 29.8828 23.808C29.918 23.9018 29.9531 23.9838 30.0117 24.0658C30.0586 24.1244 30.1172 24.183 30.1875 24.2182C30.2578 24.2651 30.3398 24.2768 30.4219 24.2533C30.5273 24.2299 30.6211 24.1713 30.668 24.0658C30.7383 23.9487 30.7734 23.8198 30.7969 23.6908C30.8203 23.5268 30.832 23.351 30.8203 23.1869C30.8203 23.0112 30.7969 22.8354 30.7617 22.6596C30.7266 22.4252 30.6328 22.1674 30.4922 21.9448ZM14.7891 27.4057C14.7422 27.1362 14.6719 26.8783 14.5898 26.6205C14.5195 26.3979 14.4258 26.1752 14.2969 25.976C14.2031 25.8119 14.0859 25.6713 13.9453 25.5541C13.8281 25.4604 13.6758 25.4135 13.5234 25.4487C13.3711 25.4838 13.2305 25.5776 13.1484 25.7182C13.043 25.894 12.9727 26.0932 12.9492 26.2924C12.9141 26.5502 12.9023 26.7963 12.9141 27.0541C12.9492 27.6283 13.0547 28.1908 13.2422 28.7299C13.3242 28.976 13.4297 29.2104 13.5469 29.433C13.6406 29.6088 13.7695 29.7729 13.9219 29.9018C14.0391 30.0073 14.1914 30.0541 14.3438 30.0307C14.5078 29.9955 14.6367 29.8901 14.707 29.7377C14.8008 29.5385 14.8594 29.3393 14.8945 29.1166C14.9297 28.8471 14.9414 28.5658 14.918 28.2963C14.8945 28.0033 14.8477 27.7104 14.7891 27.4057Z" fill="#BC4CC6"/>
<path d="M56.2852 19.2855C55.5587 15.512 51.6446 13.0394 47.3087 13.4495C49.418 10.0511 48.3751 5.87923 44.754 3.81673C41.1329 1.75423 36.1993 2.50423 33.2813 5.44563C32.086 1.88313 27.9141 -0.261397 23.5313 0.594072C19.1485 1.44954 16.0665 4.97688 16.2891 8.72688C12.4923 7.08626 7.62898 8.22298 5.03914 11.4925C2.4493 14.762 3.04695 19.0159 6.26961 21.3831C2.09773 22.6253 -0.609298 26.3753 0.117264 30.1488C0.843827 33.9222 4.75789 36.3949 9.09383 35.9847C6.98445 39.3831 8.02742 43.555 11.6485 45.6175C15.2696 47.68 20.2032 46.93 23.1212 43.9886C24.3165 47.5511 28.4884 49.6956 32.8712 48.8402C37.254 47.9847 40.3243 44.4456 40.1134 40.6956C43.9102 42.3363 48.7735 41.1995 51.3634 37.93C53.9532 34.6605 53.3555 30.4066 50.1329 28.0394C54.3048 26.7972 57.0118 23.0472 56.2852 19.2855ZM17.9532 28.4027C17.9063 29.0589 17.7423 29.7034 17.4845 30.3011C17.2384 30.8753 16.8751 31.3909 16.418 31.8128C15.9493 32.2464 15.3634 32.5277 14.7305 32.6331C14.1329 32.762 13.5235 32.7152 12.9493 32.5159C12.3985 32.3167 11.9063 32.0003 11.4962 31.5902C11.0626 31.1566 10.711 30.6527 10.4415 30.1019C10.1602 29.5277 9.9493 28.9066 9.83211 28.2738C9.7032 27.6527 9.66805 27.0081 9.72664 26.3753C9.77351 25.7659 9.93758 25.1683 10.1954 24.6058C10.4532 24.0667 10.8165 23.5863 11.2735 23.2113C11.7891 22.8011 12.3985 22.5199 13.0548 22.4144C14.2032 22.1449 15.422 22.473 16.2774 23.2933C16.6876 23.68 17.0274 24.1488 17.2852 24.6644C17.5548 25.2034 17.7423 25.7777 17.8595 26.3753C17.9766 27.0433 18.0118 27.723 17.9532 28.4027ZM26.3087 26.7855C26.2618 27.4417 26.0977 28.0863 25.8399 28.6839C25.5938 29.2581 25.2305 29.7738 24.7735 30.1956C24.3048 30.6292 23.7188 30.9105 23.086 31.016C22.4884 31.1449 21.879 31.098 21.3048 30.8988C20.754 30.6995 20.2618 30.3831 19.8516 29.973C19.418 29.5394 19.0548 29.0355 18.7852 28.4847C18.504 27.9105 18.293 27.2894 18.1759 26.6566C18.0587 26.0238 18.0235 25.3909 18.0704 24.7464C18.1173 24.137 18.2696 23.5394 18.5274 22.9769C18.7852 22.4378 19.1485 21.9574 19.6055 21.5824C20.1212 21.1722 20.7305 20.8909 21.3868 20.7855C22.5352 20.5159 23.754 20.8441 24.6095 21.6644C25.0313 22.0511 25.3712 22.5199 25.6173 23.0355C25.8868 23.5745 26.0743 24.1488 26.1915 24.7464C26.3321 25.4144 26.3673 26.1058 26.3087 26.7855ZM34.2423 23.387C34.2071 23.8909 34.0899 24.3949 33.8907 24.8636C33.7032 25.3089 33.4337 25.7074 33.0704 26.0355C32.7071 26.3636 32.2501 26.5863 31.7696 26.6683C31.5352 26.7152 31.3009 26.7269 31.0548 26.7152C30.8555 26.7034 30.6563 26.6566 30.4571 26.598C30.5509 26.9847 30.6329 27.3363 30.6915 27.6527C30.7501 27.9691 30.8204 28.2386 30.8673 28.4613C30.9259 28.7308 30.9844 28.9652 31.0313 29.1761L27.9141 30.0199C27.8673 29.6917 27.8087 29.3636 27.7384 29.0472C27.6798 28.7191 27.6095 28.4027 27.5509 28.0745C27.3516 27.0433 27.1407 26.0589 26.9298 25.1097C26.7188 24.1605 26.5196 23.3284 26.3321 22.5902C26.1212 21.7347 25.9102 20.9261 25.6993 20.1761L29.1212 19.3206C29.1212 19.4027 29.1329 19.473 29.1446 19.555L29.168 19.6956C29.1798 19.7777 29.1915 19.848 29.2032 19.93C29.3555 19.6839 29.543 19.473 29.754 19.2855C30.0235 19.0628 30.3516 18.9105 30.7032 18.8519C31.1251 18.7581 31.5587 18.7816 31.9688 18.9105C32.3438 19.0394 32.6954 19.2503 32.9766 19.5316C33.2813 19.8245 33.5274 20.1761 33.7032 20.5628C33.9024 20.973 34.043 21.4066 34.1251 21.8519C34.2423 22.3441 34.2774 22.8714 34.2423 23.387ZM42.6095 25.0511C42.5509 25.4378 42.422 25.8128 42.2345 26.1527C42.0001 26.5511 41.6954 26.8909 41.3204 27.1605C40.8516 27.4886 40.3126 27.7113 39.7384 27.805C39.1876 27.9222 38.6134 27.9808 38.0391 27.9691C37.6407 27.9574 37.254 27.9105 36.8673 27.8284C36.5509 27.7581 36.2462 27.6409 35.9649 27.4652L36.0587 24.9808C36.4923 25.0159 36.9141 25.0159 37.3477 25.0042C37.6641 24.9925 37.9805 24.9574 38.297 24.8988C38.5196 24.8636 38.7423 24.805 38.9532 24.723C39.0938 24.6761 39.2227 24.6058 39.3516 24.5238C39.4454 24.4652 39.5391 24.3949 39.6212 24.3128C38.6134 24.512 37.8048 24.5589 37.1837 24.4769C36.5626 24.3949 36.0587 24.2308 35.6954 23.973C35.3555 23.7503 35.0743 23.4456 34.8985 23.0824C34.7462 22.7542 34.629 22.4027 34.5587 22.0394C34.4649 21.5472 34.4649 21.0316 34.5587 20.5394C34.6524 20.0589 34.8399 19.5902 35.1095 19.18C35.3673 18.7699 35.7071 18.4066 36.1055 18.1253C36.9727 17.5277 38.0509 17.3284 39.0821 17.5511C39.4923 17.6566 39.8907 17.8206 40.2657 18.0316C40.629 18.2777 40.9454 18.5706 41.2266 18.8988L39.4688 21.6175C39.2579 21.4652 39.047 21.3245 38.8126 21.2074C38.6134 21.1136 38.4024 21.0316 38.1798 20.973C37.9571 20.9144 37.711 20.9027 37.4884 20.9495C37.3243 20.973 37.1837 21.055 37.0782 21.1839C36.9962 21.2894 36.9727 21.43 36.9962 21.5589C37.043 21.7933 37.1954 21.9222 37.4532 21.9808C37.7696 22.0277 38.0977 22.0511 38.4141 22.0277C38.7891 22.0042 39.1993 21.9925 39.6329 21.9808C40.0548 21.9691 40.4884 22.0159 40.8985 22.1214C41.297 22.2269 41.672 22.4378 41.9649 22.7308C42.2813 23.0238 42.4923 23.4808 42.6095 24.0902C42.6563 24.4066 42.6563 24.7347 42.6095 25.0511ZM43.0665 23.1995C43.0313 22.9886 42.9845 22.7777 42.9376 22.5667C42.8087 21.8753 42.6563 21.2074 42.504 20.5511C42.3516 19.8949 42.1993 19.3089 42.0587 18.7816C41.8946 18.1722 41.7188 17.5863 41.5548 17.0355L44.9884 16.2386C45.0352 16.7191 45.0938 17.2113 45.1759 17.7386C45.2579 18.2542 45.3516 18.7816 45.4454 19.2972C45.5391 19.8128 45.6446 20.2816 45.7501 20.7386C45.8555 21.1956 45.9493 21.5941 46.0313 21.9456C46.1251 22.3558 46.2071 22.7308 46.3126 23.0824L43.172 23.8324C43.1368 23.6097 43.1016 23.3988 43.0665 23.1995ZM46.8282 25.5199C46.7696 25.7074 46.6759 25.8831 46.5352 26.0238C46.3946 26.1878 46.2305 26.3167 46.043 26.4222C45.8438 26.5394 45.6212 26.6097 45.3868 26.6566C45.1524 26.7034 44.918 26.7152 44.6837 26.68C44.4727 26.6566 44.2618 26.5863 44.0743 26.4925C43.8985 26.3988 43.7462 26.2816 43.6173 26.1292C43.5001 25.9886 43.418 25.8128 43.3829 25.637C43.3477 25.4495 43.3595 25.262 43.418 25.0745C43.4766 24.887 43.5821 24.723 43.711 24.5824C43.8516 24.4183 44.0274 24.2894 44.2149 24.1839C44.4259 24.0667 44.6485 23.9964 44.8712 23.9495C45.1055 23.9027 45.3399 23.8909 45.5626 23.9261C45.7735 23.9495 45.9727 24.0199 46.172 24.1019C46.3477 24.1839 46.5001 24.3011 46.629 24.4534C46.7462 24.5941 46.8282 24.7699 46.8634 24.9574C46.8868 25.1566 46.8751 25.3324 46.8282 25.5199Z" fill="#BC4CC6"/>
</svg>
