<svg width="221" height="68" viewBox="0 0 221 68" fill="none" xmlns="http://www.w3.org/2000/svg">
<path d="M70.916 52.0684V51.8884C70.952 51.2944 71.006 50.6824 71.024 50.0704H70.574C66.488 50.0704 64.148 48.2164 64.148 45.6784C64.148 43.1404 66.506 41.2864 70.574 41.2864H71.024V39.5944C70.682 39.5944 69.764 39.7924 69.296 39.9184L69.224 39.8104L69.638 39.3424H73.868V39.5224C73.832 40.0984 73.814 40.6924 73.796 41.2864H74.21C78.296 41.2864 80.636 43.1404 80.636 45.6784C80.636 48.2164 78.314 50.0704 74.21 50.0704H73.778V51.8164C74.12 51.8164 75.038 51.6004 75.506 51.4924L75.578 51.6004L75.164 52.0684H70.916ZM70.628 49.7104H71.024V41.6284H70.628C68.36 41.6284 66.956 43.2304 66.956 45.6784C66.956 48.1264 68.36 49.7104 70.628 49.7104ZM73.778 49.7104H74.174C76.424 49.7104 77.828 48.1264 77.828 45.6784C77.828 43.2304 76.442 41.6284 74.174 41.6284H73.778V49.7104ZM87.1571 52.2484C84.2051 52.2484 82.0991 50.3044 82.0991 47.5684C82.0991 44.8324 84.2051 42.8884 87.1571 42.8884C90.1091 42.8884 92.2151 44.8324 92.2151 47.5684C92.2151 50.3044 90.1091 52.2484 87.1571 52.2484ZM87.1571 51.9424C88.6691 51.9424 89.7491 50.1604 89.7491 47.5684C89.7491 44.9764 88.6691 43.1764 87.1571 43.1764C85.6271 43.1764 84.5651 44.9764 84.5651 47.5684C84.5651 50.1604 85.6271 51.9424 87.1571 51.9424ZM94.1477 53.3104L93.0677 47.8024L93.3377 47.7304L93.3917 47.8744C93.6617 48.8104 94.6337 49.9084 95.4257 49.9084C96.1457 49.9084 96.5597 48.4324 96.5597 45.9124C96.5417 45.1204 96.4337 44.1304 96.3257 43.3204C96.0557 43.3204 95.3177 43.5184 94.9217 43.6444L94.8677 43.5364L95.2457 43.0684H100.628C101.114 43.0684 102.014 43.0144 102.392 42.9424L102.41 43.0504C102.356 43.8604 102.32 45.0124 102.32 46.1284V51.8164C102.59 51.8164 103.328 51.6004 103.706 51.4924L103.76 51.6004L103.436 52.0684H99.9437V51.8884C99.9797 50.9344 100.016 49.9624 100.016 49.0084V43.4104H97.4957C96.7037 48.9004 95.7677 52.4464 94.7957 52.4464C94.4897 52.4464 94.2557 52.1584 94.1477 52.1044L94.6157 53.2744L94.5797 53.3104H94.1477ZM105.94 52.0684V51.8884C105.994 50.9344 106.03 49.9624 106.03 49.0084V43.3204C105.76 43.3204 105.022 43.5184 104.644 43.6444L104.59 43.5364L104.914 43.0684H106.462C106.984 43.0684 107.992 43.0144 108.406 42.9424L108.424 43.0504C108.37 43.8604 108.334 45.0124 108.334 46.1284V46.8484H109.162C112.186 46.8484 113.734 47.8384 113.734 49.4584C113.734 51.0784 112.186 52.0684 109.162 52.0684H105.94ZM108.334 51.7804H108.946C110.476 51.7804 111.412 50.8804 111.412 49.4584C111.412 48.0364 110.476 47.1364 108.946 47.1364H108.334V51.7804ZM115.889 52.0684V51.8884C115.943 50.9344 115.979 49.9624 115.979 49.0084V39.7204C115.709 39.7204 114.971 39.9184 114.593 40.0444L114.539 39.9364L114.863 39.4684H116.429C117.023 39.4684 117.941 39.4144 118.355 39.3424L118.391 39.4504C118.337 40.2604 118.301 41.4124 118.301 42.5284V47.3884H119.183L121.253 45.0844C121.739 44.5624 122.081 44.0764 122.567 43.3204C122.297 43.3204 121.559 43.5184 121.181 43.6444L121.127 43.5364L121.469 43.0684H124.079V43.2124C123.197 43.8064 121.739 44.9764 121.163 45.5884L120.713 46.0924L123.161 49.7104C123.701 50.4664 124.349 51.2944 124.925 51.8884V52.0684H120.857L120.515 51.6004L120.569 51.4924C120.947 51.6004 121.685 51.8164 121.955 51.8164L119.219 47.7484H118.301V49.0084C118.301 49.9624 118.337 50.9344 118.373 51.8884V52.0684H115.889ZM126.07 53.3104L124.99 47.8024L125.26 47.7304L125.314 47.8744C125.584 48.8104 126.556 49.9084 127.348 49.9084C128.068 49.9084 128.482 48.4324 128.482 45.9124C128.464 45.1204 128.356 44.1304 128.248 43.3204C127.978 43.3204 127.24 43.5184 126.844 43.6444L126.79 43.5364L127.168 43.0684H132.55C133.036 43.0684 133.936 43.0144 134.314 42.9424L134.332 43.0504C134.278 43.8604 134.242 45.0124 134.242 46.1284V51.8164C134.512 51.8164 135.25 51.6004 135.628 51.4924L135.682 51.6004L135.358 52.0684H131.866V51.8884C131.902 50.9344 131.938 49.9624 131.938 49.0084V43.4104H129.418C128.626 48.9004 127.69 52.4464 126.718 52.4464C126.412 52.4464 126.178 52.1584 126.07 52.1044L126.538 53.2744L126.502 53.3104H126.07ZM137.862 52.0684V51.8884C137.916 50.9344 137.952 49.9624 137.952 49.0084V43.3204C137.682 43.3204 136.944 43.5184 136.566 43.6444L136.512 43.5364L136.836 43.0684H138.384C138.906 43.0684 139.914 43.0144 140.328 42.9424L140.346 43.0504C140.292 43.8604 140.256 45.0124 140.256 46.1284V46.8484H141.084C144.108 46.8484 145.656 47.8384 145.656 49.4584C145.656 51.0784 144.108 52.0684 141.084 52.0684H137.862ZM140.256 51.7804H140.868C142.398 51.7804 143.334 50.8804 143.334 49.4584C143.334 48.0364 142.398 47.1364 140.868 47.1364H140.256V51.7804ZM151.915 52.2484C148.963 52.2484 146.857 50.3044 146.857 47.5684C146.857 44.8324 148.963 42.8884 151.915 42.8884C154.867 42.8884 156.973 44.8324 156.973 47.5684C156.973 50.3044 154.867 52.2484 151.915 52.2484ZM151.915 51.9424C153.427 51.9424 154.507 50.1604 154.507 47.5684C154.507 44.9764 153.427 43.1764 151.915 43.1764C150.385 43.1764 149.323 44.9764 149.323 47.5684C149.323 50.1604 150.385 51.9424 151.915 51.9424ZM159.535 55.6684V55.4884C159.589 54.5344 159.625 53.5624 159.625 52.6084V43.3204C159.355 43.3204 158.617 43.5184 158.239 43.6444L158.185 43.5364L158.509 43.0684H160.057C160.579 43.0684 161.587 43.0144 162.001 42.9424L162.019 43.0504C161.983 43.5904 161.947 44.2384 161.947 44.9404C162.469 43.6264 163.513 42.8884 165.025 42.8884C167.329 42.8884 169.003 44.8504 169.003 47.5684C169.003 50.3584 167.401 52.2484 165.025 52.2484C163.477 52.2484 162.451 51.5104 161.929 50.1964V55.4164C162.271 55.4164 163.189 55.2184 163.657 55.0924L163.729 55.2004L163.315 55.6684H159.535ZM164.197 51.6904C165.583 51.6904 166.555 50.0344 166.555 47.5684C166.555 45.1024 165.583 43.4284 164.197 43.4284C162.649 43.4284 161.821 45.5524 161.821 47.5684C161.821 50.0164 162.811 51.6904 164.197 51.6904ZM171.417 56.4784L170.103 51.8344L170.319 51.7624L170.373 51.8704C170.895 53.0584 172.983 55.3804 174.117 55.3804C174.585 55.3804 174.873 55.0924 174.873 54.5884V54.3004C174.873 53.6524 174.513 52.8064 173.271 50.2684L171.669 46.9924C170.913 45.4624 170.211 44.0764 169.671 43.1944V43.0684H173.739L174.063 43.5364L174.009 43.6444C173.631 43.5184 172.893 43.3204 172.623 43.3204L175.269 49.5484C175.413 49.8544 175.539 50.2144 175.647 50.5564C175.755 50.1964 175.845 49.8724 175.971 49.5484L176.853 47.1544C177.357 45.8224 177.753 44.0224 177.825 43.3204C177.555 43.3204 176.817 43.5184 176.439 43.6444L176.385 43.5364L176.709 43.0684H179.103V43.2124C178.581 43.9144 177.987 45.0664 177.303 46.9204L176.079 50.1964C175.917 50.6284 175.863 50.9884 175.863 51.4744V52.3384C175.863 54.6964 174.945 55.8484 173.487 55.8484C172.551 55.8484 171.993 55.4344 171.363 55.3804L171.849 56.4244L171.831 56.4784H171.417Z" fill="#333333"/>
<path d="M34.7267 30.3597C34.3713 24.3599 33.3025 0.645537 32.1496 1.07409C30.9947 0.645537 29.9285 24.3599 29.5731 30.3597C29.2177 36.3595 28.5068 66.9314 28.5068 66.9314H35.793C35.793 66.9314 35.0822 36.3602 34.7267 30.3597Z" fill="white" stroke="#BC4CC6" stroke-width="1.01239" stroke-miterlimit="10"/>
<path d="M57.5 34.0684H75.5" stroke="#BC4CC6" stroke-width="1.21486" stroke-miterlimit="10"/>
<path d="M0.5 34.1035H54.7144" stroke="#BC4CC6" stroke-width="0.911147" stroke-miterlimit="10"/>
<path d="M48.8507 17.2988L7.29297 58.8566" stroke="#BC4CC6" stroke-width="0.911147" stroke-miterlimit="10"/>
<path d="M56.0498 10.0996L49.9004 16.2483" stroke="#BC4CC6" stroke-width="0.911147" stroke-miterlimit="10"/>
<path d="M49.499 51.4512L55.2302 57.1823" stroke="#BC4CC6" stroke-width="0.911147" stroke-miterlimit="10"/>
<path d="M8.14648 10.0996L47.711 49.6641" stroke="#BC4CC6" stroke-width="0.911147" stroke-miterlimit="10"/>
<path d="M19.4137 12.3008C16.7954 13.7033 14.4859 15.6181 12.6228 17.9314C10.7596 20.2446 9.38081 22.909 8.56836 25.766C10.4615 20.1276 14.3081 15.3518 19.4137 12.3008Z" stroke="#BC4CC6" stroke-width="0.911147" stroke-miterlimit="10"/>
<path d="M23.4834 10.3455C23.7333 10.2523 23.9849 10.1631 24.2382 10.0781C23.9853 10.1636 23.7337 10.2527 23.4834 10.3455Z" stroke="#BC4CC6" stroke-width="0.911147" stroke-miterlimit="10"/>
<path d="M22.335 10.8067C22.7022 10.6496 23.0736 10.5005 23.4491 10.3594C23.0719 10.4996 22.7005 10.6487 22.335 10.8067Z" stroke="#BC4CC6" stroke-width="0.911147" stroke-miterlimit="10"/>
<path d="M25.4648 9.70131C25.5758 9.67024 25.6869 9.64024 25.7982 9.61133C25.6869 9.64068 25.5758 9.67067 25.4648 9.70131Z" stroke="#BC4CC6" stroke-width="0.911147" stroke-miterlimit="10"/>
<path d="M8.02148 27.6516C8.10003 27.3365 8.18418 27.0236 8.27395 26.7129" stroke="#BC4CC6" stroke-width="0.911147" stroke-miterlimit="10"/>
<path d="M24.6592 9.94273C24.9099 9.86375 25.1622 9.78844 25.4159 9.7168C25.1622 9.7893 24.9099 9.86461 24.6592 9.94273Z" stroke="#BC4CC6" stroke-width="0.911147" stroke-miterlimit="10"/>
<path d="M24.2568 10.0723C24.3742 10.0326 24.4918 9.99415 24.6097 9.95703C24.4918 9.99458 24.3742 10.033 24.2568 10.0723Z" stroke="#BC4CC6" stroke-width="0.911147" stroke-miterlimit="10"/>
<path d="M21.209 11.3239C21.5715 11.1466 21.9384 10.9774 22.3095 10.8164C21.9379 10.9752 21.5711 11.1444 21.209 11.3239Z" stroke="#BC4CC6" stroke-width="0.911147" stroke-miterlimit="10"/>
<path d="M7.48242 30.5703C7.5012 30.4176 7.52128 30.2661 7.54264 30.1172" stroke="#BC4CC6" stroke-width="0.911147" stroke-miterlimit="10"/>
<path d="M7.38086 31.5586C7.40675 31.2504 7.43806 30.9438 7.47474 30.6387C7.43762 30.9438 7.40632 31.2504 7.38086 31.5586Z" stroke="#BC4CC6" stroke-width="0.911147" stroke-miterlimit="10"/>
<path d="M7.54883 30.0703C7.57084 29.9176 7.59415 29.7665 7.61875 29.6172" stroke="#BC4CC6" stroke-width="0.911147" stroke-miterlimit="10"/>
<path d="M7.90918 28.1262C7.94414 27.9696 7.98168 27.8136 8.01988 27.6582" stroke="#BC4CC6" stroke-width="0.911147" stroke-miterlimit="10"/>
<path d="M7.62109 29.6002C7.64699 29.4442 7.67419 29.2895 7.70268 29.1348" stroke="#BC4CC6" stroke-width="0.911147" stroke-miterlimit="10"/>
<path d="M7.71094 29.0865C7.7692 28.774 7.83394 28.4633 7.90515 28.1543C7.83437 28.4633 7.76963 28.774 7.71094 29.0865Z" stroke="#BC4CC6" stroke-width="0.911147" stroke-miterlimit="10"/>
<path d="M27.0801 9.31141C27.2096 9.28465 27.339 9.25897 27.4685 9.23438C27.3382 9.25897 27.2087 9.28465 27.0801 9.31141Z" stroke="#BC4CC6" stroke-width="0.911147" stroke-miterlimit="10"/>
<path d="M30.8574 8.82543C30.9869 8.81895 31.1164 8.81377 31.2458 8.80859C31.1151 8.81377 30.9862 8.81895 30.8574 8.82543Z" stroke="#BC4CC6" stroke-width="0.911147" stroke-miterlimit="10"/>
<path d="M30.4688 8.84884C30.582 8.84107 30.6953 8.8346 30.8093 8.82812" stroke="#BC4CC6" stroke-width="0.911147" stroke-miterlimit="10"/>
<path d="M30.0547 8.88073L30.3576 8.85742" stroke="#BC4CC6" stroke-width="0.911147" stroke-miterlimit="10"/>
<path d="M31.7588 8.7962C31.8883 8.7962 32.0177 8.79513 32.1472 8.79297C32.0177 8.79297 31.8883 8.79405 31.7588 8.7962Z" stroke="#BC4CC6" stroke-width="0.911147" stroke-miterlimit="10"/>
<path d="M29.5801 8.92492C29.7096 8.91198 29.8377 8.89989 29.9646 8.88867C29.8364 8.89989 29.7083 8.91198 29.5801 8.92492Z" stroke="#BC4CC6" stroke-width="0.911147" stroke-miterlimit="10"/>
<path d="M31.3496 8.8066L31.6448 8.79883" stroke="#BC4CC6" stroke-width="0.911147" stroke-miterlimit="10"/>
<path d="M7.34082 32.0938C7.35032 31.9427 7.3611 31.7917 7.37319 31.6406C7.36154 31.7917 7.35075 31.9427 7.34082 32.0938Z" stroke="#BC4CC6" stroke-width="0.911147" stroke-miterlimit="10"/>
<path d="M27.4805 9.23075C27.6009 9.20831 27.7219 9.18673 27.8436 9.16602" stroke="#BC4CC6" stroke-width="0.911147" stroke-miterlimit="10"/>
<path d="M27.9336 9.14814C28.0391 9.13001 28.1446 9.11253 28.2508 9.0957C28.1446 9.11124 28.0391 9.13001 27.9336 9.14814Z" stroke="#BC4CC6" stroke-width="0.911147" stroke-miterlimit="10"/>
<path d="M25.8594 9.59726C26.1106 9.53209 26.3634 9.47037 26.6181 9.41211C26.3639 9.46951 26.111 9.53122 25.8594 9.59726Z" stroke="#BC4CC6" stroke-width="0.911147" stroke-miterlimit="10"/>
<path d="M28.7656 9.0219C28.8731 9.00766 28.9812 8.99342 29.0893 8.98047" stroke="#BC4CC6" stroke-width="0.911147" stroke-miterlimit="10"/>
<path d="M28.3203 9.08562C28.4498 9.0662 28.5793 9.04678 28.7048 9.0293C28.5767 9.04742 28.4485 9.0662 28.3203 9.08562Z" stroke="#BC4CC6" stroke-width="0.911147" stroke-miterlimit="10"/>
<path d="M29.1934 8.96725C29.3002 8.95495 29.4076 8.94265 29.517 8.93164" stroke="#BC4CC6" stroke-width="0.911147" stroke-miterlimit="10"/>
<path d="M40.4105 57.1016C40.2195 57.1663 40.0266 57.231 39.833 57.2958C40.0266 57.2343 40.2195 57.1695 40.4105 57.1016Z" stroke="#BC4CC6" stroke-width="0.911147" stroke-miterlimit="10"/>
<path d="M42.6538 56.1855C42.4712 56.2704 42.288 56.3539 42.1035 56.4341" stroke="#BC4CC6" stroke-width="0.911147" stroke-miterlimit="10"/>
<path d="M43.1974 55.9238C43.0181 56.0138 42.8369 56.1006 42.6543 56.186" stroke="#BC4CC6" stroke-width="0.911147" stroke-miterlimit="10"/>
<path d="M21.2022 11.3281C20.598 11.6259 20.0065 11.947 19.4277 12.2914H19.431C20.0071 11.947 20.5975 11.6259 21.2022 11.3281Z" stroke="#BC4CC6" stroke-width="0.911147" stroke-miterlimit="10"/>
<path d="M30.5567 58.4577C30.1346 58.4305 29.7153 58.3932 29.2988 58.3457C29.7127 58.3936 30.132 58.4309 30.5567 58.4577Z" stroke="#BC4CC6" stroke-width="0.911147" stroke-miterlimit="10"/>
<path d="M29.2957 58.3454C28.8792 58.2979 28.4662 58.2401 28.0566 58.1719C28.4666 58.2401 28.8797 58.2979 29.2957 58.3454Z" stroke="#BC4CC6" stroke-width="0.911147" stroke-miterlimit="10"/>
<path d="M32.1491 58.5075C31.6131 58.5075 31.081 58.4907 30.5527 58.457" stroke="#BC4CC6" stroke-width="0.911147" stroke-miterlimit="10"/>
<path d="M45.0394 54.9082C44.8667 55.0118 44.6941 55.1134 44.5215 55.2131C44.6958 55.1134 44.8685 55.0118 45.0394 54.9082Z" stroke="#BC4CC6" stroke-width="0.911147" stroke-miterlimit="10"/>
<path d="M28.0561 58.1719C27.8515 58.1382 27.647 58.102 27.4443 58.0625" stroke="#BC4CC6" stroke-width="0.911147" stroke-miterlimit="10"/>
<path d="M49.726 51.2266C49.6205 51.3327 49.513 51.4376 49.4023 51.5418" stroke="#BC4CC6" stroke-width="0.911147" stroke-miterlimit="10"/>
<path d="M50.5331 50.3809C50.3376 50.5966 50.1384 50.8079 49.9355 51.0146C50.1384 50.807 50.3376 50.5958 50.5331 50.3809Z" stroke="#BC4CC6" stroke-width="0.911147" stroke-miterlimit="10"/>
<path d="M48.9776 51.9453C48.8671 52.0476 48.7551 52.149 48.6416 52.2496C48.7555 52.149 48.8675 52.0476 48.9776 51.9453Z" stroke="#BC4CC6" stroke-width="0.911147" stroke-miterlimit="10"/>
<path d="M48.642 52.248C48.3442 52.5122 48.0403 52.7692 47.7305 53.0191C48.0408 52.7692 48.3446 52.5122 48.642 52.248Z" stroke="#BC4CC6" stroke-width="0.911147" stroke-miterlimit="10"/>
<path d="M46.7824 53.7461C46.621 53.8631 46.4585 53.9785 46.2949 54.0924C46.4589 53.9785 46.6214 53.8631 46.7824 53.7461Z" stroke="#BC4CC6" stroke-width="0.911147" stroke-miterlimit="10"/>
<path d="M46.0476 54.2617C45.7166 54.4848 45.3804 54.7006 45.0391 54.9091C45.3809 54.7011 45.717 54.4853 46.0476 54.2617Z" stroke="#BC4CC6" stroke-width="0.911147" stroke-miterlimit="10"/>
<path d="M22.1965 56.4356C21.6423 56.1935 21.099 55.9318 20.5664 55.6504C21.0981 55.9305 21.6414 56.1922 22.1965 56.4356Z" stroke="#BC4CC6" stroke-width="0.911147" stroke-miterlimit="10"/>
<path d="M12.9691 49.4613C12.5888 49.0013 12.2255 48.5265 11.8789 48.0371" stroke="#BC4CC6" stroke-width="0.911147" stroke-miterlimit="10"/>
<path d="M18.005 54.0927C17.0232 53.4119 16.0914 52.6616 15.2168 51.8477" stroke="#BC4CC6" stroke-width="0.911147" stroke-miterlimit="10"/>
<path d="M19.2605 54.9091C18.9187 54.7011 18.5825 54.4853 18.252 54.2617C18.5825 54.4857 18.9187 54.7015 19.2605 54.9091Z" stroke="#BC4CC6" stroke-width="0.911147" stroke-miterlimit="10"/>
<path d="M11.8787 48.0379C11.59 47.6322 11.3134 47.2172 11.0488 46.793C11.313 47.2163 11.5896 47.6313 11.8787 48.0379Z" stroke="#BC4CC6" stroke-width="0.911147" stroke-miterlimit="10"/>
<path d="M19.7777 55.2131C19.605 55.1134 19.4324 55.0118 19.2598 54.9082C19.4315 55.0118 19.6042 55.1134 19.7777 55.2131Z" stroke="#BC4CC6" stroke-width="0.911147" stroke-miterlimit="10"/>
<path d="M7.29883 33.0932C7.30228 32.9438 7.30681 32.7943 7.31242 32.6445C7.30638 32.7956 7.30185 32.9451 7.29883 33.0932Z" stroke="#BC4CC6" stroke-width="0.911147" stroke-miterlimit="10"/>
<path d="M7.31641 32.5731C7.32245 32.4333 7.32957 32.2937 7.33777 32.1543" stroke="#BC4CC6" stroke-width="0.911147" stroke-miterlimit="10"/>
<path d="M24.4662 57.2958C24.2719 57.231 24.0777 57.1663 23.8887 57.1016C24.0822 57.1682 24.2765 57.233 24.4662 57.2958Z" stroke="#BC4CC6" stroke-width="0.911147" stroke-miterlimit="10"/>
<path d="M23.3184 56.892C23.1294 56.8203 22.9412 56.7463 22.7539 56.6699C22.9408 56.7463 23.1289 56.8203 23.3184 56.892Z" stroke="#BC4CC6" stroke-width="0.911147" stroke-miterlimit="10"/>
<path d="M25.9376 57.7248C25.4409 57.5953 24.9506 57.4527 24.4668 57.2969C24.951 57.4561 25.4413 57.5988 25.9376 57.7248Z" stroke="#BC4CC6" stroke-width="0.911147" stroke-miterlimit="10"/>
<path d="M20.5665 55.6499C20.3002 55.51 20.0372 55.365 19.7773 55.2148C20.0376 55.365 20.3006 55.51 20.5665 55.6499Z" stroke="#BC4CC6" stroke-width="0.911147" stroke-miterlimit="10"/>
<path d="M27.445 58.0617C27.0384 57.984 26.6355 57.8964 26.2363 57.7988C26.636 57.8968 27.0389 57.9844 27.445 58.0617Z" stroke="#BC4CC6" stroke-width="0.911147" stroke-miterlimit="10"/>
<path d="M22.7547 56.6699C22.5682 56.5935 22.3818 56.5145 22.1973 56.4336" stroke="#BC4CC6" stroke-width="0.911147" stroke-miterlimit="10"/>
<path d="M26.6914 9.39413C26.798 9.37039 26.9048 9.34709 27.0119 9.32422C26.9053 9.34709 26.7984 9.37039 26.6914 9.39413Z" stroke="#BC4CC6" stroke-width="0.911147" stroke-miterlimit="10"/>
<path d="M13.1602 49.6895C13.7378 50.3736 14.352 51.026 15 51.6439" stroke="#BC4CC6" stroke-width="0.911147" stroke-miterlimit="10"/>
<path d="M7.293 33.6484C7.293 33.4944 7.29752 33.3409 7.29752 33.1875C7.29493 33.3409 7.293 33.4944 7.293 33.6484ZM7.293 33.6484C7.28574 38.2946 8.58698 42.849 11.0477 46.79" stroke="#BC4CC6" stroke-width="0.911147" stroke-miterlimit="10"/>
<path d="M8.56802 25.7715C8.46574 26.077 8.3695 26.385 8.2793 26.6953C8.3695 26.385 8.46554 26.0773 8.56739 25.7721L8.56802 25.7715Z" stroke="#BC4CC6" stroke-width="0.911147" stroke-miterlimit="10"/>
<path d="M8.56864 25.7673C8.6269 25.5919 8.68774 25.4171 8.74989 25.2429L8.75377 25.2326C8.81851 25.0591 8.88325 24.8869 8.94798 24.7147V24.7089C9.28057 23.8466 9.6614 23.0036 10.0887 22.1841L10.0925 22.1763C10.1789 22.0149 10.2652 21.8544 10.3515 21.6947L10.3554 21.6882C10.7974 20.885 11.2837 20.107 11.812 19.3577V19.3545C11.9168 19.2056 12.0223 19.0586 12.1305 18.913L12.1356 18.9059C12.7866 18.0235 13.495 17.1851 14.2564 16.396L14.2609 16.3915C15.0228 15.6023 15.8358 14.864 16.6944 14.1814C16.8372 14.0674 16.9816 13.9554 17.1275 13.8454C17.8589 13.2904 18.6203 12.7761 19.4082 12.3046L19.4211 12.2969C16.7985 13.6994 14.4853 15.6158 12.6195 17.9318C10.7537 20.2479 9.37365 22.916 8.56152 25.777V25.7738L8.56864 25.7673Z" stroke="#BC4CC6" stroke-width="0.911147" stroke-miterlimit="10"/>
<path d="M10.0938 22.175C10.1801 22.0136 10.2664 21.853 10.3527 21.6934C10.2647 21.8535 10.1783 22.014 10.0938 22.175Z" stroke="#BC4CC6" stroke-width="0.911147" stroke-miterlimit="10"/>
<path d="M19.4308 12.2891H19.4276L19.415 12.2966L19.4308 12.2891Z" stroke="#BC4CC6" stroke-width="0.911147" stroke-miterlimit="10"/>
<path d="M16.7031 14.1778C16.846 14.0638 16.9903 13.9518 17.1362 13.8418C16.9886 13.9518 16.8443 14.0638 16.7031 14.1778Z" stroke="#BC4CC6" stroke-width="0.911147" stroke-miterlimit="10"/>
<path d="M11.8145 19.3517C11.9193 19.2028 12.0248 19.0558 12.133 18.9102" stroke="#BC4CC6" stroke-width="0.911147" stroke-miterlimit="10"/>
<path d="M16.6971 14.1777C15.8385 14.8604 15.0256 15.5987 14.2637 16.3878" stroke="#BC4CC6" stroke-width="0.911147" stroke-miterlimit="10"/>
<path d="M10.3584 21.6879C10.8004 20.8847 11.2867 20.1067 11.815 19.3574" stroke="#BC4CC6" stroke-width="0.911147" stroke-miterlimit="10"/>
<path d="M17.1328 13.8376C17.8643 13.2827 18.6256 12.7683 19.4135 12.2969" stroke="#BC4CC6" stroke-width="0.911147" stroke-miterlimit="10"/>
<path d="M12.1387 18.9044C12.7896 18.022 13.4981 17.1836 14.2594 16.3945" stroke="#BC4CC6" stroke-width="0.911147" stroke-miterlimit="10"/>
<path d="M8.94922 24.7103C9.2818 23.848 9.66263 23.0051 10.0899 22.1855" stroke="#BC4CC6" stroke-width="0.911147" stroke-miterlimit="10"/>
<path d="M8.75391 25.2327C8.81864 25.0592 8.88338 24.887 8.94812 24.7148C8.88079 24.8877 8.81605 25.0599 8.75391 25.2327Z" stroke="#BC4CC6" stroke-width="0.911147" stroke-miterlimit="10"/>
<path d="M8.56934 25.7666C8.6276 25.5911 8.68847 25.4163 8.75062 25.2422" stroke="#BC4CC6" stroke-width="0.911147" stroke-miterlimit="10"/>
<path d="M8.56836 25.7676V25.7712" stroke="#BC4CC6" stroke-width="0.911147" stroke-miterlimit="10"/>
<path d="M8.01953 27.6593V27.6504" stroke="#BC4CC6" stroke-width="1.01239" stroke-miterlimit="10"/>
<path d="M7.90234 28.1535C7.90234 28.1444 7.90688 28.136 7.90882 28.127C7.90688 28.136 7.90493 28.1444 7.90234 28.1535Z" fill="white" stroke="#BC4CC6" stroke-width="1.01239" stroke-miterlimit="10"/>
<path d="M23.4473 10.3593L23.4835 10.3457" stroke="#BC4CC6" stroke-width="1.01239" stroke-miterlimit="10"/>
<path d="M8.27441 26.7128C8.27441 26.707 8.27766 26.7011 8.2796 26.6953L8.27441 26.7128Z" fill="white" stroke="#BC4CC6" stroke-width="1.01239" stroke-miterlimit="10"/>
<path d="M21.2021 11.3282L21.2095 11.3242" stroke="#BC4CC6" stroke-width="1.01239" stroke-miterlimit="10"/>
<path d="M22.3105 10.8164L22.3332 10.8066" stroke="#BC4CC6" stroke-width="1.01239" stroke-miterlimit="10"/>
<path d="M28.25 9.09694L28.3199 9.08594" stroke="#BC4CC6" stroke-width="1.01239" stroke-miterlimit="10"/>
<path d="M27.4668 9.23438H27.4794" stroke="#BC4CC6" stroke-width="1.01239" stroke-miterlimit="10"/>
<path d="M28.7051 9.0299L28.7659 9.02148" stroke="#BC4CC6" stroke-width="1.01239" stroke-miterlimit="10"/>
<path d="M29.0889 8.98365L29.1931 8.9707" stroke="#BC4CC6" stroke-width="1.01239" stroke-miterlimit="10"/>
<path d="M27.0117 9.32479L27.0797 9.31055" stroke="#BC4CC6" stroke-width="1.01239" stroke-miterlimit="10"/>
<path d="M29.5146 8.93095L29.5794 8.92383" stroke="#BC4CC6" stroke-width="1.01239" stroke-miterlimit="10"/>
<path d="M26.6172 9.41072L26.691 9.39453" stroke="#BC4CC6" stroke-width="1.01239" stroke-miterlimit="10"/>
<path d="M25.416 9.71477L25.4652 9.70117" stroke="#BC4CC6" stroke-width="1.01239" stroke-miterlimit="10"/>
<path d="M24.6094 9.95694L24.6586 9.94141" stroke="#BC4CC6" stroke-width="1.01239" stroke-miterlimit="10"/>
<path d="M25.7988 9.61189L25.859 9.5957" stroke="#BC4CC6" stroke-width="1.01239" stroke-miterlimit="10"/>
<path d="M24.2383 10.0781L24.2571 10.0723" stroke="#BC4CC6" stroke-width="1.01239" stroke-miterlimit="10"/>
<path d="M7.70508 29.1345C7.70508 29.1183 7.7109 29.1021 7.71349 29.0859C7.70895 29.1021 7.70508 29.1157 7.70508 29.1345Z" fill="white" stroke="#BC4CC6" stroke-width="1.01239" stroke-miterlimit="10"/>
<path d="M37.1596 58.002C36.957 58.0434 36.7537 58.0829 36.5498 58.1191" stroke="#BC4CC6" stroke-width="1.01239" stroke-miterlimit="10"/>
<path d="M29.9648 8.88863L30.0542 8.88086" stroke="#BC4CC6" stroke-width="1.01239" stroke-miterlimit="10"/>
<path d="M49.4055 51.541C49.2643 51.677 49.1217 51.8112 48.9775 51.9437C49.1221 51.8108 49.2648 51.6765 49.4055 51.541Z" fill="white" stroke="#BC4CC6" stroke-width="1.01239" stroke-miterlimit="10"/>
<path d="M35.6262 58.2656C35.3168 58.3088 35.0052 58.3463 34.6914 58.3783C35.0047 58.3468 35.3163 58.3092 35.6262 58.2656Z" fill="white" stroke="#BC4CC6" stroke-width="1.01239" stroke-miterlimit="10"/>
<path d="M51.5204 49.2285C51.2705 49.5384 51.0137 49.8422 50.75 50.14C51.0124 49.8422 51.2692 49.5384 51.5204 49.2285Z" fill="white" stroke="#BC4CC6" stroke-width="1.01239" stroke-miterlimit="10"/>
<path d="M52.0685 48.5215C51.8898 48.761 51.7068 48.9969 51.5195 49.2291C51.7068 48.9964 51.8898 48.7606 52.0685 48.5215Z" fill="white" stroke="#BC4CC6" stroke-width="1.01239" stroke-miterlimit="10"/>
<path d="M34.6911 58.377C34.4826 58.3981 34.2731 58.4169 34.0625 58.4333C34.2714 58.4182 34.4809 58.3994 34.6911 58.377Z" fill="white" stroke="#BC4CC6" stroke-width="1.01239" stroke-miterlimit="10"/>
<path d="M52.0684 18.7773C55.2753 23.0726 57.008 28.2893 57.008 33.6496C57.008 39.01 55.2753 44.2267 52.0684 48.5219" stroke="#BC4CC6" stroke-width="1.01239" stroke-miterlimit="10"/>
<path d="M50.7488 50.1406L50.5332 50.3801" stroke="#BC4CC6" stroke-width="1.01239" stroke-miterlimit="10"/>
<path d="M36.5499 58.1172C36.346 58.1534 36.1414 58.1877 35.9355 58.2188C36.1414 58.1884 36.346 58.1541 36.5499 58.1172Z" fill="white" stroke="#BC4CC6" stroke-width="1.01239" stroke-miterlimit="10"/>
<path d="M34.0635 58.4355C33.8531 58.4511 33.6414 58.4647 33.4297 58.4757" stroke="#BC4CC6" stroke-width="1.01239" stroke-miterlimit="10"/>
<path d="M7.54297 30.1137C7.54297 30.0994 7.54751 30.0846 7.54945 30.0703C7.54751 30.0865 7.54491 30.0994 7.54297 30.1137Z" fill="white" stroke="#BC4CC6" stroke-width="1.01239" stroke-miterlimit="10"/>
<path d="M7.61914 29.6134V29.5996" stroke="#BC4CC6" stroke-width="1.01239" stroke-miterlimit="10"/>
<path d="M7.37305 31.6408C7.37305 31.613 7.3776 31.5851 7.38019 31.5566C7.38084 31.5864 7.37564 31.6143 7.37305 31.6408Z" fill="white" stroke="#BC4CC6" stroke-width="1.01239" stroke-miterlimit="10"/>
<path d="M7.47461 30.637C7.47461 30.6143 7.47978 30.5917 7.48302 30.5723C7.47978 30.5917 7.4772 30.6143 7.47461 30.637Z" fill="white" stroke="#BC4CC6" stroke-width="1.01239" stroke-miterlimit="10"/>
<path d="M32.1504 58.507C32.5798 58.507 33.0062 58.4962 33.4296 58.4746C33.0062 58.4958 32.5798 58.5065 32.1504 58.507Z" fill="white" stroke="#BC4CC6" stroke-width="1.01239" stroke-miterlimit="10"/>
<path d="M7.33789 32.1546C7.33789 32.1339 7.33788 32.1138 7.34111 32.0938C7.34047 32.1138 7.33919 32.1339 7.33789 32.1546Z" fill="white" stroke="#BC4CC6" stroke-width="1.01239" stroke-miterlimit="10"/>
<path d="M7.29688 33.1896V33.0938" stroke="#BC4CC6" stroke-width="1.01239" stroke-miterlimit="10"/>
<path d="M7.31641 32.6454C7.31641 32.6221 7.31639 32.5982 7.31963 32.5742" stroke="#BC4CC6" stroke-width="1.01239" stroke-miterlimit="10"/>
<path d="M27.8428 9.16397L27.9334 9.14844" stroke="#BC4CC6" stroke-width="1.01239" stroke-miterlimit="10"/>
<path d="M50.3477 16.7168C50.4832 16.8627 50.6169 17.0098 50.749 17.1583C50.6169 17.0094 50.4832 16.8622 50.3477 16.7168Z" fill="white" stroke="#BC4CC6" stroke-width="1.01239" stroke-miterlimit="10"/>
<path d="M31.2441 8.80859H31.3503" stroke="#BC4CC6" stroke-width="1.01239" stroke-miterlimit="10"/>
<path d="M45.7988 12.8711C46.0487 13.0355 46.2956 13.2045 46.5394 13.378C46.296 13.2045 46.0491 13.0355 45.7988 12.8711Z" fill="white" stroke="#BC4CC6" stroke-width="1.01239" stroke-miterlimit="10"/>
<path d="M31.6455 8.79883H31.7595" stroke="#BC4CC6" stroke-width="1.01239" stroke-miterlimit="10"/>
<path d="M50.749 17.1582C51.0123 17.4551 51.2691 17.7587 51.5194 18.069C51.2682 17.7596 51.0114 17.456 50.749 17.1582Z" fill="white" stroke="#BC4CC6" stroke-width="1.01239" stroke-miterlimit="10"/>
<path d="M51.5195 18.0703C51.7068 18.3034 51.8898 18.5394 52.0685 18.7785C51.8898 18.539 51.7068 18.3029 51.5195 18.0703Z" fill="white" stroke="#BC4CC6" stroke-width="1.01239" stroke-miterlimit="10"/>
<path d="M45.2952 12.5497C41.3532 10.0883 36.7977 8.78709 32.1504 8.79496" stroke="#BC4CC6" stroke-width="1.01239" stroke-miterlimit="10"/>
<path d="M50.1436 16.4995C49.4572 15.78 48.7287 15.1018 47.9619 14.4688" stroke="#BC4CC6" stroke-width="1.01239" stroke-miterlimit="10"/>
<path d="M46.54 13.3789C47.0273 13.7242 47.502 14.0876 47.9642 14.4691C47.502 14.0893 47.0273 13.7259 46.54 13.3789Z" fill="white" stroke="#BC4CC6" stroke-width="1.01239" stroke-miterlimit="10"/>
<path d="M30.8096 8.82812H30.8575" stroke="#BC4CC6" stroke-width="1.01239" stroke-miterlimit="10"/>
<path d="M30.3574 8.85738L30.4694 8.84961" stroke="#BC4CC6" stroke-width="1.01239" stroke-miterlimit="10"/>
<path d="M52.0681 18.7774C51.8894 18.5378 51.7064 18.3018 51.5191 18.0691C51.2692 17.7597 51.0125 17.4561 50.7488 17.1583C50.6167 17.0094 50.4829 16.8622 50.3474 16.7168C50.2794 16.6436 50.2115 16.5718 50.1428 16.4993C49.4565 15.7797 48.728 15.1016 47.9612 14.4685C47.5003 14.0883 47.0255 13.7249 46.537 13.3783C46.2936 13.2057 46.0467 13.0367 45.7964 12.8714C45.6294 12.7618 45.4613 12.6539 45.2921 12.5477C41.3501 10.0864 36.7946 8.78513 32.1473 8.793C32.0178 8.793 31.8884 8.79408 31.7589 8.79624H31.6449L31.3497 8.80401H31.2436C31.1141 8.80919 30.9846 8.81437 30.8552 8.82084H30.8072C30.6933 8.82731 30.58 8.83379 30.4667 8.84156L30.3548 8.84932L30.0518 8.87263L29.9624 8.8804C29.833 8.89162 29.7048 8.9037 29.5779 8.91665L29.5132 8.92377C29.4057 8.93478 29.2982 8.94708 29.1895 8.95938L29.0852 8.97233C28.9778 8.98527 28.8697 8.99951 28.7616 9.01375L28.7007 9.02217C28.5712 9.03965 28.4418 9.05907 28.3162 9.07849L28.2463 9.0895C28.1401 9.10633 28.0346 9.12381 27.9291 9.14194L27.8384 9.15747C27.7167 9.17905 27.5957 9.20063 27.4753 9.22221H27.4623C27.3328 9.24681 27.2034 9.27249 27.0739 9.29925L27.0059 9.31349C26.8993 9.33636 26.7925 9.35967 26.6855 9.3834L26.6117 9.39959C26.3575 9.45699 26.1046 9.5187 25.853 9.58473L25.7927 9.60092C25.6814 9.62983 25.5703 9.65983 25.4594 9.6909L25.4101 9.7045C25.1564 9.77571 24.9041 9.85102 24.6534 9.93043L24.6042 9.94597C24.4864 9.98351 24.3687 10.0219 24.2514 10.0612L24.2326 10.067C23.9797 10.1533 23.7281 10.2425 23.4778 10.3344L23.4415 10.348C23.0652 10.4882 22.6938 10.6374 22.3274 10.7953L22.3047 10.805C21.9331 10.9656 21.5663 11.1347 21.2042 11.3126L21.1971 11.3164C20.5929 11.6134 20.0025 11.9338 19.4259 12.2778C21.4876 11.1761 23.7122 10.4111 26.0154 10.012L26.0472 10.0062C26.1456 9.98934 26.244 9.97315 26.3424 9.95762L26.3812 9.95115C26.6013 9.91684 26.822 9.88641 27.0447 9.85728H27.0519C27.1548 9.84433 27.2577 9.83203 27.3607 9.82102L27.4345 9.81261L27.6837 9.78736L27.7692 9.77959C27.8553 9.77118 27.942 9.76406 28.0281 9.75694L28.0929 9.75176C28.2016 9.74334 28.3104 9.73557 28.4198 9.72845H28.4495C28.546 9.72198 28.6437 9.7168 28.7396 9.71227L28.8393 9.70773C28.9144 9.70773 28.9888 9.70126 29.0639 9.69932L29.1752 9.69543L29.4018 9.69025H29.5022C29.6096 9.69025 29.7177 9.69025 29.8259 9.69025C30.0168 9.69025 30.2065 9.69025 30.3962 9.69737C30.6806 9.70428 30.9635 9.7168 31.2449 9.73492C31.4326 9.74744 31.6195 9.76168 31.8055 9.77765L32.0845 9.80419C32.2705 9.82275 32.4557 9.84433 32.6399 9.86893L32.9157 9.90583C33.1911 9.94467 33.4647 9.98783 33.7366 10.0353C34.3719 10.1488 34.9977 10.2889 35.6139 10.4554C35.8772 10.5267 36.1386 10.6026 36.3979 10.6833C45.3912 13.4806 51.9211 21.8692 51.9211 31.783C51.9211 41.6968 45.3912 50.0847 36.3979 52.882C36.139 52.9631 35.8776 53.0391 35.6139 53.1098C34.999 53.2764 34.3732 53.4165 33.7366 53.53C33.4647 53.5787 33.1911 53.6219 32.9157 53.6595L32.6399 53.6964C32.4552 53.7197 32.2701 53.7412 32.0845 53.7611C31.9919 53.7708 31.8987 53.7792 31.8055 53.7876C31.6199 53.8045 31.4331 53.8187 31.2449 53.8304C30.9631 53.8485 30.6801 53.861 30.3962 53.8679C30.2065 53.8731 30.0168 53.875 29.8259 53.875C29.6349 53.875 29.4452 53.875 29.2555 53.8679C28.9715 53.8606 28.6889 53.8481 28.4075 53.8304C28.1261 53.8127 27.8456 53.7896 27.5659 53.7611C27.2875 53.7326 27.0107 53.6992 26.7353 53.6608C26.46 53.6223 26.1861 53.5792 25.9138 53.5313C15.5779 51.685 7.73248 42.651 7.73248 31.7843V31.781C7.73248 31.6651 7.73248 31.5499 7.73248 31.4347V31.3337C7.73248 31.2437 7.73701 31.1544 7.7396 31.065C7.7396 31.0353 7.7396 31.0055 7.7396 30.9757C7.74413 30.8598 7.74867 30.7439 7.75515 30.6281C7.75515 30.6125 7.75515 30.5963 7.75515 30.5808C7.76033 30.4792 7.76679 30.3775 7.77326 30.2765C7.77326 30.2461 7.7778 30.2157 7.77974 30.1859C7.78686 30.0862 7.79462 29.9865 7.80304 29.8875C7.80304 29.8706 7.80306 29.8538 7.80759 29.8363C7.81795 29.7185 7.82895 29.6 7.84125 29.4822C7.84125 29.4654 7.84514 29.4486 7.84644 29.4317C7.85744 29.3294 7.8691 29.2278 7.8814 29.1262L7.88914 29.0614C7.91849 28.8241 7.95152 28.5867 7.98821 28.3493C7.98821 28.3357 7.99275 28.3228 7.99469 28.3092C8.01217 28.1998 8.02963 28.091 8.04906 27.9855L8.05487 27.9518C8.0963 27.7117 8.14292 27.4728 8.19212 27.2352L8.19794 27.2087C8.2739 26.8479 8.35871 26.4907 8.45236 26.1373L8.45625 26.1224C8.48689 26.0059 8.5184 25.8898 8.55077 25.7741C8.44934 26.0788 8.35331 26.3865 8.26267 26.6972C8.26267 26.7031 8.25943 26.7089 8.25749 26.7147C8.16729 27.0255 8.08314 27.3384 8.00502 27.6534V27.6618C7.96683 27.8172 7.92928 27.9732 7.89433 28.1299C7.89433 28.1389 7.89044 28.1473 7.88785 28.1564C7.81836 28.465 7.75363 28.7757 7.69364 29.0886C7.69364 29.1048 7.68782 29.121 7.68523 29.1372C7.65674 29.2919 7.62957 29.4466 7.60367 29.6026V29.6169C7.57907 29.7684 7.55576 29.9194 7.53375 30.07C7.53375 30.0843 7.52922 30.0992 7.52727 30.1134C7.50591 30.2649 7.48583 30.4164 7.46706 30.5666C7.46706 30.5892 7.46124 30.6119 7.45865 30.6313C7.42196 30.9364 7.39066 31.2431 7.36477 31.5512C7.36477 31.5797 7.36025 31.6075 7.35766 31.6354C7.346 31.7856 7.33521 31.9366 7.32529 32.0885C7.32529 32.1086 7.3253 32.1287 7.32206 32.1494C7.31386 32.2888 7.30674 32.4284 7.3007 32.5682C7.3007 32.5922 7.30071 32.6161 7.29747 32.6394C7.29143 32.7888 7.28687 32.9383 7.28385 33.0881V33.1839C7.28385 33.3373 7.27933 33.4907 7.27933 33.6448C7.27207 38.291 8.5733 42.8453 11.0341 46.7864C11.2982 47.2097 11.5748 47.6247 11.864 48.0312C12.2092 48.5189 12.5726 48.9937 12.9542 49.4554C13.0189 49.5325 13.0836 49.6089 13.1484 49.6846C13.7296 50.3708 14.3477 51.025 14.9998 51.6442C15.0717 51.7128 15.1435 51.7808 15.2167 51.8488C16.0913 52.6627 17.0231 53.413 18.0049 54.0938C18.0865 54.1508 18.1687 54.2071 18.2516 54.2628C18.5822 54.4859 18.9183 54.7017 19.2601 54.9102C19.4328 55.0137 19.6054 55.1154 19.778 55.2151C20.037 55.3653 20.3001 55.5103 20.5672 55.6501C21.0993 55.9311 21.6427 56.1928 22.1973 56.4354C22.3818 56.5163 22.5682 56.5953 22.7547 56.6717C22.9411 56.748 23.1301 56.8218 23.3192 56.8937C23.5082 56.9656 23.6991 57.0355 23.8901 57.1028C24.0811 57.1701 24.2747 57.2323 24.4676 57.297C24.9518 57.4541 25.4421 57.5967 25.9384 57.7249C26.0381 57.7502 26.1371 57.7754 26.2368 57.7994C26.6365 57.8973 27.0394 57.9849 27.4455 58.0622C27.6481 58.1017 27.8527 58.1379 28.0572 58.1716C28.4668 58.2398 28.8798 58.2976 29.2963 58.3451C29.7128 58.3926 30.1321 58.4299 30.5541 58.4571C31.0824 58.4899 31.6145 58.5067 32.1505 58.5076C32.58 58.5076 33.0064 58.4968 33.4297 58.4752C33.6414 58.4642 33.8531 58.4506 34.0635 58.4351C34.2739 58.4195 34.4837 58.4001 34.6921 58.3788C35.0054 58.3468 35.317 58.3093 35.6269 58.2661C35.7305 58.2519 35.8334 58.2363 35.9363 58.2208C36.1422 58.1897 36.3468 58.1561 36.5507 58.1192C36.7546 58.0823 36.9579 58.0434 37.1605 58.002C38.0641 57.8174 38.9565 57.5821 39.8335 57.297C40.0277 57.2323 40.2219 57.1675 40.4109 57.1028C40.9849 56.9008 41.5495 56.6783 42.1045 56.4354C42.289 56.3551 42.4722 56.2716 42.6547 56.1868C42.8373 56.102 43.0185 56.0146 43.1979 55.9246C43.6476 55.7015 44.0895 55.4641 44.5237 55.2125C44.6963 55.1128 44.8689 55.0112 45.0416 54.9076C45.3834 54.6996 45.7196 54.4838 46.0502 54.2602C46.1322 54.2045 46.2144 54.1482 46.2968 54.0913C46.4608 53.9773 46.6233 53.8619 46.7843 53.7449C47.1058 53.5097 47.4217 53.2674 47.732 53.0179C48.0423 52.7685 48.3462 52.5115 48.6435 52.2469C48.757 52.1468 48.869 52.0453 48.9795 51.9426C49.1236 51.8097 49.2663 51.6755 49.4074 51.54C49.5155 51.4357 49.623 51.3309 49.7311 51.2247C49.8017 51.1548 49.8716 51.0836 49.9408 51.013C50.1437 50.805 50.3429 50.5937 50.5384 50.3792L50.7539 50.1397C51.0172 49.8419 51.274 49.5381 51.5243 49.2282C51.7116 48.9956 51.8946 48.7597 52.0733 48.5206C55.2802 44.2254 57.0128 39.0087 57.0128 33.6484C57.0128 28.288 55.2802 23.0713 52.0733 18.7761L52.0681 18.7774Z" fill="white" stroke="#BC4CC6" stroke-width="1.01239" stroke-miterlimit="10"/>
<path d="M8.56943 25.7676H8.56836H8.56943Z" fill="white" stroke="#BC4CC6" stroke-width="1.01239" stroke-miterlimit="10"/>
<path d="M19.4154 12.2988L19.4141 12.3002L19.4154 12.2988Z" fill="white" stroke="#BC4CC6" stroke-width="1.01239" stroke-miterlimit="10"/>
<path d="M28.0967 9.75963C28.2054 9.75122 28.3142 9.74345 28.4236 9.73633C28.3161 9.74345 28.2074 9.75122 28.0967 9.75963Z" fill="white" stroke="#BC4CC6" stroke-width="1.01239" stroke-miterlimit="10"/>
<path d="M28.4551 9.73493C28.5515 9.72846 28.6493 9.72328 28.7451 9.71875C28.648 9.72328 28.5496 9.72846 28.4551 9.73493Z" fill="white" stroke="#BC4CC6" stroke-width="1.01239" stroke-miterlimit="10"/>
<path d="M8.56912 25.7682V25.7721C8.53675 25.8878 8.50525 26.0039 8.47461 26.1204C8.50568 26.0026 8.53762 25.885 8.57042 25.7676L8.56912 25.7682Z" fill="white" stroke="#BC4CC6" stroke-width="1.01239" stroke-miterlimit="10"/>
<path d="M8.21484 27.2062C8.2908 26.8454 8.37562 26.4882 8.46927 26.1348C8.37519 26.4882 8.29037 26.8454 8.21484 27.2062Z" fill="white" stroke="#BC4CC6" stroke-width="1.01239" stroke-miterlimit="10"/>
<path d="M7.79688 30.1871C7.804 30.0874 7.81176 29.9877 7.82017 29.8887" stroke="#BC4CC6" stroke-width="1.01239" stroke-miterlimit="10"/>
<path d="M27.4395 9.82017L27.6887 9.79492" stroke="#BC4CC6" stroke-width="1.01239" stroke-miterlimit="10"/>
<path d="M29.5078 9.69531C29.6153 9.69531 29.7234 9.69531 29.8315 9.69531" stroke="#BC4CC6" stroke-width="1.01239" stroke-miterlimit="10"/>
<path d="M27.7734 9.78633C27.8595 9.77791 27.9463 9.77079 28.0324 9.76367C27.9476 9.77079 27.8608 9.77791 27.7734 9.78633Z" fill="white" stroke="#BC4CC6" stroke-width="1.01239" stroke-miterlimit="10"/>
<path d="M27.0566 9.86633C27.1596 9.85338 27.2625 9.84108 27.3654 9.83008" stroke="#BC4CC6" stroke-width="1.01239" stroke-miterlimit="10"/>
<path d="M26.3867 9.9591C26.6068 9.92479 26.8276 9.89437 27.0503 9.86523C26.8276 9.89307 26.6081 9.92479 26.3867 9.9591Z" fill="white" stroke="#BC4CC6" stroke-width="1.01239" stroke-miterlimit="10"/>
<path d="M19.4141 12.2983C21.48 11.1896 23.7105 10.4196 26.0205 10.0176C23.7172 10.4167 21.4926 11.1816 19.4309 12.2834L19.4147 12.2931L19.4141 12.2983Z" fill="white" stroke="#BC4CC6" stroke-width="1.01239" stroke-miterlimit="10"/>
<path d="M26.0527 10.0134C26.1511 9.99656 26.2495 9.98038 26.3479 9.96484" stroke="#BC4CC6" stroke-width="1.01239" stroke-miterlimit="10"/>
<path d="M7.75391 30.9765C7.75844 30.8607 7.76298 30.7448 7.76946 30.6289C7.76298 30.7448 7.75844 30.8639 7.75391 30.9765Z" fill="white" stroke="#BC4CC6" stroke-width="1.01239" stroke-miterlimit="10"/>
<path d="M7.82422 29.8365C7.83458 29.7187 7.84558 29.6002 7.85788 29.4824C7.84558 29.6002 7.83393 29.7187 7.82422 29.8365Z" fill="white" stroke="#BC4CC6" stroke-width="1.01239" stroke-miterlimit="10"/>
<path d="M28.8447 9.71349C28.9198 9.71349 28.9943 9.70702 29.0693 9.70508C28.9943 9.70702 28.9198 9.71026 28.8447 9.71349Z" fill="white" stroke="#BC4CC6" stroke-width="1.01239" stroke-miterlimit="10"/>
<path d="M8.01172 28.31C8.0292 28.2006 8.04667 28.0918 8.06609 27.9863C8.04667 28.0918 8.02855 28.2006 8.01172 28.31Z" fill="white" stroke="#BC4CC6" stroke-width="1.01239" stroke-miterlimit="10"/>
<path d="M7.74414 31.3351C7.74414 31.2451 7.74869 31.1557 7.75128 31.0664C7.74869 31.1557 7.74608 31.2451 7.74414 31.3351Z" fill="white" stroke="#BC4CC6" stroke-width="1.01239" stroke-miterlimit="10"/>
<path d="M7.90625 29.0598C7.93603 28.8222 7.971 28.5859 8.00531 28.3477C7.96863 28.585 7.9356 28.8224 7.90625 29.0598Z" fill="white" stroke="#BC4CC6" stroke-width="1.01239" stroke-miterlimit="10"/>
<path d="M29.1807 9.70244L29.4072 9.69727" stroke="#BC4CC6" stroke-width="1.01239" stroke-miterlimit="10"/>
<path d="M7.73926 31.7819C7.73926 31.666 7.73926 31.5508 7.73926 31.4355C7.73991 31.5508 7.73926 31.666 7.73926 31.7819Z" fill="white" stroke="#BC4CC6" stroke-width="1.01239" stroke-miterlimit="10"/>
<path d="M7.76953 30.5816C7.77471 30.48 7.78117 30.3783 7.78764 30.2773C7.78376 30.3783 7.7773 30.48 7.76953 30.5816Z" fill="white" stroke="#BC4CC6" stroke-width="1.01239" stroke-miterlimit="10"/>
<path d="M7.86328 29.4325C7.87429 29.3302 7.88594 29.2286 7.89824 29.127" stroke="#BC4CC6" stroke-width="1.01239" stroke-miterlimit="10"/>
<path d="M8.07129 27.951C8.11445 27.7106 8.1602 27.4717 8.20854 27.2344C8.1574 27.4707 8.11272 27.7095 8.07129 27.951Z" fill="white" stroke="#BC4CC6" stroke-width="1.01239" stroke-miterlimit="10"/>
<path d="M31.25 9.73633C31.4377 9.74884 31.6246 9.76308 31.8106 9.77905C31.625 9.76265 31.4382 9.74841 31.25 9.73633Z" stroke="#BC4CC6" stroke-width="0.911147" stroke-miterlimit="10"/>
<path d="M51.9246 31.7852C51.9246 41.6983 45.3946 50.0869 36.4014 52.8842M51.9246 31.7852C51.9246 21.8721 45.3946 13.4828 36.4014 10.6855C45.3946 13.4828 51.9246 21.8714 51.9246 31.7852Z" stroke="#BC4CC6" stroke-width="0.911147" stroke-miterlimit="10"/>
<path d="M7.73926 31.7852C7.73926 42.6519 15.5847 51.6859 25.9206 53.5322" stroke="#BC4CC6" stroke-width="0.911147" stroke-miterlimit="10"/>
<path d="M29.832 9.69531C30.023 9.69531 30.2127 9.69531 30.4024 9.70243" stroke="#BC4CC6" stroke-width="0.911147" stroke-miterlimit="10"/>
<path d="M29.4082 9.69531H29.5085" stroke="#BC4CC6" stroke-width="0.911147" stroke-miterlimit="10"/>
<path d="M32.6453 53.7012C32.4606 53.7245 32.2754 53.7461 32.0898 53.7659C32.2759 53.7465 32.461 53.7249 32.6453 53.7012Z" stroke="#BC4CC6" stroke-width="0.911147" stroke-miterlimit="10"/>
<path d="M29.0674 9.70506L29.1787 9.70117" stroke="#BC4CC6" stroke-width="0.911147" stroke-miterlimit="10"/>
<path d="M31.8106 53.791C31.625 53.8078 31.4382 53.8221 31.25 53.8337C31.4377 53.8221 31.6246 53.8078 31.8106 53.791Z" stroke="#BC4CC6" stroke-width="0.911147" stroke-miterlimit="10"/>
<path d="M29.832 53.8782C29.6417 53.8782 29.4514 53.8782 29.2617 53.8711C29.4514 53.8763 29.6417 53.8782 29.832 53.8782Z" stroke="#BC4CC6" stroke-width="0.911147" stroke-miterlimit="10"/>
<path d="M30.4024 53.8711C30.2127 53.8763 30.023 53.8782 29.832 53.8782" stroke="#BC4CC6" stroke-width="0.911147" stroke-miterlimit="10"/>
<path d="M26.7424 53.6627C26.4666 53.6243 26.1928 53.5811 25.9209 53.5332" stroke="#BC4CC6" stroke-width="0.911147" stroke-miterlimit="10"/>
<path d="M27.5728 53.7624C27.2944 53.734 27.0175 53.7005 26.7422 53.6621C27.0175 53.701 27.2944 53.7344 27.5728 53.7624Z" stroke="#BC4CC6" stroke-width="0.911147" stroke-miterlimit="10"/>
<path d="M28.4138 53.8329C28.132 53.8148 27.8515 53.7917 27.5723 53.7637C27.8515 53.7922 28.132 53.8152 28.4138 53.8329Z" stroke="#BC4CC6" stroke-width="0.911147" stroke-miterlimit="10"/>
<path d="M33.7427 53.5312C33.4709 53.58 33.1972 53.6232 32.9219 53.6607" stroke="#BC4CC6" stroke-width="0.911147" stroke-miterlimit="10"/>
<path d="M33.7422 10.0391C34.3775 10.1526 35.0033 10.2926 35.6196 10.4592C35.0028 10.293 34.377 10.153 33.7422 10.0391Z" stroke="#BC4CC6" stroke-width="0.911147" stroke-miterlimit="10"/>
<path d="M35.6172 10.457C35.8805 10.5282 36.1418 10.6042 36.4011 10.6849C36.1422 10.6046 35.8809 10.5287 35.6172 10.457Z" stroke="#BC4CC6" stroke-width="0.911147" stroke-miterlimit="10"/>
<path d="M32.9219 9.90625C33.1972 9.94509 33.4709 9.98825 33.7427 10.0357" stroke="#BC4CC6" stroke-width="0.911147" stroke-miterlimit="10"/>
<path d="M32.0898 9.80664C32.2759 9.8252 32.461 9.84678 32.6453 9.87138C32.461 9.84721 32.2759 9.82563 32.0898 9.80664Z" stroke="#BC4CC6" stroke-width="0.911147" stroke-miterlimit="10"/>
<path d="M35.6176 53.1113C35.0026 53.2779 34.3768 53.418 33.7402 53.5315C34.3772 53.4184 35.003 53.2783 35.6176 53.1113Z" stroke="#BC4CC6" stroke-width="0.911147" stroke-miterlimit="10"/>
<path d="M36.4011 52.8828C36.1422 52.9639 35.8809 53.0399 35.6172 53.1107C35.8809 53.0386 36.1422 52.9627 36.4011 52.8828Z" stroke="#BC4CC6" stroke-width="0.911147" stroke-miterlimit="10"/>
<path d="M8.06543 27.9829L8.07125 27.9492" stroke="#BC4CC6" stroke-width="0.911147" stroke-miterlimit="10"/>
<path d="M27.6885 9.79488L27.7739 9.78711" stroke="#BC4CC6" stroke-width="0.911147" stroke-miterlimit="10"/>
<path d="M7.85742 29.4821C7.85742 29.4653 7.86131 29.4485 7.86261 29.4316C7.86131 29.4485 7.85936 29.4653 7.85742 29.4821Z" stroke="#BC4CC6" stroke-width="0.911147" stroke-miterlimit="10"/>
<path d="M8.46875 26.1375L8.47252 26.123" stroke="#BC4CC6" stroke-width="0.911147" stroke-miterlimit="10"/>
<path d="M28.0322 9.76495L28.097 9.75977" stroke="#BC4CC6" stroke-width="0.911147" stroke-miterlimit="10"/>
<path d="M27.3652 9.82873L27.439 9.82031" stroke="#BC4CC6" stroke-width="0.911147" stroke-miterlimit="10"/>
<path d="M7.74219 31.435V31.334" stroke="#BC4CC6" stroke-width="0.911147" stroke-miterlimit="10"/>
<path d="M26.3486 9.96546L26.3875 9.95898" stroke="#BC4CC6" stroke-width="0.911147" stroke-miterlimit="10"/>
<path d="M7.79004 30.2781C7.79004 30.2477 7.79458 30.2173 7.79652 30.1875C7.79458 30.2173 7.79263 30.2477 7.79004 30.2781Z" stroke="#BC4CC6" stroke-width="0.911147" stroke-miterlimit="10"/>
<path d="M28.4258 9.73633H28.4556" stroke="#BC4CC6" stroke-width="0.911147" stroke-miterlimit="10"/>
<path d="M7.75195 31.0659C7.75195 31.0361 7.75195 31.0063 7.75195 30.9766C7.7539 31.0063 7.7526 31.0361 7.75195 31.0659Z" stroke="#BC4CC6" stroke-width="0.911147" stroke-miterlimit="10"/>
<path d="M26.0205 10.0195L26.0522 10.0137" stroke="#BC4CC6" stroke-width="0.911147" stroke-miterlimit="10"/>
<path d="M7.89844 29.1272L7.90621 29.0625" stroke="#BC4CC6" stroke-width="0.911147" stroke-miterlimit="10"/>
<path d="M7.82031 29.889C7.82031 29.8722 7.82033 29.8554 7.82486 29.8379C7.82292 29.8554 7.82161 29.8722 7.82031 29.889Z" stroke="#BC4CC6" stroke-width="0.911147" stroke-miterlimit="10"/>
<path d="M8.00488 28.3507C8.00488 28.3371 8.00942 28.3241 8.01136 28.3105C8.00942 28.3241 8.00682 28.3397 8.00488 28.3507Z" stroke="#BC4CC6" stroke-width="0.911147" stroke-miterlimit="10"/>
<path d="M7.76953 30.6293C7.76953 30.6138 7.76953 30.5976 7.76953 30.582" stroke="#BC4CC6" stroke-width="0.911147" stroke-miterlimit="10"/>
<path d="M28.7441 9.71938L28.8438 9.71484" stroke="#BC4CC6" stroke-width="0.911147" stroke-miterlimit="10"/>
<path d="M8.20898 27.2316L8.2148 27.2051" stroke="#BC4CC6" stroke-width="0.911147" stroke-miterlimit="10"/>
<path d="M10.0898 22.1838L10.0939 22.1758" stroke="#BC4CC6" stroke-width="0.911147" stroke-miterlimit="10"/>
<path d="M12.1328 18.9097L12.1382 18.9023" stroke="#BC4CC6" stroke-width="0.911147" stroke-miterlimit="10"/>
<path d="M14.2588 16.3929L14.263 16.3887" stroke="#BC4CC6" stroke-width="0.911147" stroke-miterlimit="10"/>
<path d="M8.57031 25.7676V25.7689V25.7676Z" stroke="#BC4CC6" stroke-width="0.911147" stroke-miterlimit="10"/>
<path d="M10.3516 21.6933L10.3551 21.6875" stroke="#BC4CC6" stroke-width="0.911147" stroke-miterlimit="10"/>
<path d="M8.94727 24.7131V24.707" stroke="#BC4CC6" stroke-width="0.911147" stroke-miterlimit="10"/>
<path d="M8.75098 25.2431L8.75498 25.2324" stroke="#BC4CC6" stroke-width="0.911147" stroke-miterlimit="10"/>
<path d="M11.8125 19.3552V19.3516" stroke="#BC4CC6" stroke-width="0.911147" stroke-miterlimit="10"/>
<path d="M19.413 12.2984C18.6251 12.7698 17.8638 13.2842 17.1323 13.8391C16.9869 13.9491 16.8425 14.0611 16.6992 14.1751C15.8406 14.8577 15.0277 15.596 14.2658 16.3852L14.2612 16.3897C13.4999 17.1788 12.7914 18.0172 12.1405 18.8996L12.1353 18.9067C12.0272 19.0523 11.9216 19.1993 11.8168 19.3482V19.3514C11.2885 20.1007 10.8022 20.8787 10.3602 21.6819L10.3563 21.6884C10.27 21.8485 10.1837 22.0091 10.0974 22.1701L10.0935 22.1778C9.66625 22.9974 9.28542 23.8403 8.95283 24.7026V24.7084C8.8881 24.8793 8.82336 25.0515 8.75862 25.2263L8.75473 25.2366C8.69 25.4108 8.63175 25.5856 8.57348 25.761C8.54025 25.8784 8.50832 25.996 8.47767 26.1138L8.47379 26.1287C8.3797 26.4822 8.29489 26.8393 8.21936 27.2001L8.21354 27.2266C8.16391 27.4644 8.11816 27.7033 8.07629 27.9433L8.07048 27.9769C8.05106 28.0857 8.03356 28.1945 8.01608 28.3006C8.01608 28.3142 8.01157 28.3272 8.00963 28.3408C7.97273 28.5758 7.94034 28.812 7.91056 29.0529L7.90279 29.1176C7.89049 29.2192 7.87883 29.3209 7.86783 29.4232C7.86783 29.44 7.86462 29.4568 7.86268 29.4737C7.85038 29.5915 7.83937 29.7099 7.82901 29.8278C7.82901 29.8452 7.82575 29.8621 7.82446 29.8789C7.81604 29.978 7.80828 30.0777 7.80116 30.1773C7.80116 30.2071 7.79727 30.2376 7.79468 30.268C7.78821 30.369 7.78175 30.4706 7.77657 30.5722C7.77657 30.5878 7.77657 30.604 7.77657 30.6195C7.7701 30.7354 7.76555 30.8513 7.76102 30.9671C7.76102 30.9969 7.76102 31.0267 7.76102 31.0565C7.76102 31.1458 7.75585 31.2351 7.75391 31.3251V31.4261C7.75391 31.5414 7.75391 31.6566 7.75391 31.7725V31.7757C7.75391 42.6424 15.5994 51.6764 25.9352 53.5227C26.2071 53.5715 26.481 53.6146 26.7567 53.6522C27.0325 53.6897 27.3094 53.7232 27.5873 53.7525C27.8657 53.781 28.1462 53.8041 28.4289 53.8218C28.7116 53.8395 28.9943 53.852 29.2769 53.8593C29.4666 53.8645 29.6569 53.8665 29.8473 53.8665C30.0376 53.8665 30.2279 53.8665 30.4176 53.8593C30.702 53.852 30.9849 53.8395 31.2663 53.8218C31.454 53.8101 31.6409 53.7959 31.8269 53.7791C31.9201 53.7707 32.0134 53.7622 32.1059 53.7525C32.2919 53.734 32.4771 53.7124 32.6614 53.6878L32.9371 53.6509C33.2125 53.6125 33.4861 53.5693 33.758 53.5214C34.3933 53.4083 35.0191 53.2683 35.6354 53.1013C35.8986 53.0301 36.1599 52.9541 36.4193 52.8734C45.4126 50.0761 51.9426 41.6875 51.9426 31.7744C51.9426 21.8613 45.3938 13.4817 36.4006 10.6845C36.1416 10.6042 35.8803 10.5282 35.6166 10.4566C35.0016 10.2904 34.3758 10.1504 33.7392 10.0365C33.4673 9.98811 33.1937 9.94496 32.9184 9.90698L32.6426 9.87008C32.4579 9.84677 32.2727 9.82519 32.0871 9.80534L31.8081 9.7788C31.6226 9.76283 31.4357 9.74859 31.2475 9.73607C30.9657 9.71881 30.6828 9.70629 30.3988 9.69853C30.2091 9.69399 30.0194 9.69141 29.8285 9.69141C29.7204 9.69141 29.6123 9.69141 29.5048 9.69141H29.4045L29.1779 9.69658L29.0666 9.70047C28.9915 9.70047 28.917 9.70565 28.8419 9.70888L28.7422 9.71341C28.6451 9.71795 28.548 9.72313 28.4522 9.7296H28.4224C28.313 9.73672 28.2043 9.74449 28.0955 9.7529L28.0308 9.75808C27.9447 9.7652 27.8579 9.77233 27.7718 9.78074L27.6863 9.78851L27.4371 9.81376L27.3633 9.82217C27.2604 9.83318 27.1575 9.84548 27.0545 9.85842H27.0474C26.8247 9.88626 26.6039 9.91798 26.3838 9.95229L26.345 9.95877C26.2466 9.97431 26.1482 9.99049 26.0498 10.0073L26.0181 10.0131C23.7083 10.4145 21.4778 11.1839 19.4117 12.2919L19.413 12.2984Z" stroke="#BC4CC6" stroke-width="0.911147" stroke-miterlimit="10"/>
<path d="M34.7268 30.3597C34.3714 24.3599 33.3026 0.645537 32.1497 1.07409C30.9948 0.645537 29.9286 24.3599 29.5732 30.3597C29.2178 36.3595 28.6436 56.2861 28.6436 56.2861C32.6035 56.8985 35.5982 56.2861 35.5982 56.2861C35.5982 56.2861 35.0823 36.3602 34.7268 30.3597Z" fill="white" stroke="#BC4CC6" stroke-width="1.01239" stroke-miterlimit="10"/>
<path d="M34.5705 10.2023C34.5705 10.2023 30.3348 9.56786 28.0729 9.6928C25.8109 9.81774 30.3341 8.79296 30.3341 8.79296C30.3341 8.79296 33.4279 8.76642 34.5705 8.90949" fill="white"/>
<path d="M34.5705 10.2023C34.5705 10.2023 30.3348 9.56786 28.0729 9.6928C25.8109 9.81774 30.3341 8.79296 30.3341 8.79296C30.3341 8.79296 33.4279 8.76642 34.5705 8.90949" stroke="#BC4CC6" stroke-width="0.911147" stroke-miterlimit="10"/>
<path d="M17.1788 27.5565L18.6612 28.8946L16.6667 28.793L16.7683 30.7875L15.4302 29.3051L14.0921 30.7875L14.1938 28.793L12.1992 28.8946L13.6817 27.5565L12.1992 26.2184L14.1938 26.3201L14.0921 24.3262L15.4302 25.808L16.7683 24.3262L16.6667 26.3201L18.6612 26.2184L17.1788 27.5565Z" fill="white" stroke="#BC4CC6" stroke-width="0.911147" stroke-miterlimit="10"/>
<path d="M45.0277 34.0005L46.5102 35.3386L44.5157 35.237L44.6179 37.2316L43.2798 35.7491L41.9411 37.2316L42.0433 35.237L40.0488 35.3386L41.5313 34.0005L40.0488 32.6624L42.0433 32.7641L41.9411 30.7695L43.2798 32.252L44.6179 30.7695L44.5157 32.7641L46.5102 32.6624L45.0277 34.0005Z" fill="white" stroke="#BC4CC6" stroke-width="0.911147" stroke-miterlimit="10"/>
<path d="M116.5 34.0684L179.5 34.0684" stroke="#BC4CC6" stroke-width="1.21486" stroke-miterlimit="10"/>
<path d="M190.5 34.0684L220.5 34.0684" stroke="#BC4CC6" stroke-width="1.21486" stroke-miterlimit="10"/>
<path d="M75.5 34.0684L94.5 34.0684" stroke="#BC4CC6" stroke-width="1.21486" stroke-miterlimit="10"/>
<path d="M100.5 34.0684L109.5 34.0684" stroke="#BC4CC6" stroke-width="1.21486" stroke-miterlimit="10"/>
<path d="M78.08 31.5064L78.044 31.2904C77.666 30.0124 75.704 28.0684 74.3 28.0684H65.534V27.8884C65.606 26.9344 65.642 25.9624 65.642 25.0084V15.7204C65.3 15.7204 64.382 15.9184 63.914 16.0444L63.842 15.9364L64.256 15.4684H68.486V15.6484C68.432 16.6024 68.396 17.5744 68.396 18.5284V27.7084H73.364V18.5284C73.364 17.5744 73.346 16.6024 73.274 15.6484V15.4684H76.226V15.6484C76.154 16.6024 76.118 17.5744 76.118 18.5284V25.0084C76.118 25.9084 76.154 26.8264 76.208 27.7264H77.612L77.216 26.9344H77.756L78.35 31.4164L78.08 31.5064ZM89.8384 27.4924L89.8924 27.6004L89.5684 28.0684H86.0764V27.8884C86.1124 26.9344 86.1484 25.9624 86.1484 25.0084V20.4184L80.2264 28.5904H80.0644C80.1004 27.5644 80.1184 26.3404 80.1184 24.6484V19.3204C79.8484 19.3204 79.1104 19.5184 78.7324 19.6444L78.6784 19.5364L79.0024 19.0684H80.5684C81.0904 19.0684 82.0984 19.0144 82.4944 18.9424L82.5484 19.0504C82.4764 19.8604 82.4404 21.0124 82.4404 22.1284V24.9184L86.6884 19.0684H86.9224C87.1924 19.0684 88.0384 19.0144 88.5064 18.9424L88.5604 19.0504C88.5064 19.8604 88.4524 21.0124 88.4524 22.1284V27.8164C88.7224 27.8164 89.4604 27.6004 89.8384 27.4924ZM97.5246 31.6684V31.4884C97.5606 30.5344 97.5966 29.5624 97.5966 28.6084V26.2144C97.1106 27.5104 96.1566 28.2484 94.7706 28.2484C92.6466 28.2484 91.1166 26.2684 91.1166 23.5684C91.1166 20.7784 92.5926 18.8884 94.7706 18.8884C96.1926 18.8884 97.1286 19.6084 97.5966 20.8684V15.7204C97.3266 15.7204 96.5886 15.9184 96.2106 16.0444L96.1566 15.9364L96.4806 15.4684H98.0466C98.5686 15.4684 99.5766 15.4144 99.9726 15.3424L100.009 15.4504C99.9546 16.2604 99.9186 17.4124 99.9186 18.5284V20.9224C100.405 19.6264 101.359 18.8884 102.745 18.8884C104.869 18.8884 106.399 20.8504 106.399 23.5684C106.399 26.3584 104.923 28.2484 102.745 28.2484C101.323 28.2484 100.387 27.5284 99.9186 26.2504V31.4164C100.207 31.4164 100.999 31.2184 101.413 31.0924L101.467 31.2004L101.107 31.6684H97.5246ZM95.6346 27.6904C96.8406 27.6904 97.7046 26.0164 97.7046 23.5684C97.7046 21.1024 96.8406 19.4284 95.6346 19.4284C94.4106 19.4284 93.5646 21.1024 93.5646 23.5684C93.5646 26.0344 94.4106 27.6904 95.6346 27.6904ZM101.881 27.6904C103.105 27.6904 103.951 26.0344 103.951 23.5684C103.951 21.1024 103.105 19.4284 101.881 19.4284C100.675 19.4284 99.8106 21.1024 99.8106 23.5684C99.8106 26.0164 100.675 27.6904 101.881 27.6904ZM108.963 31.6684V31.4884C109.017 30.5344 109.053 29.5624 109.053 28.6084V19.3204C108.783 19.3204 108.045 19.5184 107.667 19.6444L107.613 19.5364L107.937 19.0684H109.485C110.007 19.0684 111.015 19.0144 111.429 18.9424L111.447 19.0504C111.411 19.5904 111.375 20.2384 111.375 20.9404C111.897 19.6264 112.941 18.8884 114.453 18.8884C116.757 18.8884 118.431 20.8504 118.431 23.5684C118.431 26.3584 116.829 28.2484 114.453 28.2484C112.905 28.2484 111.879 27.5104 111.357 26.1964V31.4164C111.699 31.4164 112.617 31.2184 113.085 31.0924L113.157 31.2004L112.743 31.6684H108.963ZM113.625 27.6904C115.011 27.6904 115.983 26.0344 115.983 23.5684C115.983 21.1024 115.011 19.4284 113.625 19.4284C112.077 19.4284 111.249 21.5524 111.249 23.5684C111.249 26.0164 112.239 27.6904 113.625 27.6904ZM125.091 28.2484C122.139 28.2484 120.033 26.3044 120.033 23.5684C120.033 20.8324 122.139 18.8884 125.091 18.8884C128.043 18.8884 130.149 20.8324 130.149 23.5684C130.149 26.3044 128.043 28.2484 125.091 28.2484ZM125.091 27.9424C126.603 27.9424 127.683 26.1604 127.683 23.5684C127.683 20.9764 126.603 19.1764 125.091 19.1764C123.561 19.1764 122.499 20.9764 122.499 23.5684C122.499 26.1604 123.561 27.9424 125.091 27.9424ZM132.711 28.0684V27.8884C132.765 26.9344 132.801 25.9624 132.801 25.0084V19.3204C132.531 19.3204 131.793 19.5184 131.415 19.6444L131.361 19.5364L131.685 19.0684H135.825C138.543 19.0684 140.199 19.9324 140.199 21.3544C140.199 22.4884 139.335 23.2624 137.895 23.5144C139.695 23.6764 140.775 24.4864 140.775 25.6924C140.775 27.1684 139.029 28.0684 136.149 28.0684H132.711ZM135.105 23.3884H135.807C137.283 23.3884 138.237 22.5964 138.237 21.3544C138.237 20.1664 137.283 19.4104 135.807 19.4104H135.105V23.3884ZM135.105 27.7804H135.897C137.535 27.7804 138.615 26.9704 138.615 25.7824C138.615 24.5404 137.535 23.7124 135.879 23.7124H135.105V27.7804ZM152.856 27.4924L152.91 27.6004L152.586 28.0684H149.094V27.8884C149.13 26.9344 149.166 25.9624 149.166 25.0084V20.4184L143.244 28.5904H143.082C143.118 27.5644 143.136 26.3404 143.136 24.6484V19.3204C142.866 19.3204 142.128 19.5184 141.75 19.6444L141.696 19.5364L142.02 19.0684H143.586C144.108 19.0684 145.116 19.0144 145.512 18.9424L145.566 19.0504C145.494 19.8604 145.458 21.0124 145.458 22.1284V24.9184L149.706 19.0684H149.94C150.21 19.0684 151.056 19.0144 151.524 18.9424L151.578 19.0504C151.524 19.8604 151.47 21.0124 151.47 22.1284V27.8164C151.74 27.8164 152.478 27.6004 152.856 27.4924ZM162.594 13.9564V14.1544C162.594 16.2604 161.262 17.7004 159.3 17.7004C157.338 17.7004 156.006 16.2604 156.006 14.1544V13.9564H156.294V14.0644C156.294 15.1984 157.5 15.9544 159.3 15.9544C161.118 15.9544 162.324 15.1984 162.324 14.0644V13.9564H162.594ZM164.844 27.4924L164.898 27.6004L164.574 28.0684H161.082V27.8884C161.118 26.9344 161.154 25.9624 161.154 25.0084V20.4184L155.232 28.5904H155.07C155.106 27.5644 155.124 26.3404 155.124 24.6484V19.3204C154.854 19.3204 154.116 19.5184 153.738 19.6444L153.684 19.5364L154.008 19.0684H155.574C156.096 19.0684 157.104 19.0144 157.5 18.9424L157.554 19.0504C157.482 19.8604 157.446 21.0124 157.446 22.1284V24.9184L161.694 19.0684H161.928C162.198 19.0684 163.044 19.0144 163.512 18.9424L163.566 19.0504C163.512 19.8604 163.458 21.0124 163.458 22.1284V27.8164C163.728 27.8164 164.466 27.6004 164.844 27.4924ZM169.632 28.0684V27.8704C170.443 26.7544 172.045 23.4964 172.693 21.8404L174.403 17.5744C173.755 16.6024 173.035 15.8104 172.441 15.6664L172.477 15.4684H175.807H176.653C177.067 16.6564 177.463 17.6644 177.823 18.5104L180.649 25.2424C181.027 26.1424 181.315 26.7544 181.873 27.8884V28.0684H177.517L177.103 27.6004L177.175 27.4924C177.643 27.6004 178.561 27.8164 178.902 27.8164L177.301 23.9284H172.243C171.721 25.3504 171.289 26.9884 171.181 27.8164C171.523 27.8164 172.441 27.6004 172.909 27.4924L172.981 27.6004L172.567 28.0684H169.632ZM172.369 23.5864H177.157L175.645 19.9324C175.375 19.2844 175.015 18.5644 174.601 17.8804L172.369 23.5864ZM183.6 31.6684V31.4884C183.654 30.5344 183.69 29.5624 183.69 28.6084V19.3204C183.42 19.3204 182.682 19.5184 182.304 19.6444L182.25 19.5364L182.574 19.0684H184.122C184.644 19.0684 185.652 19.0144 186.066 18.9424L186.084 19.0504C186.048 19.5904 186.012 20.2384 186.012 20.9404C186.534 19.6264 187.578 18.8884 189.09 18.8884C191.394 18.8884 193.068 20.8504 193.068 23.5684C193.068 26.3584 191.466 28.2484 189.09 28.2484C187.542 28.2484 186.516 27.5104 185.994 26.1964V31.4164C186.336 31.4164 187.254 31.2184 187.722 31.0924L187.794 31.2004L187.38 31.6684H183.6ZM188.262 27.6904C189.648 27.6904 190.62 26.0344 190.62 23.5684C190.62 21.1024 189.648 19.4284 188.262 19.4284C186.714 19.4284 185.886 21.5524 185.886 23.5684C185.886 26.0164 186.876 27.6904 188.262 27.6904ZM193.796 28.0684V27.9424C195.056 27.0604 196.604 25.1884 197.072 24.5584L197.594 23.9284L196.424 22.3084C195.452 20.9044 194.336 19.7164 193.778 19.2124V19.0684H198.26L198.62 19.5364L198.566 19.6444C198.152 19.5184 197.36 19.3204 197.072 19.3204L199.394 22.4884L200.024 21.7144C200.636 20.9224 201.212 19.9504 201.59 19.3204C201.284 19.3204 200.51 19.5184 200.096 19.6444L200.042 19.5364L200.402 19.0684H203.03V19.1944C202.094 19.8064 200.996 20.8684 200.096 22.1284L199.574 22.7404L200.618 24.1624C201.482 25.4044 202.49 26.8444 203.642 27.9424V28.0684H199.052L198.638 27.6004L198.71 27.4924C199.178 27.6004 200.096 27.8164 200.438 27.8164L197.792 24.1804L196.856 25.4224C196.262 26.2324 195.758 27.0064 195.362 27.8164C195.704 27.8164 196.622 27.6004 197.09 27.4924L197.162 27.6004L196.748 28.0684H193.796ZM205.322 14.6584H208.166L206.834 18.0424H206.654L205.322 14.6584ZM205.502 28.0684V27.8884C205.556 26.9344 205.592 25.9624 205.592 25.0084V19.3204C205.322 19.3204 204.584 19.5184 204.206 19.6444L204.152 19.5364L204.476 19.0684H206.024C206.564 19.0684 207.518 19.0144 207.968 18.9424L207.986 19.0504C207.932 19.8604 207.896 21.0124 207.896 22.1284V27.8164C208.166 27.8164 208.904 27.6004 209.282 27.4924L209.336 27.6004L209.012 28.0684H205.502ZM211.514 28.0684V27.8884C211.568 26.9344 211.604 25.9624 211.604 25.0084V19.3204C211.334 19.3204 210.596 19.5184 210.218 19.6444L210.164 19.5364L210.488 19.0684H214.628C217.346 19.0684 219.002 19.9324 219.002 21.3544C219.002 22.4884 218.138 23.2624 216.698 23.5144C218.498 23.6764 219.578 24.4864 219.578 25.6924C219.578 27.1684 217.832 28.0684 214.952 28.0684H211.514ZM213.908 23.3884H214.61C216.086 23.3884 217.04 22.5964 217.04 21.3544C217.04 20.1664 216.086 19.4104 214.61 19.4104H213.908V23.3884ZM213.908 27.7804H214.7C216.338 27.7804 217.418 26.9704 217.418 25.7824C217.418 24.5404 216.338 23.7124 214.682 23.7124H213.908V27.7804Z" fill="#333333"/>
</svg>
