<svg width="220" height="68" viewBox="0 0 220 68" fill="none" xmlns="http://www.w3.org/2000/svg">
<path d="M70.416 52V51.82C70.452 51.226 70.506 50.614 70.524 50.002H70.074C65.988 50.002 63.648 48.148 63.648 45.61C63.648 43.072 66.006 41.218 70.074 41.218H70.524V39.526C70.182 39.526 69.264 39.724 68.796 39.85L68.724 39.742L69.138 39.274H73.368V39.454C73.332 40.03 73.314 40.624 73.296 41.218H73.71C77.796 41.218 80.136 43.072 80.136 45.61C80.136 48.148 77.814 50.002 73.71 50.002H73.278V51.748C73.62 51.748 74.538 51.532 75.006 51.424L75.078 51.532L74.664 52H70.416ZM70.128 49.642H70.524V41.56H70.128C67.86 41.56 66.456 43.162 66.456 45.61C66.456 48.058 67.86 49.642 70.128 49.642ZM73.278 49.642H73.674C75.924 49.642 77.328 48.058 77.328 45.61C77.328 43.162 75.942 41.56 73.674 41.56H73.278V49.642ZM86.6571 52.18C83.7051 52.18 81.5991 50.236 81.5991 47.5C81.5991 44.764 83.7051 42.82 86.6571 42.82C89.6091 42.82 91.7151 44.764 91.7151 47.5C91.7151 50.236 89.6091 52.18 86.6571 52.18ZM86.6571 51.874C88.1691 51.874 89.2491 50.092 89.2491 47.5C89.2491 44.908 88.1691 43.108 86.6571 43.108C85.1271 43.108 84.0651 44.908 84.0651 47.5C84.0651 50.092 85.1271 51.874 86.6571 51.874ZM93.6477 53.242L92.5677 47.734L92.8377 47.662L92.8917 47.806C93.1617 48.742 94.1337 49.84 94.9257 49.84C95.6457 49.84 96.0597 48.364 96.0597 45.844C96.0417 45.052 95.9337 44.062 95.8257 43.252C95.5557 43.252 94.8177 43.45 94.4217 43.576L94.3677 43.468L94.7457 43H100.128C100.614 43 101.514 42.946 101.892 42.874L101.91 42.982C101.856 43.792 101.82 44.944 101.82 46.06V51.748C102.09 51.748 102.828 51.532 103.206 51.424L103.26 51.532L102.936 52H99.4437V51.82C99.4797 50.866 99.5157 49.894 99.5157 48.94V43.342H96.9957C96.2037 48.832 95.2677 52.378 94.2957 52.378C93.9897 52.378 93.7557 52.09 93.6477 52.036L94.1157 53.206L94.0797 53.242H93.6477ZM105.44 52V51.82C105.494 50.866 105.53 49.894 105.53 48.94V43.252C105.26 43.252 104.522 43.45 104.144 43.576L104.09 43.468L104.414 43H105.962C106.484 43 107.492 42.946 107.906 42.874L107.924 42.982C107.87 43.792 107.834 44.944 107.834 46.06V46.78H108.662C111.686 46.78 113.234 47.77 113.234 49.39C113.234 51.01 111.686 52 108.662 52H105.44ZM107.834 51.712H108.446C109.976 51.712 110.912 50.812 110.912 49.39C110.912 47.968 109.976 47.068 108.446 47.068H107.834V51.712ZM115.389 52V51.82C115.443 50.866 115.479 49.894 115.479 48.94V39.652C115.209 39.652 114.471 39.85 114.093 39.976L114.039 39.868L114.363 39.4H115.929C116.523 39.4 117.441 39.346 117.855 39.274L117.891 39.382C117.837 40.192 117.801 41.344 117.801 42.46V47.32H118.683L120.753 45.016C121.239 44.494 121.581 44.008 122.067 43.252C121.797 43.252 121.059 43.45 120.681 43.576L120.627 43.468L120.969 43H123.579V43.144C122.697 43.738 121.239 44.908 120.663 45.52L120.213 46.024L122.661 49.642C123.201 50.398 123.849 51.226 124.425 51.82V52H120.357L120.015 51.532L120.069 51.424C120.447 51.532 121.185 51.748 121.455 51.748L118.719 47.68H117.801V48.94C117.801 49.894 117.837 50.866 117.873 51.82V52H115.389ZM125.57 53.242L124.49 47.734L124.76 47.662L124.814 47.806C125.084 48.742 126.056 49.84 126.848 49.84C127.568 49.84 127.982 48.364 127.982 45.844C127.964 45.052 127.856 44.062 127.748 43.252C127.478 43.252 126.74 43.45 126.344 43.576L126.29 43.468L126.668 43H132.05C132.536 43 133.436 42.946 133.814 42.874L133.832 42.982C133.778 43.792 133.742 44.944 133.742 46.06V51.748C134.012 51.748 134.75 51.532 135.128 51.424L135.182 51.532L134.858 52H131.366V51.82C131.402 50.866 131.438 49.894 131.438 48.94V43.342H128.918C128.126 48.832 127.19 52.378 126.218 52.378C125.912 52.378 125.678 52.09 125.57 52.036L126.038 53.206L126.002 53.242H125.57ZM137.362 52V51.82C137.416 50.866 137.452 49.894 137.452 48.94V43.252C137.182 43.252 136.444 43.45 136.066 43.576L136.012 43.468L136.336 43H137.884C138.406 43 139.414 42.946 139.828 42.874L139.846 42.982C139.792 43.792 139.756 44.944 139.756 46.06V46.78H140.584C143.608 46.78 145.156 47.77 145.156 49.39C145.156 51.01 143.608 52 140.584 52H137.362ZM139.756 51.712H140.368C141.898 51.712 142.834 50.812 142.834 49.39C142.834 47.968 141.898 47.068 140.368 47.068H139.756V51.712ZM151.415 52.18C148.463 52.18 146.357 50.236 146.357 47.5C146.357 44.764 148.463 42.82 151.415 42.82C154.367 42.82 156.473 44.764 156.473 47.5C156.473 50.236 154.367 52.18 151.415 52.18ZM151.415 51.874C152.927 51.874 154.007 50.092 154.007 47.5C154.007 44.908 152.927 43.108 151.415 43.108C149.885 43.108 148.823 44.908 148.823 47.5C148.823 50.092 149.885 51.874 151.415 51.874ZM159.035 55.6V55.42C159.089 54.466 159.125 53.494 159.125 52.54V43.252C158.855 43.252 158.117 43.45 157.739 43.576L157.685 43.468L158.009 43H159.557C160.079 43 161.087 42.946 161.501 42.874L161.519 42.982C161.483 43.522 161.447 44.17 161.447 44.872C161.969 43.558 163.013 42.82 164.525 42.82C166.829 42.82 168.503 44.782 168.503 47.5C168.503 50.29 166.901 52.18 164.525 52.18C162.977 52.18 161.951 51.442 161.429 50.128V55.348C161.771 55.348 162.689 55.15 163.157 55.024L163.229 55.132L162.815 55.6H159.035ZM163.697 51.622C165.083 51.622 166.055 49.966 166.055 47.5C166.055 45.034 165.083 43.36 163.697 43.36C162.149 43.36 161.321 45.484 161.321 47.5C161.321 49.948 162.311 51.622 163.697 51.622ZM170.917 56.41L169.603 51.766L169.819 51.694L169.873 51.802C170.395 52.99 172.483 55.312 173.617 55.312C174.085 55.312 174.373 55.024 174.373 54.52V54.232C174.373 53.584 174.013 52.738 172.771 50.2L171.169 46.924C170.413 45.394 169.711 44.008 169.171 43.126V43H173.239L173.563 43.468L173.509 43.576C173.131 43.45 172.393 43.252 172.123 43.252L174.769 49.48C174.913 49.786 175.039 50.146 175.147 50.488C175.255 50.128 175.345 49.804 175.471 49.48L176.353 47.086C176.857 45.754 177.253 43.954 177.325 43.252C177.055 43.252 176.317 43.45 175.939 43.576L175.885 43.468L176.209 43H178.603V43.144C178.081 43.846 177.487 44.998 176.803 46.852L175.579 50.128C175.417 50.56 175.363 50.92 175.363 51.406V52.27C175.363 54.628 174.445 55.78 172.987 55.78C172.051 55.78 171.493 55.366 170.863 55.312L171.349 56.356L171.331 56.41H170.917Z" fill="white"/>
<path d="M34.2267 30.2913C33.8713 24.2915 32.8025 0.577178 31.6496 1.00574C30.4947 0.577178 29.4285 24.2915 29.0731 30.2913C28.7177 36.2911 28.0068 66.8631 28.0068 66.8631H35.293C35.293 66.8631 34.5822 36.2918 34.2267 30.2913Z" fill="white" stroke="white" stroke-width="1.01239" stroke-miterlimit="10"/>
<path d="M57 34H75" stroke="white" stroke-width="1.21486" stroke-miterlimit="10"/>
<path d="M0 34.0352H54.2144" stroke="white" stroke-width="0.911147" stroke-miterlimit="10"/>
<path d="M48.3507 17.2305L6.79297 58.7882" stroke="white" stroke-width="0.911147" stroke-miterlimit="10"/>
<path d="M55.5498 10.0312L49.4004 16.1799" stroke="white" stroke-width="0.911147" stroke-miterlimit="10"/>
<path d="M48.999 51.3828L54.7302 57.114" stroke="white" stroke-width="0.911147" stroke-miterlimit="10"/>
<path d="M7.64648 10.0312L47.211 49.5958" stroke="white" stroke-width="0.911147" stroke-miterlimit="10"/>
<path d="M18.9137 12.2324C16.2954 13.6349 13.9859 15.5498 12.1228 17.863C10.2596 20.1763 8.88081 22.8407 8.06836 25.6977C9.96153 20.0593 13.8081 15.2834 18.9137 12.2324Z" stroke="white" stroke-width="0.911147" stroke-miterlimit="10"/>
<path d="M22.9834 10.2771C23.2333 10.1839 23.4849 10.0948 23.7382 10.0098C23.4853 10.0952 23.2337 10.1843 22.9834 10.2771Z" stroke="white" stroke-width="0.911147" stroke-miterlimit="10"/>
<path d="M21.835 10.7383C22.2022 10.5813 22.5736 10.4321 22.9491 10.291C22.5719 10.4313 22.2005 10.5804 21.835 10.7383Z" stroke="white" stroke-width="0.911147" stroke-miterlimit="10"/>
<path d="M24.9648 9.63295C25.0758 9.60188 25.1869 9.57188 25.2982 9.54297C25.1869 9.57232 25.0758 9.60231 24.9648 9.63295Z" stroke="white" stroke-width="0.911147" stroke-miterlimit="10"/>
<path d="M7.52148 27.5832C7.60003 27.2682 7.68418 26.9553 7.77395 26.6445" stroke="white" stroke-width="0.911147" stroke-miterlimit="10"/>
<path d="M24.1592 9.87437C24.4099 9.79539 24.6622 9.72008 24.9159 9.64844C24.6622 9.72094 24.4099 9.79625 24.1592 9.87437Z" stroke="white" stroke-width="0.911147" stroke-miterlimit="10"/>
<path d="M23.7568 10.0039C23.8742 9.9642 23.9918 9.92579 24.1097 9.88867C23.9918 9.92622 23.8742 9.96463 23.7568 10.0039Z" stroke="white" stroke-width="0.911147" stroke-miterlimit="10"/>
<path d="M20.709 11.2556C21.0715 11.0782 21.4384 10.909 21.8095 10.748C21.4379 10.9069 21.0711 11.076 20.709 11.2556Z" stroke="white" stroke-width="0.911147" stroke-miterlimit="10"/>
<path d="M6.98242 30.502C7.0012 30.3492 7.02128 30.1977 7.04264 30.0488" stroke="white" stroke-width="0.911147" stroke-miterlimit="10"/>
<path d="M6.88086 31.4902C6.90675 31.1821 6.93806 30.8754 6.97474 30.5703C6.93762 30.8754 6.90632 31.1821 6.88086 31.4902Z" stroke="white" stroke-width="0.911147" stroke-miterlimit="10"/>
<path d="M7.04883 30.002C7.07084 29.8492 7.09415 29.6982 7.11875 29.5488" stroke="white" stroke-width="0.911147" stroke-miterlimit="10"/>
<path d="M7.40918 28.0579C7.44414 27.9012 7.48168 27.7452 7.51988 27.5898" stroke="white" stroke-width="0.911147" stroke-miterlimit="10"/>
<path d="M7.12109 29.5319C7.14699 29.3758 7.17419 29.2211 7.20268 29.0664" stroke="white" stroke-width="0.911147" stroke-miterlimit="10"/>
<path d="M7.21094 29.0181C7.2692 28.7057 7.33394 28.3949 7.40515 28.0859C7.33437 28.3949 7.26963 28.7057 7.21094 29.0181Z" stroke="white" stroke-width="0.911147" stroke-miterlimit="10"/>
<path d="M26.5801 9.24305C26.7096 9.21629 26.839 9.19062 26.9685 9.16602C26.8382 9.19062 26.7087 9.21629 26.5801 9.24305Z" stroke="white" stroke-width="0.911147" stroke-miterlimit="10"/>
<path d="M30.3574 8.75707C30.4869 8.75059 30.6164 8.74541 30.7458 8.74023C30.6151 8.74541 30.4862 8.75059 30.3574 8.75707Z" stroke="white" stroke-width="0.911147" stroke-miterlimit="10"/>
<path d="M29.9688 8.78048C30.082 8.77271 30.1953 8.76624 30.3093 8.75977" stroke="white" stroke-width="0.911147" stroke-miterlimit="10"/>
<path d="M29.5547 8.81237L29.8576 8.78906" stroke="white" stroke-width="0.911147" stroke-miterlimit="10"/>
<path d="M31.2588 8.72785C31.3883 8.72785 31.5177 8.72677 31.6472 8.72461C31.5177 8.72461 31.3883 8.72569 31.2588 8.72785Z" stroke="white" stroke-width="0.911147" stroke-miterlimit="10"/>
<path d="M29.0801 8.85656C29.2096 8.84362 29.3377 8.83153 29.4646 8.82031C29.3364 8.83153 29.2083 8.84362 29.0801 8.85656Z" stroke="white" stroke-width="0.911147" stroke-miterlimit="10"/>
<path d="M30.8496 8.73824L31.1448 8.73047" stroke="white" stroke-width="0.911147" stroke-miterlimit="10"/>
<path d="M6.84082 32.0254C6.85032 31.8744 6.8611 31.7233 6.87319 31.5723C6.86154 31.7233 6.85075 31.8744 6.84082 32.0254Z" stroke="white" stroke-width="0.911147" stroke-miterlimit="10"/>
<path d="M26.9805 9.16239C27.1009 9.13995 27.2219 9.11837 27.3436 9.09766" stroke="white" stroke-width="0.911147" stroke-miterlimit="10"/>
<path d="M27.4336 9.07978C27.5391 9.06165 27.6446 9.04418 27.7508 9.02734C27.6446 9.04288 27.5391 9.06165 27.4336 9.07978Z" stroke="white" stroke-width="0.911147" stroke-miterlimit="10"/>
<path d="M25.3594 9.5289C25.6106 9.46373 25.8634 9.40201 26.1181 9.34375C25.8639 9.40115 25.611 9.46286 25.3594 9.5289Z" stroke="white" stroke-width="0.911147" stroke-miterlimit="10"/>
<path d="M28.2656 8.95354C28.3731 8.9393 28.4812 8.92506 28.5893 8.91211" stroke="white" stroke-width="0.911147" stroke-miterlimit="10"/>
<path d="M27.8203 9.01726C27.9498 8.99784 28.0793 8.97842 28.2048 8.96094C28.0767 8.97906 27.9485 8.99784 27.8203 9.01726Z" stroke="white" stroke-width="0.911147" stroke-miterlimit="10"/>
<path d="M28.6934 8.89889C28.8002 8.88659 28.9076 8.87429 29.017 8.86328" stroke="white" stroke-width="0.911147" stroke-miterlimit="10"/>
<path d="M39.9105 57.0332C39.7195 57.0979 39.5266 57.1627 39.333 57.2274C39.5266 57.1659 39.7195 57.1012 39.9105 57.0332Z" stroke="white" stroke-width="0.911147" stroke-miterlimit="10"/>
<path d="M42.1538 56.1172C41.9712 56.202 41.788 56.2855 41.6035 56.3658" stroke="white" stroke-width="0.911147" stroke-miterlimit="10"/>
<path d="M42.6974 55.8555C42.5181 55.9455 42.3369 56.0322 42.1543 56.1177" stroke="white" stroke-width="0.911147" stroke-miterlimit="10"/>
<path d="M20.7022 11.2598C20.098 11.5576 19.5065 11.8786 18.9277 12.223H18.931C19.5071 11.8786 20.0975 11.5576 20.7022 11.2598Z" stroke="white" stroke-width="0.911147" stroke-miterlimit="10"/>
<path d="M30.0567 58.3893C29.6346 58.3621 29.2153 58.3248 28.7988 58.2773C29.2127 58.3252 29.632 58.3626 30.0567 58.3893Z" stroke="white" stroke-width="0.911147" stroke-miterlimit="10"/>
<path d="M28.7957 58.277C28.3792 58.2295 27.9662 58.1717 27.5566 58.1035C27.9666 58.1717 28.3797 58.2295 28.7957 58.277Z" stroke="white" stroke-width="0.911147" stroke-miterlimit="10"/>
<path d="M31.6491 58.4392C31.1131 58.4392 30.581 58.4223 30.0527 58.3887" stroke="white" stroke-width="0.911147" stroke-miterlimit="10"/>
<path d="M44.5394 54.8398C44.3667 54.9434 44.1941 55.0451 44.0215 55.1448C44.1958 55.0451 44.3685 54.9434 44.5394 54.8398Z" stroke="white" stroke-width="0.911147" stroke-miterlimit="10"/>
<path d="M27.5561 58.1035C27.3515 58.0699 27.147 58.0336 26.9443 57.9941" stroke="white" stroke-width="0.911147" stroke-miterlimit="10"/>
<path d="M49.226 51.1582C49.1205 51.2644 49.013 51.3692 48.9023 51.4735" stroke="white" stroke-width="0.911147" stroke-miterlimit="10"/>
<path d="M50.0331 50.3125C49.8376 50.5283 49.6384 50.7395 49.4355 50.9463C49.6384 50.7387 49.8376 50.5274 50.0331 50.3125Z" stroke="white" stroke-width="0.911147" stroke-miterlimit="10"/>
<path d="M48.4776 51.877C48.3671 51.9792 48.2551 52.0807 48.1416 52.1812C48.2555 52.0807 48.3675 51.9792 48.4776 51.877Z" stroke="white" stroke-width="0.911147" stroke-miterlimit="10"/>
<path d="M48.142 52.1797C47.8442 52.4438 47.5403 52.7008 47.2305 52.9507C47.5408 52.7008 47.8446 52.4438 48.142 52.1797Z" stroke="white" stroke-width="0.911147" stroke-miterlimit="10"/>
<path d="M46.2824 53.6777C46.121 53.7947 45.9585 53.9101 45.7949 54.0241C45.9589 53.9101 46.1214 53.7947 46.2824 53.6777Z" stroke="white" stroke-width="0.911147" stroke-miterlimit="10"/>
<path d="M45.5476 54.1934C45.2166 54.4165 44.8804 54.6323 44.5391 54.8407C44.8809 54.6327 45.217 54.4169 45.5476 54.1934Z" stroke="white" stroke-width="0.911147" stroke-miterlimit="10"/>
<path d="M21.6965 56.3673C21.1423 56.1252 20.599 55.8634 20.0664 55.582C20.5981 55.8621 21.1414 56.1239 21.6965 56.3673Z" stroke="white" stroke-width="0.911147" stroke-miterlimit="10"/>
<path d="M12.4691 49.393C12.0888 48.9329 11.7255 48.4582 11.3789 47.9688" stroke="white" stroke-width="0.911147" stroke-miterlimit="10"/>
<path d="M17.505 54.0244C16.5232 53.3435 15.5914 52.5932 14.7168 51.7793" stroke="white" stroke-width="0.911147" stroke-miterlimit="10"/>
<path d="M18.7605 54.8407C18.4187 54.6327 18.0825 54.4169 17.752 54.1934C18.0825 54.4173 18.4187 54.6331 18.7605 54.8407Z" stroke="white" stroke-width="0.911147" stroke-miterlimit="10"/>
<path d="M11.3787 47.9695C11.09 47.5638 10.8134 47.1489 10.5488 46.7246C10.813 47.148 11.0896 47.563 11.3787 47.9695Z" stroke="white" stroke-width="0.911147" stroke-miterlimit="10"/>
<path d="M19.2777 55.1448C19.105 55.0451 18.9324 54.9434 18.7598 54.8398C18.9315 54.9434 19.1042 55.0451 19.2777 55.1448Z" stroke="white" stroke-width="0.911147" stroke-miterlimit="10"/>
<path d="M6.79883 33.0248C6.80228 32.8755 6.80681 32.7259 6.81242 32.5762C6.80638 32.7272 6.80185 32.8768 6.79883 33.0248Z" stroke="white" stroke-width="0.911147" stroke-miterlimit="10"/>
<path d="M6.81641 32.5048C6.82245 32.365 6.82957 32.2253 6.83777 32.0859" stroke="white" stroke-width="0.911147" stroke-miterlimit="10"/>
<path d="M23.9662 57.2274C23.7719 57.1627 23.5777 57.0979 23.3887 57.0332C23.5822 57.0999 23.7765 57.1646 23.9662 57.2274Z" stroke="white" stroke-width="0.911147" stroke-miterlimit="10"/>
<path d="M22.8184 56.8236C22.6294 56.752 22.4412 56.678 22.2539 56.6016C22.4408 56.678 22.6289 56.752 22.8184 56.8236Z" stroke="white" stroke-width="0.911147" stroke-miterlimit="10"/>
<path d="M25.4376 57.6564C24.9409 57.527 24.4506 57.3843 23.9668 57.2285C24.451 57.3878 24.9413 57.5304 25.4376 57.6564Z" stroke="white" stroke-width="0.911147" stroke-miterlimit="10"/>
<path d="M20.0665 55.5815C19.8002 55.4417 19.5372 55.2967 19.2773 55.1465C19.5376 55.2967 19.8006 55.4417 20.0665 55.5815Z" stroke="white" stroke-width="0.911147" stroke-miterlimit="10"/>
<path d="M26.945 57.9933C26.5384 57.9156 26.1355 57.828 25.7363 57.7305C26.136 57.8284 26.5389 57.9161 26.945 57.9933Z" stroke="white" stroke-width="0.911147" stroke-miterlimit="10"/>
<path d="M22.2547 56.6015C22.0682 56.5251 21.8818 56.4462 21.6973 56.3652" stroke="white" stroke-width="0.911147" stroke-miterlimit="10"/>
<path d="M26.1914 9.32577C26.298 9.30204 26.4048 9.27873 26.5119 9.25586C26.4053 9.27873 26.2984 9.30204 26.1914 9.32577Z" stroke="white" stroke-width="0.911147" stroke-miterlimit="10"/>
<path d="M12.6602 49.6211C13.2378 50.3052 13.852 50.9576 14.5 51.5755" stroke="white" stroke-width="0.911147" stroke-miterlimit="10"/>
<path d="M6.793 33.5801C6.793 33.426 6.79752 33.2726 6.79752 33.1191C6.79493 33.2726 6.793 33.426 6.793 33.5801ZM6.793 33.5801C6.78574 38.2263 8.08698 42.7806 10.5477 46.7216" stroke="white" stroke-width="0.911147" stroke-miterlimit="10"/>
<path d="M8.06802 25.7031C7.96574 26.0087 7.8695 26.3166 7.7793 26.6269C7.8695 26.3166 7.96554 26.0089 8.06739 25.7038L8.06802 25.7031Z" stroke="white" stroke-width="0.911147" stroke-miterlimit="10"/>
<path d="M8.06864 25.6989C8.1269 25.5235 8.18774 25.3487 8.24989 25.1746L8.25377 25.1642C8.31851 24.9907 8.38325 24.8185 8.44798 24.6463V24.6405C8.78057 23.7782 9.1614 22.9353 9.58865 22.1158L9.59254 22.108C9.67886 21.9466 9.76517 21.786 9.85149 21.6263L9.85538 21.6199C10.2974 20.8167 10.7837 20.0386 11.312 19.2894V19.2861C11.4168 19.1372 11.5223 18.9903 11.6305 18.8446L11.6356 18.8375C12.2866 17.9551 12.995 17.1167 13.7564 16.3276L13.7609 16.3231C14.5228 15.534 15.3358 14.7957 16.1944 14.113C16.3372 13.9991 16.4816 13.8871 16.6275 13.777C17.3589 13.2221 18.1203 12.7077 18.9082 12.2363L18.9211 12.2285C16.2985 13.631 13.9853 15.5475 12.1195 17.8635C10.2537 20.1795 8.87365 22.8476 8.06152 25.7086V25.7054L8.06864 25.6989Z" stroke="white" stroke-width="0.911147" stroke-miterlimit="10"/>
<path d="M9.59375 22.1066C9.68007 21.9452 9.76638 21.7847 9.8527 21.625C9.76466 21.7851 9.67834 21.9457 9.59375 22.1066Z" stroke="white" stroke-width="0.911147" stroke-miterlimit="10"/>
<path d="M18.9308 12.2207H18.9276L18.915 12.2282L18.9308 12.2207Z" stroke="white" stroke-width="0.911147" stroke-miterlimit="10"/>
<path d="M16.2031 14.1094C16.346 13.9955 16.4903 13.8835 16.6362 13.7734C16.4886 13.8835 16.3443 13.9955 16.2031 14.1094Z" stroke="white" stroke-width="0.911147" stroke-miterlimit="10"/>
<path d="M11.3145 19.2833C11.4193 19.1344 11.5248 18.9875 11.633 18.8418" stroke="white" stroke-width="0.911147" stroke-miterlimit="10"/>
<path d="M16.1971 14.1094C15.3385 14.792 14.5256 15.5303 13.7637 16.3195" stroke="white" stroke-width="0.911147" stroke-miterlimit="10"/>
<path d="M9.8584 21.6196C10.3004 20.8164 10.7867 20.0383 11.315 19.2891" stroke="white" stroke-width="0.911147" stroke-miterlimit="10"/>
<path d="M16.6328 13.7692C17.3643 13.2143 18.1256 12.7 18.9135 12.2285" stroke="white" stroke-width="0.911147" stroke-miterlimit="10"/>
<path d="M11.6387 18.836C12.2896 17.9537 12.9981 17.1152 13.7594 16.3262" stroke="white" stroke-width="0.911147" stroke-miterlimit="10"/>
<path d="M8.44922 24.6419C8.7818 23.7796 9.16263 22.9367 9.58989 22.1172" stroke="white" stroke-width="0.911147" stroke-miterlimit="10"/>
<path d="M8.25391 25.1644C8.31864 24.9909 8.38338 24.8187 8.44812 24.6465C8.38079 24.8193 8.31605 24.9915 8.25391 25.1644Z" stroke="white" stroke-width="0.911147" stroke-miterlimit="10"/>
<path d="M8.06934 25.6982C8.1276 25.5228 8.18847 25.348 8.25062 25.1738" stroke="white" stroke-width="0.911147" stroke-miterlimit="10"/>
<path d="M8.06836 25.6992V25.7028" stroke="white" stroke-width="0.911147" stroke-miterlimit="10"/>
<path d="M7.51953 27.591V27.582" stroke="white" stroke-width="1.01239" stroke-miterlimit="10"/>
<path d="M7.40234 28.0851C7.40234 28.0761 7.40688 28.0677 7.40882 28.0586C7.40688 28.0677 7.40493 28.0761 7.40234 28.0851Z" fill="white" stroke="white" stroke-width="1.01239" stroke-miterlimit="10"/>
<path d="M22.9473 10.2909L22.9835 10.2773" stroke="white" stroke-width="1.01239" stroke-miterlimit="10"/>
<path d="M7.77441 26.6444C7.77441 26.6386 7.77766 26.6328 7.7796 26.627L7.77441 26.6444Z" fill="white" stroke="white" stroke-width="1.01239" stroke-miterlimit="10"/>
<path d="M20.7021 11.2599L20.7095 11.2559" stroke="white" stroke-width="1.01239" stroke-miterlimit="10"/>
<path d="M21.8105 10.748L21.8332 10.7383" stroke="white" stroke-width="1.01239" stroke-miterlimit="10"/>
<path d="M27.75 9.02858L27.8199 9.01758" stroke="white" stroke-width="1.01239" stroke-miterlimit="10"/>
<path d="M26.9668 9.16602H26.9794" stroke="white" stroke-width="1.01239" stroke-miterlimit="10"/>
<path d="M28.2051 8.96154L28.2659 8.95312" stroke="white" stroke-width="1.01239" stroke-miterlimit="10"/>
<path d="M28.5889 8.91529L28.6931 8.90234" stroke="white" stroke-width="1.01239" stroke-miterlimit="10"/>
<path d="M26.5117 9.25643L26.5797 9.24219" stroke="white" stroke-width="1.01239" stroke-miterlimit="10"/>
<path d="M29.0146 8.86259L29.0794 8.85547" stroke="white" stroke-width="1.01239" stroke-miterlimit="10"/>
<path d="M26.1172 9.34236L26.191 9.32617" stroke="white" stroke-width="1.01239" stroke-miterlimit="10"/>
<path d="M24.916 9.64641L24.9652 9.63281" stroke="white" stroke-width="1.01239" stroke-miterlimit="10"/>
<path d="M24.1094 9.88858L24.1586 9.87305" stroke="white" stroke-width="1.01239" stroke-miterlimit="10"/>
<path d="M25.2988 9.54353L25.359 9.52734" stroke="white" stroke-width="1.01239" stroke-miterlimit="10"/>
<path d="M23.7383 10.0097L23.7571 10.0039" stroke="white" stroke-width="1.01239" stroke-miterlimit="10"/>
<path d="M7.20508 29.0661C7.20508 29.0499 7.2109 29.0338 7.21349 29.0176C7.20895 29.0338 7.20508 29.0474 7.20508 29.0661Z" fill="white" stroke="white" stroke-width="1.01239" stroke-miterlimit="10"/>
<path d="M36.6596 57.9336C36.457 57.975 36.2537 58.0145 36.0498 58.0508" stroke="white" stroke-width="1.01239" stroke-miterlimit="10"/>
<path d="M29.4648 8.82027L29.5542 8.8125" stroke="white" stroke-width="1.01239" stroke-miterlimit="10"/>
<path d="M48.9055 51.4727C48.7643 51.6086 48.6217 51.7428 48.4775 51.8753C48.6221 51.7424 48.7648 51.6082 48.9055 51.4727Z" fill="white" stroke="white" stroke-width="1.01239" stroke-miterlimit="10"/>
<path d="M35.1262 58.1973C34.8168 58.2404 34.5052 58.278 34.1914 58.3099C34.5047 58.2784 34.8163 58.2409 35.1262 58.1973Z" fill="white" stroke="white" stroke-width="1.01239" stroke-miterlimit="10"/>
<path d="M51.0204 49.1602C50.7705 49.47 50.5137 49.7739 50.25 50.0717C50.5124 49.7739 50.7692 49.47 51.0204 49.1602Z" fill="white" stroke="white" stroke-width="1.01239" stroke-miterlimit="10"/>
<path d="M51.5685 48.4531C51.3898 48.6927 51.2068 48.9285 51.0195 49.1607C51.2068 48.9281 51.3898 48.6922 51.5685 48.4531Z" fill="white" stroke="white" stroke-width="1.01239" stroke-miterlimit="10"/>
<path d="M34.1911 58.3086C33.9826 58.3297 33.7731 58.3485 33.5625 58.3649C33.7714 58.3498 33.9809 58.331 34.1911 58.3086Z" fill="white" stroke="white" stroke-width="1.01239" stroke-miterlimit="10"/>
<path d="M51.5684 18.709C54.7753 23.0042 56.508 28.2209 56.508 33.5813C56.508 38.9416 54.7753 44.1584 51.5684 48.4536" stroke="white" stroke-width="1.01239" stroke-miterlimit="10"/>
<path d="M50.2488 50.0723L50.0332 50.3118" stroke="white" stroke-width="1.01239" stroke-miterlimit="10"/>
<path d="M36.0499 58.0488C35.846 58.0851 35.6414 58.1194 35.4355 58.1505C35.6414 58.12 35.846 58.0857 36.0499 58.0488Z" fill="white" stroke="white" stroke-width="1.01239" stroke-miterlimit="10"/>
<path d="M33.5635 58.3672C33.3531 58.3827 33.1414 58.3963 32.9297 58.4073" stroke="white" stroke-width="1.01239" stroke-miterlimit="10"/>
<path d="M7.04297 30.0453C7.04297 30.0311 7.04751 30.0162 7.04945 30.002C7.04751 30.0181 7.04491 30.0311 7.04297 30.0453Z" fill="white" stroke="white" stroke-width="1.01239" stroke-miterlimit="10"/>
<path d="M7.11914 29.5451V29.5312" stroke="white" stroke-width="1.01239" stroke-miterlimit="10"/>
<path d="M6.87305 31.5724C6.87305 31.5446 6.8776 31.5168 6.88019 31.4883C6.88084 31.5181 6.87564 31.5459 6.87305 31.5724Z" fill="white" stroke="white" stroke-width="1.01239" stroke-miterlimit="10"/>
<path d="M6.97461 30.5686C6.97461 30.546 6.97978 30.5233 6.98302 30.5039C6.97978 30.5233 6.9772 30.546 6.97461 30.5686Z" fill="white" stroke="white" stroke-width="1.01239" stroke-miterlimit="10"/>
<path d="M31.6504 58.4386C32.0798 58.4386 32.5062 58.4278 32.9296 58.4062C32.5062 58.4274 32.0798 58.4382 31.6504 58.4386Z" fill="white" stroke="white" stroke-width="1.01239" stroke-miterlimit="10"/>
<path d="M6.83789 32.0862C6.83789 32.0655 6.83788 32.0455 6.84111 32.0254C6.84047 32.0455 6.83919 32.0655 6.83789 32.0862Z" fill="white" stroke="white" stroke-width="1.01239" stroke-miterlimit="10"/>
<path d="M6.79688 33.1212V33.0254" stroke="white" stroke-width="1.01239" stroke-miterlimit="10"/>
<path d="M6.81641 32.5771C6.81641 32.5538 6.81639 32.5298 6.81963 32.5059" stroke="white" stroke-width="1.01239" stroke-miterlimit="10"/>
<path d="M27.3428 9.09561L27.4334 9.08008" stroke="white" stroke-width="1.01239" stroke-miterlimit="10"/>
<path d="M49.8477 16.6484C49.9832 16.7943 50.1169 16.9415 50.249 17.0899C50.1169 16.941 49.9832 16.7939 49.8477 16.6484Z" fill="white" stroke="white" stroke-width="1.01239" stroke-miterlimit="10"/>
<path d="M30.7441 8.74023H30.8503" stroke="white" stroke-width="1.01239" stroke-miterlimit="10"/>
<path d="M45.2988 12.8027C45.5487 12.9672 45.7956 13.1361 46.0394 13.3096C45.796 13.1361 45.5491 12.9672 45.2988 12.8027Z" fill="white" stroke="white" stroke-width="1.01239" stroke-miterlimit="10"/>
<path d="M31.1455 8.73047H31.2595" stroke="white" stroke-width="1.01239" stroke-miterlimit="10"/>
<path d="M50.249 17.0898C50.5123 17.3868 50.7691 17.6904 51.0194 18.0007C50.7682 17.6912 50.5114 17.3876 50.249 17.0898Z" fill="white" stroke="white" stroke-width="1.01239" stroke-miterlimit="10"/>
<path d="M51.0195 18.002C51.2068 18.235 51.3898 18.4711 51.5685 18.7102C51.3898 18.4706 51.2068 18.2346 51.0195 18.002Z" fill="white" stroke="white" stroke-width="1.01239" stroke-miterlimit="10"/>
<path d="M44.7952 12.4813C40.8532 10.02 36.2977 8.71873 31.6504 8.7266" stroke="white" stroke-width="1.01239" stroke-miterlimit="10"/>
<path d="M49.6436 16.4312C48.9572 15.7116 48.2287 15.0335 47.4619 14.4004" stroke="white" stroke-width="1.01239" stroke-miterlimit="10"/>
<path d="M46.04 13.3105C46.5273 13.6558 47.002 14.0192 47.4642 14.4007C47.002 14.0209 46.5273 13.6575 46.04 13.3105Z" fill="white" stroke="white" stroke-width="1.01239" stroke-miterlimit="10"/>
<path d="M30.3096 8.75977H30.3575" stroke="white" stroke-width="1.01239" stroke-miterlimit="10"/>
<path d="M29.8574 8.78902L29.9694 8.78125" stroke="white" stroke-width="1.01239" stroke-miterlimit="10"/>
<path d="M51.5681 18.709C51.3894 18.4695 51.2064 18.2334 51.0191 18.0008C50.7692 17.6913 50.5125 17.3877 50.2488 17.0899C50.1167 16.941 49.9829 16.7939 49.8474 16.6484C49.7794 16.5753 49.7115 16.5034 49.6428 16.4309C48.9565 15.7113 48.228 15.0332 47.4612 14.4001C47.0003 14.0199 46.5255 13.6565 46.037 13.3099C45.7936 13.1373 45.5467 12.9684 45.2964 12.8031C45.1294 12.6934 44.9613 12.5855 44.7921 12.4794C40.8501 10.018 36.2946 8.71678 31.6473 8.72464C31.5178 8.72464 31.3884 8.72572 31.2589 8.72788H31.1449L30.8497 8.73565H30.7436C30.6141 8.74083 30.4846 8.74601 30.3552 8.75248H30.3072C30.1933 8.75895 30.08 8.76543 29.9667 8.7732L29.8548 8.78097L29.5518 8.80427L29.4624 8.81204C29.333 8.82326 29.2048 8.83534 29.0779 8.84829L29.0132 8.85541C28.9057 8.86642 28.7982 8.87872 28.6895 8.89102L28.5852 8.90397C28.4778 8.91691 28.3697 8.93115 28.2616 8.9454L28.2007 8.95381C28.0712 8.97129 27.9418 8.99071 27.8162 9.01013L27.7463 9.02114C27.6401 9.03797 27.5346 9.05545 27.4291 9.07358L27.3384 9.08911C27.2167 9.11069 27.0957 9.13227 26.9753 9.15385H26.9623C26.8328 9.17845 26.7034 9.20413 26.5739 9.23089L26.5059 9.24513C26.3993 9.268 26.2925 9.29131 26.1855 9.31504L26.1117 9.33123C25.8575 9.38863 25.6046 9.45034 25.353 9.51637L25.2927 9.53256C25.1814 9.56147 25.0703 9.59147 24.9594 9.62254L24.9101 9.63614C24.6564 9.70735 24.4041 9.78266 24.1534 9.86207L24.1042 9.87761C23.9864 9.91515 23.8687 9.95356 23.7514 9.99284L23.7326 9.99866C23.4797 10.085 23.2281 10.1741 22.9778 10.266L22.9415 10.2796C22.5652 10.4199 22.1938 10.569 21.8274 10.727L21.8047 10.7367C21.4331 10.8972 21.0663 11.0664 20.7042 11.2442L20.6971 11.2481C20.0929 11.545 19.5025 11.8655 18.9259 12.2094C20.9876 11.1077 23.2122 10.3428 25.5154 9.94364L25.5472 9.93781C25.6456 9.92098 25.744 9.9048 25.8424 9.88926L25.8812 9.88279C26.1013 9.84848 26.322 9.81805 26.5447 9.78892H26.5519C26.6548 9.77597 26.7577 9.76367 26.8607 9.75266L26.9345 9.74425L27.1837 9.719L27.2692 9.71123C27.3553 9.70282 27.442 9.6957 27.5281 9.68858L27.5929 9.6834C27.7016 9.67498 27.8104 9.66721 27.9198 9.66009H27.9495C28.046 9.65362 28.1437 9.64844 28.2396 9.64391L28.3393 9.63938C28.4143 9.63938 28.4888 9.6329 28.5639 9.63096L28.6752 9.62708L28.9018 9.6219H29.0022C29.1096 9.6219 29.2177 9.6219 29.3259 9.6219C29.5168 9.6219 29.7065 9.62189 29.8962 9.62902C30.1806 9.63592 30.4635 9.64844 30.7449 9.66656C30.9326 9.67908 31.1195 9.69332 31.3055 9.70929L31.5845 9.73583C31.7705 9.75439 31.9557 9.77597 32.1399 9.80057L32.4157 9.83747C32.6911 9.87631 32.9647 9.91947 33.2366 9.96694C33.8719 10.0804 34.4977 10.2205 35.1139 10.3871C35.3772 10.4583 35.6386 10.5343 35.8979 10.615C44.8912 13.4122 51.4211 21.8008 51.4211 31.7146C51.4211 41.6284 44.8912 50.0163 35.8979 52.8136C35.639 52.8947 35.3776 52.9707 35.1139 53.0415C34.499 53.2081 33.8732 53.3481 33.2366 53.4616C32.9647 53.5104 32.6911 53.5535 32.4157 53.5911L32.1399 53.628C31.9552 53.6513 31.7701 53.6729 31.5845 53.6927C31.4919 53.7024 31.3987 53.7109 31.3055 53.7193C31.1199 53.7361 30.9331 53.7503 30.7449 53.762C30.4631 53.7801 30.1801 53.7926 29.8962 53.7995C29.7065 53.8047 29.5168 53.8067 29.3259 53.8067C29.1349 53.8067 28.9452 53.8067 28.7555 53.7995C28.4715 53.7922 28.1889 53.7797 27.9075 53.762C27.6261 53.7443 27.3456 53.7212 27.0659 53.6927C26.7875 53.6642 26.5107 53.6308 26.2353 53.5924C25.96 53.554 25.6861 53.5108 25.4138 53.4629C15.0779 51.6166 7.23248 42.5826 7.23248 31.7159V31.7127C7.23248 31.5968 7.23248 31.4816 7.23248 31.3663V31.2653C7.23248 31.1753 7.23701 31.086 7.2396 30.9967C7.2396 30.9669 7.2396 30.9371 7.2396 30.9073C7.24413 30.7915 7.24867 30.6756 7.25515 30.5597C7.25515 30.5442 7.25515 30.528 7.25515 30.5124C7.26033 30.4108 7.26679 30.3092 7.27326 30.2082C7.27326 30.1778 7.2778 30.1473 7.27974 30.1176C7.28686 30.0179 7.29462 29.9182 7.30304 29.8191C7.30304 29.8023 7.30306 29.7855 7.30759 29.768C7.31795 29.6502 7.32895 29.5317 7.34125 29.4139C7.34125 29.397 7.34514 29.3802 7.34644 29.3634C7.35744 29.2611 7.3691 29.1594 7.3814 29.0578L7.38914 28.9931C7.41849 28.7557 7.45152 28.5183 7.48821 28.281C7.48821 28.2674 7.49275 28.2544 7.49469 28.2408C7.51217 28.1314 7.52963 28.0227 7.54906 27.9171L7.55487 27.8835C7.5963 27.6433 7.64292 27.4044 7.69212 27.1668L7.69794 27.1403C7.7739 26.7795 7.85871 26.4224 7.95236 26.0689L7.95625 26.054C7.98689 25.9375 8.0184 25.8214 8.05077 25.7057C7.94934 26.0104 7.85331 26.3182 7.76267 26.6289C7.76267 26.6347 7.75943 26.6405 7.75749 26.6464C7.66729 26.9571 7.58314 27.27 7.50502 27.585V27.5935C7.46683 27.7488 7.42928 27.9048 7.39433 28.0615C7.39433 28.0706 7.39044 28.079 7.38785 28.0881C7.31836 28.3966 7.25363 28.7074 7.19364 29.0203C7.19364 29.0364 7.18782 29.0526 7.18523 29.0688C7.15674 29.2235 7.12957 29.3783 7.10367 29.5343V29.5485C7.07907 29.7 7.05576 29.851 7.03375 30.0017C7.03375 30.0159 7.02922 30.0308 7.02727 30.045C7.00591 30.1965 6.98583 30.348 6.96706 30.4982C6.96706 30.5209 6.96124 30.5435 6.95865 30.5629C6.92196 30.8681 6.89066 31.1747 6.86477 31.4828C6.86477 31.5113 6.86025 31.5392 6.85766 31.567C6.846 31.7172 6.83521 31.8682 6.82529 32.0202C6.82529 32.0402 6.8253 32.0603 6.82206 32.081C6.81386 32.2204 6.80674 32.36 6.8007 32.4999C6.8007 32.5238 6.80071 32.5478 6.79747 32.5711C6.79143 32.7204 6.78687 32.8699 6.78385 33.0197V33.1155C6.78385 33.2689 6.77933 33.4224 6.77933 33.5764C6.77207 38.2226 8.0733 42.777 10.5341 46.718C10.7982 47.1414 11.0748 47.5563 11.364 47.9629C11.7092 48.4506 12.0726 48.9253 12.4542 49.3871C12.5189 49.4641 12.5836 49.5405 12.6484 49.6163C13.2296 50.3025 13.8477 50.9566 14.4998 51.5758C14.5717 51.6445 14.6435 51.7124 14.7167 51.7804C15.5913 52.5944 16.5231 53.3446 17.5049 54.0255C17.5865 54.0824 17.6687 54.1388 17.7516 54.1944C18.0822 54.4176 18.4183 54.6334 18.7601 54.8418C18.9328 54.9454 19.1054 55.047 19.278 55.1467C19.537 55.2969 19.8001 55.4419 20.0672 55.5817C20.5993 55.8627 21.1427 56.1245 21.6973 56.367C21.8818 56.4479 22.0682 56.5269 22.2547 56.6033C22.4411 56.6797 22.6301 56.7535 22.8192 56.8253C23.0082 56.8972 23.1991 56.9671 23.3901 57.0344C23.5811 57.1018 23.7747 57.1639 23.9676 57.2286C24.4518 57.3857 24.9421 57.5284 25.4384 57.6566C25.5381 57.6818 25.6371 57.7071 25.7368 57.731C26.1365 57.829 26.5394 57.9166 26.9455 57.9938C27.1481 58.0333 27.3527 58.0696 27.5572 58.1032C27.9668 58.1714 28.3798 58.2293 28.7963 58.2767C29.2128 58.3242 29.6321 58.3615 30.0541 58.3887C30.5824 58.4215 31.1145 58.4384 31.6505 58.4392C32.08 58.4392 32.5064 58.4284 32.9297 58.4069C33.1414 58.3959 33.3531 58.3823 33.5635 58.3667C33.7739 58.3512 33.9837 58.3318 34.1921 58.3104C34.5054 58.2785 34.817 58.2409 35.1269 58.1978C35.2305 58.1835 35.3334 58.168 35.4363 58.1524C35.6422 58.1214 35.8468 58.0877 36.0507 58.0508C36.2546 58.0139 36.4579 57.9751 36.6605 57.9336C37.5641 57.7491 38.4565 57.5137 39.3335 57.2286C39.5277 57.1639 39.7219 57.0992 39.9109 57.0344C40.4849 56.8325 41.0495 56.61 41.6045 56.367C41.789 56.2867 41.9722 56.2032 42.1547 56.1184C42.3373 56.0336 42.5185 55.9462 42.6979 55.8562C43.1476 55.6331 43.5895 55.3957 44.0237 55.1441C44.1963 55.0444 44.3689 54.9428 44.5416 54.8392C44.8834 54.6312 45.2196 54.4154 45.5502 54.1919C45.6322 54.1362 45.7144 54.0799 45.7968 54.0229C45.9608 53.909 46.1233 53.7935 46.2843 53.6765C46.6058 53.4413 46.9217 53.199 47.232 52.9496C47.5423 52.7001 47.8462 52.4431 48.1435 52.1785C48.257 52.0784 48.369 51.977 48.4795 51.8743C48.6236 51.7413 48.7663 51.6071 48.9074 51.4716C49.0155 51.3674 49.123 51.2625 49.2311 51.1563C49.3017 51.0864 49.3716 51.0152 49.4408 50.9447C49.6437 50.7366 49.8429 50.5254 50.0384 50.3109L50.2539 50.0714C50.5172 49.7736 50.774 49.4697 51.0243 49.1599C51.2116 48.9272 51.3946 48.6914 51.5733 48.4523C54.7802 44.1571 56.5128 38.9403 56.5128 33.58C56.5128 28.2197 54.7802 23.0029 51.5733 18.7077L51.5681 18.709Z" fill="white" stroke="white" stroke-width="1.01239" stroke-miterlimit="10"/>
<path d="M8.06943 25.6992H8.06836H8.06943Z" fill="white" stroke="white" stroke-width="1.01239" stroke-miterlimit="10"/>
<path d="M18.9154 12.2305L18.9141 12.2318L18.9154 12.2305Z" fill="white" stroke="white" stroke-width="1.01239" stroke-miterlimit="10"/>
<path d="M27.5967 9.69127C27.7054 9.68286 27.8142 9.67509 27.9236 9.66797C27.8161 9.67509 27.7074 9.68286 27.5967 9.69127Z" fill="white" stroke="white" stroke-width="1.01239" stroke-miterlimit="10"/>
<path d="M27.9551 9.66657C28.0515 9.6601 28.1493 9.65492 28.2451 9.65039C28.148 9.65492 28.0496 9.6601 27.9551 9.66657Z" fill="white" stroke="white" stroke-width="1.01239" stroke-miterlimit="10"/>
<path d="M8.06912 25.6999V25.7038C8.03675 25.8194 8.00525 25.9355 7.97461 26.052C8.00568 25.9342 8.03762 25.8166 8.07042 25.6992L8.06912 25.6999Z" fill="white" stroke="white" stroke-width="1.01239" stroke-miterlimit="10"/>
<path d="M7.71484 27.1378C7.7908 26.777 7.87562 26.4199 7.96927 26.0664C7.87519 26.4199 7.79037 26.777 7.71484 27.1378Z" fill="white" stroke="white" stroke-width="1.01239" stroke-miterlimit="10"/>
<path d="M7.29688 30.1187C7.304 30.0191 7.31176 29.9194 7.32017 29.8203" stroke="white" stroke-width="1.01239" stroke-miterlimit="10"/>
<path d="M26.9395 9.75181L27.1887 9.72656" stroke="white" stroke-width="1.01239" stroke-miterlimit="10"/>
<path d="M29.0078 9.62695C29.1153 9.62695 29.2234 9.62695 29.3315 9.62695" stroke="white" stroke-width="1.01239" stroke-miterlimit="10"/>
<path d="M27.2734 9.71797C27.3595 9.70955 27.4463 9.70243 27.5324 9.69531C27.4476 9.70243 27.3608 9.70955 27.2734 9.71797Z" fill="white" stroke="white" stroke-width="1.01239" stroke-miterlimit="10"/>
<path d="M26.5566 9.79797C26.6596 9.78502 26.7625 9.77272 26.8654 9.76172" stroke="white" stroke-width="1.01239" stroke-miterlimit="10"/>
<path d="M25.8867 9.89074C26.1068 9.85643 26.3276 9.82601 26.5503 9.79688C26.3276 9.82471 26.1081 9.85643 25.8867 9.89074Z" fill="white" stroke="white" stroke-width="1.01239" stroke-miterlimit="10"/>
<path d="M18.9141 12.2299C20.98 11.1212 23.2105 10.3512 25.5205 9.94922C23.2172 10.3483 20.9926 11.1133 18.9309 12.215L18.9147 12.2247L18.9141 12.2299Z" fill="white" stroke="white" stroke-width="1.01239" stroke-miterlimit="10"/>
<path d="M25.5527 9.94504C25.6511 9.92821 25.7495 9.91202 25.8479 9.89648" stroke="white" stroke-width="1.01239" stroke-miterlimit="10"/>
<path d="M7.25391 30.9082C7.25844 30.7923 7.26298 30.6764 7.26946 30.5605C7.26298 30.6764 7.25844 30.7955 7.25391 30.9082Z" fill="white" stroke="white" stroke-width="1.01239" stroke-miterlimit="10"/>
<path d="M7.32422 29.7682C7.33458 29.6504 7.34558 29.5319 7.35788 29.4141C7.34558 29.5319 7.33393 29.6504 7.32422 29.7682Z" fill="white" stroke="white" stroke-width="1.01239" stroke-miterlimit="10"/>
<path d="M28.3447 9.64513C28.4198 9.64513 28.4943 9.63866 28.5693 9.63672C28.4943 9.63866 28.4198 9.6419 28.3447 9.64513Z" fill="white" stroke="white" stroke-width="1.01239" stroke-miterlimit="10"/>
<path d="M7.51172 28.2417C7.5292 28.1322 7.54667 28.0235 7.56609 27.918C7.54667 28.0235 7.52855 28.1322 7.51172 28.2417Z" fill="white" stroke="white" stroke-width="1.01239" stroke-miterlimit="10"/>
<path d="M7.24414 31.2667C7.24414 31.1767 7.24869 31.0874 7.25128 30.998C7.24869 31.0874 7.24608 31.1767 7.24414 31.2667Z" fill="white" stroke="white" stroke-width="1.01239" stroke-miterlimit="10"/>
<path d="M7.40625 28.9914C7.43603 28.7538 7.471 28.5175 7.50531 28.2793C7.46863 28.5167 7.4356 28.754 7.40625 28.9914Z" fill="white" stroke="white" stroke-width="1.01239" stroke-miterlimit="10"/>
<path d="M28.6807 9.63408L28.9072 9.62891" stroke="white" stroke-width="1.01239" stroke-miterlimit="10"/>
<path d="M7.23926 31.7135C7.23926 31.5976 7.23926 31.4824 7.23926 31.3672C7.23991 31.4824 7.23926 31.5976 7.23926 31.7135Z" fill="white" stroke="white" stroke-width="1.01239" stroke-miterlimit="10"/>
<path d="M7.26953 30.5132C7.27471 30.4116 7.28117 30.31 7.28764 30.209C7.28376 30.31 7.2773 30.4116 7.26953 30.5132Z" fill="white" stroke="white" stroke-width="1.01239" stroke-miterlimit="10"/>
<path d="M7.36328 29.3642C7.37429 29.2619 7.38594 29.1602 7.39824 29.0586" stroke="white" stroke-width="1.01239" stroke-miterlimit="10"/>
<path d="M7.57129 27.8827C7.61445 27.6423 7.6602 27.4034 7.70854 27.166C7.6574 27.4023 7.61272 27.6412 7.57129 27.8827Z" fill="white" stroke="white" stroke-width="1.01239" stroke-miterlimit="10"/>
<path d="M30.75 9.66797C30.9377 9.68048 31.1246 9.69472 31.3106 9.71069C31.125 9.69429 30.9382 9.68005 30.75 9.66797Z" stroke="white" stroke-width="0.911147" stroke-miterlimit="10"/>
<path d="M51.4246 31.7168C51.4246 41.63 44.8946 50.0186 35.9014 52.8158M51.4246 31.7168C51.4246 21.8037 44.8946 13.4145 35.9014 10.6172C44.8946 13.4145 51.4246 21.803 51.4246 31.7168Z" stroke="white" stroke-width="0.911147" stroke-miterlimit="10"/>
<path d="M7.23926 31.7168C7.23926 42.5835 15.0847 51.6175 25.4206 53.4638" stroke="white" stroke-width="0.911147" stroke-miterlimit="10"/>
<path d="M29.332 9.62695C29.523 9.62695 29.7127 9.62695 29.9024 9.63407" stroke="white" stroke-width="0.911147" stroke-miterlimit="10"/>
<path d="M28.9082 9.62695H29.0085" stroke="white" stroke-width="0.911147" stroke-miterlimit="10"/>
<path d="M32.1453 53.6328C31.9606 53.6561 31.7754 53.6777 31.5898 53.6975C31.7759 53.6781 31.961 53.6565 32.1453 53.6328Z" stroke="white" stroke-width="0.911147" stroke-miterlimit="10"/>
<path d="M28.5674 9.6367L28.6787 9.63281" stroke="white" stroke-width="0.911147" stroke-miterlimit="10"/>
<path d="M31.3106 53.7227C31.125 53.7395 30.9382 53.7537 30.75 53.7654C30.9377 53.7537 31.1246 53.7395 31.3106 53.7227Z" stroke="white" stroke-width="0.911147" stroke-miterlimit="10"/>
<path d="M29.332 53.8099C29.1417 53.8099 28.9514 53.8099 28.7617 53.8027C28.9514 53.8079 29.1417 53.8099 29.332 53.8099Z" stroke="white" stroke-width="0.911147" stroke-miterlimit="10"/>
<path d="M29.9024 53.8027C29.7127 53.8079 29.523 53.8099 29.332 53.8099" stroke="white" stroke-width="0.911147" stroke-miterlimit="10"/>
<path d="M26.2424 53.5943C25.9666 53.5559 25.6928 53.5127 25.4209 53.4648" stroke="white" stroke-width="0.911147" stroke-miterlimit="10"/>
<path d="M27.0728 53.6941C26.7944 53.6656 26.5175 53.6322 26.2422 53.5938C26.5175 53.6326 26.7944 53.666 27.0728 53.6941Z" stroke="white" stroke-width="0.911147" stroke-miterlimit="10"/>
<path d="M27.9138 53.7646C27.632 53.7465 27.3515 53.7234 27.0723 53.6953C27.3515 53.7238 27.632 53.7469 27.9138 53.7646Z" stroke="white" stroke-width="0.911147" stroke-miterlimit="10"/>
<path d="M33.2427 53.4629C32.9709 53.5117 32.6972 53.5548 32.4219 53.5924" stroke="white" stroke-width="0.911147" stroke-miterlimit="10"/>
<path d="M33.2422 9.9707C33.8775 10.0842 34.5033 10.2243 35.1196 10.3908C34.5028 10.2247 33.877 10.0846 33.2422 9.9707Z" stroke="white" stroke-width="0.911147" stroke-miterlimit="10"/>
<path d="M35.1172 10.3887C35.3805 10.4599 35.6418 10.5358 35.9011 10.6165C35.6422 10.5363 35.3809 10.4603 35.1172 10.3887Z" stroke="white" stroke-width="0.911147" stroke-miterlimit="10"/>
<path d="M32.4219 9.83789C32.6972 9.87673 32.9709 9.91989 33.2427 9.96736" stroke="white" stroke-width="0.911147" stroke-miterlimit="10"/>
<path d="M31.5898 9.73828C31.7759 9.75684 31.961 9.77842 32.1453 9.80302C31.961 9.77885 31.7759 9.75727 31.5898 9.73828Z" stroke="white" stroke-width="0.911147" stroke-miterlimit="10"/>
<path d="M35.1176 53.043C34.5026 53.2096 33.8768 53.3496 33.2402 53.4631C33.8772 53.35 34.503 53.21 35.1176 53.043Z" stroke="white" stroke-width="0.911147" stroke-miterlimit="10"/>
<path d="M35.9011 52.8145C35.6422 52.8956 35.3809 52.9715 35.1172 53.0423C35.3809 52.9703 35.6422 52.8943 35.9011 52.8145Z" stroke="white" stroke-width="0.911147" stroke-miterlimit="10"/>
<path d="M7.56543 27.9145L7.57125 27.8809" stroke="white" stroke-width="0.911147" stroke-miterlimit="10"/>
<path d="M27.1885 9.72652L27.2739 9.71875" stroke="white" stroke-width="0.911147" stroke-miterlimit="10"/>
<path d="M7.35742 29.4138C7.35742 29.3969 7.36131 29.3801 7.36261 29.3633C7.36131 29.3801 7.35936 29.3969 7.35742 29.4138Z" stroke="white" stroke-width="0.911147" stroke-miterlimit="10"/>
<path d="M7.96875 26.0691L7.97252 26.0547" stroke="white" stroke-width="0.911147" stroke-miterlimit="10"/>
<path d="M27.5322 9.69659L27.597 9.69141" stroke="white" stroke-width="0.911147" stroke-miterlimit="10"/>
<path d="M26.8652 9.76037L26.939 9.75195" stroke="white" stroke-width="0.911147" stroke-miterlimit="10"/>
<path d="M7.24219 31.3666V31.2656" stroke="white" stroke-width="0.911147" stroke-miterlimit="10"/>
<path d="M25.8486 9.8971L25.8875 9.89062" stroke="white" stroke-width="0.911147" stroke-miterlimit="10"/>
<path d="M7.29004 30.2098C7.29004 30.1793 7.29458 30.1489 7.29652 30.1191C7.29458 30.1489 7.29263 30.1793 7.29004 30.2098Z" stroke="white" stroke-width="0.911147" stroke-miterlimit="10"/>
<path d="M27.9258 9.66797H27.9556" stroke="white" stroke-width="0.911147" stroke-miterlimit="10"/>
<path d="M7.25195 30.9975C7.25195 30.9678 7.25195 30.938 7.25195 30.9082C7.2539 30.938 7.2526 30.9678 7.25195 30.9975Z" stroke="white" stroke-width="0.911147" stroke-miterlimit="10"/>
<path d="M25.5205 9.95114L25.5522 9.94531" stroke="white" stroke-width="0.911147" stroke-miterlimit="10"/>
<path d="M7.39844 29.0589L7.40621 28.9941" stroke="white" stroke-width="0.911147" stroke-miterlimit="10"/>
<path d="M7.32031 29.8207C7.32031 29.8038 7.32033 29.787 7.32486 29.7695C7.32292 29.787 7.32161 29.8038 7.32031 29.8207Z" stroke="white" stroke-width="0.911147" stroke-miterlimit="10"/>
<path d="M7.50488 28.2823C7.50488 28.2687 7.50942 28.2558 7.51136 28.2422C7.50942 28.2558 7.50682 28.2713 7.50488 28.2823Z" stroke="white" stroke-width="0.911147" stroke-miterlimit="10"/>
<path d="M7.26953 30.5609C7.26953 30.5454 7.26953 30.5292 7.26953 30.5137" stroke="white" stroke-width="0.911147" stroke-miterlimit="10"/>
<path d="M28.2441 9.65102L28.3438 9.64648" stroke="white" stroke-width="0.911147" stroke-miterlimit="10"/>
<path d="M7.70898 27.1633L7.7148 27.1367" stroke="white" stroke-width="0.911147" stroke-miterlimit="10"/>
<path d="M9.58984 22.1154L9.59385 22.1074" stroke="white" stroke-width="0.911147" stroke-miterlimit="10"/>
<path d="M11.6328 18.8413L11.6382 18.834" stroke="white" stroke-width="0.911147" stroke-miterlimit="10"/>
<path d="M13.7588 16.3245L13.763 16.3203" stroke="white" stroke-width="0.911147" stroke-miterlimit="10"/>
<path d="M8.07031 25.6992V25.7006V25.6992Z" stroke="white" stroke-width="0.911147" stroke-miterlimit="10"/>
<path d="M9.85156 21.625L9.85507 21.6191" stroke="white" stroke-width="0.911147" stroke-miterlimit="10"/>
<path d="M8.44727 24.6447V24.6387" stroke="white" stroke-width="0.911147" stroke-miterlimit="10"/>
<path d="M8.25098 25.1747L8.25498 25.1641" stroke="white" stroke-width="0.911147" stroke-miterlimit="10"/>
<path d="M11.3125 19.2868V19.2832" stroke="white" stroke-width="0.911147" stroke-miterlimit="10"/>
<path d="M18.913 12.23C18.1251 12.7014 17.3638 13.2158 16.6323 13.7707C16.4869 13.8808 16.3425 13.9928 16.1992 14.1067C15.3406 14.7894 14.5277 15.5277 13.7658 16.3168L13.7612 16.3214C12.9999 17.1104 12.2914 17.9488 11.6405 18.8312L11.6353 18.8383C11.5272 18.984 11.4216 19.1309 11.3168 19.2798V19.2831C10.7885 20.0323 10.3022 20.8104 9.86019 21.6136L9.85634 21.6201C9.77002 21.7802 9.68371 21.9407 9.59739 22.1017L9.5935 22.1095C9.16625 22.929 8.78542 23.7719 8.45283 24.6342V24.64C8.3881 24.8109 8.32336 24.9831 8.25862 25.1579L8.25473 25.1683C8.19 25.3424 8.13175 25.5172 8.07348 25.6926C8.04025 25.81 8.00832 25.9276 7.97767 26.0455L7.97379 26.0604C7.8797 26.4138 7.79489 26.7709 7.71936 27.1317L7.71354 27.1583C7.66391 27.3961 7.61816 27.635 7.57629 27.8749L7.57048 27.9086C7.55106 28.0173 7.53356 28.1261 7.51608 28.2323C7.51608 28.2459 7.51157 28.2588 7.50963 28.2724C7.47273 28.5074 7.44034 28.7437 7.41056 28.9845L7.40279 29.0492C7.39049 29.1509 7.37883 29.2525 7.36783 29.3548C7.36783 29.3716 7.36462 29.3885 7.36268 29.4053C7.35038 29.5231 7.33937 29.6416 7.32901 29.7594C7.32901 29.7769 7.32575 29.7937 7.32446 29.8106C7.31604 29.9096 7.30828 30.0093 7.30116 30.109C7.30116 30.1388 7.29727 30.1692 7.29468 30.1996C7.28821 30.3006 7.28175 30.4022 7.27657 30.5039C7.27657 30.5194 7.27657 30.5356 7.27657 30.5511C7.2701 30.667 7.26555 30.7829 7.26102 30.8988C7.26102 30.9286 7.26102 30.9583 7.26102 30.9881C7.26102 31.0774 7.25585 31.1668 7.25391 31.2568V31.3578C7.25391 31.473 7.25391 31.5882 7.25391 31.7041V31.7073C7.25391 42.574 15.0994 51.6081 25.4352 53.4544C25.7071 53.5031 25.981 53.5463 26.2567 53.5838C26.5325 53.6214 26.8094 53.6548 27.0873 53.6842C27.3657 53.7127 27.6462 53.7357 27.9289 53.7534C28.2116 53.7711 28.4943 53.7836 28.7769 53.791C28.9666 53.7962 29.1569 53.7981 29.3473 53.7981C29.5376 53.7981 29.7279 53.7981 29.9176 53.791C30.202 53.7836 30.4849 53.7711 30.7663 53.7534C30.954 53.7418 31.1409 53.7275 31.3269 53.7107C31.4201 53.7023 31.5134 53.6939 31.6059 53.6842C31.7919 53.6656 31.9771 53.644 32.1614 53.6194L32.4371 53.5825C32.7125 53.5441 32.9861 53.501 33.258 53.4531C33.8933 53.34 34.5191 53.1999 35.1354 53.0329C35.3986 52.9617 35.6599 52.8857 35.9193 52.805C44.9126 50.0078 51.4426 41.6192 51.4426 31.706C51.4426 21.7929 44.8938 13.4134 35.9006 10.6161C35.6416 10.5358 35.3803 10.4599 35.1166 10.3882C34.5016 10.2221 33.8758 10.082 33.2392 9.96809C32.9673 9.91975 32.6937 9.8766 32.4184 9.83862L32.1426 9.80172C31.9579 9.77841 31.7727 9.75683 31.5871 9.73698L31.3081 9.71044C31.1226 9.69447 30.9357 9.68023 30.7475 9.66772C30.4657 9.65045 30.1828 9.63794 29.8988 9.63017C29.7091 9.62564 29.5194 9.62305 29.3285 9.62305C29.2204 9.62305 29.1123 9.62305 29.0048 9.62305H28.9045L28.6779 9.62822L28.5666 9.63211C28.4915 9.63211 28.417 9.63729 28.3419 9.64052L28.2422 9.64506C28.1451 9.64959 28.048 9.65477 27.9522 9.66124H27.9224C27.813 9.66836 27.7043 9.67613 27.5955 9.68454L27.5308 9.68972C27.4447 9.69684 27.3579 9.70397 27.2718 9.71238L27.1863 9.72015L26.9371 9.7454L26.8633 9.75381C26.7604 9.76482 26.6575 9.77712 26.5545 9.79006H26.5474C26.3247 9.8179 26.1039 9.84962 25.8838 9.88393L25.845 9.89041C25.7466 9.90595 25.6482 9.92213 25.5498 9.93896L25.5181 9.94479C23.2083 10.3462 20.9778 11.1155 18.9117 12.2235L18.913 12.23Z" stroke="white" stroke-width="0.911147" stroke-miterlimit="10"/>
<path d="M34.2268 30.2913C33.8714 24.2915 32.8026 0.577178 31.6497 1.00574C30.4948 0.577178 29.4286 24.2915 29.0732 30.2913C28.7178 36.2911 28.1436 56.2178 28.1436 56.2178C32.1035 56.8302 35.0982 56.2178 35.0982 56.2178C35.0982 56.2178 34.5823 36.2918 34.2268 30.2913Z" fill="white" stroke="white" stroke-width="1.01239" stroke-miterlimit="10"/>
<path d="M34.0705 10.1339C34.0705 10.1339 29.8348 9.4995 27.5729 9.62444C25.3109 9.74938 29.8341 8.7246 29.8341 8.7246C29.8341 8.7246 32.9279 8.69806 34.0705 8.84113" fill="white"/>
<path d="M34.0705 10.1339C34.0705 10.1339 29.8348 9.4995 27.5729 9.62444C25.3109 9.74938 29.8341 8.7246 29.8341 8.7246C29.8341 8.7246 32.9279 8.69806 34.0705 8.84113" stroke="white" stroke-width="0.911147" stroke-miterlimit="10"/>
<path d="M16.6788 27.4882L18.1612 28.8263L16.1667 28.7246L16.2683 30.7192L14.9302 29.2367L13.5921 30.7192L13.6938 28.7246L11.6992 28.8263L13.1817 27.4882L11.6992 26.1501L13.6938 26.2517L13.5921 24.2578L14.9302 25.7396L16.2683 24.2578L16.1667 26.2517L18.1612 26.1501L16.6788 27.4882Z" fill="white" stroke="white" stroke-width="0.911147" stroke-miterlimit="10"/>
<path d="M44.5277 33.9322L46.0102 35.2703L44.0157 35.1687L44.1179 37.1632L42.7798 35.6807L41.4411 37.1632L41.5433 35.1687L39.5488 35.2703L41.0313 33.9322L39.5488 32.5941L41.5433 32.6957L41.4411 30.7012L42.7798 32.1836L44.1179 30.7012L44.0157 32.6957L46.0102 32.5941L44.5277 33.9322Z" fill="white" stroke="white" stroke-width="0.911147" stroke-miterlimit="10"/>
<path d="M116 34L179 34" stroke="white" stroke-width="1.21486" stroke-miterlimit="10"/>
<path d="M190 34L220 34" stroke="white" stroke-width="1.21486" stroke-miterlimit="10"/>
<path d="M75 34L94 34" stroke="white" stroke-width="1.21486" stroke-miterlimit="10"/>
<path d="M100 34L109 34" stroke="white" stroke-width="1.21486" stroke-miterlimit="10"/>
<path d="M77.58 31.438L77.544 31.222C77.166 29.944 75.204 28 73.8 28H65.034V27.82C65.106 26.866 65.142 25.894 65.142 24.94V15.652C64.8 15.652 63.882 15.85 63.414 15.976L63.342 15.868L63.756 15.4H67.986V15.58C67.932 16.534 67.896 17.506 67.896 18.46V27.64H72.864V18.46C72.864 17.506 72.846 16.534 72.774 15.58V15.4H75.726V15.58C75.654 16.534 75.618 17.506 75.618 18.46V24.94C75.618 25.84 75.654 26.758 75.708 27.658H77.112L76.716 26.866H77.256L77.85 31.348L77.58 31.438ZM89.3384 27.424L89.3924 27.532L89.0684 28H85.5764V27.82C85.6124 26.866 85.6484 25.894 85.6484 24.94V20.35L79.7264 28.522H79.5644C79.6004 27.496 79.6184 26.272 79.6184 24.58V19.252C79.3484 19.252 78.6104 19.45 78.2324 19.576L78.1784 19.468L78.5024 19H80.0684C80.5904 19 81.5984 18.946 81.9944 18.874L82.0484 18.982C81.9764 19.792 81.9404 20.944 81.9404 22.06V24.85L86.1884 19H86.4224C86.6924 19 87.5384 18.946 88.0064 18.874L88.0604 18.982C88.0064 19.792 87.9524 20.944 87.9524 22.06V27.748C88.2224 27.748 88.9604 27.532 89.3384 27.424ZM97.0246 31.6V31.42C97.0606 30.466 97.0966 29.494 97.0966 28.54V26.146C96.6106 27.442 95.6566 28.18 94.2706 28.18C92.1466 28.18 90.6166 26.2 90.6166 23.5C90.6166 20.71 92.0926 18.82 94.2706 18.82C95.6926 18.82 96.6286 19.54 97.0966 20.8V15.652C96.8266 15.652 96.0886 15.85 95.7106 15.976L95.6566 15.868L95.9806 15.4H97.5466C98.0686 15.4 99.0766 15.346 99.4726 15.274L99.5086 15.382C99.4546 16.192 99.4186 17.344 99.4186 18.46V20.854C99.9046 19.558 100.859 18.82 102.245 18.82C104.369 18.82 105.899 20.782 105.899 23.5C105.899 26.29 104.423 28.18 102.245 28.18C100.823 28.18 99.8866 27.46 99.4186 26.182V31.348C99.7066 31.348 100.499 31.15 100.913 31.024L100.967 31.132L100.607 31.6H97.0246ZM95.1346 27.622C96.3406 27.622 97.2046 25.948 97.2046 23.5C97.2046 21.034 96.3406 19.36 95.1346 19.36C93.9106 19.36 93.0646 21.034 93.0646 23.5C93.0646 25.966 93.9106 27.622 95.1346 27.622ZM101.381 27.622C102.605 27.622 103.451 25.966 103.451 23.5C103.451 21.034 102.605 19.36 101.381 19.36C100.175 19.36 99.3106 21.034 99.3106 23.5C99.3106 25.948 100.175 27.622 101.381 27.622ZM108.463 31.6V31.42C108.517 30.466 108.553 29.494 108.553 28.54V19.252C108.283 19.252 107.545 19.45 107.167 19.576L107.113 19.468L107.437 19H108.985C109.507 19 110.515 18.946 110.929 18.874L110.947 18.982C110.911 19.522 110.875 20.17 110.875 20.872C111.397 19.558 112.441 18.82 113.953 18.82C116.257 18.82 117.931 20.782 117.931 23.5C117.931 26.29 116.329 28.18 113.953 28.18C112.405 28.18 111.379 27.442 110.857 26.128V31.348C111.199 31.348 112.117 31.15 112.585 31.024L112.657 31.132L112.243 31.6H108.463ZM113.125 27.622C114.511 27.622 115.483 25.966 115.483 23.5C115.483 21.034 114.511 19.36 113.125 19.36C111.577 19.36 110.749 21.484 110.749 23.5C110.749 25.948 111.739 27.622 113.125 27.622ZM124.591 28.18C121.639 28.18 119.533 26.236 119.533 23.5C119.533 20.764 121.639 18.82 124.591 18.82C127.543 18.82 129.649 20.764 129.649 23.5C129.649 26.236 127.543 28.18 124.591 28.18ZM124.591 27.874C126.103 27.874 127.183 26.092 127.183 23.5C127.183 20.908 126.103 19.108 124.591 19.108C123.061 19.108 121.999 20.908 121.999 23.5C121.999 26.092 123.061 27.874 124.591 27.874ZM132.211 28V27.82C132.265 26.866 132.301 25.894 132.301 24.94V19.252C132.031 19.252 131.293 19.45 130.915 19.576L130.861 19.468L131.185 19H135.325C138.043 19 139.699 19.864 139.699 21.286C139.699 22.42 138.835 23.194 137.395 23.446C139.195 23.608 140.275 24.418 140.275 25.624C140.275 27.1 138.529 28 135.649 28H132.211ZM134.605 23.32H135.307C136.783 23.32 137.737 22.528 137.737 21.286C137.737 20.098 136.783 19.342 135.307 19.342H134.605V23.32ZM134.605 27.712H135.397C137.035 27.712 138.115 26.902 138.115 25.714C138.115 24.472 137.035 23.644 135.379 23.644H134.605V27.712ZM152.356 27.424L152.41 27.532L152.086 28H148.594V27.82C148.63 26.866 148.666 25.894 148.666 24.94V20.35L142.744 28.522H142.582C142.618 27.496 142.636 26.272 142.636 24.58V19.252C142.366 19.252 141.628 19.45 141.25 19.576L141.196 19.468L141.52 19H143.086C143.608 19 144.616 18.946 145.012 18.874L145.066 18.982C144.994 19.792 144.958 20.944 144.958 22.06V24.85L149.206 19H149.44C149.71 19 150.556 18.946 151.024 18.874L151.078 18.982C151.024 19.792 150.97 20.944 150.97 22.06V27.748C151.24 27.748 151.978 27.532 152.356 27.424ZM162.094 13.888V14.086C162.094 16.192 160.762 17.632 158.8 17.632C156.838 17.632 155.506 16.192 155.506 14.086V13.888H155.794V13.996C155.794 15.13 157 15.886 158.8 15.886C160.618 15.886 161.824 15.13 161.824 13.996V13.888H162.094ZM164.344 27.424L164.398 27.532L164.074 28H160.582V27.82C160.618 26.866 160.654 25.894 160.654 24.94V20.35L154.732 28.522H154.57C154.606 27.496 154.624 26.272 154.624 24.58V19.252C154.354 19.252 153.616 19.45 153.238 19.576L153.184 19.468L153.508 19H155.074C155.596 19 156.604 18.946 157 18.874L157.054 18.982C156.982 19.792 156.946 20.944 156.946 22.06V24.85L161.194 19H161.428C161.698 19 162.544 18.946 163.012 18.874L163.066 18.982C163.012 19.792 162.958 20.944 162.958 22.06V27.748C163.228 27.748 163.966 27.532 164.344 27.424ZM169.132 28V27.802C169.943 26.686 171.545 23.428 172.193 21.772L173.903 17.506C173.255 16.534 172.535 15.742 171.941 15.598L171.977 15.4H175.307H176.153C176.567 16.588 176.963 17.596 177.323 18.442L180.149 25.174C180.527 26.074 180.815 26.686 181.373 27.82V28H177.017L176.603 27.532L176.675 27.424C177.143 27.532 178.061 27.748 178.402 27.748L176.801 23.86H171.743C171.221 25.282 170.789 26.92 170.681 27.748C171.023 27.748 171.941 27.532 172.409 27.424L172.481 27.532L172.067 28H169.132ZM171.869 23.518H176.657L175.145 19.864C174.875 19.216 174.515 18.496 174.101 17.812L171.869 23.518ZM183.1 31.6V31.42C183.154 30.466 183.19 29.494 183.19 28.54V19.252C182.92 19.252 182.182 19.45 181.804 19.576L181.75 19.468L182.074 19H183.622C184.144 19 185.152 18.946 185.566 18.874L185.584 18.982C185.548 19.522 185.512 20.17 185.512 20.872C186.034 19.558 187.078 18.82 188.59 18.82C190.894 18.82 192.568 20.782 192.568 23.5C192.568 26.29 190.966 28.18 188.59 28.18C187.042 28.18 186.016 27.442 185.494 26.128V31.348C185.836 31.348 186.754 31.15 187.222 31.024L187.294 31.132L186.88 31.6H183.1ZM187.762 27.622C189.148 27.622 190.12 25.966 190.12 23.5C190.12 21.034 189.148 19.36 187.762 19.36C186.214 19.36 185.386 21.484 185.386 23.5C185.386 25.948 186.376 27.622 187.762 27.622ZM193.296 28V27.874C194.556 26.992 196.104 25.12 196.572 24.49L197.094 23.86L195.924 22.24C194.952 20.836 193.836 19.648 193.278 19.144V19H197.76L198.12 19.468L198.066 19.576C197.652 19.45 196.86 19.252 196.572 19.252L198.894 22.42L199.524 21.646C200.136 20.854 200.712 19.882 201.09 19.252C200.784 19.252 200.01 19.45 199.596 19.576L199.542 19.468L199.902 19H202.53V19.126C201.594 19.738 200.496 20.8 199.596 22.06L199.074 22.672L200.118 24.094C200.982 25.336 201.99 26.776 203.142 27.874V28H198.552L198.138 27.532L198.21 27.424C198.678 27.532 199.596 27.748 199.938 27.748L197.292 24.112L196.356 25.354C195.762 26.164 195.258 26.938 194.862 27.748C195.204 27.748 196.122 27.532 196.59 27.424L196.662 27.532L196.248 28H193.296ZM204.822 14.59H207.666L206.334 17.974H206.154L204.822 14.59ZM205.002 28V27.82C205.056 26.866 205.092 25.894 205.092 24.94V19.252C204.822 19.252 204.084 19.45 203.706 19.576L203.652 19.468L203.976 19H205.524C206.064 19 207.018 18.946 207.468 18.874L207.486 18.982C207.432 19.792 207.396 20.944 207.396 22.06V27.748C207.666 27.748 208.404 27.532 208.782 27.424L208.836 27.532L208.512 28H205.002ZM211.014 28V27.82C211.068 26.866 211.104 25.894 211.104 24.94V19.252C210.834 19.252 210.096 19.45 209.718 19.576L209.664 19.468L209.988 19H214.128C216.846 19 218.502 19.864 218.502 21.286C218.502 22.42 217.638 23.194 216.198 23.446C217.998 23.608 219.078 24.418 219.078 25.624C219.078 27.1 217.332 28 214.452 28H211.014ZM213.408 23.32H214.11C215.586 23.32 216.54 22.528 216.54 21.286C216.54 20.098 215.586 19.342 214.11 19.342H213.408V23.32ZM213.408 27.712H214.2C215.838 27.712 216.918 26.902 216.918 25.714C216.918 24.472 215.838 23.644 214.182 23.644H213.408V27.712Z" fill="white"/>
</svg>
