<svg width="143" height="30" fill="none" xmlns="http://www.w3.org/2000/svg"><g clip-path="url(#a)"><path d="M43.711 4.125v14.707c0 1.755.438 3.833 2.807 3.833 2.369 0 2.783-1.755 2.783-3.81V4.125h3.856v14.79c0 3.84-1.51 6.96-6.7 6.96s-6.608-2.933-6.608-6.96V4.125h3.862ZM69.603 17.55c0-3.645.06-7.815.12-10.245h-.082c-.755 4.065-1.94 11.25-3.342 18.195H62.82c-1.041-6.442-2.263-14.115-2.965-18.255h-.12c.128 2.497.218 6.982.218 10.672V25.5h-3.516V4.125h5.75c1.13 5.91 2.111 11.88 2.55 15 .437-2.902 1.78-9.345 2.904-15h5.62V25.5h-3.659v-7.95Zm7.083 7.95V4.125h4.376c4.444 11.813 5.281 14.07 5.56 15.113-.18-2.566-.188-5.715-.188-9.218V4.125h3.44V25.5h-4.195c-4.594-12.592-5.409-14.865-5.688-15.848.158 2.64.166 5.783.166 9.615V25.5h-3.47ZM97.17 4.125V25.5h-3.856V4.125h3.856Zm3.484 0h3.772v9.585c1.192-1.95 3.969-6.81 5.719-9.585h4.436l-5.545 8.355 5.635 13.02h-4.285l-4.013-9.825-1.932 2.707V25.5h-3.772l-.015-21.375Zm25.862 11.873h-6.903v6.21h7.748l-.476 3.292h-11.074V4.125h11.029V7.5h-7.227v5.175h6.903v3.322Zm7.016 9.502v-7.56a1.49 1.49 0 0 0-.15-.698l-5.417-13.117h4.3c1.207 3.353 2.678 7.5 3.312 9.818.754-2.625 2.263-6.63 3.357-9.818H143l-5.484 13.17a1.813 1.813 0 0 0-.121.75V25.5h-3.863Z" fill="#fff"/><path d="M34.258 13.395V7.012a4.196 4.196 0 0 0-.196-1.185 1.907 1.907 0 0 0-.85-1.092 1.926 1.926 0 0 0-1.368-.235 1.877 1.877 0 0 0-1.183.505 1.856 1.856 0 0 0-.575 1.145c-.08.463-.108.933-.083 1.402v11.61c-.06 4.5-4.149 7.59-8.343 6.285a6.563 6.563 0 0 1-3.167-2.215 6.503 6.503 0 0 1-1.36-3.605c-.075-2.715 0-5.43 0-8.145 0-2.062-.694-2.782-2.73-2.79H2.617a3.53 3.53 0 0 0-1.863.548 1.85 1.85 0 0 0-.634 2.25c.105.41.347.771.685 1.027.338.256.753.39 1.178.383 2.618.052 5.236.037 7.854.09 3.334.067 2.912-.473 2.957 3 .038 2.415-.128 4.852.755 7.185a10.661 10.661 0 0 0 4.08 5.08 10.759 10.759 0 0 0 12.447-.416 10.65 10.65 0 0 0 3.729-5.34c.255-.906.394-1.84.415-2.782.06-2.092 0-4.192 0-6.292l.037-.03Z" fill="#407BFF"/><path d="M4.88 14.662v2.715c0 1.5.891 2.438 2.196 2.438 1.305 0 2.188-.923 2.21-2.445v-2.708H4.882Zm20.672-5.235v-.195c-.845-7.867-9.966-11.835-16.597-7.35A10.233 10.233 0 0 0 4.94 6.915h5.063c.15-.128.309-.3.452-.435a6.135 6.135 0 0 1 3.184-1.793 6.16 6.16 0 0 1 3.644.33 5.814 5.814 0 0 1 2.864 2.11 5.76 5.76 0 0 1 1.089 3.373c.098 2.422 0 4.852.068 7.282v1.456c.045 1.5.89 2.445 2.203 2.437a2.13 2.13 0 0 0 1.923-1.148 2.99 2.99 0 0 0 .287-1.305V16.5a67.46 67.46 0 0 0-.166-7.073Z" fill="#2C6BC6"/></g><defs><clipPath id="a"><path fill="#fff" d="M0 0h143v30H0z"/></clipPath></defs></svg>