<?xml version="1.0" standalone="no"?>
<!DOCTYPE svg PUBLIC "-//W3C//DTD SVG 20010904//EN"
 "http://www.w3.org/TR/2001/REC-SVG-20010904/DTD/svg10.dtd">
<svg version="1.0" xmlns="http://www.w3.org/2000/svg"
 width="521.000000pt" height="521.000000pt" viewBox="0 0 521.000000 521.000000"
 preserveAspectRatio="xMidYMid meet">
<metadata>
Created by potrace 1.14, written by Peter Selinger 2001-2017
</metadata>
<g transform="translate(0.000000,521.000000) scale(0.100000,-0.100000)"
fill="#000000" stroke="none">
<path d="M2384 5156 c-1 -6 -2 -221 -1 -479 2 -461 2 -467 -18 -468 -34 -2
-68 -6 -110 -13 -22 -4 -55 -9 -73 -11 -57 -7 -183 -44 -277 -82 -165 -66
-302 -149 -436 -265 l-78 -67 -319 319 c-176 176 -323 320 -327 320 -5 0 -34
-26 -66 -57 l-58 -58 326 -327 326 -326 -50 -69 c-160 -221 -263 -474 -299
-733 -4 -30 -8 -59 -9 -65 -1 -5 -3 -36 -3 -67 l-2 -58 -435 0 -435 0 0 -87 0
-88 435 1 c239 0 436 -2 436 -5 1 -4 3 -15 4 -26 39 -329 134 -566 340 -851
15 -20 3 -33 -312 -348 l-327 -327 62 -62 62 -62 325 325 324 324 28 -24 c15
-14 30 -27 33 -30 51 -52 235 -177 329 -225 143 -71 357 -137 496 -151 121
-12 108 48 107 -492 0 -348 3 -472 12 -473 60 -6 149 -2 155 6 4 5 7 219 7
473 -1 255 2 466 6 469 11 6 32 10 103 17 145 16 358 82 503 155 67 34 238
147 274 182 13 11 33 28 46 37 23 15 28 11 385 -346 199 -199 366 -362 371
-362 9 0 116 108 116 117 0 3 -164 170 -365 370 l-364 365 38 47 c172 205 318
540 347 795 3 33 8 67 9 75 2 9 4 19 4 22 1 3 247 5 549 4 301 0 555 1 565 3
14 4 17 16 17 88 l0 84 -565 0 -565 0 -1 38 c-3 136 -35 307 -86 452 -28 83
-117 268 -164 345 -17 27 -58 83 -90 125 l-58 75 364 365 365 365 -62 62 -62
62 -347 -347 c-190 -191 -355 -355 -366 -364 -18 -17 -21 -16 -58 17 -119 105
-329 225 -496 283 -94 33 -249 68 -342 76 -32 3 -62 8 -65 10 -4 2 -7 217 -6
478 l0 474 -84 0 c-50 0 -86 -4 -88 -10z m-2 -1733 c0 -334 -1 -615 -1 -624
-1 -9 -177 160 -403 386 -507 507 -464 461 -447 477 205 195 512 340 774 364
33 3 62 8 64 10 2 2 6 2 9 -1 2 -2 4 -278 4 -612z m267 603 c176 -18 400 -103
571 -215 54 -35 74 -51 133 -101 l29 -26 -407 -407 c-224 -224 -410 -407 -414
-407 -9 0 -6 1143 3 1158 4 7 10 11 14 8 4 -2 36 -7 71 -10z m952 -591 c114
-165 205 -384 233 -560 11 -73 16 -114 21 -167 l5 -58 -633 0 -632 0 455 455
455 455 20 -23 c11 -12 45 -58 76 -102z m-1766 -355 l430 -430 -592 0 -591 0
3 48 c13 205 67 401 161 583 46 90 139 229 152 229 4 0 201 -193 437 -430z
m317 -623 c-24 -27 -715 -718 -740 -740 -20 -18 -21 -17 -81 73 -70 105 -136
239 -175 353 -27 84 -66 261 -66 306 l0 27 540 0 c533 0 540 0 522 -19z m1693
-46 c-4 -36 -9 -69 -11 -72 -2 -4 -6 -24 -10 -45 -10 -66 -64 -222 -109 -318
-45 -97 -147 -256 -188 -294 l-24 -23 -384 385 c-211 211 -394 395 -406 408
l-23 24 581 0 581 0 -7 -65z m-1463 -593 c0 -332 -1 -611 -1 -622 -1 -17 -7
-18 -63 -12 -35 3 -74 9 -88 12 -14 3 -35 7 -46 9 -210 44 -455 170 -614 314
l-55 50 430 430 c236 237 431 428 433 426 3 -2 4 -275 4 -607z m968 -319 c-65
-55 -226 -158 -303 -194 -42 -20 -117 -49 -166 -65 -93 -30 -289 -67 -312 -58
-12 5 -14 106 -12 584 0 319 1 581 2 584 1 3 187 -181 414 -408 l412 -413 -35
-30z"/>
</g>
</svg>
