<svg version="1.0" xmlns="http://www.w3.org/2000/svg" width="694.667" height="694.667" viewBox="0 0 521 521"><path d="M238.4 5.4c-.1.6-.2 22.1-.1 47.9.2 46.1.2 46.7-1.8 46.8-3.4.2-6.8.6-11 1.3-2.2.4-5.5.9-7.3 1.1-5.7.7-18.3 4.4-27.7 8.2-16.5 6.6-30.2 14.9-43.6 26.5l-7.8 6.7-31.9-31.9C89.6 94.4 74.9 80 74.5 80c-.5 0-3.4 2.6-6.6 5.7l-5.8 5.8 32.6 32.7 32.6 32.6-5 6.9c-16 22.1-26.3 47.4-29.9 73.3-.4 3-.8 5.9-.9 6.5-.1.5-.3 3.6-.3 6.7L91 256H4v17.5l43.5-.1c23.9 0 43.6.2 43.6.5.1.4.3 1.5.4 2.6 3.9 32.9 13.4 56.6 34 85.1 1.5 2 .3 3.3-31.2 34.8l-32.7 32.7 6.2 6.2 6.2 6.2 32.5-32.5 32.4-32.4 2.8 2.4c1.5 1.4 3 2.7 3.3 3 5.1 5.2 23.5 17.7 32.9 22.5 14.3 7.1 35.7 13.7 49.6 15.1 12.1 1.2 10.8-4.8 10.7 49.2 0 34.8.3 47.2 1.2 47.3 6 .6 14.9.2 15.5-.6.4-.5.7-21.9.7-47.3-.1-25.5.2-46.6.6-46.9 1.1-.6 3.2-1 10.3-1.7 14.5-1.6 35.8-8.2 50.3-15.5 6.7-3.4 23.8-14.7 27.4-18.2 1.3-1.1 3.3-2.8 4.6-3.7 2.3-1.5 2.8-1.1 38.5 34.6 19.9 19.9 36.6 36.2 37.1 36.2.9 0 11.6-10.8 11.6-11.7 0-.3-16.4-17-36.5-37l-36.4-36.5 3.8-4.7c17.2-20.5 31.8-54 34.7-79.5.3-3.3.8-6.7.9-7.5.2-.9.4-1.9.4-2.2.1-.3 24.7-.5 54.9-.4 30.1 0 55.5-.1 56.5-.3 1.4-.4 1.7-1.6 1.7-8.8V256H403l-.1-3.8c-.3-13.6-3.5-30.7-8.6-45.2-2.8-8.3-11.7-26.8-16.4-34.5-1.7-2.7-5.8-8.3-9-12.5l-5.8-7.5 36.4-36.5L436 79.5l-6.2-6.2-6.2-6.2-34.7 34.7c-19 19.1-35.5 35.5-36.6 36.4-1.8 1.7-2.1 1.6-5.8-1.7-11.9-10.5-32.9-22.5-49.6-28.3-9.4-3.3-24.9-6.8-34.2-7.6-3.2-.3-6.2-.8-6.5-1-.4-.2-.7-21.7-.6-47.8V4.4h-8.4c-5 0-8.6.4-8.8 1zm-.2 173.3c0 33.4-.1 61.5-.1 62.4-.1.9-17.7-16-40.3-38.6-50.7-50.7-46.4-46.1-44.7-47.7 20.5-19.5 51.2-34 77.4-36.4 3.3-.3 6.2-.8 6.4-1 .2-.2.6-.2.9.1.2.2.4 27.8.4 61.2zm26.7-60.3c17.6 1.8 40 10.3 57.1 21.5 5.4 3.5 7.4 5.1 13.3 10.1l2.9 2.6-40.7 40.7c-22.4 22.4-41 40.7-41.4 40.7-.9 0-.6-114.3.3-115.8.4-.7 1-1.1 1.4-.8.4.2 3.6.7 7.1 1zm95.2 59.1c11.4 16.5 20.5 38.4 23.3 56 1.1 7.3 1.6 11.4 2.1 16.7l.5 5.8H259.5l45.5-45.5 45.5-45.5 2 2.3c1.1 1.2 4.5 5.8 7.6 10.2zM183.5 213l43 43H108.2l.3-4.8c1.3-20.5 6.7-40.1 16.1-58.3 4.6-9 13.9-22.9 15.2-22.9.4 0 20.1 19.3 43.7 43zm31.7 62.3c-2.4 2.7-71.5 71.8-74 74-2 1.8-2.1 1.7-8.1-7.3-7-10.5-13.6-23.9-17.5-35.3-2.7-8.4-6.6-26.1-6.6-30.6v-2.7h54c53.3 0 54 0 52.2 1.9zm169.3 4.6c-.4 3.6-.9 6.9-1.1 7.2-.2.4-.6 2.4-1 4.5-1 6.6-6.4 22.2-10.9 31.8-4.5 9.7-14.7 25.6-18.8 29.4l-2.4 2.3-38.4-38.5c-21.1-21.1-39.4-39.5-40.6-40.8l-2.3-2.4h116.2l-.7 6.5zm-146.3 59.3c0 33.2-.1 61.1-.1 62.2-.1 1.7-.7 1.8-6.3 1.2-3.5-.3-7.4-.9-8.8-1.2-1.4-.3-3.5-.7-4.6-.9-21-4.4-45.5-17-61.4-31.4l-5.5-5 43-43c23.6-23.7 43.1-42.8 43.3-42.6.3.2.4 27.5.4 60.7zm96.8 31.9c-6.5 5.5-22.6 15.8-30.3 19.4-4.2 2-11.7 4.9-16.6 6.5-9.3 3-28.9 6.7-31.2 5.8-1.2-.5-1.4-10.6-1.2-58.4 0-31.9.1-58.1.2-58.4.1-.3 18.7 18.1 41.4 40.8l41.2 41.3-3.5 3z"/></svg>