<svg xmlns="http://www.w3.org/2000/svg" width="166.4" height="39" xml:space="preserve"><path d="M152 17.8v4.6l-4-2.8-3 4.2 5 3.3c-1.1.4-2.2.6-3.4.6-3.8.1-5.3-.5-5.3-4.7v-5c0-4.6.4-6 5.3-5.9 5.1-.2 5.5 1.3 5.4 5.7zm14.4-8.3v20c0 5.2-4.3 9.5-9.5 9.5H113V9.5c0-5.2 4.3-9.5 9.5-9.5h34.4c5.2 0 9.5 4.3 9.5 9.5zm-35.9 4.6h-10.4v6.4h3.9v13.2h6.4V14.1zm1.2-4.9c0-2.4-2-4.4-4.4-4.4-2.4 0-4.4 2-4.4 4.4 0 2.4 2 4.4 4.4 4.4 2.4 0 4.4-2 4.4-4.4zm30.5 20.4-3.1-2.1c.5-1.3.6-3.4.6-4.8v-6c0-9.2-4.5-11.4-13-11.3-8.5 0-13 2.1-13 11.3v5.9c0 9.4 4.4 11.5 13 11.4 3.3 0 7.1-.3 9.7-2.5l2.8 2.2 3-4.1zM7.6 20.5h9.9V9.8H25v28.4h-7.6V27H7.6v11.1H0V9.8h7.6v10.7zM29.2 28v-8c0-8.8 5.5-10.5 13.1-10.5 7.7 0 13.1 1.7 13.1 10.5v8c0 8.8-5.5 10.6-13.1 10.6S29.2 36.7 29.2 28zm18.5-.8v-6.4c0-4.2-1.4-4.7-5.3-4.7s-5.3.4-5.3 4.7v6.4c0 4.2 1.4 4.8 5.3 4.8s5.3-.6 5.3-4.8zm26.9-8.5c0-2.9-1.3-3-4.2-3-4.1 0-4.5.9-4.5 2.5 0 2 .9 2.2 4.1 2.8l7.3 1.4c3.8.8 5.4 2.8 5.4 6.6 0 7.9-1.6 9.5-12.3 9.5-8 0-12.1-.9-12.1-9.5h7.3c0 3 1.1 3.3 4.8 3.3 3.6 0 4.7-.4 4.7-2.8 0-1.2-.3-2.3-3.4-2.8l-7.2-1.1c-3.1-.5-6.1-2-6.1-7.6 0-7.8 4.6-8.7 12.1-8.7 7.4 0 11.5 1.1 11.5 8v1.2h-7.4zm25.8 19.5h-7.6V16.4h-7.7V9.8H108v6.6h-7.7v21.8z" style="fill:#00bcf1"/></svg>