<svg width="323" height="60" fill="none" xmlns="http://www.w3.org/2000/svg"><path d="M45 30c0 9.691-7.637 17.5-17 17.5S11 39.691 11 30c0-9.691 7.637-17.5 17-17.5S45 20.309 45 30ZM28 .5v59m31-29H0m49.134 21.067L7.414 9.848m-.057 40.305 41.72-41.72" stroke="#333" stroke-width="2"/><path d="m101.68 46.848-.056-.336c-.588-1.988-3.64-5.012-5.824-5.012H82.164v-.28a59.88 59.88 0 0 0 .168-4.48V22.292c-.532 0-1.96.308-2.688.504l-.112-.168.644-.728h6.58v.28a79.777 79.777 0 0 0-.14 4.48v14.28h7.728V26.66c0-1.484-.028-2.996-.14-4.48v-.28h4.592v.28a59.88 59.88 0 0 0-.168 4.48v10.08c0 1.4.056 2.828.14 4.228h2.184l-.616-1.232h.84l.924 6.972-.42.14Zm18.291-6.244.084.168-.504.728h-5.432v-.28c.056-1.484.112-2.996.112-4.48V29.6l-9.212 12.712h-.252c.056-1.596.084-3.5.084-6.132v-8.288c-.42 0-1.568.308-2.156.504l-.084-.168.504-.728h2.436c.812 0 2.38-.084 2.996-.196l.084.168c-.112 1.26-.168 3.052-.168 4.788v4.34l6.608-9.1h.364c.42 0 1.736-.084 2.464-.196l.084.168a75.627 75.627 0 0 0-.168 4.788v8.848c.42 0 1.568-.336 2.156-.504Zm11.956 6.496v-.28c.056-1.484.112-2.996.112-4.48v-3.724c-.756 2.016-2.24 3.164-4.396 3.164-3.304 0-5.684-3.08-5.684-7.28 0-4.34 2.296-7.28 5.684-7.28 2.212 0 3.668 1.12 4.396 3.08v-8.008c-.42 0-1.568.308-2.156.504l-.084-.168.504-.728h2.436c.812 0 2.38-.084 2.996-.196l.056.168a77.73 77.73 0 0 0-.14 4.788v3.724c.756-2.016 2.24-3.164 4.396-3.164 3.304 0 5.684 3.052 5.684 7.28 0 4.34-2.296 7.28-5.684 7.28-2.212 0-3.668-1.12-4.396-3.108v8.036c.448 0 1.68-.308 2.324-.504l.084.168-.56.728h-5.572Zm-2.94-6.188c1.876 0 3.22-2.604 3.22-6.412 0-3.836-1.344-6.44-3.22-6.44-1.904 0-3.22 2.604-3.22 6.44 0 3.836 1.316 6.412 3.22 6.412Zm9.716 0c1.904 0 3.22-2.576 3.22-6.412s-1.316-6.44-3.22-6.44c-1.876 0-3.22 2.604-3.22 6.44 0 3.808 1.344 6.412 3.22 6.412Zm11.018 6.188v-.28c.084-1.484.14-2.996.14-4.48V27.892c-.42 0-1.568.308-2.156.504l-.084-.168.504-.728h2.408c.812 0 2.38-.084 3.024-.196l.028.168a43.85 43.85 0 0 0-.112 2.94c.812-2.044 2.436-3.192 4.788-3.192 3.584 0 6.188 3.052 6.188 7.28 0 4.34-2.492 7.28-6.188 7.28-2.408 0-4.004-1.148-4.816-3.192v8.12c.532 0 1.96-.308 2.688-.504l.112.168-.644.728h-5.88Zm7.252-6.188c2.156 0 3.668-2.576 3.668-6.412s-1.512-6.44-3.668-6.44c-2.408 0-3.696 3.304-3.696 6.44 0 3.808 1.54 6.412 3.696 6.412Zm17.835.868c-4.592 0-7.868-3.024-7.868-7.28s3.276-7.28 7.868-7.28c4.592 0 7.868 3.024 7.868 7.28s-3.276 7.28-7.868 7.28Zm0-.476c2.352 0 4.032-2.772 4.032-6.804s-1.68-6.832-4.032-6.832c-2.38 0-4.032 2.8-4.032 6.832s1.652 6.804 4.032 6.804Zm11.854.196v-.28c.084-1.484.14-2.996.14-4.48v-8.848c-.42 0-1.568.308-2.156.504l-.084-.168.504-.728h6.44c4.228 0 6.804 1.344 6.804 3.556 0 1.764-1.344 2.968-3.584 3.36 2.8.252 4.48 1.512 4.48 3.388 0 2.296-2.716 3.696-7.196 3.696h-5.348Zm3.724-7.28h1.092c2.296 0 3.78-1.232 3.78-3.164 0-1.848-1.484-3.024-3.78-3.024h-1.092v6.188Zm0 6.832h1.232c2.548 0 4.228-1.26 4.228-3.108 0-1.932-1.68-3.22-4.256-3.22h-1.204v6.328Zm27.612-.448.084.168-.504.728h-5.432v-.28c.056-1.484.112-2.996.112-4.48V29.6l-9.212 12.712h-.252c.056-1.596.084-3.5.084-6.132v-8.288c-.42 0-1.568.308-2.156.504l-.084-.168.504-.728h2.436c.812 0 2.38-.084 2.996-.196l.084.168c-.112 1.26-.168 3.052-.168 4.788v4.34l6.608-9.1h.364c.42 0 1.736-.084 2.464-.196l.084.168a75.627 75.627 0 0 0-.168 4.788v8.848c.42 0 1.568-.336 2.156-.504Zm15.149-21.056v.308c0 3.276-2.072 5.516-5.124 5.516-3.052 0-5.124-2.24-5.124-5.516v-.308h.448v.168c0 1.764 1.876 2.94 4.676 2.94 2.828 0 4.704-1.176 4.704-2.94v-.168h.42Zm3.5 21.056.084.168-.504.728h-5.432v-.28c.056-1.484.112-2.996.112-4.48V29.6l-9.212 12.712h-.252c.056-1.596.084-3.5.084-6.132v-8.288c-.42 0-1.568.308-2.156.504l-.084-.168.504-.728h2.436c.812 0 2.38-.084 2.996-.196l.084.168c-.112 1.26-.168 3.052-.168 4.788v4.34l6.608-9.1h.364c.42 0 1.736-.084 2.464-.196l.084.168a75.627 75.627 0 0 0-.168 4.788v8.848c.42 0 1.568-.336 2.156-.504Zm7.448.896v-.308c1.26-1.736 3.752-6.804 4.76-9.38l2.66-6.636c-1.008-1.512-2.128-2.744-3.052-2.968l.056-.308h6.496a75.669 75.669 0 0 0 1.82 4.732l4.396 10.472c.588 1.4 1.036 2.352 1.904 4.116v.28h-6.776l-.644-.728.112-.168c.728.168 2.156.504 2.688.504l-2.492-6.048h-7.868c-.812 2.212-1.484 4.76-1.652 6.048.532 0 1.96-.336 2.688-.504l.112.168-.644.728h-4.564Zm4.256-6.972h7.448l-2.352-5.684a24.544 24.544 0 0 0-1.624-3.192l-3.472 8.876ZM265.822 47.1v-.28c.084-1.484.14-2.996.14-4.48V27.892c-.42 0-1.568.308-2.156.504l-.084-.168.504-.728h2.408c.812 0 2.38-.084 3.024-.196l.028.168a43.85 43.85 0 0 0-.112 2.94c.812-2.044 2.436-3.192 4.788-3.192 3.584 0 6.188 3.052 6.188 7.28 0 4.34-2.492 7.28-6.188 7.28-2.408 0-4.004-1.148-4.816-3.192v8.12c.532 0 1.96-.308 2.688-.504l.112.168-.644.728h-5.88Zm7.252-6.188c2.156 0 3.668-2.576 3.668-6.412s-1.512-6.44-3.668-6.44c-2.408 0-3.696 3.304-3.696 6.44 0 3.808 1.54 6.412 3.696 6.412Zm8.608.588v-.196c1.96-1.372 4.368-4.284 5.096-5.264l.812-.98-1.82-2.52c-1.512-2.184-3.248-4.032-4.116-4.816V27.5h6.972l.56.728-.084.168c-.644-.196-1.876-.504-2.324-.504l3.612 4.928.98-1.204c.952-1.232 1.848-2.744 2.436-3.724-.476 0-1.68.308-2.324.504l-.084-.168.56-.728h4.088v.196c-1.456.952-3.164 2.604-4.564 4.564l-.812.952 1.624 2.212c1.344 1.932 2.912 4.172 4.704 5.88v.196h-7.14l-.644-.728.112-.168c.728.168 2.156.504 2.688.504l-4.116-5.656-1.456 1.932c-.924 1.26-1.708 2.464-2.324 3.724.532 0 1.96-.336 2.688-.504l.112.168-.644.728h-4.592Zm17.93-20.86h4.424l-2.072 5.264h-.28l-2.072-5.264Zm.28 20.86v-.28c.084-1.484.14-2.996.14-4.48v-8.848c-.42 0-1.568.308-2.156.504l-.084-.168.504-.728h2.408c.84 0 2.324-.084 3.024-.196l.028.168a77.73 77.73 0 0 0-.14 4.788v8.848c.42 0 1.568-.336 2.156-.504l.084.168-.504.728h-5.46Zm9.352 0v-.28c.084-1.484.14-2.996.14-4.48v-8.848c-.42 0-1.568.308-2.156.504l-.084-.168.504-.728h6.44c4.228 0 6.804 1.344 6.804 3.556 0 1.764-1.344 2.968-3.584 3.36 2.8.252 4.48 1.512 4.48 3.388 0 2.296-2.716 3.696-7.196 3.696h-5.348Zm3.724-7.28h1.092c2.296 0 3.78-1.232 3.78-3.164 0-1.848-1.484-3.024-3.78-3.024h-1.092v6.188Zm0 6.832h1.232c2.548 0 4.228-1.26 4.228-3.108 0-1.932-1.68-3.22-4.256-3.22h-1.204v6.328Z" fill="#333"/></svg>