<svg width="251" height="54" fill="none" xmlns="http://www.w3.org/2000/svg"><rect y="21" width="3" height="11" rx="1.5" fill="#fff"/><rect x="5" y="28" width="3" height="18" rx="1.5" fill="#fff"/><rect x="10" y="16" width="3" height="30" rx="1.5" fill="#fff"/><rect x="21" y="7" width="3" height="30" rx="1.5" fill="#fff"/><rect x="26" y="7" width="3" height="19" rx="1.5" fill="#fff"/><rect x="31" y="21" width="3" height="12" rx="1.5" fill="#fff"/><rect x="16" width="3" height="54" rx="1.5" fill="#fff"/><path d="M58.12 35.424s.288 0 .624-.048c1.344-.24.528.528 1.776.288.768.24 1.104.24 1.296-.144.96 0 .336.192 1.296.144 2.592-.432 4.176-2.304 4.08-4.032-.48-.72-.816-1.728-1.44-1.68-.864.336-1.344.816-2.352.864h-.624c-1.536.432-.672 0-2.4.72-.96.336-1.248.384-2.4.72-.336 0-.672.288-.96 0 .096-.624.048-.96-.096-1.584-.24-1.968-.144-3.888-.48-5.472-.336-1.2-.336-2.496-.336-3.456-.144-.624-.048-2.592-.576-3.216-.048-.288-.192-.672-.24-1.056l1.2-.096c.912.288 1.392.336 2.304.048 1.296-.048 2.736.72 3.936.336 1.152-.336 1.104-.48 2.64-.48h.288c.624-.384 1.632-.384 2.256-.432.624.048 1.536-.864 1.68-1.728.096-.624-.72-2.448-1.344-2.352-1.104-.384-1.776-.576-2.688-.24-1.632.048-1.632.048-3.168.048-2.256.048-4.512.048-6.624.528-.576.288-1.584.288-2.112.624-.336 0-2.4.912-2.352 1.248.192.672.768.576.816 1.296.048.336 1.392.432 1.44.816.048 1.584-2.064 3.792-2.016 5.376-.048 1.008-.384 2.256-.384 3.264-.144 1.008-.192 2.016-.24 2.88.096.624.384 1.248.096 1.92.144 1.584.288 3.264.432 4.8.096 2.256.432 4.512.624 6.72.096.384.288 1.008.432 1.632.144.576.48 1.536.576 2.208.096 1.584 1.296 3.504 1.68 5.04.048.288 1.2 1.584 1.584 1.584.384.288.96.576 1.296.432 1.104.336 1.392.336 2.064-.672v-.288c-.336-1.008-.72-3.36-.672-4.368-.048-.288-.048-.288-.192-.576.096-1.008-.096-1.968-.432-2.88-.144-1.968-.192-3.6-.336-5.472-.24-.384-.288-1.056-.432-1.296.24-.336.192-.624 0-1.296-.048-.288-.144-.672.48-.672Zm17.683-3.216c-.288.288-.384.432-.432.624-1.92 3.552-1.152 8.496 1.68 9.168-.24 1.392-.528 2.544-1.056 3.936-.576 1.152-.672 2.4-1.536 3.264-.576.576-1.44 1.152-2.304.576-.288-.864-.576-2.016-.576-2.88 0-.864 0-1.44.288-2.304v-1.44c.288-.864.864-4.32 1.152-5.184 0-.576.288-1.152.288-1.728 0-.864.288-1.44.576-2.304 0-.288.624-.72.624-1.296 0-.288.384-.96.672-1.248v-.288c0-.576-.384-.288-.96-.576-.576 0-1.632.576-1.92.864-.576.576-1.824 1.728-2.112 2.592-1.152 2.016-1.68 3.024-1.968 5.328-.288.576-.576 2.928-.576 3.888-.288.864.192 1.968.192 2.832 0 1.152.288 2.304.864 3.456 0 0 .288 0 .288.288s.288.576.576.864a3.47 3.47 0 0 0 1.44 1.44c.576.576 1.44.864 2.016 1.152h.864c.288 0 .864-.288 1.152-.288.576-.288 1.152-.576 1.44-1.152.576-.288.864-.864 1.44-1.152.48-.288.336-1.008.864-1.44-.288-.288 0-.288.288-.576 0-.288 0-.576.288-.576s.288-.288.288-.576c.288-.288.288-.576.288-.864 0-.288 0-.576.288-.864.288 0 .288-.576.576-.864.288-.864.288-1.728.576-2.592l.096-.384c.96-.24 1.824-1.152 1.968-1.296.144-.096 1.008-1.248 1.152-2.112.048-.288-.528-.912-.96-.384-.048.096-.288.768-.912 1.44-.24.192-.672.768-1.008.864l.24-3.408c-.288-.864-.528-2.592-1.104-3.168-.576-.864-1.2-1.344-2.064-1.632-.576-.288-.432-.528-1.008-.816-.288 0-.576 0-.576.288h-.864c0 .288-.288.288-.528.528Zm1.536 6.912c-.096.528-.144 1.056-.192 1.488-1.968-1.152-1.728-5.808-.192-6.672a.75.75 0 0 0 .24.336c.576 1.728.144 3.12.144 4.848Zm5.525 1.44c.288 0 .192-.048.576-.096.288-.096.528-.432.672-.768.72-1.056.48-.96 1.392-2.688.144.384.336 1.872.336 2.16 0 .864.288 1.728.288 2.88.288 1.152.576 2.304 1.44 3.456.576 1.152 1.152 2.016 2.304 2.592h.288c1.728 0 3.552-3.456 4.128-5.184.864-1.44 3.504-8.16 3.504-8.448-.48-1.728-1.248-.528-2.064 1.152-.288 1.152-2.496 5.712-3.072 6.864-.96 2.112-.816 1.488-1.392 1.2-.288-.288-.288-.576-.576-1.152-.288-1.728-.864-3.072-1.152-4.8 0-.864.192-2.496-.096-3.36 0-1.44-.192-2.112.384-3.264.576-1.44.912-2.304 1.488-3.744.864-1.728 1.44-3.456 2.304-5.472.576-.864.864-1.728 1.152-2.88.288-.864.096.192.384-.96 0-.288.288-.576.288-.864-.288-.288.24-.72.24-1.008.288-.288.288-1.728.288-2.016.288-.288.288-.864.288-1.152.288-.576 0-1.152 0-2.016 0-.288-.288-.288-.576-.576-1.152-.288-2.304-.576-3.744.288-.288.288-.576.288-.864.576-.576 0-.864 0-.864.288-.576.576-2.064 3.12-2.064 3.408-.864 1.44-.48 1.632-1.056 3.072-.576 1.728-.384 1.824-.672 3.552-.288 1.728-.576 3.456-.576 5.184 0 1.728-.288 3.792-.288 5.52 0 .864-.288 1.44-.576 2.304-.864 2.016-1.008 2.64-1.872 4.368-.432.672-.24 1.008-.24 1.584Zm7.296-16.656c0-.576.288-.864.288-1.44.576-1.728.672-1.824.96-3.552.288-2.016 1.392-4.464 2.256-5.904v-.288c.288 0 .288-.288.576-.288s.576.576.576.864c-.288.576-.528 1.872-.816 2.448-.576 2.016-.672 1.824-1.536 3.552-.576 1.44-1.152 2.592-1.728 4.032-.288.288-.288.576-.576.864v-.288Zm11.196 18.144c.288.288.672 1.056.96 1.056 1.152.576 1.728 2.016 2.88 2.88.288.288.576.288.864.576.576.288.48.336.768.624 1.152.864 2.064.24 2.928.816 3.552 0 7.056-7.68 7.584-8.832.912-1.92.144-2.352-.432-1.584-1.44 3.312-4.128 6.576-5.424 6.576-1.104 0-2.208-.48-3.216-1.056-1.152-.624-2.256-1.488-3.36-2.304 1.44-.336 3.936-1.68 6.384-4.944.576-.768 2.544-3.696 2.544-5.616 0-.576-.192-2.976-.48-3.552-.288-.576-1.248-2.4-2.112-2.688-.576-.288-.864.288-1.44.576-.864 0-2.64.624-3.984 1.68-.864.624-2.592 2.16-3.6 3.36l.096-.432c.192-.336.528-.816.576-1.008 2.448-3.312 4.128-5.472 5.136-7.392.576-1.152 1.392-2.544 1.872-3.648.576-1.344.336-3.456-.048-4.896-.384-1.488-1.728-2.928-3.408-2.928-2.064.768-5.616 2.352-6.576 4.32-1.152 2.016-.768 1.2-1.632 3.792-.864 2.016-.912 5.568-.912 7.152-.288 2.016.192 5.664.192 7.68 0 .528-2.832 6.912-3.312 7.584-.24.336-.24 1.056.384 1.056.96-.048 2.208-3.36 3.024-4.8v.384c-.288 2.304.384 4.704.096 7.008v.864c0 .576.48 4.896.768 5.472.288 0 .576.288.576.576.576 0 .384.768 1.488.768.576-.096 1.68.336 1.68-.96-.288-1.44-.864-6.432-.864-8.16Zm5.232-30.576c1.296 2.784.048 6.768-3.12 12.24-1.104 1.584-2.112 3.36-2.256 3.552.336-2.256.336-5.712 1.344-8.976.336-1.152.672-3.072 1.248-3.936.288-.864 1.44-1.44 1.728-2.304.288-.288.48-.288 1.056-.576Zm-4.944 27.216c0-.96.048-4.512.048-5.952.336.672 1.488.672 1.776.384 0-.288.288-.864.288-.864.576-.576.384-1.584.672-1.872.576-.864 1.632-2.352 2.496-2.928.576-.576.912-.384 1.488-.672.576-.576.72-.096 1.296-.384.288.288 0 2.112-.096 2.304l-.384 1.344c-.864 1.44-1.776 4.8-3.216 5.952-.864.576-1.152 1.44-2.304 2.016-.288.288-.576.576-.864.288-.288 0-.912.096-1.2.384Zm14.22 1.872c.288 0 .192-.048.576-.096.288-.096.528-.432.672-.768.72-1.056.48-.96 1.392-2.688.144.384.336 1.872.336 2.16 0 .864.288 1.728.288 2.88.288 1.152.576 2.304 1.44 3.456.576 1.152 1.152 2.016 2.304 2.592h.288c1.728 0 3.552-3.456 4.128-5.184.864-1.44 3.504-8.16 3.504-8.448-.48-1.728-1.248-.528-2.064 1.152-.288 1.152-2.496 5.712-3.072 6.864-.96 2.112-.816 1.488-1.392 1.2-.288-.288-.288-.576-.576-1.152-.288-1.728-.864-3.072-1.152-4.8 0-.864.192-2.496-.096-3.36 0-1.44-.192-2.112.384-3.264.576-1.44.912-2.304 1.488-3.744.864-1.728 1.44-3.456 2.304-5.472.576-.864.864-1.728 1.152-2.88.288-.864.096.192.384-.96 0-.288.288-.576.288-.864-.288-.288.24-.72.24-1.008.288-.288.288-1.728.288-2.016.288-.288.288-.864.288-1.152.288-.576 0-1.152 0-2.016 0-.288-.288-.288-.576-.576-1.152-.288-2.304-.576-3.744.288-.288.288-.576.288-.864.576-.576 0-.864 0-.864.288-.576.576-2.064 3.12-2.064 3.408-.864 1.44-.48 1.632-1.056 3.072-.576 1.728-.384 1.824-.672 3.552-.288 1.728-.576 3.456-.576 5.184 0 1.728-.288 3.792-.288 5.52 0 .864-.288 1.44-.576 2.304-.864 2.016-1.008 2.64-1.872 4.368-.432.672-.24 1.008-.24 1.584Zm7.296-16.656c0-.576.288-.864.288-1.44.576-1.728.672-1.824.96-3.552.288-2.016 1.392-4.464 2.256-5.904v-.288c.288 0 .288-.288.576-.288s.576.576.576.864c-.288.576-.528 1.872-.816 2.448-.576 2.016-.672 1.824-1.536 3.552-.576 1.44-1.152 2.592-1.728 4.032-.288.288-.288.576-.576.864v-.288Zm12.455 8.304c-.288.288-.384.432-.432.624-1.92 3.552-1.152 8.496 1.68 9.168-.24 1.392-.528 2.544-1.056 3.936-.576 1.152-.672 2.4-1.536 3.264-.576.576-1.44 1.152-2.304.576-.288-.864-.576-2.016-.576-2.88 0-.864 0-1.44.288-2.304v-1.44c.288-.864.864-4.32 1.152-5.184 0-.576.288-1.152.288-1.728 0-.864.288-1.44.576-2.304 0-.288.624-.72.624-1.296 0-.288.384-.96.672-1.248v-.288c0-.576-.384-.288-.96-.576-.576 0-1.632.576-1.92.864-.576.576-1.824 1.728-2.112 2.592-1.152 2.016-1.68 3.024-1.968 5.328-.288.576-.576 2.928-.576 3.888-.288.864.192 1.968.192 2.832 0 1.152.288 2.304.864 3.456 0 0 .288 0 .288.288s.288.576.576.864a3.47 3.47 0 0 0 1.44 1.44c.576.576 1.44.864 2.016 1.152h.864c.288 0 .864-.288 1.152-.288.576-.288 1.152-.576 1.44-1.152.576-.288.864-.864 1.44-1.152.48-.288.336-1.008.864-1.44-.288-.288 0-.288.288-.576 0-.288 0-.576.288-.576s.288-.288.288-.576c.288-.288.288-.576.288-.864 0-.288 0-.576.288-.864.288 0 .288-.576.576-.864.288-.864.288-1.728.576-2.592l.096-.384c.96-.24 1.824-1.152 1.968-1.296.144-.096 1.008-1.248 1.152-2.112.048-.288-.528-.912-.96-.384-.048.096-.288.768-.912 1.44-.24.192-.672.768-1.008.864l.24-3.408c-.288-.864-.528-2.592-1.104-3.168-.576-.864-1.2-1.344-2.064-1.632-.576-.288-.432-.528-1.008-.816-.288 0-.576 0-.576.288h-.864c0 .288-.288.288-.528.528Zm1.536 6.912c-.096.528-.144 1.056-.192 1.488-1.968-1.152-1.728-5.808-.192-6.672a.75.75 0 0 0 .24.336c.576 1.728.144 3.12.144 4.848Zm21.365-.72c0-.288.288 0 0-.288 0-.288-.528-.864-.96-.144-.24.144-.576 1.2-1.152 2.304-.768 1.344-1.632 3.168-2.16 3.936-1.056 1.488-1.92 2.016-2.592 1.392l-.144-.432c.288-1.44.288-2.592.576-3.744.576-1.728 1.152-3.168 1.728-4.896 0-.576.288-1.152.288-1.728 0-.576 0-1.152.288-1.728 0-.576 0-1.152-.288-1.728l-.576-.576-3.456-1.728c-.288 0-.576 0-.864-.288.288 0 .288-.288.288-.288.288-.864.576-1.44.864-2.016.288-.576.288-1.152.288-1.728 0-.288.288-.576 0-.864-.576-.288-.576-.864-1.152-.864h-1.44c-.864.288-1.152.576-1.44 1.152-.288 1.152-.864 2.064-.576 3.216.288.288.336 1.536.864 2.208-.576 1.44-1.776 4.944-3.504 8.736-.336.576-.528 1.104.048 1.68.864-.288 1.392-1.68 1.68-2.256.288-.576 2.64-6.672 2.928-7.248l1.728.864v.576c-.576 2.016-1.152 3.744-1.728 5.472-.576 1.728-1.152 3.168-1.44 4.608-.288.864-.288 2.016-.288 2.88-.288.576 0 .864 0 1.152l.864.864c0 .288.288.576.576.864 0 .288 0 .288.288.288.576.288 1.152.576 1.728.576h.864c.576 0 .864 0 1.44-.288.864-.288 2.352-1.872 2.88-2.832.096-.192 1.296-2.448 1.584-2.736.288-.288 1.584-3.36 1.872-3.936 0-.288.096-.432.096-.432Zm-10.464-12.096c-.288-.864-.288-1.584.288-1.872.24.432.336.864-.288 1.872Zm9.554 14.64c.048.288.24 1.392.24 1.68 1.008 2.496 2.064 4.224 4.992 4.656 0 .288 1.776.24 2.064.144.576 0 1.68-.864 2.256-.912.816-.336 1.68-.672 2.496-1.296 1.776-2.016 4.512-6.336 4.512-7.968 0-.192-.048-.384-.144-.48-.288-.336-.48-.096-.72.096-.336.48-.528 1.248-.96 2.016-.672 1.296-1.44 2.736-1.776 3.072a4.77 4.77 0 0 1-1.344 1.2c-1.008.528-1.248 1.2-2.496 1.488-.864.192-1.104.288-1.68.288-1.152-.192-1.872-.72-2.208-1.872-.624-.576-.336-1.152-.384-1.44-.336-.816-.192-1.728-.144-2.352 1.872-.336 3.408-1.632 4.8-2.832 1.392-1.248 2.4-2.736 3.168-4.272.528-.864.528-1.728.48-2.304 0-.288-.096-.576-.096-.864.288-.336-.048-.576-.048-.864-.288-.288-.576-.576-.912-.768-1.488-.816-2.64-1.296-4.368-1.248-.576-.192-1.728.144-2.304.432-.528.336-.816.624-1.392 1.248-.816.624-1.056 1.2-1.536 2.16-1.344 2.352-2.592 4.704-2.496 7.296-.24.288-.384 1.632 0 3.696Zm4.704-3.936v-.288c.24-.576.096-1.44.672-2.352.432-1.152.96-2.64 1.776-3.552.528-.576.816-.96 1.008-1.248.288-.288.864-.624 1.152-.624.288-.048.288-.048.576-.048.288.288-.288.816-.192 1.68 0 .288.048.864-.24 1.152-.528.624-.432 1.536-.912 2.16-.864.672-.864 1.248-1.968 1.872-.528.624-1.008.912-1.872 1.248Z" fill="#fff"/></svg>