<svg width="220" height="68" fill="none" xmlns="http://www.w3.org/2000/svg"><path d="M70.416 52v-.18c.036-.594.09-1.206.108-1.818h-.45c-4.086 0-6.426-1.854-6.426-4.392 0-2.538 2.358-4.392 6.426-4.392h.45v-1.692c-.342 0-1.26.198-1.728.324l-.072-.108.414-.468h4.23v.18c-.036.576-.054 1.17-.072 1.764h.414c4.086 0 6.426 1.854 6.426 4.392 0 2.538-2.322 4.392-6.426 4.392h-.432v1.746c.342 0 1.26-.216 1.728-.324l.072.108-.414.468h-4.248Zm-.288-2.358h.396V41.56h-.396c-2.268 0-3.672 1.602-3.672 4.05 0 2.448 1.404 4.032 3.672 4.032Zm3.15 0h.396c2.25 0 3.654-1.584 3.654-4.032s-1.386-4.05-3.654-4.05h-.396v8.082Zm13.38 2.538c-2.953 0-5.059-1.944-5.059-4.68 0-2.736 2.106-4.68 5.058-4.68s5.058 1.944 5.058 4.68c0 2.736-2.106 4.68-5.058 4.68Zm0-.306c1.511 0 2.591-1.782 2.591-4.374 0-2.592-1.08-4.392-2.592-4.392-1.53 0-2.592 1.8-2.592 4.392 0 2.592 1.062 4.374 2.592 4.374Zm6.99 1.368-1.08-5.508.27-.072.054.144c.27.936 1.242 2.034 2.034 2.034.72 0 1.134-1.476 1.134-3.996-.018-.792-.126-1.782-.234-2.592-.27 0-1.008.198-1.404.324l-.054-.108.378-.468h5.382c.486 0 1.386-.054 1.764-.126l.018.108a49.97 49.97 0 0 0-.09 3.078v5.688c.27 0 1.008-.216 1.386-.324l.054.108-.324.468h-3.492v-.18c.036-.954.072-1.926.072-2.88v-5.598h-2.52c-.792 5.49-1.728 9.036-2.7 9.036-.306 0-.54-.288-.648-.342l.468 1.17-.036.036h-.432ZM105.44 52v-.18c.054-.954.09-1.926.09-2.88v-5.688c-.27 0-1.008.198-1.386.324l-.054-.108.324-.468h1.548c.522 0 1.53-.054 1.944-.126l.018.108a49.97 49.97 0 0 0-.09 3.078v.72h.828c3.024 0 4.572.99 4.572 2.61 0 1.62-1.548 2.61-4.572 2.61h-3.222Zm2.394-.288h.612c1.53 0 2.466-.9 2.466-2.322 0-1.422-.936-2.322-2.466-2.322h-.612v4.644Zm7.555.288v-.18c.054-.954.09-1.926.09-2.88v-9.288c-.27 0-1.008.198-1.386.324l-.054-.108.324-.468h1.566c.594 0 1.512-.054 1.926-.126l.036.108a49.97 49.97 0 0 0-.09 3.078v4.86h.882l2.07-2.304c.486-.522.828-1.008 1.314-1.764-.27 0-1.008.198-1.386.324l-.054-.108.342-.468h2.61v.144c-.882.594-2.34 1.764-2.916 2.376l-.45.504 2.448 3.618c.54.756 1.188 1.584 1.764 2.178V52h-4.068l-.342-.468.054-.108c.378.108 1.116.324 1.386.324l-2.736-4.068h-.918v1.26c0 .954.036 1.926.072 2.88V52h-2.484Zm10.181 1.242-1.08-5.508.27-.072.054.144c.27.936 1.242 2.034 2.034 2.034.72 0 1.134-1.476 1.134-3.996-.018-.792-.126-1.782-.234-2.592-.27 0-1.008.198-1.404.324l-.054-.108.378-.468h5.382c.486 0 1.386-.054 1.764-.126l.018.108a49.97 49.97 0 0 0-.09 3.078v5.688c.27 0 1.008-.216 1.386-.324l.054.108-.324.468h-3.492v-.18c.036-.954.072-1.926.072-2.88v-5.598h-2.52c-.792 5.49-1.728 9.036-2.7 9.036-.306 0-.54-.288-.648-.342l.468 1.17-.036.036h-.432ZM137.362 52v-.18c.054-.954.09-1.926.09-2.88v-5.688c-.27 0-1.008.198-1.386.324l-.054-.108.324-.468h1.548c.522 0 1.53-.054 1.944-.126l.018.108a49.97 49.97 0 0 0-.09 3.078v.72h.828c3.024 0 4.572.99 4.572 2.61 0 1.62-1.548 2.61-4.572 2.61h-3.222Zm2.394-.288h.612c1.53 0 2.466-.9 2.466-2.322 0-1.422-.936-2.322-2.466-2.322h-.612v4.644Zm11.659.468c-2.952 0-5.058-1.944-5.058-4.68 0-2.736 2.106-4.68 5.058-4.68s5.058 1.944 5.058 4.68c0 2.736-2.106 4.68-5.058 4.68Zm0-.306c1.512 0 2.592-1.782 2.592-4.374 0-2.592-1.08-4.392-2.592-4.392-1.53 0-2.592 1.8-2.592 4.392 0 2.592 1.062 4.374 2.592 4.374Zm7.62 3.726v-.18c.054-.954.09-1.926.09-2.88v-9.288c-.27 0-1.008.198-1.386.324l-.054-.108.324-.468h1.548c.522 0 1.53-.054 1.944-.126l.018.108a28.19 28.19 0 0 0-.072 1.89c.522-1.314 1.566-2.052 3.078-2.052 2.304 0 3.978 1.962 3.978 4.68 0 2.79-1.602 4.68-3.978 4.68-1.548 0-2.574-.738-3.096-2.052v5.22c.342 0 1.26-.198 1.728-.324l.072.108-.414.468h-3.78Zm4.662-3.978c1.386 0 2.358-1.656 2.358-4.122s-.972-4.14-2.358-4.14c-1.548 0-2.376 2.124-2.376 4.14 0 2.448.99 4.122 2.376 4.122Zm7.22 4.788-1.314-4.644.216-.072.054.108c.522 1.188 2.61 3.51 3.744 3.51.468 0 .756-.288.756-.792v-.288c0-.648-.36-1.494-1.602-4.032l-1.602-3.276c-.756-1.53-1.458-2.916-1.998-3.798V43h4.068l.324.468-.054.108c-.378-.126-1.116-.324-1.386-.324l2.646 6.228c.144.306.27.666.378 1.008.108-.36.198-.684.324-1.008l.882-2.394c.504-1.332.9-3.132.972-3.834-.27 0-1.008.198-1.386.324l-.054-.108.324-.468h2.394v.144c-.522.702-1.116 1.854-1.8 3.708l-1.224 3.276c-.162.432-.216.792-.216 1.278v.864c0 2.358-.918 3.51-2.376 3.51-.936 0-1.494-.414-2.124-.468l.486 1.044-.018.054h-.414Z" fill="#fff"/><path d="M34.227 30.291c-.356-6-1.424-29.714-2.577-29.285-1.155-.429-2.221 23.285-2.577 29.285-.355 6-1.066 36.572-1.066 36.572h7.286s-.71-30.571-1.066-36.572Z" fill="#fff" stroke="#fff" stroke-width="1.012" stroke-miterlimit="10"/><path d="M57 34h18" stroke="#fff" stroke-width="1.215" stroke-miterlimit="10"/><path d="M0 34.035h54.214M48.35 17.23 6.794 58.788M55.55 10.031 49.4 16.18m-.401 35.203 5.731 5.731M7.646 10.031l39.565 39.565M18.914 12.232A22.147 22.147 0 0 0 8.068 25.698a24.93 24.93 0 0 1 10.846-13.466Zm4.069-1.955Zm-1.148.461Zm3.13-1.105ZM7.521 27.583c.079-.315.163-.628.253-.938M24.16 9.874Zm-.403.13Zm-3.048 1.252ZM6.982 30.502l.06-.453M6.88 31.49Zm.169-1.488c.022-.153.045-.304.07-.453m.291-1.491c.034-.157.072-.313.11-.468m-.399 1.942c.026-.156.053-.31.082-.466m.007-.048ZM26.58 9.243Zm3.777-.486.389-.017c-.13.005-.26.01-.389.017Zm-.388.023.34-.02m-.754.052.303-.023m1.401-.061Zm-2.179.129Zm1.77-.119.295-.008M6.84 32.025ZM26.98 9.162c.12-.022.242-.044.364-.064m.09-.018.317-.053c-.106.016-.212.035-.317.053Zm-2.074.449Zm2.906-.575c.107-.015.215-.029.323-.042m-.769.105Zm.873-.118c.107-.012.215-.025.324-.036m10.893 48.17Zm2.244-.916a24.46 24.46 0 0 1-.55.249m1.093-.511c-.179.09-.36.177-.543.263M20.702 11.26c-.604.298-1.196.619-1.774.963h.003a24.826 24.826 0 0 1 1.771-.963Zm9.355 47.13Zm-1.261-.113Zm2.854.163c-.537 0-1.069-.018-1.597-.051M44.54 54.84Zm-16.984 3.263c-.204-.033-.409-.07-.612-.109m22.282-6.836a13.92 13.92 0 0 1-.324.316m1.131-1.161Zm-1.555 1.564Zm-.336.303Zm-1.86 1.498Zm-.734.515Zm-23.851 2.174Zm-9.227-6.974c-.381-.46-.745-.935-1.091-1.424m6.126 6.055a25.037 25.037 0 0 1-2.788-2.245m4.043 3.061Zm-7.381-6.87Zm7.899 7.175ZM6.799 33.025Zm.017-.52c.006-.14.014-.28.022-.42m17.128 25.142Zm-1.148-.403Zm2.62.832Zm-5.371-2.075Zm6.878 2.412Zm-4.69-1.391a24.36 24.36 0 0 1-.558-.237m4.494-47.039ZM12.66 49.621a24.87 24.87 0 0 0 1.84 1.954M6.793 33.58c0-.154.005-.307.005-.46a23.43 23.43 0 0 0-.005.46Zm0 0a24.74 24.74 0 0 0 3.755 13.142m-2.48-21.019Z" stroke="#fff" stroke-width=".911" stroke-miterlimit="10"/><path d="M8.069 25.699c.058-.176.119-.35.18-.524l.005-.01.194-.519v-.006c.333-.862.713-1.705 1.14-2.524l.005-.008.258-.482.004-.006c.442-.803.929-1.581 1.457-2.33v-.004c.105-.149.21-.296.319-.441l.005-.008c.65-.882 1.359-1.72 2.12-2.51l.005-.004a25.08 25.08 0 0 1 2.867-2.546 25.065 25.065 0 0 1 2.28-1.54l.013-.008a22.144 22.144 0 0 0-10.86 13.48v-.004l.008-.006Zm1.525-3.592Zm9.336-9.887h-.002l-.013.008.016-.007Zm-2.727 1.89Z" stroke="#fff" stroke-width=".911" stroke-miterlimit="10"/><path d="M11.315 19.283c.104-.149.21-.296.318-.441m4.564-4.732a25.054 25.054 0 0 0-2.433 2.21m-3.906 5.3a24.75 24.75 0 0 1 1.457-2.33m5.318-5.52a25.1 25.1 0 0 1 2.28-1.541m-7.274 6.607c.65-.882 1.36-1.72 2.12-2.51M8.45 24.642c.332-.862.713-1.705 1.14-2.525m-1.336 3.047.194-.518c-.067.173-.132.345-.194.518Zm-.184.534c.058-.175.118-.35.18-.524m-.182.526v.003" stroke="#fff" stroke-width=".911" stroke-miterlimit="10"/><path d="M7.52 27.591v-.009" stroke="#fff" stroke-width="1.012" stroke-miterlimit="10"/><path d="M7.402 28.085c0-.009.005-.017.007-.026a.379.379 0 0 1-.007.026Z" fill="#fff" stroke="#fff" stroke-width="1.012" stroke-miterlimit="10"/><path d="m22.947 10.29.037-.013" stroke="#fff" stroke-width="1.012" stroke-miterlimit="10"/><path d="M7.774 26.644c0-.005.004-.011.006-.017l-.006.017Z" fill="#fff" stroke="#fff" stroke-width="1.012" stroke-miterlimit="10"/><path d="m20.702 11.26.007-.004m1.101-.508.023-.01m5.917-1.709.07-.011m-.853.148h.012m1.226-.204.06-.009m.324-.038.104-.013m-2.181.354.068-.014m2.435-.379.064-.008m-2.962.487.074-.016m-1.275.32.05-.013m-.856.256.049-.016m1.14-.329.06-.017m-1.621.483.02-.006" stroke="#fff" stroke-width="1.012" stroke-miterlimit="10"/><path d="M7.205 29.066c0-.016.006-.032.008-.048-.004.016-.008.03-.008.048Z" fill="#fff" stroke="#fff" stroke-width="1.012" stroke-miterlimit="10"/><path d="M36.66 57.934c-.203.041-.406.08-.61.117M29.465 8.82l.09-.008" stroke="#fff" stroke-width="1.012" stroke-miterlimit="10"/><path d="M48.906 51.473Zm-13.78 6.724ZM51.02 49.16Zm.549-.707Zm-17.378 9.856Z" fill="#fff" stroke="#fff" stroke-width="1.012" stroke-miterlimit="10"/><path d="M51.568 18.709a24.859 24.859 0 0 1 0 29.745m-1.319 1.618-.216.24" stroke="#fff" stroke-width="1.012" stroke-miterlimit="10"/><path d="M36.05 58.049Z" fill="#fff" stroke="#fff" stroke-width="1.012" stroke-miterlimit="10"/><path d="M33.563 58.367c-.21.016-.422.03-.633.04" stroke="#fff" stroke-width="1.012" stroke-miterlimit="10"/><path d="M7.043 30.045c0-.014.005-.029.006-.043-.001.016-.004.03-.006.043Z" fill="#fff" stroke="#fff" stroke-width="1.012" stroke-miterlimit="10"/><path d="M7.12 29.545v-.014" stroke="#fff" stroke-width="1.012" stroke-miterlimit="10"/><path d="M6.873 31.572c0-.027.005-.055.007-.084 0 .03-.004.058-.007.084Zm.102-1.003c0-.023.005-.046.008-.065l-.008.065Zm24.675 27.87ZM6.838 32.086c0-.02 0-.04.003-.06l-.003.06Z" fill="#fff" stroke="#fff" stroke-width="1.012" stroke-miterlimit="10"/><path d="M6.797 33.121v-.096m.019-.448c0-.023 0-.047.004-.071m20.523-23.41.09-.016" stroke="#fff" stroke-width="1.012" stroke-miterlimit="10"/><path d="M49.848 16.648Z" fill="#fff" stroke="#fff" stroke-width="1.012" stroke-miterlimit="10"/><path d="M30.744 8.74h.106" stroke="#fff" stroke-width="1.012" stroke-miterlimit="10"/><path d="M45.299 12.803Z" fill="#fff" stroke="#fff" stroke-width="1.012" stroke-miterlimit="10"/><path d="M31.145 8.73h.114" stroke="#fff" stroke-width="1.012" stroke-miterlimit="10"/><path d="M50.249 17.09Zm.771.912Z" fill="#fff" stroke="#fff" stroke-width="1.012" stroke-miterlimit="10"/><path d="M44.795 12.481A24.74 24.74 0 0 0 31.65 8.727m17.994 7.704a25.098 25.098 0 0 0-2.182-2.03" stroke="#fff" stroke-width="1.012" stroke-miterlimit="10"/><path d="M46.04 13.31Z" fill="#fff" stroke="#fff" stroke-width="1.012" stroke-miterlimit="10"/><path d="M30.31 8.76h.048m-.501.029.112-.008" stroke="#fff" stroke-width="1.012" stroke-miterlimit="10"/><path d="M51.568 18.709a24.28 24.28 0 0 0-1.925-2.278 25.082 25.082 0 0 0-3.606-3.121 27.06 27.06 0 0 0-1.245-.83A24.74 24.74 0 0 0 31.26 8.727h-.114l-.295.008h-.106l-.389.016h-.048c-.114.007-.227.013-.34.021l-.112.008-.303.023-.09.008c-.129.011-.257.023-.384.036l-.065.007-.324.036-.104.013-.323.041-.061.009c-.13.017-.26.037-.385.056l-.07.011c-.106.017-.211.034-.317.053l-.09.015-.364.065h-.013c-.13.024-.259.05-.388.077l-.068.014-.32.07-.074.016c-.254.058-.507.12-.759.185l-.06.017a9.676 9.676 0 0 0-.334.09l-.049.013c-.254.071-.506.147-.757.226l-.049.016c-.118.037-.235.076-.353.115l-.018.006c-.253.086-.505.175-.755.267l-.037.014c-.376.14-.747.289-1.114.447l-.022.01c-.372.16-.739.33-1.1.507l-.008.004c-.604.297-1.194.618-1.771.961a21.926 21.926 0 0 1 6.59-2.265l.031-.006.295-.049.04-.006c.22-.035.44-.065.663-.094h.007l.309-.036.073-.009.25-.025.085-.008.26-.022.064-.006.327-.023h.03c.096-.006.194-.012.29-.016l.1-.005c.074 0 .149-.006.224-.008l.111-.004.227-.005h.423a21.213 21.213 0 0 1 1.98.087l.278.027c.186.018.372.04.556.065l.276.036a22.028 22.028 0 0 1 3.482.778c8.993 2.797 15.523 11.186 15.523 21.1 0 9.913-6.53 18.301-15.523 21.099a21.821 21.821 0 0 1-3.482.777l-.276.037a29.107 29.107 0 0 1-.835.091 21.325 21.325 0 0 1-1.98.087c-.19 0-.38 0-.57-.006a22.865 22.865 0 0 1-1.69-.107 22.903 22.903 0 0 1-1.651-.23C15.078 51.617 7.232 42.583 7.232 31.716v-.45c0-.09.005-.18.008-.27v-.089c.004-.116.009-.231.015-.347v-.048l.018-.304c0-.03.005-.06.007-.09a22.254 22.254 0 0 1 .061-.704c0-.017.004-.034.005-.05l.035-.306.008-.065c.03-.237.063-.475.1-.712 0-.014.004-.027.006-.04.017-.11.035-.218.054-.324l.006-.034c.041-.24.088-.479.137-.716l.006-.027c.076-.36.16-.718.254-1.071l.004-.015c.03-.116.062-.233.095-.348-.102.304-.198.612-.288.923 0 .006-.004.011-.006.017-.09.311-.174.624-.252.939v.008c-.038.156-.076.312-.11.468 0 .01-.005.018-.007.027-.07.309-.134.62-.194.932 0 .016-.006.033-.009.049l-.081.465v.015c-.025.151-.048.302-.07.453 0 .014-.005.029-.007.043l-.06.453c0 .023-.006.046-.008.065-.037.305-.068.612-.094.92 0 .028-.005.056-.007.084-.012.15-.023.301-.033.453 0 .02 0 .04-.003.061-.008.14-.015.279-.021.419 0 .024 0 .048-.004.071-.006.15-.01.299-.013.449v.095c0 .154-.005.307-.005.461a24.74 24.74 0 0 0 4.585 14.387 24.026 24.026 0 0 0 1.284 1.653 24.851 24.851 0 0 0 2.069 2.164 25.026 25.026 0 0 0 5.35 3.802 24.56 24.56 0 0 0 3.323 1.452c.191.068.385.13.578.195.484.157.974.3 1.47.428l.299.074a23.523 23.523 0 0 0 1.82.372 24.212 24.212 0 0 0 2.497.286 25.214 25.214 0 0 0 5.997-.338 24.5 24.5 0 0 0 3.283-.822c.194-.065.388-.13.577-.195a24.444 24.444 0 0 0 4.63-2.195 25.077 25.077 0 0 0 5.497-4.528l.216-.24a24.948 24.948 0 0 0 1.32-1.62 24.859 24.859 0 0 0 0-29.743l-.006.001ZM8.07 25.7h-.002.001Zm10.845-13.47v.002-.002Zm8.682-2.539Zm.358-.024Z" fill="#fff" stroke="#fff" stroke-width="1.012" stroke-miterlimit="10"/><path d="M8.07 25.7v.004a22.774 22.774 0 0 0 0-.005Zm-.355 1.438Z" fill="#fff" stroke="#fff" stroke-width="1.012" stroke-miterlimit="10"/><path d="m7.297 30.119.023-.299M26.94 9.752l.249-.025m1.819-.1h.323" stroke="#fff" stroke-width="1.012" stroke-miterlimit="10"/><path d="m27.273 9.718.26-.023-.26.023Z" fill="#fff" stroke="#fff" stroke-width="1.012" stroke-miterlimit="10"/><path d="m26.557 9.798.308-.036" stroke="#fff" stroke-width="1.012" stroke-miterlimit="10"/><path d="M25.887 9.89Zm-6.973 2.34a21.917 21.917 0 0 1 6.606-2.28 21.923 21.923 0 0 0-6.59 2.265l-.015.01v.005Z" fill="#fff" stroke="#fff" stroke-width="1.012" stroke-miterlimit="10"/><path d="m25.553 9.945.295-.049" stroke="#fff" stroke-width="1.012" stroke-miterlimit="10"/><path d="m7.254 30.908.015-.348-.015.348Zm.07-1.14ZM28.345 9.645c.075 0 .15-.006.224-.008l-.224.008ZM7.512 28.242Zm-.268 3.025c0-.09.005-.18.007-.269l-.007.269Zm.162-2.276c.03-.237.065-.474.1-.712-.037.238-.07.475-.1.712Z" fill="#fff" stroke="#fff" stroke-width="1.012" stroke-miterlimit="10"/><path d="m28.68 9.634.227-.005" stroke="#fff" stroke-width="1.012" stroke-miterlimit="10"/><path d="M7.24 31.713v-.346.346Zm.03-1.2Z" fill="#fff" stroke="#fff" stroke-width="1.012" stroke-miterlimit="10"/><path d="m7.363 29.364.035-.305" stroke="#fff" stroke-width="1.012" stroke-miterlimit="10"/><path d="M7.571 27.883Z" fill="#fff" stroke="#fff" stroke-width="1.012" stroke-miterlimit="10"/><path d="M30.75 9.668Zm20.675 22.049c0 9.913-6.53 18.302-15.524 21.099m15.524-21.1c0-9.912-6.53-18.302-15.524-21.099 8.994 2.797 15.524 11.186 15.524 21.1Zm-44.185.001c0 10.867 7.845 19.9 18.18 21.747m3.912-43.837c.191 0 .38 0 .57.007m-.994-.007h.1m3.137 44.006ZM28.567 9.637l.112-.004m2.631 44.09Zm-1.978.087c-.19 0-.38 0-.57-.007.19.005.38.007.57.007Zm.57-.007c-.19.005-.379.007-.57.007m-3.09-.216c-.275-.038-.55-.081-.821-.13m1.652.23Zm.841.071Zm5.329-.302c-.272.049-.546.092-.821.13m.82-43.623Zm1.875.419Zm-2.695-.551c.275.039.549.082.82.13m-1.652-.23Zm3.528 43.305Zm.783-.228Zm-28.336-24.9.006-.034M27.189 9.727l.085-.008M7.357 29.414c0-.017.004-.034.006-.05l-.006.05Zm.612-3.344.004-.015M27.532 9.697l.065-.006m-.732.069.074-.008M7.242 31.367v-.101M25.849 9.897l.038-.006M7.29 30.21c0-.03.005-.061.007-.09l-.007.09ZM27.926 9.668h.03M7.252 30.997v-.089c.002.03 0 .06 0 .09ZM25.52 9.951l.032-.006M7.398 29.059l.008-.065m-.086.826c0-.016 0-.033.005-.05a1.507 1.507 0 0 0-.005.05Zm.185-1.538c0-.013.004-.026.006-.04l-.006.04ZM7.27 30.56v-.046M28.244 9.651l.1-.005M7.709 27.163l.006-.026m1.875-5.022.004-.008m2.039-3.266.005-.007m2.121-2.509.004-.005M8.07 25.7Zm1.782-4.075.003-.006m-1.408 3.026v-.006m-.196.536.004-.01m3.058-5.878v-.004" stroke="#fff" stroke-width=".911" stroke-miterlimit="10"/><path d="M18.913 12.23a25.079 25.079 0 0 0-2.714 1.877 25.08 25.08 0 0 0-2.433 2.21l-.005.004a24.914 24.914 0 0 0-2.12 2.51l-.006.007a21.72 21.72 0 0 0-.318.442v.003a24.752 24.752 0 0 0-1.457 2.33l-.004.007-.259.482-.003.008a24.333 24.333 0 0 0-1.141 2.524v.006c-.065.17-.13.343-.194.518l-.004.01a15.71 15.71 0 0 0-.182.525c-.033.117-.065.235-.095.352l-.004.015c-.094.354-.18.71-.255 1.072l-.005.026c-.05.238-.096.477-.138.717l-.006.034-.054.323c0 .014-.004.027-.006.04-.037.235-.07.472-.1.713l-.007.064c-.013.102-.024.204-.035.306 0 .017-.003.034-.005.05-.013.118-.024.237-.034.354 0 .018-.003.035-.005.052l-.023.298c0 .03-.004.06-.006.09-.007.102-.013.203-.018.305v.047c-.007.116-.011.232-.016.348v.09c0 .088-.005.178-.007.268v.45c0 10.867 7.845 19.901 18.181 21.747.272.05.546.092.822.13a21.385 21.385 0 0 0 2.52.207c.19.005.38.007.57.007.19 0 .38 0 .57-.007a23.083 23.083 0 0 0 1.41-.08l.279-.027c.186-.018.371-.04.555-.065l.276-.036a21.75 21.75 0 0 0 3.482-.778c8.994-2.797 15.524-11.186 15.524-21.099s-6.55-18.293-15.542-21.09a22.18 22.18 0 0 0-3.482-.777l-.276-.037c-.185-.024-.37-.045-.556-.065l-.279-.027a25.092 25.092 0 0 0-1.98-.087h-.423l-.227.005-.111.004c-.076 0-.15.005-.225.009l-.1.004-.29.016h-.03c-.109.007-.218.015-.326.024l-.065.005-.26.022-.085.008-.249.025-.074.009c-.103.01-.206.023-.308.036h-.008c-.222.028-.443.06-.663.094l-.039.006-.295.049-.032.006a21.92 21.92 0 0 0-6.606 2.278l.001.007Z" stroke="#fff" stroke-width=".911" stroke-miterlimit="10"/><path d="M34.227 30.291c-.356-6-1.424-29.714-2.577-29.285-1.155-.429-2.221 23.285-2.577 29.285-.355 6-.93 25.927-.93 25.927 3.96.612 6.955 0 6.955 0s-.516-19.926-.871-25.927Z" fill="#fff" stroke="#fff" stroke-width="1.012" stroke-miterlimit="10"/><path d="M34.07 10.134s-4.235-.635-6.497-.51c-2.262.125 2.261-.9 2.261-.9s3.094-.026 4.237.117" fill="#fff"/><path d="M34.07 10.134s-4.235-.635-6.497-.51c-2.262.125 2.261-.9 2.261-.9s3.094-.026 4.237.117" stroke="#fff" stroke-width=".911" stroke-miterlimit="10"/><path d="m16.679 27.488 1.482 1.338-1.994-.101.101 1.994-1.338-1.482-1.338 1.482.102-1.994-1.995.101 1.483-1.338-1.483-1.338 1.995.102-.102-1.994 1.338 1.482 1.338-1.482-.101 1.994 1.994-.102-1.482 1.338Zm27.849 6.444 1.482 1.338-1.994-.101.102 1.994-1.338-1.482-1.339 1.482.102-1.994-1.994.101 1.482-1.338-1.482-1.338 1.994.102-.102-1.995 1.339 1.483 1.338-1.483-.102 1.995 1.994-.102-1.482 1.338Z" fill="#fff" stroke="#fff" stroke-width=".911" stroke-miterlimit="10"/><path d="M116 34h63m11 0h30M75 34h19m6 0h9" stroke="#fff" stroke-width="1.215" stroke-miterlimit="10"/><path d="m77.58 31.438-.036-.216C77.166 29.944 75.204 28 73.8 28h-8.766v-.18c.072-.954.108-1.926.108-2.88v-9.288c-.342 0-1.26.198-1.728.324l-.072-.108.414-.468h4.23v.18c-.054.954-.09 1.926-.09 2.88v9.18h4.968v-9.18c0-.954-.018-1.926-.09-2.88v-.18h2.952v.18a38.495 38.495 0 0 0-.108 2.88v6.48c0 .9.036 1.818.09 2.718h1.404l-.396-.792h.54l.594 4.482-.27.09Zm11.758-4.014.054.108-.324.468h-3.492v-.18c.036-.954.072-1.926.072-2.88v-4.59l-5.922 8.172h-.162c.036-1.026.054-2.25.054-3.942v-5.328c-.27 0-1.008.198-1.386.324l-.054-.108.324-.468h1.566c.522 0 1.53-.054 1.926-.126l.054.108c-.072.81-.108 1.962-.108 3.078v2.79L86.188 19h.234c.27 0 1.116-.054 1.584-.126l.054.108c-.054.81-.108 1.962-.108 3.078v5.688c.27 0 1.008-.216 1.386-.324Zm7.687 4.176v-.18c.036-.954.072-1.926.072-2.88v-2.394c-.486 1.296-1.44 2.034-2.826 2.034-2.124 0-3.654-1.98-3.654-4.68 0-2.79 1.476-4.68 3.654-4.68 1.422 0 2.358.72 2.826 1.98v-5.148c-.27 0-1.008.198-1.386.324l-.054-.108.324-.468h1.566c.522 0 1.53-.054 1.926-.126l.036.108a49.97 49.97 0 0 0-.09 3.078v2.394c.486-1.296 1.44-2.034 2.826-2.034 2.124 0 3.654 1.962 3.654 4.68 0 2.79-1.476 4.68-3.654 4.68-1.422 0-2.358-.72-2.826-1.998v5.166c.288 0 1.08-.198 1.494-.324l.054.108-.36.468h-3.582Zm-1.89-3.978c1.206 0 2.07-1.674 2.07-4.122 0-2.466-.864-4.14-2.07-4.14-1.224 0-2.07 1.674-2.07 4.14 0 2.466.846 4.122 2.07 4.122Zm6.246 0c1.224 0 2.07-1.656 2.07-4.122s-.846-4.14-2.07-4.14c-1.206 0-2.07 1.674-2.07 4.14 0 2.448.864 4.122 2.07 4.122Zm7.082 3.978v-.18c.054-.954.09-1.926.09-2.88v-9.288c-.27 0-1.008.198-1.386.324l-.054-.108.324-.468h1.548c.522 0 1.53-.054 1.944-.126l.018.108a28.19 28.19 0 0 0-.072 1.89c.522-1.314 1.566-2.052 3.078-2.052 2.304 0 3.978 1.962 3.978 4.68 0 2.79-1.602 4.68-3.978 4.68-1.548 0-2.574-.738-3.096-2.052v5.22c.342 0 1.26-.198 1.728-.324l.072.108-.414.468h-3.78Zm4.662-3.978c1.386 0 2.358-1.656 2.358-4.122s-.972-4.14-2.358-4.14c-1.548 0-2.376 2.124-2.376 4.14 0 2.448.99 4.122 2.376 4.122Zm11.466.558c-2.952 0-5.058-1.944-5.058-4.68 0-2.736 2.106-4.68 5.058-4.68s5.058 1.944 5.058 4.68c0 2.736-2.106 4.68-5.058 4.68Zm0-.306c1.512 0 2.592-1.782 2.592-4.374 0-2.592-1.08-4.392-2.592-4.392-1.53 0-2.592 1.8-2.592 4.392 0 2.592 1.062 4.374 2.592 4.374Zm7.62.126v-.18c.054-.954.09-1.926.09-2.88v-5.688c-.27 0-1.008.198-1.386.324l-.054-.108.324-.468h4.14c2.718 0 4.374.864 4.374 2.286 0 1.134-.864 1.908-2.304 2.16 1.8.162 2.88.972 2.88 2.178 0 1.476-1.746 2.376-4.626 2.376h-3.438Zm2.394-4.68h.702c1.476 0 2.43-.792 2.43-2.034 0-1.188-.954-1.944-2.43-1.944h-.702v3.978Zm0 4.392h.792c1.638 0 2.718-.81 2.718-1.998 0-1.242-1.08-2.07-2.736-2.07h-.774v4.068Zm17.751-.288.054.108-.324.468h-3.492v-.18c.036-.954.072-1.926.072-2.88v-4.59l-5.922 8.172h-.162c.036-1.026.054-2.25.054-3.942v-5.328c-.27 0-1.008.198-1.386.324l-.054-.108.324-.468h1.566c.522 0 1.53-.054 1.926-.126l.054.108c-.072.81-.108 1.962-.108 3.078v2.79l4.248-5.85h.234c.27 0 1.116-.054 1.584-.126l.054.108c-.054.81-.108 1.962-.108 3.078v5.688c.27 0 1.008-.216 1.386-.324Zm9.738-13.536v.198c0 2.106-1.332 3.546-3.294 3.546s-3.294-1.44-3.294-3.546v-.198h.288v.108c0 1.134 1.206 1.89 3.006 1.89 1.818 0 3.024-.756 3.024-1.89v-.108h.27Zm2.25 13.536.054.108-.324.468h-3.492v-.18c.036-.954.072-1.926.072-2.88v-4.59l-5.922 8.172h-.162c.036-1.026.054-2.25.054-3.942v-5.328c-.27 0-1.008.198-1.386.324l-.054-.108.324-.468h1.566c.522 0 1.53-.054 1.926-.126l.054.108c-.072.81-.108 1.962-.108 3.078v2.79l4.248-5.85h.234c.27 0 1.116-.054 1.584-.126l.054.108c-.054.81-.108 1.962-.108 3.078v5.688c.27 0 1.008-.216 1.386-.324Zm4.788.576v-.198c.811-1.116 2.413-4.374 3.061-6.03l1.71-4.266c-.648-.972-1.368-1.764-1.962-1.908l.036-.198h4.176c.414 1.188.81 2.196 1.17 3.042l2.826 6.732c.378.9.666 1.512 1.224 2.646V28h-4.356l-.414-.468.072-.108c.468.108 1.386.324 1.727.324l-1.601-3.888h-5.058c-.522 1.422-.954 3.06-1.062 3.888.342 0 1.26-.216 1.728-.324l.072.108-.414.468h-2.935Zm2.737-4.482h4.788l-1.512-3.654c-.27-.648-.63-1.368-1.044-2.052l-2.232 5.706ZM183.1 31.6v-.18c.054-.954.09-1.926.09-2.88v-9.288c-.27 0-1.008.198-1.386.324l-.054-.108.324-.468h1.548c.522 0 1.53-.054 1.944-.126l.018.108a28.19 28.19 0 0 0-.072 1.89c.522-1.314 1.566-2.052 3.078-2.052 2.304 0 3.978 1.962 3.978 4.68 0 2.79-1.602 4.68-3.978 4.68-1.548 0-2.574-.738-3.096-2.052v5.22c.342 0 1.26-.198 1.728-.324l.072.108-.414.468h-3.78Zm4.662-3.978c1.386 0 2.358-1.656 2.358-4.122s-.972-4.14-2.358-4.14c-1.548 0-2.376 2.124-2.376 4.14 0 2.448.99 4.122 2.376 4.122Zm5.534.378v-.126c1.26-.882 2.808-2.754 3.276-3.384l.522-.63-1.17-1.62c-.972-1.404-2.088-2.592-2.646-3.096V19h4.482l.36.468-.054.108c-.414-.126-1.206-.324-1.494-.324l2.322 3.168.63-.774c.612-.792 1.188-1.764 1.566-2.394-.306 0-1.08.198-1.494.324l-.054-.108.36-.468h2.628v.126c-.936.612-2.034 1.674-2.934 2.934l-.522.612 1.044 1.422c.864 1.242 1.872 2.682 3.024 3.78V28h-4.59l-.414-.468.072-.108c.468.108 1.386.324 1.728.324l-2.646-3.636-.936 1.242c-.594.81-1.098 1.584-1.494 2.394.342 0 1.26-.216 1.728-.324l.072.108-.414.468h-2.952Zm11.526-13.41h2.844l-1.332 3.384h-.18l-1.332-3.384Zm.18 13.41v-.18c.054-.954.09-1.926.09-2.88v-5.688c-.27 0-1.008.198-1.386.324l-.054-.108.324-.468h1.548c.54 0 1.494-.054 1.944-.126l.018.108a49.97 49.97 0 0 0-.09 3.078v5.688c.27 0 1.008-.216 1.386-.324l.054.108-.324.468h-3.51Zm6.012 0v-.18c.054-.954.09-1.926.09-2.88v-5.688c-.27 0-1.008.198-1.386.324l-.054-.108.324-.468h4.14c2.718 0 4.374.864 4.374 2.286 0 1.134-.864 1.908-2.304 2.16 1.8.162 2.88.972 2.88 2.178 0 1.476-1.746 2.376-4.626 2.376h-3.438Zm2.394-4.68h.702c1.476 0 2.43-.792 2.43-2.034 0-1.188-.954-1.944-2.43-1.944h-.702v3.978Zm0 4.392h.792c1.638 0 2.718-.81 2.718-1.998 0-1.242-1.08-2.07-2.736-2.07h-.774v4.068Z" fill="#fff"/></svg>