<svg width="221" height="68" fill="none" xmlns="http://www.w3.org/2000/svg"><path d="M70.916 52.068v-.18c.036-.594.09-1.206.108-1.818h-.45c-4.086 0-6.426-1.854-6.426-4.392 0-2.538 2.358-4.392 6.426-4.392h.45v-1.692c-.342 0-1.26.198-1.728.324l-.072-.108.414-.468h4.23v.18c-.036.576-.054 1.17-.072 1.764h.414c4.086 0 6.426 1.854 6.426 4.392 0 2.538-2.322 4.392-6.426 4.392h-.432v1.746c.342 0 1.26-.216 1.728-.324l.072.108-.414.468h-4.248Zm-.288-2.358h.396v-8.082h-.396c-2.268 0-3.672 1.602-3.672 4.05 0 2.448 1.404 4.032 3.672 4.032Zm3.15 0h.396c2.25 0 3.654-1.584 3.654-4.032s-1.386-4.05-3.654-4.05h-.396v8.082Zm13.38 2.538c-2.953 0-5.059-1.944-5.059-4.68 0-2.736 2.106-4.68 5.058-4.68s5.058 1.944 5.058 4.68c0 2.736-2.106 4.68-5.058 4.68Zm0-.306c1.511 0 2.591-1.782 2.591-4.374 0-2.592-1.08-4.392-2.592-4.392-1.53 0-2.592 1.8-2.592 4.392 0 2.592 1.062 4.374 2.592 4.374Zm6.99 1.368-1.08-5.508.27-.072.054.144c.27.936 1.242 2.034 2.034 2.034.72 0 1.134-1.476 1.134-3.996-.018-.792-.126-1.782-.234-2.592-.27 0-1.008.198-1.404.324l-.054-.108.378-.468h5.382c.486 0 1.386-.054 1.764-.126l.018.108a49.97 49.97 0 0 0-.09 3.078v5.688c.27 0 1.008-.216 1.386-.324l.054.108-.324.468h-3.492v-.18a76.88 76.88 0 0 0 .072-2.88V43.41h-2.52c-.792 5.49-1.728 9.036-2.7 9.036-.306 0-.54-.288-.648-.342l.468 1.17-.036.036h-.432Zm11.792-1.242v-.18c.054-.954.09-1.926.09-2.88V43.32c-.27 0-1.008.198-1.386.324l-.054-.108.324-.468h1.548c.522 0 1.53-.054 1.944-.126l.018.108a49.97 49.97 0 0 0-.09 3.078v.72h.828c3.024 0 4.572.99 4.572 2.61 0 1.62-1.548 2.61-4.572 2.61h-3.222Zm2.394-.288h.612c1.53 0 2.466-.9 2.466-2.322 0-1.422-.936-2.322-2.466-2.322h-.612v4.644Zm7.555.288v-.18c.054-.954.09-1.926.09-2.88V39.72c-.27 0-1.008.198-1.386.324l-.054-.108.324-.468h1.566c.594 0 1.512-.054 1.926-.126l.036.108a49.97 49.97 0 0 0-.09 3.078v4.86h.882l2.07-2.304c.486-.522.828-1.008 1.314-1.764-.27 0-1.008.198-1.386.324l-.054-.108.342-.468h2.61v.144c-.882.594-2.34 1.764-2.916 2.376l-.45.504 2.448 3.618c.54.756 1.188 1.584 1.764 2.178v.18h-4.068l-.342-.468.054-.108c.378.108 1.116.324 1.386.324l-2.736-4.068h-.918v1.26c0 .954.036 1.926.072 2.88v.18h-2.484Zm10.181 1.242-1.08-5.508.27-.072.054.144c.27.936 1.242 2.034 2.034 2.034.72 0 1.134-1.476 1.134-3.996-.018-.792-.126-1.782-.234-2.592-.27 0-1.008.198-1.404.324l-.054-.108.378-.468h5.382c.486 0 1.386-.054 1.764-.126l.018.108a49.97 49.97 0 0 0-.09 3.078v5.688c.27 0 1.008-.216 1.386-.324l.054.108-.324.468h-3.492v-.18c.036-.954.072-1.926.072-2.88V43.41h-2.52c-.792 5.49-1.728 9.036-2.7 9.036-.306 0-.54-.288-.648-.342l.468 1.17-.036.036h-.432Zm11.792-1.242v-.18c.054-.954.09-1.926.09-2.88V43.32c-.27 0-1.008.198-1.386.324l-.054-.108.324-.468h1.548c.522 0 1.53-.054 1.944-.126l.018.108a49.97 49.97 0 0 0-.09 3.078v.72h.828c3.024 0 4.572.99 4.572 2.61 0 1.62-1.548 2.61-4.572 2.61h-3.222Zm2.394-.288h.612c1.53 0 2.466-.9 2.466-2.322 0-1.422-.936-2.322-2.466-2.322h-.612v4.644Zm11.659.468c-2.952 0-5.058-1.944-5.058-4.68 0-2.736 2.106-4.68 5.058-4.68s5.058 1.944 5.058 4.68c0 2.736-2.106 4.68-5.058 4.68Zm0-.306c1.512 0 2.592-1.782 2.592-4.374 0-2.592-1.08-4.392-2.592-4.392-1.53 0-2.592 1.8-2.592 4.392 0 2.592 1.062 4.374 2.592 4.374Zm7.62 3.726v-.18c.054-.954.09-1.926.09-2.88V43.32c-.27 0-1.008.198-1.386.324l-.054-.108.324-.468h1.548c.522 0 1.53-.054 1.944-.126l.018.108a28.19 28.19 0 0 0-.072 1.89c.522-1.314 1.566-2.052 3.078-2.052 2.304 0 3.978 1.962 3.978 4.68 0 2.79-1.602 4.68-3.978 4.68-1.548 0-2.574-.738-3.096-2.052v5.22c.342 0 1.26-.198 1.728-.324l.072.108-.414.468h-3.78Zm4.662-3.978c1.386 0 2.358-1.656 2.358-4.122s-.972-4.14-2.358-4.14c-1.548 0-2.376 2.124-2.376 4.14 0 2.448.99 4.122 2.376 4.122Zm7.22 4.788-1.314-4.644.216-.072.054.108c.522 1.188 2.61 3.51 3.744 3.51.468 0 .756-.288.756-.792V54.3c0-.648-.36-1.494-1.602-4.032l-1.602-3.276c-.756-1.53-1.458-2.916-1.998-3.798v-.126h4.068l.324.468-.054.108c-.378-.126-1.116-.324-1.386-.324l2.646 6.228c.144.306.27.666.378 1.008.108-.36.198-.684.324-1.008l.882-2.394c.504-1.332.9-3.132.972-3.834-.27 0-1.008.198-1.386.324l-.054-.108.324-.468h2.394v.144c-.522.702-1.116 1.854-1.8 3.708l-1.224 3.276c-.162.432-.216.792-.216 1.278v.864c0 2.358-.918 3.51-2.376 3.51-.936 0-1.494-.414-2.124-.468l.486 1.044-.018.054h-.414Z" fill="#333"/><path d="M34.727 30.36c-.356-6-1.424-29.714-2.577-29.286-1.155-.428-2.221 23.286-2.577 29.286-.355 6-1.066 36.571-1.066 36.571h7.286s-.71-30.57-1.066-36.571Z" fill="#fff" stroke="#BC4CC6" stroke-width="1.012" stroke-miterlimit="10"/><path d="M57.5 34.068h18" stroke="#BC4CC6" stroke-width="1.215" stroke-miterlimit="10"/><path d="M.5 34.103h54.214M48.85 17.299 7.294 58.857M56.05 10.1l-6.15 6.148m-.401 35.203 5.731 5.731M8.146 10.1l39.565 39.564M19.414 12.3A22.146 22.146 0 0 0 8.568 25.767a24.93 24.93 0 0 1 10.846-13.465Zm4.069-1.955Zm-1.148.462Zm3.13-1.106ZM8.021 27.652c.079-.316.163-.628.253-.94M24.66 9.943Zm-.403.129Zm-3.048 1.252ZM7.482 30.57l.06-.453m-.162 1.442Zm.169-1.489c.022-.152.045-.303.07-.453m.291-1.491c.034-.156.072-.312.11-.468M7.621 29.6c.026-.156.053-.31.082-.465m.007-.048ZM27.08 9.311Zm3.777-.486.389-.016-.389.016Zm-.388.024c.113-.008.226-.014.34-.02m-.754.051.303-.023m1.401-.061Zm-2.179.129Zm1.77-.118.295-.008M7.34 32.094ZM27.48 9.23l.364-.064m.09-.018.317-.052c-.106.015-.212.034-.317.052Zm-2.074.449Zm2.906-.575c.107-.014.215-.029.323-.042m-.769.106c.13-.02.26-.04.385-.057a39.58 39.58 0 0 0-.385.057Zm.873-.119.324-.035m10.893 48.17Zm2.244-.917c-.183.085-.366.169-.55.25m1.093-.511c-.179.09-.36.177-.543.262M21.202 11.328c-.604.298-1.196.619-1.774.963h.003a24.827 24.827 0 0 1 1.771-.963Zm9.355 47.13Zm-1.261-.113Zm2.854.163a25.07 25.07 0 0 1-1.597-.051m14.487-3.549Zm-16.984 3.264a21.19 21.19 0 0 1-.612-.11m22.282-6.835a13.64 13.64 0 0 1-.324.315m1.131-1.162Zm-1.555 1.565Zm-.336.303Zm-1.86 1.498Zm-.734.516Zm-23.851 2.174Zm-9.227-6.975c-.381-.46-.745-.934-1.091-1.424m6.126 6.056a25.025 25.025 0 0 1-2.788-2.245m4.043 3.062Zm-7.381-6.872Zm7.899 7.175ZM7.299 33.093Zm.017-.52c.006-.14.014-.28.022-.419m17.128 25.142-.577-.194c.193.066.387.131.577.194Zm-1.148-.404Zm2.62.833Zm-5.371-2.075Zm6.878 2.412Zm-4.69-1.392a24.815 24.815 0 0 1-.558-.236m4.494-47.04ZM13.16 49.69A24.87 24.87 0 0 0 15 51.644M7.293 33.648c0-.154.005-.307.005-.46a23.43 23.43 0 0 0-.005.46Zm0 0a24.74 24.74 0 0 0 3.755 13.142m-2.48-21.019a24.093 24.093 0 0 0 0 .001Z" stroke="#BC4CC6" stroke-width=".911" stroke-miterlimit="10"/><path d="M8.569 25.767c.058-.175.119-.35.18-.524l.005-.01.194-.518v-.006c.333-.862.713-1.705 1.14-2.525l.005-.008.258-.481.004-.007c.442-.803.929-1.581 1.457-2.33v-.003c.105-.15.21-.296.319-.442l.005-.007c.65-.883 1.359-1.72 2.12-2.51l.005-.005a25.055 25.055 0 0 1 5.147-4.086l.013-.008a22.144 22.144 0 0 0-10.86 13.48v-.003l.008-.007Zm1.525-3.592Zm9.336-9.885h-.002l-.013.007.016-.008Zm-2.727 1.888Z" stroke="#BC4CC6" stroke-width=".911" stroke-miterlimit="10"/><path d="M11.815 19.352c.104-.15.21-.296.318-.442m4.564-4.732a25.08 25.08 0 0 0-2.433 2.21m-3.906 5.3c.442-.803.929-1.581 1.457-2.33m5.318-5.52a25.079 25.079 0 0 1 2.28-1.541m-7.274 6.607c.65-.882 1.36-1.72 2.12-2.51M8.95 24.71c.332-.862.713-1.705 1.14-2.524m-1.336 3.047.194-.518c-.067.173-.132.345-.194.518Zm-.184.534c.058-.176.118-.35.18-.525m-.182.526v.003" stroke="#BC4CC6" stroke-width=".911" stroke-miterlimit="10"/><path d="M8.02 27.66v-.01" stroke="#BC4CC6" stroke-width="1.012" stroke-miterlimit="10"/><path d="M7.902 28.154c0-.01.005-.018.007-.027a.408.408 0 0 1-.007.027Z" fill="#fff" stroke="#BC4CC6" stroke-width="1.012" stroke-miterlimit="10"/><path d="m23.447 10.36.037-.014" stroke="#BC4CC6" stroke-width="1.012" stroke-miterlimit="10"/><path d="M8.274 26.713c0-.006.004-.012.006-.018l-.006.018Z" fill="#fff" stroke="#BC4CC6" stroke-width="1.012" stroke-miterlimit="10"/><path d="m21.202 11.328.007-.004m1.101-.508.023-.01m5.917-1.709.07-.011m-.853.148h.012m1.226-.204.06-.009m.324-.037.104-.013m-2.181.354.068-.014m2.435-.381.064-.006m-2.962.486.074-.015m-1.275.32.05-.014m-.856.256.049-.016m1.14-.329.06-.016m-1.621.482.02-.006" stroke="#BC4CC6" stroke-width="1.012" stroke-miterlimit="10"/><path d="M7.705 29.134c0-.016.006-.032.008-.048-.004.016-.008.03-.008.049Z" fill="#fff" stroke="#BC4CC6" stroke-width="1.012" stroke-miterlimit="10"/><path d="M37.16 58.002c-.203.041-.406.08-.61.117m-6.585-49.23.09-.008" stroke="#BC4CC6" stroke-width="1.012" stroke-miterlimit="10"/><path d="M49.406 51.541Zm-13.78 6.725Zm15.894-9.038Zm.549-.706Zm-17.378 9.855Z" fill="#fff" stroke="#BC4CC6" stroke-width="1.012" stroke-miterlimit="10"/><path d="M52.068 18.777a24.86 24.86 0 0 1 0 29.745m-1.319 1.618-.216.24" stroke="#BC4CC6" stroke-width="1.012" stroke-miterlimit="10"/><path d="M36.55 58.117Z" fill="#fff" stroke="#BC4CC6" stroke-width="1.012" stroke-miterlimit="10"/><path d="M34.063 58.435c-.21.016-.422.03-.633.04" stroke="#BC4CC6" stroke-width="1.012" stroke-miterlimit="10"/><path d="M7.543 30.114c0-.015.005-.03.006-.044-.001.017-.004.03-.006.044Z" fill="#fff" stroke="#BC4CC6" stroke-width="1.012" stroke-miterlimit="10"/><path d="M7.62 29.613V29.6" stroke="#BC4CC6" stroke-width="1.012" stroke-miterlimit="10"/><path d="M7.373 31.64c0-.027.005-.055.007-.083 0 .03-.004.057-.007.084Zm.102-1.003c0-.023.005-.045.008-.065l-.008.065Zm24.675 27.87ZM7.338 32.155c0-.021 0-.041.003-.061l-.003.06Z" fill="#fff" stroke="#BC4CC6" stroke-width="1.012" stroke-miterlimit="10"/><path d="M7.297 33.19v-.096m.019-.449c0-.023 0-.047.004-.07M27.843 9.164l.09-.016" stroke="#BC4CC6" stroke-width="1.012" stroke-miterlimit="10"/><path d="M50.348 16.717Z" fill="#fff" stroke="#BC4CC6" stroke-width="1.012" stroke-miterlimit="10"/><path d="M31.244 8.809h.106" stroke="#BC4CC6" stroke-width="1.012" stroke-miterlimit="10"/><path d="M45.799 12.871Z" fill="#fff" stroke="#BC4CC6" stroke-width="1.012" stroke-miterlimit="10"/><path d="M31.645 8.799h.114" stroke="#BC4CC6" stroke-width="1.012" stroke-miterlimit="10"/><path d="M50.749 17.158Zm.771.912Z" fill="#fff" stroke="#BC4CC6" stroke-width="1.012" stroke-miterlimit="10"/><path d="M45.295 12.55A24.74 24.74 0 0 0 32.15 8.795M50.144 16.5a25.097 25.097 0 0 0-2.182-2.031" stroke="#BC4CC6" stroke-width="1.012" stroke-miterlimit="10"/><path d="M46.54 13.379Z" fill="#fff" stroke="#BC4CC6" stroke-width="1.012" stroke-miterlimit="10"/><path d="M30.81 8.828h.048m-.501.029.112-.007" stroke="#BC4CC6" stroke-width="1.012" stroke-miterlimit="10"/><path d="M52.068 18.777a24.284 24.284 0 0 0-1.925-2.278 25.082 25.082 0 0 0-4.347-3.628A24.74 24.74 0 0 0 31.76 8.796h-.114l-.295.008h-.106c-.13.005-.26.01-.389.017h-.048l-.34.02-.112.008-.303.024-.09.007-.384.037-.065.007c-.107.01-.215.023-.324.035l-.104.013-.323.042-.061.008-.385.056-.07.011-.317.053-.09.015-.364.065h-.013c-.13.025-.259.05-.388.077l-.068.014-.32.07-.074.017c-.254.057-.507.119-.759.185l-.06.016c-.112.029-.223.059-.334.09l-.049.013a27.5 27.5 0 0 0-.757.226l-.049.016-.353.115-.018.006c-.253.086-.505.175-.755.267l-.037.014c-.376.14-.747.29-1.114.447l-.022.01c-.372.16-.739.33-1.1.508l-.008.003c-.604.297-1.194.618-1.771.962a21.924 21.924 0 0 1 6.59-2.266l.031-.006.295-.048.04-.007c.22-.034.44-.065.663-.094h.007l.309-.036.073-.008.25-.026.085-.007c.086-.009.173-.016.26-.023l.064-.005.327-.024h.03l.29-.016.1-.004c.074 0 .149-.007.224-.009l.111-.004.227-.005h.423a21.232 21.232 0 0 1 1.98.087l.278.027c.186.019.372.04.556.065l.276.037a22.081 22.081 0 0 1 3.482.777c8.993 2.798 15.523 11.186 15.523 21.1 0 9.914-6.53 18.302-15.523 21.099a21.822 21.822 0 0 1-3.482.778l-.276.036a29.937 29.937 0 0 1-.835.092 21.325 21.325 0 0 1-1.98.087c-.19 0-.38 0-.57-.007a22.865 22.865 0 0 1-1.69-.107 22.903 22.903 0 0 1-1.651-.23C15.578 51.685 7.732 42.651 7.732 31.784v-.45c0-.09.005-.18.008-.269v-.09l.015-.347v-.047c.005-.102.012-.203.018-.305 0-.03.005-.06.007-.09a22.111 22.111 0 0 1 .061-.704c0-.017.004-.033.005-.05l.035-.306.008-.065c.03-.237.063-.474.1-.712 0-.013.004-.026.006-.04.017-.11.035-.218.054-.324l.006-.033c.041-.24.088-.48.137-.717l.006-.026c.076-.361.16-.718.254-1.072l.004-.015c.03-.116.062-.232.095-.348a25.79 25.79 0 0 0-.288.923c0 .006-.004.012-.006.018-.09.31-.174.623-.252.938v.009c-.038.155-.076.311-.11.468 0 .009-.005.017-.007.026-.07.309-.134.62-.194.933 0 .016-.006.032-.009.048-.028.155-.055.31-.081.466v.014c-.025.151-.048.302-.07.453 0 .014-.005.03-.007.043l-.06.454c0 .022-.006.045-.008.064-.037.305-.068.612-.094.92 0 .029-.005.057-.007.084-.012.15-.023.302-.033.454 0 .02 0 .04-.003.06l-.021.42c0 .023 0 .047-.004.07-.006.15-.01.3-.013.45v.095c0 .153-.005.307-.005.46a24.74 24.74 0 0 0 4.585 14.387 23.993 23.993 0 0 0 1.284 1.654 24.853 24.853 0 0 0 2.069 2.164 25.025 25.025 0 0 0 5.35 3.801 24.61 24.61 0 0 0 3.323 1.453c.191.067.385.13.578.194.484.157.974.3 1.47.428l.299.074a23.737 23.737 0 0 0 1.82.373 24.324 24.324 0 0 0 2.497.285 25.098 25.098 0 0 0 5.073-.191l.31-.045a21.373 21.373 0 0 0 1.224-.219 24.522 24.522 0 0 0 3.25-.9 24.545 24.545 0 0 0 4.63-2.194 24.97 24.97 0 0 0 4.366-3.368c.109-.104.216-.21.324-.315l.21-.212c.203-.208.402-.42.597-.634l.216-.24a24.806 24.806 0 0 0 1.32-1.62 24.859 24.859 0 0 0 0-29.743l-.006.001ZM8.57 25.768h-.002.001Zm10.845-13.469v.001-.001Zm8.682-2.539Zm.358-.025Z" fill="#fff" stroke="#BC4CC6" stroke-width="1.012" stroke-miterlimit="10"/><path d="M8.57 25.768v.004a23.104 23.104 0 0 0 0-.004Zm-.355 1.438Z" fill="#fff" stroke="#BC4CC6" stroke-width="1.012" stroke-miterlimit="10"/><path d="m7.797 30.187.023-.298M27.44 9.82l.249-.025m1.819-.1h.323" stroke="#BC4CC6" stroke-width="1.012" stroke-miterlimit="10"/><path d="m27.773 9.786.26-.022-.26.022Z" fill="#fff" stroke="#BC4CC6" stroke-width="1.012" stroke-miterlimit="10"/><path d="m27.057 9.866.308-.036" stroke="#BC4CC6" stroke-width="1.012" stroke-miterlimit="10"/><path d="M26.387 9.96Zm-6.973 2.338a21.917 21.917 0 0 1 6.606-2.28 21.921 21.921 0 0 0-6.59 2.265l-.015.01v.005Z" fill="#fff" stroke="#BC4CC6" stroke-width="1.012" stroke-miterlimit="10"/><path d="m26.053 10.013.295-.048" stroke="#BC4CC6" stroke-width="1.012" stroke-miterlimit="10"/><path d="m7.754 30.977.015-.348-.015.348Zm.07-1.14ZM28.845 9.713c.075 0 .15-.006.224-.008l-.224.008ZM8.012 28.31Zm-.268 3.025c0-.09.005-.18.007-.269l-.007.27Zm.162-2.275c.03-.238.065-.474.1-.712-.037.237-.07.474-.1.712Z" fill="#fff" stroke="#BC4CC6" stroke-width="1.012" stroke-miterlimit="10"/><path d="m29.18 9.702.227-.005" stroke="#BC4CC6" stroke-width="1.012" stroke-miterlimit="10"/><path d="M7.74 31.782v-.346.346Zm.03-1.2Z" fill="#fff" stroke="#BC4CC6" stroke-width="1.012" stroke-miterlimit="10"/><path d="m7.863 29.433.035-.306" stroke="#BC4CC6" stroke-width="1.012" stroke-miterlimit="10"/><path d="M8.071 27.951Z" fill="#fff" stroke="#BC4CC6" stroke-width="1.012" stroke-miterlimit="10"/><path d="M31.25 9.736Zm20.675 22.049c0 9.913-6.53 18.302-15.524 21.1m15.524-21.1c0-9.913-6.53-18.302-15.524-21.1 8.994 2.798 15.524 11.186 15.524 21.1Zm-44.185 0c0 10.867 7.845 19.9 18.18 21.747m3.912-43.837c.191 0 .38 0 .57.007m-.994-.007h.1m3.137 44.006ZM29.067 9.705l.112-.004m2.631 44.09Zm-1.978.087c-.19 0-.38 0-.57-.007.19.005.38.007.57.007Zm.57-.007c-.19.005-.379.007-.57.007m-3.09-.215c-.275-.039-.55-.082-.821-.13m1.652.229Zm.841.071Zm5.329-.302c-.272.049-.546.092-.821.13m.82-43.621Zm1.875.417Zm-2.695-.551c.275.04.549.082.82.13m-1.652-.229Zm3.528 43.304Zm.783-.228Zm-28.336-24.9.006-.034M27.689 9.795l.085-.008M7.857 29.482c0-.017.004-.034.006-.05l-.006.05Zm.612-3.345.004-.014M28.032 9.765l.065-.005m-.732.069.074-.009M7.742 31.435v-.101M26.349 9.965l.038-.006M7.79 30.278c0-.03.005-.06.007-.09l-.007.09ZM28.426 9.736h.03M7.752 31.066v-.09c.002.03 0 .06 0 .09ZM26.02 10.02l.032-.006M7.898 29.127l.008-.064m-.086.826c0-.017 0-.034.005-.051a1.525 1.525 0 0 0-.005.051Zm.185-1.539c0-.013.004-.026.006-.04l-.006.04Zm-.235 2.28v-.048M28.744 9.72l.1-.005M8.209 27.232l.006-.027m1.875-5.021.004-.008m2.039-3.266.005-.008m2.121-2.509.004-.004M8.57 25.768Zm1.782-4.075.003-.006m-1.408 3.026v-.006m-.196.536.004-.01m3.058-5.878v-.003" stroke="#BC4CC6" stroke-width=".911" stroke-miterlimit="10"/><path d="M19.413 12.298a25.079 25.079 0 0 0-2.714 1.877 25.054 25.054 0 0 0-2.433 2.21l-.005.005a24.765 24.765 0 0 0-2.12 2.51l-.006.007c-.108.145-.213.292-.318.441v.003a24.763 24.763 0 0 0-1.457 2.33l-.004.007-.259.482-.003.008c-.428.82-.809 1.662-1.141 2.525v.005c-.065.171-.13.344-.194.518l-.004.01c-.065.175-.123.35-.182.525a17.17 17.17 0 0 0-.095.353l-.004.015c-.094.353-.18.71-.255 1.071l-.005.027c-.05.237-.096.476-.138.716l-.006.034-.054.324c0 .013-.004.026-.006.04-.037.235-.07.471-.1.712l-.007.065c-.013.101-.024.203-.035.305 0 .017-.003.034-.005.05a21.73 21.73 0 0 0-.034.355c0 .017-.003.034-.005.05l-.023.3c0 .03-.004.06-.006.09-.007.101-.013.203-.018.304v.047c-.007.116-.011.232-.016.348v.09c0 .089-.005.178-.007.268v.451c0 10.866 7.845 19.9 18.181 21.747.272.048.546.092.822.13a21.384 21.384 0 0 0 2.52.207c.19.005.38.007.57.007.19 0 .38 0 .57-.008a22.864 22.864 0 0 0 1.689-.107c.186-.018.371-.04.555-.064l.276-.037a21.75 21.75 0 0 0 3.482-.778c8.994-2.797 15.524-11.185 15.524-21.099 0-9.913-6.55-18.292-15.542-21.09a22.138 22.138 0 0 0-3.482-.778l-.276-.036a33.74 33.74 0 0 0-.556-.065l-.279-.026a25.092 25.092 0 0 0-1.98-.087h-.423l-.227.005-.111.003c-.076 0-.15.006-.225.009l-.1.004c-.097.005-.194.01-.29.017h-.03c-.109.007-.218.014-.326.023l-.065.005c-.086.007-.173.014-.26.023l-.085.008-.249.025-.074.008c-.103.011-.206.023-.308.036h-.008c-.222.028-.443.06-.663.094l-.039.007c-.098.015-.197.031-.295.048l-.032.006a21.92 21.92 0 0 0-6.606 2.279l.001.006Z" stroke="#BC4CC6" stroke-width=".911" stroke-miterlimit="10"/><path d="M34.727 30.36c-.356-6-1.424-29.714-2.577-29.286-1.155-.428-2.221 23.286-2.577 29.286-.355 6-.93 25.926-.93 25.926 3.96.612 6.955 0 6.955 0s-.516-19.926-.871-25.926Z" fill="#fff" stroke="#BC4CC6" stroke-width="1.012" stroke-miterlimit="10"/><path d="M34.57 10.202s-4.235-.634-6.497-.51c-2.262.126 2.261-.899 2.261-.899s3.094-.027 4.237.116" fill="#fff"/><path d="M34.57 10.202s-4.235-.634-6.497-.51c-2.262.126 2.261-.899 2.261-.899s3.094-.027 4.237.116" stroke="#BC4CC6" stroke-width=".911" stroke-miterlimit="10"/><path d="m17.179 27.556 1.482 1.339-1.994-.102.101 1.995-1.338-1.483-1.338 1.483.102-1.995-1.995.102 1.483-1.338-1.483-1.339 1.995.102-.102-1.994 1.338 1.482 1.338-1.482-.101 1.994 1.994-.102-1.482 1.338ZM45.028 34l1.482 1.339-1.994-.102.102 1.995-1.338-1.483-1.339 1.483.102-1.995-1.994.102L41.53 34l-1.482-1.339 1.994.102-.102-1.995 1.339 1.483 1.338-1.483-.102 1.995 1.994-.102L45.027 34Z" fill="#fff" stroke="#BC4CC6" stroke-width=".911" stroke-miterlimit="10"/><path d="M116.5 34.068h63m11 0h30m-145 0h19m6 0h9" stroke="#BC4CC6" stroke-width="1.215" stroke-miterlimit="10"/><path d="m78.08 31.506-.036-.216c-.378-1.278-2.34-3.222-3.744-3.222h-8.766v-.18c.072-.954.108-1.926.108-2.88V15.72c-.342 0-1.26.198-1.728.324l-.072-.108.414-.468h4.23v.18c-.054.954-.09 1.926-.09 2.88v9.18h4.968v-9.18c0-.954-.018-1.926-.09-2.88v-.18h2.952v.18a38.495 38.495 0 0 0-.108 2.88v6.48c0 .9.036 1.818.09 2.718h1.404l-.396-.792h.54l.594 4.482-.27.09Zm11.758-4.014.054.108-.324.468h-3.492v-.18c.036-.954.072-1.926.072-2.88v-4.59l-5.922 8.172h-.162c.036-1.026.054-2.25.054-3.942V19.32c-.27 0-1.008.198-1.386.324l-.054-.108.324-.468h1.566c.522 0 1.53-.054 1.926-.126l.054.108c-.072.81-.108 1.962-.108 3.078v2.79l4.248-5.85h.234c.27 0 1.116-.054 1.584-.126l.054.108c-.054.81-.108 1.962-.108 3.078v5.688c.27 0 1.008-.216 1.386-.324Zm7.687 4.176v-.18c.036-.954.072-1.926.072-2.88v-2.394c-.486 1.296-1.44 2.034-2.826 2.034-2.124 0-3.654-1.98-3.654-4.68 0-2.79 1.476-4.68 3.654-4.68 1.422 0 2.358.72 2.826 1.98V15.72c-.27 0-1.008.198-1.386.324l-.054-.108.324-.468h1.566c.522 0 1.53-.054 1.926-.126l.036.108a49.97 49.97 0 0 0-.09 3.078v2.394c.486-1.296 1.44-2.034 2.826-2.034 2.124 0 3.654 1.962 3.654 4.68 0 2.79-1.476 4.68-3.654 4.68-1.422 0-2.358-.72-2.826-1.998v5.166c.288 0 1.08-.198 1.494-.324l.054.108-.36.468h-3.582Zm-1.89-3.978c1.206 0 2.07-1.674 2.07-4.122 0-2.466-.864-4.14-2.07-4.14-1.224 0-2.07 1.674-2.07 4.14 0 2.466.846 4.122 2.07 4.122Zm6.246 0c1.224 0 2.07-1.656 2.07-4.122s-.846-4.14-2.07-4.14c-1.206 0-2.07 1.674-2.07 4.14 0 2.448.864 4.122 2.07 4.122Zm7.082 3.978v-.18c.054-.954.09-1.926.09-2.88V19.32c-.27 0-1.008.198-1.386.324l-.054-.108.324-.468h1.548c.522 0 1.53-.054 1.944-.126l.018.108a28.19 28.19 0 0 0-.072 1.89c.522-1.314 1.566-2.052 3.078-2.052 2.304 0 3.978 1.962 3.978 4.68 0 2.79-1.602 4.68-3.978 4.68-1.548 0-2.574-.738-3.096-2.052v5.22c.342 0 1.26-.198 1.728-.324l.072.108-.414.468h-3.78Zm4.662-3.978c1.386 0 2.358-1.656 2.358-4.122s-.972-4.14-2.358-4.14c-1.548 0-2.376 2.124-2.376 4.14 0 2.448.99 4.122 2.376 4.122Zm11.466.558c-2.952 0-5.058-1.944-5.058-4.68 0-2.736 2.106-4.68 5.058-4.68s5.058 1.944 5.058 4.68c0 2.736-2.106 4.68-5.058 4.68Zm0-.306c1.512 0 2.592-1.782 2.592-4.374 0-2.592-1.08-4.392-2.592-4.392-1.53 0-2.592 1.8-2.592 4.392 0 2.592 1.062 4.374 2.592 4.374Zm7.62.126v-.18c.054-.954.09-1.926.09-2.88V19.32c-.27 0-1.008.198-1.386.324l-.054-.108.324-.468h4.14c2.718 0 4.374.864 4.374 2.286 0 1.134-.864 1.908-2.304 2.16 1.8.162 2.88.972 2.88 2.178 0 1.476-1.746 2.376-4.626 2.376h-3.438Zm2.394-4.68h.702c1.476 0 2.43-.792 2.43-2.034 0-1.188-.954-1.944-2.43-1.944h-.702v3.978Zm0 4.392h.792c1.638 0 2.718-.81 2.718-1.998 0-1.242-1.08-2.07-2.736-2.07h-.774v4.068Zm17.751-.288.054.108-.324.468h-3.492v-.18c.036-.954.072-1.926.072-2.88v-4.59l-5.922 8.172h-.162c.036-1.026.054-2.25.054-3.942V19.32c-.27 0-1.008.198-1.386.324l-.054-.108.324-.468h1.566c.522 0 1.53-.054 1.926-.126l.054.108c-.072.81-.108 1.962-.108 3.078v2.79l4.248-5.85h.234c.27 0 1.116-.054 1.584-.126l.054.108c-.054.81-.108 1.962-.108 3.078v5.688c.27 0 1.008-.216 1.386-.324Zm9.738-13.536v.198c0 2.106-1.332 3.546-3.294 3.546s-3.294-1.44-3.294-3.546v-.198h.288v.108c0 1.134 1.206 1.89 3.006 1.89 1.818 0 3.024-.756 3.024-1.89v-.108h.27Zm2.25 13.536.054.108-.324.468h-3.492v-.18c.036-.954.072-1.926.072-2.88v-4.59l-5.922 8.172h-.162c.036-1.026.054-2.25.054-3.942V19.32c-.27 0-1.008.198-1.386.324l-.054-.108.324-.468h1.566c.522 0 1.53-.054 1.926-.126l.054.108c-.072.81-.108 1.962-.108 3.078v2.79l4.248-5.85h.234c.27 0 1.116-.054 1.584-.126l.054.108c-.054.81-.108 1.962-.108 3.078v5.688c.27 0 1.008-.216 1.386-.324Zm4.788.576v-.198c.811-1.116 2.413-4.374 3.061-6.03l1.71-4.266c-.648-.972-1.368-1.764-1.962-1.908l.036-.198h4.176c.414 1.188.81 2.196 1.17 3.042l2.826 6.732c.378.9.666 1.512 1.224 2.646v.18h-4.356l-.414-.468.072-.108c.468.108 1.386.324 1.727.324l-1.601-3.888h-5.058c-.522 1.422-.954 3.06-1.062 3.888.342 0 1.26-.216 1.728-.324l.072.108-.414.468h-2.935Zm2.737-4.482h4.788l-1.512-3.654c-.27-.648-.63-1.368-1.044-2.052l-2.232 5.706Zm11.231 8.082v-.18c.054-.954.09-1.926.09-2.88V19.32c-.27 0-1.008.198-1.386.324l-.054-.108.324-.468h1.548c.522 0 1.53-.054 1.944-.126l.018.108a28.19 28.19 0 0 0-.072 1.89c.522-1.314 1.566-2.052 3.078-2.052 2.304 0 3.978 1.962 3.978 4.68 0 2.79-1.602 4.68-3.978 4.68-1.548 0-2.574-.738-3.096-2.052v5.22c.342 0 1.26-.198 1.728-.324l.072.108-.414.468h-3.78Zm4.662-3.978c1.386 0 2.358-1.656 2.358-4.122s-.972-4.14-2.358-4.14c-1.548 0-2.376 2.124-2.376 4.14 0 2.448.99 4.122 2.376 4.122Zm5.534.378v-.126c1.26-.882 2.808-2.754 3.276-3.384l.522-.63-1.17-1.62c-.972-1.404-2.088-2.592-2.646-3.096v-.144h4.482l.36.468-.054.108c-.414-.126-1.206-.324-1.494-.324l2.322 3.168.63-.774c.612-.792 1.188-1.764 1.566-2.394-.306 0-1.08.198-1.494.324l-.054-.108.36-.468h2.628v.126c-.936.612-2.034 1.674-2.934 2.934l-.522.612 1.044 1.422c.864 1.242 1.872 2.682 3.024 3.78v.126h-4.59l-.414-.468.072-.108c.468.108 1.386.324 1.728.324l-2.646-3.636-.936 1.242c-.594.81-1.098 1.584-1.494 2.394.342 0 1.26-.216 1.728-.324l.072.108-.414.468h-2.952Zm11.526-13.41h2.844l-1.332 3.384h-.18l-1.332-3.384Zm.18 13.41v-.18c.054-.954.09-1.926.09-2.88V19.32c-.27 0-1.008.198-1.386.324l-.054-.108.324-.468h1.548c.54 0 1.494-.054 1.944-.126l.018.108a49.97 49.97 0 0 0-.09 3.078v5.688c.27 0 1.008-.216 1.386-.324l.054.108-.324.468h-3.51Zm6.012 0v-.18c.054-.954.09-1.926.09-2.88V19.32c-.27 0-1.008.198-1.386.324l-.054-.108.324-.468h4.14c2.718 0 4.374.864 4.374 2.286 0 1.134-.864 1.908-2.304 2.16 1.8.162 2.88.972 2.88 2.178 0 1.476-1.746 2.376-4.626 2.376h-3.438Zm2.394-4.68h.702c1.476 0 2.43-.792 2.43-2.034 0-1.188-.954-1.944-2.43-1.944h-.702v3.978Zm0 4.392h.792c1.638 0 2.718-.81 2.718-1.998 0-1.242-1.08-2.07-2.736-2.07h-.774v4.068Z" fill="#333"/></svg>