<svg width="251" height="54" viewBox="0 0 251 54" fill="none" xmlns="http://www.w3.org/2000/svg">
<rect y="21" width="3" height="11" rx="1.5" fill="white"/>
<rect x="5" y="28" width="3" height="18" rx="1.5" fill="white"/>
<rect x="10" y="16" width="3" height="30" rx="1.5" fill="white"/>
<rect x="21" y="7" width="3" height="30" rx="1.5" fill="white"/>
<rect x="26" y="7" width="3" height="19" rx="1.5" fill="white"/>
<rect x="31" y="21" width="3" height="12" rx="1.5" fill="white"/>
<rect x="16" width="3" height="54" rx="1.5" fill="white"/>
<path d="M58.12 35.424C58.12 35.424 58.408 35.424 58.744 35.376C60.088 35.136 59.272 35.904 60.52 35.664C61.288 35.904 61.624 35.904 61.816 35.52C62.776 35.52 62.152 35.712 63.112 35.664C65.704 35.232 67.288 33.36 67.192 31.632C66.712 30.912 66.376 29.904 65.752 29.952C64.888 30.288 64.408 30.768 63.4 30.816C63.4 30.816 63.112 30.816 62.776 30.816C61.24 31.248 62.104 30.816 60.376 31.536C59.416 31.872 59.128 31.92 57.976 32.256C57.64 32.256 57.304 32.544 57.016 32.256C57.112 31.632 57.064 31.296 56.92 30.672C56.68 28.704 56.776 26.784 56.44 25.2C56.104 24 56.104 22.704 56.104 21.744C55.96 21.12 56.056 19.152 55.528 18.528C55.48 18.24 55.336 17.856 55.288 17.472L56.488 17.376C57.4 17.664 57.88 17.712 58.792 17.424C60.088 17.376 61.528 18.144 62.728 17.76C63.88 17.424 63.832 17.28 65.368 17.28H65.656C66.28 16.896 67.288 16.896 67.912 16.848C68.536 16.896 69.448 15.984 69.592 15.12C69.688 14.496 68.872 12.672 68.248 12.768C67.144 12.384 66.472 12.192 65.56 12.528C63.928 12.576 63.928 12.576 62.392 12.576C60.136 12.624 57.88 12.624 55.768 13.104C55.192 13.392 54.184 13.392 53.656 13.728C53.32 13.728 51.256 14.64 51.304 14.976C51.496 15.648 52.072 15.552 52.12 16.272C52.168 16.608 53.512 16.704 53.56 17.088C53.608 18.672 51.496 20.88 51.544 22.464C51.496 23.472 51.16 24.72 51.16 25.728C51.016 26.736 50.968 27.744 50.92 28.608C51.016 29.232 51.304 29.856 51.016 30.528C51.16 32.112 51.304 33.792 51.448 35.328C51.544 37.584 51.88 39.84 52.072 42.048C52.168 42.432 52.36 43.056 52.504 43.68C52.648 44.256 52.984 45.216 53.08 45.888C53.176 47.472 54.376 49.392 54.76 50.928C54.808 51.216 55.96 52.512 56.344 52.512C56.728 52.8 57.304 53.088 57.64 52.944C58.744 53.28 59.032 53.28 59.704 52.272C59.704 52.272 59.704 52.272 59.704 51.984C59.368 50.976 58.984 48.624 59.032 47.616C58.984 47.328 58.984 47.328 58.84 47.04C58.936 46.032 58.744 45.072 58.408 44.16C58.264 42.192 58.216 40.56 58.072 38.688C57.832 38.304 57.784 37.632 57.64 37.392C57.88 37.056 57.832 36.768 57.64 36.096C57.592 35.808 57.496 35.424 58.12 35.424ZM75.8028 32.208C75.5148 32.496 75.4188 32.64 75.3708 32.832C73.4508 36.384 74.2188 41.328 77.0508 42C76.8108 43.392 76.5228 44.544 75.9948 45.936C75.4188 47.088 75.3228 48.336 74.4588 49.2C73.8828 49.776 73.0188 50.352 72.1548 49.776C71.8668 48.912 71.5788 47.76 71.5788 46.896C71.5788 46.032 71.5788 45.456 71.8668 44.592V43.152C72.1548 42.288 72.7308 38.832 73.0188 37.968C73.0188 37.392 73.3068 36.816 73.3068 36.24C73.3068 35.376 73.5948 34.8 73.8828 33.936C73.8828 33.648 74.5068 33.216 74.5068 32.64C74.5068 32.352 74.8908 31.68 75.1788 31.392V31.104C75.1788 30.528 74.7948 30.816 74.2188 30.528C73.6428 30.528 72.5868 31.104 72.2988 31.392C71.7228 31.968 70.4748 33.12 70.1868 33.984C69.0348 36 68.5068 37.008 68.2188 39.312C67.9307 39.888 67.6427 42.24 67.6427 43.2C67.3547 44.064 67.8347 45.168 67.8347 46.032C67.8347 47.184 68.1227 48.336 68.6988 49.488C68.6988 49.488 68.9868 49.488 68.9868 49.776C68.9868 50.064 69.2748 50.352 69.5628 50.64C69.8508 51.216 70.4268 51.792 71.0028 52.08C71.5788 52.656 72.4428 52.944 73.0188 53.232H73.8828C74.1708 53.232 74.7468 52.944 75.0348 52.944C75.6108 52.656 76.1868 52.368 76.4748 51.792C77.0508 51.504 77.3388 50.928 77.9148 50.64C78.3948 50.352 78.2508 49.632 78.7788 49.2C78.4908 48.912 78.7788 48.912 79.0668 48.624C79.0668 48.336 79.0668 48.048 79.3548 48.048C79.6428 48.048 79.6428 47.76 79.6428 47.472C79.9308 47.184 79.9308 46.896 79.9308 46.608C79.9308 46.32 79.9308 46.032 80.2188 45.744C80.5068 45.744 80.5068 45.168 80.7948 44.88C81.0828 44.016 81.0828 43.152 81.3708 42.288L81.4668 41.904C82.4268 41.664 83.2908 40.752 83.4348 40.608C83.5788 40.512 84.4428 39.36 84.5868 38.496C84.6348 38.208 84.0588 37.584 83.6268 38.112C83.5788 38.208 83.3388 38.88 82.7148 39.552C82.4748 39.744 82.0428 40.32 81.7068 40.416L81.9468 37.008C81.6588 36.144 81.4188 34.416 80.8428 33.84C80.2668 32.976 79.6428 32.496 78.7788 32.208C78.2028 31.92 78.3468 31.68 77.7708 31.392C77.4828 31.392 77.1948 31.392 77.1948 31.68H76.3308C76.3308 31.968 76.0428 31.968 75.8028 32.208ZM77.3388 39.12C77.2428 39.648 77.1948 40.176 77.1468 40.608C75.1788 39.456 75.4188 34.8 76.9548 33.936C77.0508 34.176 77.1948 34.272 77.1948 34.272C77.7708 36 77.3388 37.392 77.3388 39.12ZM82.8636 40.56C83.1516 40.56 83.0556 40.512 83.4396 40.464C83.7276 40.368 83.9676 40.032 84.1116 39.696C84.8316 38.64 84.5916 38.736 85.5036 37.008C85.6476 37.392 85.8396 38.88 85.8396 39.168C85.8396 40.032 86.1276 40.896 86.1276 42.048C86.4156 43.2 86.7036 44.352 87.5676 45.504C88.1436 46.656 88.7196 47.52 89.8716 48.096H90.1596C91.8876 48.096 93.7116 44.64 94.2876 42.912C95.1516 41.472 97.7916 34.752 97.7916 34.464C97.3116 32.736 96.5436 33.936 95.7276 35.616C95.4396 36.768 93.2316 41.328 92.6556 42.48C91.6956 44.592 91.8396 43.968 91.2636 43.68C90.9756 43.392 90.9756 43.104 90.6876 42.528C90.3996 40.8 89.8236 39.456 89.5356 37.728C89.5356 36.864 89.7276 35.232 89.4396 34.368C89.4396 32.928 89.2476 32.256 89.8236 31.104C90.3996 29.664 90.7356 28.8 91.3116 27.36C92.1756 25.632 92.7516 23.904 93.6156 21.888C94.1916 21.024 94.4796 20.16 94.7676 19.008C95.0556 18.144 94.8636 19.2 95.1516 18.048C95.1516 17.76 95.4396 17.472 95.4396 17.184C95.1516 16.896 95.6796 16.464 95.6796 16.176C95.9676 15.888 95.9676 14.448 95.9676 14.16C96.2556 13.872 96.2556 13.296 96.2556 13.008C96.5436 12.432 96.2556 11.856 96.2556 10.992C96.2556 10.704 95.9676 10.704 95.6796 10.416C94.5276 10.128 93.3756 9.84 91.9356 10.704C91.6476 10.992 91.3596 10.992 91.0716 11.28C90.4956 11.28 90.2076 11.28 90.2076 11.568C89.6316 12.144 88.1436 14.688 88.1436 14.976C87.2796 16.416 87.6636 16.608 87.0876 18.048C86.5116 19.776 86.7036 19.872 86.4156 21.6C86.1276 23.328 85.8396 25.056 85.8396 26.784C85.8396 28.512 85.5516 30.576 85.5516 32.304C85.5516 33.168 85.2636 33.744 84.9756 34.608C84.1116 36.624 83.9676 37.248 83.1036 38.976C82.6716 39.648 82.8636 39.984 82.8636 40.56ZM90.1596 23.904C90.1596 23.328 90.4476 23.04 90.4476 22.464C91.0236 20.736 91.1196 20.64 91.4076 18.912C91.6956 16.896 92.7996 14.448 93.6636 13.008C93.6636 13.008 93.6636 13.008 93.6636 12.72C93.9516 12.72 93.9516 12.432 94.2396 12.432C94.5276 12.432 94.8156 13.008 94.8156 13.296C94.5276 13.872 94.2876 15.168 93.9996 15.744C93.4236 17.76 93.3276 17.568 92.4636 19.296C91.8876 20.736 91.3116 21.888 90.7356 23.328C90.4476 23.616 90.4476 23.904 90.1596 24.192C90.1596 23.904 90.1596 23.904 90.1596 23.904ZM101.356 42.048C101.644 42.336 102.028 43.104 102.316 43.104C103.468 43.68 104.044 45.12 105.196 45.984C105.484 46.272 105.772 46.272 106.06 46.56C106.636 46.848 106.54 46.896 106.828 47.184C107.98 48.048 108.892 47.424 109.756 48C113.308 48 116.812 40.32 117.34 39.168C118.252 37.248 117.484 36.816 116.908 37.584C115.468 40.896 112.78 44.16 111.484 44.16C110.38 44.16 109.276 43.68 108.268 43.104C107.116 42.48 106.012 41.616 104.908 40.8C106.348 40.464 108.844 39.12 111.292 35.856C111.868 35.088 113.836 32.16 113.836 30.24C113.836 29.664 113.644 27.264 113.356 26.688C113.068 26.112 112.108 24.288 111.244 24C110.668 23.712 110.38 24.288 109.804 24.576C108.94 24.576 107.164 25.2 105.82 26.256C104.956 26.88 103.228 28.416 102.22 29.616L102.316 29.184C102.508 28.848 102.844 28.368 102.892 28.176C105.34 24.864 107.02 22.704 108.028 20.784C108.604 19.632 109.42 18.24 109.9 17.136C110.476 15.792 110.236 13.68 109.852 12.24C109.468 10.752 108.124 9.312 106.444 9.312C104.38 10.08 100.828 11.664 99.868 13.632C98.716 15.648 99.1 14.832 98.236 17.424C97.372 19.44 97.324 22.992 97.324 24.576C97.036 26.592 97.516 30.24 97.516 32.256C97.516 32.784 94.684 39.168 94.204 39.84C93.964 40.176 93.964 40.896 94.588 40.896C95.548 40.848 96.796 37.536 97.612 36.096V36.48C97.324 38.784 97.996 41.184 97.708 43.488V44.352C97.708 44.928 98.188 49.248 98.476 49.824C98.764 49.824 99.052 50.112 99.052 50.4C99.628 50.4 99.436 51.168 100.54 51.168C101.116 51.072 102.22 51.504 102.22 50.208C101.932 48.768 101.356 43.776 101.356 42.048ZM106.588 11.472C107.884 14.256 106.636 18.24 103.468 23.712C102.364 25.296 101.356 27.072 101.212 27.264C101.548 25.008 101.548 21.552 102.556 18.288C102.892 17.136 103.228 15.216 103.804 14.352C104.092 13.488 105.244 12.912 105.532 12.048C105.82 11.76 106.012 11.76 106.588 11.472ZM101.644 38.688C101.644 37.728 101.692 34.176 101.692 32.736C102.028 33.408 103.18 33.408 103.468 33.12C103.468 32.832 103.756 32.256 103.756 32.256C104.332 31.68 104.14 30.672 104.428 30.384C105.004 29.52 106.06 28.032 106.924 27.456C107.5 26.88 107.836 27.072 108.412 26.784C108.988 26.208 109.132 26.688 109.708 26.4C109.996 26.688 109.708 28.512 109.612 28.704L109.228 30.048C108.364 31.488 107.452 34.848 106.012 36C105.148 36.576 104.86 37.44 103.708 38.016C103.42 38.304 103.132 38.592 102.844 38.304C102.556 38.304 101.932 38.4 101.644 38.688ZM115.864 40.56C116.152 40.56 116.056 40.512 116.44 40.464C116.728 40.368 116.968 40.032 117.112 39.696C117.832 38.64 117.592 38.736 118.504 37.008C118.648 37.392 118.84 38.88 118.84 39.168C118.84 40.032 119.128 40.896 119.128 42.048C119.416 43.2 119.704 44.352 120.568 45.504C121.144 46.656 121.72 47.52 122.872 48.096H123.16C124.888 48.096 126.712 44.64 127.288 42.912C128.152 41.472 130.792 34.752 130.792 34.464C130.312 32.736 129.544 33.936 128.728 35.616C128.44 36.768 126.232 41.328 125.656 42.48C124.696 44.592 124.84 43.968 124.264 43.68C123.976 43.392 123.976 43.104 123.688 42.528C123.4 40.8 122.824 39.456 122.536 37.728C122.536 36.864 122.728 35.232 122.44 34.368C122.44 32.928 122.248 32.256 122.824 31.104C123.4 29.664 123.736 28.8 124.312 27.36C125.176 25.632 125.752 23.904 126.616 21.888C127.192 21.024 127.48 20.16 127.768 19.008C128.056 18.144 127.864 19.2 128.152 18.048C128.152 17.76 128.44 17.472 128.44 17.184C128.152 16.896 128.68 16.464 128.68 16.176C128.968 15.888 128.968 14.448 128.968 14.16C129.256 13.872 129.256 13.296 129.256 13.008C129.544 12.432 129.256 11.856 129.256 10.992C129.256 10.704 128.968 10.704 128.68 10.416C127.528 10.128 126.376 9.84 124.936 10.704C124.648 10.992 124.36 10.992 124.072 11.28C123.496 11.28 123.208 11.28 123.208 11.568C122.632 12.144 121.144 14.688 121.144 14.976C120.28 16.416 120.664 16.608 120.088 18.048C119.512 19.776 119.704 19.872 119.416 21.6C119.128 23.328 118.84 25.056 118.84 26.784C118.84 28.512 118.552 30.576 118.552 32.304C118.552 33.168 118.264 33.744 117.976 34.608C117.112 36.624 116.968 37.248 116.104 38.976C115.672 39.648 115.864 39.984 115.864 40.56ZM123.16 23.904C123.16 23.328 123.448 23.04 123.448 22.464C124.024 20.736 124.12 20.64 124.408 18.912C124.696 16.896 125.8 14.448 126.664 13.008C126.664 13.008 126.664 13.008 126.664 12.72C126.952 12.72 126.952 12.432 127.24 12.432C127.528 12.432 127.816 13.008 127.816 13.296C127.528 13.872 127.288 15.168 127 15.744C126.424 17.76 126.328 17.568 125.464 19.296C124.888 20.736 124.312 21.888 123.736 23.328C123.448 23.616 123.448 23.904 123.16 24.192C123.16 23.904 123.16 23.904 123.16 23.904ZM135.615 32.208C135.327 32.496 135.231 32.64 135.183 32.832C133.263 36.384 134.031 41.328 136.863 42C136.623 43.392 136.335 44.544 135.807 45.936C135.231 47.088 135.135 48.336 134.271 49.2C133.695 49.776 132.831 50.352 131.967 49.776C131.679 48.912 131.391 47.76 131.391 46.896C131.391 46.032 131.391 45.456 131.679 44.592V43.152C131.967 42.288 132.543 38.832 132.831 37.968C132.831 37.392 133.119 36.816 133.119 36.24C133.119 35.376 133.407 34.8 133.695 33.936C133.695 33.648 134.319 33.216 134.319 32.64C134.319 32.352 134.703 31.68 134.991 31.392V31.104C134.991 30.528 134.607 30.816 134.031 30.528C133.455 30.528 132.399 31.104 132.111 31.392C131.535 31.968 130.287 33.12 129.999 33.984C128.847 36 128.319 37.008 128.031 39.312C127.743 39.888 127.455 42.24 127.455 43.2C127.167 44.064 127.647 45.168 127.647 46.032C127.647 47.184 127.935 48.336 128.511 49.488C128.511 49.488 128.799 49.488 128.799 49.776C128.799 50.064 129.087 50.352 129.375 50.64C129.663 51.216 130.239 51.792 130.815 52.08C131.391 52.656 132.255 52.944 132.831 53.232H133.695C133.983 53.232 134.559 52.944 134.847 52.944C135.423 52.656 135.999 52.368 136.287 51.792C136.863 51.504 137.151 50.928 137.727 50.64C138.207 50.352 138.063 49.632 138.591 49.2C138.303 48.912 138.591 48.912 138.879 48.624C138.879 48.336 138.879 48.048 139.167 48.048C139.455 48.048 139.455 47.76 139.455 47.472C139.743 47.184 139.743 46.896 139.743 46.608C139.743 46.32 139.743 46.032 140.031 45.744C140.319 45.744 140.319 45.168 140.607 44.88C140.895 44.016 140.895 43.152 141.183 42.288L141.279 41.904C142.239 41.664 143.103 40.752 143.247 40.608C143.391 40.512 144.255 39.36 144.399 38.496C144.447 38.208 143.871 37.584 143.439 38.112C143.391 38.208 143.151 38.88 142.527 39.552C142.287 39.744 141.855 40.32 141.519 40.416L141.759 37.008C141.471 36.144 141.231 34.416 140.655 33.84C140.079 32.976 139.455 32.496 138.591 32.208C138.015 31.92 138.159 31.68 137.583 31.392C137.295 31.392 137.007 31.392 137.007 31.68H136.143C136.143 31.968 135.855 31.968 135.615 32.208ZM137.151 39.12C137.055 39.648 137.007 40.176 136.959 40.608C134.991 39.456 135.231 34.8 136.767 33.936C136.863 34.176 137.007 34.272 137.007 34.272C137.583 36 137.151 37.392 137.151 39.12ZM158.516 38.4C158.516 38.112 158.804 38.4 158.516 38.112C158.516 37.824 157.988 37.248 157.556 37.968C157.316 38.112 156.98 39.168 156.404 40.272C155.636 41.616 154.772 43.44 154.244 44.208C153.188 45.696 152.324 46.224 151.652 45.6L151.508 45.168C151.796 43.728 151.796 42.576 152.084 41.424C152.66 39.696 153.236 38.256 153.812 36.528C153.812 35.952 154.1 35.376 154.1 34.8C154.1 34.224 154.1 33.648 154.388 33.072C154.388 32.496 154.388 31.92 154.1 31.344C153.812 31.056 153.812 31.056 153.524 30.768C152.372 30.192 151.22 29.616 150.068 29.04C149.78 29.04 149.492 29.04 149.204 28.752C149.492 28.752 149.492 28.464 149.492 28.464C149.78 27.6 150.068 27.024 150.356 26.448C150.644 25.872 150.644 25.296 150.644 24.72C150.644 24.432 150.932 24.144 150.644 23.856C150.068 23.568 150.068 22.992 149.492 22.992H149.204C148.628 22.992 148.34 22.992 148.052 22.992C147.188 23.28 146.9 23.568 146.612 24.144C146.324 25.296 145.748 26.208 146.036 27.36C146.324 27.648 146.372 28.896 146.9 29.568C146.324 31.008 145.124 34.512 143.396 38.304C143.06 38.88 142.868 39.408 143.444 39.984C144.308 39.696 144.836 38.304 145.124 37.728C145.412 37.152 147.764 31.056 148.052 30.48C148.628 30.768 149.204 31.056 149.78 31.344C149.78 31.632 149.78 31.92 149.78 31.92C149.204 33.936 148.628 35.664 148.052 37.392C147.476 39.12 146.9 40.56 146.612 42C146.324 42.864 146.324 44.016 146.324 44.88C146.036 45.456 146.324 45.744 146.324 46.032C146.612 46.32 146.9 46.608 147.188 46.896C147.188 47.184 147.476 47.472 147.764 47.76C147.764 48.048 147.764 48.048 148.052 48.048C148.628 48.336 149.204 48.624 149.78 48.624C150.068 48.624 150.356 48.624 150.644 48.624C151.22 48.624 151.508 48.624 152.084 48.336C152.948 48.048 154.436 46.464 154.964 45.504C155.06 45.312 156.26 43.056 156.548 42.768C156.836 42.48 158.132 39.408 158.42 38.832C158.42 38.544 158.516 38.4 158.516 38.4ZM148.052 26.304C147.764 25.44 147.764 24.72 148.34 24.432C148.58 24.864 148.676 25.296 148.052 26.304ZM157.606 40.944C157.654 41.232 157.846 42.336 157.846 42.624C158.854 45.12 159.91 46.848 162.838 47.28C162.838 47.568 164.614 47.52 164.902 47.424C165.478 47.424 166.582 46.56 167.158 46.512C167.974 46.176 168.838 45.84 169.654 45.216C171.43 43.2 174.166 38.88 174.166 37.248C174.166 37.056 174.118 36.864 174.022 36.768C173.734 36.432 173.542 36.672 173.302 36.864C172.966 37.344 172.774 38.112 172.342 38.88C171.67 40.176 170.902 41.616 170.566 41.952C170.278 42.336 169.798 42.816 169.222 43.152C168.214 43.68 167.974 44.352 166.726 44.64C165.862 44.832 165.622 44.928 165.046 44.928C163.894 44.736 163.174 44.208 162.838 43.056C162.214 42.48 162.502 41.904 162.454 41.616C162.118 40.8 162.262 39.888 162.31 39.264C164.182 38.928 165.718 37.632 167.11 36.432C168.502 35.184 169.51 33.696 170.278 32.16C170.806 31.296 170.806 30.432 170.758 29.856C170.758 29.568 170.662 29.28 170.662 28.992C170.95 28.656 170.614 28.416 170.614 28.128C170.326 27.84 170.038 27.552 169.702 27.36C168.214 26.544 167.062 26.064 165.334 26.112C164.758 25.92 163.606 26.256 163.03 26.544C162.502 26.88 162.214 27.168 161.638 27.792C160.822 28.416 160.582 28.992 160.102 29.952C158.758 32.304 157.51 34.656 157.606 37.248C157.366 37.536 157.222 38.88 157.606 40.944ZM162.31 37.008C162.31 37.008 162.31 37.008 162.31 36.72C162.55 36.144 162.406 35.28 162.982 34.368C163.414 33.216 163.942 31.728 164.758 30.816C165.286 30.24 165.574 29.856 165.766 29.568C166.054 29.28 166.63 28.944 166.918 28.944C167.206 28.896 167.206 28.896 167.494 28.896C167.782 29.184 167.206 29.712 167.302 30.576C167.302 30.864 167.35 31.44 167.062 31.728C166.534 32.352 166.63 33.264 166.15 33.888C165.286 34.56 165.286 35.136 164.182 35.76C163.654 36.384 163.174 36.672 162.31 37.008Z" fill="white"/>
</svg>
