<svg width="121" height="90" fill="none" xmlns="http://www.w3.org/2000/svg"><path d="M11.766.413C6.833 1.289.026 6.293.026 15.473c0 14.235 11.406 18.36 18.47 19.057 10.456 1.006 17.136-6.318 17.136-14.75C35.606-.775 16.698-.439 11.766.412Zm5.857 26.458c-5.909-.412-9.248-2.862-9.248-10.547 0-3.92 1.361-6.473 6.268-7.66 4.907-1.185 12.896.594 12.896 9.723-.025 3.842-2.903 8.974-9.916 8.484Z" fill="#FFCC2D"/><path d="m48.889 85.46 4.906-19.52 1.799.128s3.237 19.393 3.211 19.393h-1.927s-2.62-15.885-2.62-15.86h-.129s-2.157 11.27-3.725 15.86H48.89Z" fill="#fff"/><path d="m58.06 83.578-.23 1.883h-8.222v-1.883h8.452Zm22.273-59.956.54-12.404H78.92l-.822 20.037 3.005-.026s4.06-.36 4.06-3.92c-.026-2.578-3.058-3.584-4.83-3.687Zm-.257 6.137.231-4.642c1.002-.051 2.877-.025 2.877 2.399 0 1.728-2.183 2.295-3.108 2.243ZM74.27 16.427l1.875-.232s.72-5.261-2.98-5.132c-3.7.129-4.855 5.132-4.83 10.34.026 5.21.489 10.213 4.368 10.11 3.879-.103 3.057-5.21 3.057-5.21l-1.953.207s.797 3.017-.976 3.017c-2.106 0-2.749-2.656-2.569-7.994.18-5.416.411-8.562 2.903-8.562 1.387 0 1.105 3.456 1.105 3.456ZM32.01 26.2c-.925-2.63-3.391-2.656-4.83-2.295l.154-4.126c5.344-.593 5.678-8.097 5.678-8.097h-1.953c0 5.673-2.774 6.55-3.648 6.55l.18-6.55h-2.004l-.54 19.573h2.03l.129-5.906c4.213-1.392 3.75 5.854 3.75 5.854h1.902c0 .052.308-1.728-.848-5.003Zm-9.916 27.284c-.925-2.63-3.391-2.656-4.83-2.295l.154-4.126c5.703-.645 5.909-8.381 5.909-8.381h-1.953c0 5.673-3.005 6.834-3.879 6.834l.18-6.809h-2.004l-.54 19.857h2.03l.129-5.905c4.213-1.393 3.75 5.854 3.75 5.854h1.902c-.026.025.282-1.754-.848-5.03ZM93.383 26.2c-.925-2.63-3.391-2.656-4.83-2.295l.154-4.126c5.344-.593 5.678-8.097 5.678-8.097h-1.953c0 5.673-2.774 6.55-3.648 6.55l.18-6.55H86.96l-.54 19.573h2.03l.129-5.906c4.213-1.392 3.75 5.854 3.75 5.854h1.902c0 .052.308-1.728-.848-5.003Zm-57.211 5.158h-1.824l.565-19.367h1.927l-.668 19.367Z" fill="#fff"/><path d="M36.197 19.908s6.037.103 6.037-4.384c0-2.733-3.288-3.455-5.446-3.662-1.08-.077-1.876-.051-1.876-.051l-.025 1.521 1.824-.051s3.622-.516 3.622 2.295c0 1.676-1.721 2.785-4.059 2.785l-.077 1.547Zm38.227 38.554H72.6l.565-19.367 1.9-.026-.641 19.393Z" fill="#fff"/><path d="M74.449 47.012s6.037.103 6.037-4.384c0-2.734-3.288-3.456-5.446-3.662-1.08-.078-1.876-.052-1.876-.052l-.025 1.522 1.824-.052s3.622-.516 3.622 2.295c0 1.676-1.721 2.785-4.06 2.785l-.076 1.548ZM53.718 31.229h-1.952l.77-19.547 1.978.025-.796 19.522Zm1.824-24.885c-.77.206-1.439.722-1.439 1.856 0 1.754 1.413 2.218 2.261 2.347.309.052.386.026.386.026.154-.026.282-.026.436-.078.694-.232 1.26-.722 1.26-1.753.025-2.553-2.904-2.398-2.904-2.398Zm1.105 2.81c-.026 0-.052.026-.077.026-.077.026-.154.026-.231.026-.514-.026-.874-.18-.874-.877 0-.335.206-.593.488-.644.694 0 1.182.077 1.182.876-.026.336-.257.516-.488.593Zm-6.68-2.81c-.77.206-1.439.722-1.439 1.856 0 1.754 1.413 2.218 2.261 2.347.308.052.385.026.385.026.154-.026.283-.026.437-.078.694-.232 1.259-.722 1.259-1.753.026-2.553-2.903-2.398-2.903-2.398Zm1.105 2.81c-.026 0-.052.026-.077.026-.078.026-.155.026-.232.026-.513-.026-.873-.18-.873-.877 0-.335.205-.593.488-.644.694 0 1.182.077 1.182.876 0 .336-.232.516-.488.593ZM18.137 26.33c-1.105.283-2.081 1.03-2.081 2.655 0 2.502 2.03 3.172 3.262 3.353.437.051.54.051.566.051.205-.051.41-.051.616-.103.976-.335 1.824-1.057 1.824-2.527 0-3.636-4.187-3.43-4.187-3.43Zm1.644 4.229c-.052.025-.077.025-.129.051-.128.026-.282.026-.385.026-.848-.052-1.439-.31-1.439-1.444 0-.568.36-.98.797-1.058 1.13 0 1.952.13 1.952 1.445 0 .541-.385.825-.796.98Zm1.541-18.877.103 4.77c0 1.47-.026 2.45-.128 3.533-.155 1.883-.386 4.075-2.081 4.075-1.696 0-1.927-2.734-2.107-4.075-.077-.541-.18-1.34-.18-3.584 0-2.244.18-4.72.18-4.72h-1.927s-.154 3.018-.154 4.694c0 1.65.103 2.81.154 3.585.283 3.584 1.08 5.57 4.06 5.57 2.723 0 3.724-1.934 4.033-5.596.103-1.238.103-2.14.103-3.507l-.129-4.72-1.927-.025Zm7.373 41.673c-1.105.283-2.08 1.031-2.08 2.656 0 2.501 2.029 3.172 3.262 3.352.437.052.54.052.565.052.206-.052.411-.052.617-.103.976-.335 1.824-1.058 1.824-2.527.025-3.637-4.188-3.43-4.188-3.43Zm1.644 4.229c-.051.026-.077.026-.128.051-.129.026-.283.026-.385.026-.848-.051-1.44-.31-1.44-1.444 0-.567.36-.98.797-1.057 1.13 0 1.953.129 1.953 1.444 0 .541-.36.825-.797.98Zm1.542-18.877.103 4.77c0 1.47-.026 2.45-.129 3.534-.154 1.882-.385 4.074-2.08 4.074-1.696 0-1.927-2.733-2.107-4.074-.077-.542-.18-1.341-.18-3.585 0-2.218.18-4.719.18-4.719H25.74s-.154 3.017-.154 4.693c0 1.65.103 2.811.154 3.585.283 3.584 1.079 5.57 4.06 5.57 2.722 0 3.724-1.934 4.032-5.596.103-1.238.103-2.14.103-3.507l-.128-4.72-1.927-.025ZM65.305 53.51c-1.105.284-2.081 1.032-2.081 2.656 0 2.502 2.03 3.172 3.262 3.353.437.051.54.051.565.051.206-.051.412-.051.617-.103.976-.335 1.824-1.057 1.824-2.527.026-3.636-4.188-3.43-4.188-3.43Zm1.67 4.203c-.052.026-.078.026-.13.052-.127.026-.282.026-.384.026-.848-.052-1.44-.31-1.44-1.444 0-.568.36-.98.797-1.058 1.13 0 1.953.13 1.953 1.444-.026.568-.386.826-.797.98Zm1.541-18.851.102 4.771c0 1.47-.025 2.45-.128 3.533-.154 1.883-.385 4.075-2.08 4.075-1.696 0-1.928-2.734-2.107-4.075-.078-.541-.18-1.34-.18-3.584 0-2.244.18-4.72.18-4.72h-1.927s-.154 3.017-.154 4.694c0 1.65.102 2.81.154 3.584.282 3.585 1.079 5.57 4.059 5.57 2.723 0 3.725-1.934 4.033-5.596.103-1.237.103-2.14.103-3.507l-.129-4.719-1.926-.026Zm35.632-27.155-5.498 15.19.591-15.19h-1.927l-.667 19.521h1.978l5.651-16.065-.385 16.066h1.901l.283-19.522h-1.927Zm-3.623 27.258L95.027 54.13l.591-15.19h-1.9l-.695 19.548h1.979l5.677-16.066-.385 16.04 1.875.026.283-19.522h-1.927Zm-53.178-.077-1.824-.13-.796 19.367 1.9.155.72-19.392Z" fill="#fff"/><path d="M46.55 50.312s6.038.335 5.704 4.796c-.206 2.734-3.52 3.224-5.677 3.25a13.725 13.725 0 0 1-1.876-.078l.077-1.522 1.824.181s3.571.774 3.777-2.037c.128-1.676-1.542-2.914-3.854-3.069l.026-1.521Zm10.148 8.045h-1.772l.462-19.496h1.799l-.489 19.496Z" fill="#fff"/><path d="m52.023 38.862 8.195-.155v1.496l-8.22.129.025-1.47ZM36.044 75.043c0-1.29-.052-2.27-.129-3.017v-.206c0-.103-.026-.232-.026-.335-.282-3.56-1.078-5.52-4.007-5.52-2.698 0-3.7 1.91-4.008 5.545-.102 1.238-.102 2.115-.102 3.482v1.444c0 1.29.05 2.27.128 3.017v.206c0 .103.026.232.026.335.282 3.56 1.079 5.52 4.007 5.52 2.698 0 3.7-1.91 4.008-5.545.103-1.238.103-2.115.103-3.482v-1.444Zm-4.136 8.536c-1.67 0-1.927-2.218-2.081-3.559 0-.051-.129-2.243-.129-4.41 0-2.063.103-4.074.103-4.126.154-1.856.385-3.558 2.055-3.558 1.67 0 1.927 2.218 2.081 3.558 0 .052.129 2.14.129 4.23 0 2.114-.103 4.255-.103 4.306-.154 1.857-.386 3.559-2.055 3.559Zm11.739-60.035 4.24-.361.23 1.444-4.624.206.154-1.29Z" fill="#fff"/><path d="m49.941 31.358-2.594-19.625-2.004-.18-3.777 19.78h1.645l2.774-15.628.18-.026L47.86 31.28l2.08.078ZM20.886 85.564h-1.875l.257-19.573h1.952l-.334 19.573Z" fill="#fff"/><path d="M16.416 75.893c0-1.031-.462-8.51 3.7-7.22l-.026-1.47c-1.439-.335-3.623-.207-4.753 2.32-.95 2.115-.925 5.004-.925 6.396 0 1.393.026 3.894.925 5.906 1.13 2.527 3.314 2.656 4.753 2.32l.025-1.47c-3.982 1.213-3.699-5.75-3.699-6.782Z" fill="#fff"/><path d="M23.815 75.893c0-1.031.462-8.51-3.7-7.22l.026-1.47c1.439-.335 3.622-.207 4.753 2.32.95 2.115.924 5.004.924 6.396 0 1.393-.025 3.894-.924 5.906-1.13 2.527-3.314 2.656-4.753 2.32l-.026-1.47c3.982 1.213 3.7-5.75 3.7-6.782Zm19.011-17.381-2.57-19.882-2.003-.18-3.776 20.062h1.644l2.697-16.091.18-.026 1.773 16.117h2.055Zm21.811-46.83-.411 11.501-4.753-3.404.206-8.123H57.7l-.514 19.702h1.953l.257-9.387 4.675 3.456-.23 5.931h1.977l.745-19.65-1.926-.026ZM45.42 65.553l-.411 11.502-4.727-3.404.18-8.124h-1.979L37.97 85.23h1.952l.257-9.386 4.676 3.455-.232 5.931h1.979l.745-19.65-1.927-.026ZM88.965 38.94l-.411 11.527-4.727-3.404.18-8.123h-1.953l-.54 19.676h1.953l.257-9.361 4.701 3.43-.23 5.93h1.952l.77-19.624-1.952-.051Zm26.769-27.232-5.498 15.19.591-15.19h-1.901l-.694 19.522h1.979l5.677-16.066-.385 16.066h1.875l.283-19.522h-1.927Zm-1.156-3.817c-.052.877-.206 1.728-1.182 1.728-1.156 0-1.336-.825-1.361-1.754l-1.285.155c.128 1.78.848 2.991 2.646 2.991 2.055 0 2.466-1.573 2.543-2.965l-1.361-.155Zm-2.543 31.075-5.498 15.189.617-15.19h-1.927l-.694 19.522h2.004l5.652-16.066-.386 16.04 1.876.026.282-19.521h-1.926Zm-1.131-3.843c-.051.877-.206 1.728-1.182 1.728-1.156 0-1.336-.825-1.361-1.753l-1.285.154c.129 1.78.848 2.992 2.646 2.992 2.055 0 2.466-1.573 2.544-2.966l-1.362-.155Z" fill="#fff"/><path d="m94.693 72.877-22.427-.438-.54-6.602 24.38 1.315-1.413 5.725ZM89.71 83.63l-22.402-.438-.54-6.576 24.355 1.29-1.413 5.724Z" fill="#A3D2D9"/></svg>