<svg width="650" height="650" fill="none" xmlns="http://www.w3.org/2000/svg"><g clip-path="url(#a)"><rect width="650" height="650" rx="325" fill="#fff"/><path d="M-174 0h1235v650H-174" fill="#B31942"/><path d="M-174 75h1235Zm1235 100H-174ZM-174 275h1235Zm1235 100H-174ZM-174 475h1235Zm1235 100H-174Z" fill="#000"/><path d="M-174 75h1235m0 100H-174m0 100h1235m0 100H-174m0 100h1235m0 100H-174" stroke="#fff" stroke-width="50"/><path d="M-174 0h494v350h-494" fill="#0A3161"/><path d="M-9.333 50 2.422 86.18l-30.777-22.36H9.688L-21.09 86.18-9.333 50Zm0 70 11.755 36.18-30.777-22.36H9.688l-30.777 22.36L-9.333 120Zm0 70 11.755 36.18-30.777-22.36H9.688l-30.777 22.36L-9.333 190Zm0 70 11.755 36.18-30.777-22.36H9.688l-30.777 22.36L-9.333 260ZM31.833 15 43.59 51.18 12.812 28.82h38.042L20.077 51.18 31.833 15Zm0 70 11.756 36.18-30.777-22.36h38.042l-30.777 22.36L31.833 85Zm0 70 11.756 36.18-30.777-22.36h38.042l-30.777 22.36L31.833 155Zm0 70 11.756 36.18-30.777-22.36h38.042l-30.777 22.36L31.833 225Zm0 70 11.756 36.18-30.777-22.36h38.042l-30.777 22.36L31.833 295ZM73 50l11.755 36.18L53.98 63.82h38.04L61.244 86.18 73 50Zm0 70 11.755 36.18-30.776-22.36H92.02l-30.777 22.36L73 120Zm0 70 11.755 36.18-30.776-22.36H92.02l-30.777 22.36L73 190Zm0 70 11.755 36.18-30.776-22.36H92.02l-30.777 22.36L73 260Zm41.167-245 11.755 36.18-30.776-22.36h38.042l-30.777 22.36L114.167 15Zm0 70 11.755 36.18-30.776-22.36h38.042l-30.777 22.36L114.167 85Zm0 70 11.755 36.18-30.776-22.36h38.042l-30.777 22.36L114.167 155Zm0 70 11.755 36.18-30.776-22.36h38.042l-30.777 22.36L114.167 225Zm0 70 11.755 36.18-30.776-22.36h38.042l-30.777 22.36L114.167 295Zm41.166-245 11.756 36.18-30.777-22.36h38.042l-30.777 22.36L155.333 50Zm0 70 11.756 36.18-30.777-22.36h38.042l-30.777 22.36L155.333 120Zm0 70 11.756 36.18-30.777-22.36h38.042l-30.777 22.36L155.333 190Zm0 70 11.756 36.18-30.777-22.36h38.042l-30.777 22.36L155.333 260ZM196.5 15l11.756 36.18-30.777-22.36h38.042l-30.777 22.36L196.5 15Zm0 70 11.756 36.18-30.777-22.36h38.042l-30.777 22.36L196.5 85Zm0 70 11.756 36.18-30.777-22.36h38.042l-30.777 22.36L196.5 155Zm0 70 11.756 36.18-30.777-22.36h38.042l-30.777 22.36L196.5 225Zm0 70 11.756 36.18-30.777-22.36h38.042l-30.777 22.36L196.5 295Zm41.167-245 11.755 36.18-30.776-22.36h38.042l-30.777 22.36L237.667 50Zm0 70 11.755 36.18-30.776-22.36h38.042l-30.777 22.36L237.667 120Zm0 70 11.755 36.18-30.776-22.36h38.042l-30.777 22.36L237.667 190Zm0 70 11.755 36.18-30.776-22.36h38.042l-30.777 22.36L237.667 260Zm41.166-245 11.756 36.18-30.777-22.36h38.042l-30.777 22.36L278.833 15Zm0 70 11.756 36.18-30.777-22.36h38.042l-30.777 22.36L278.833 85Zm0 70 11.756 36.18-30.777-22.36h38.042l-30.777 22.36L278.833 155Zm0 70 11.756 36.18-30.777-22.36h38.042l-30.777 22.36L278.833 225Zm0 70 11.756 36.18-30.777-22.36h38.042l-30.777 22.36L278.833 295Z" fill="#fff"/></g><defs><clipPath id="a"><rect width="650" height="650" rx="325" fill="#fff"/></clipPath></defs></svg>