<svg width="60" height="58" fill="none" xmlns="http://www.w3.org/2000/svg"><path d="M46.254 56.316a5.531 5.531 0 1 0 0-11.062 5.531 5.531 0 0 0 0 11.062Zm11.508 1.289a2.238 2.238 0 1 0 0-4.476 2.238 2.238 0 0 0 0 4.477ZM23.145 25.788a5.923 5.923 0 0 0-.2-.785 2.88 2.88 0 0 0-.293-.644 1.536 1.536 0 0 0-.351-.422.539.539 0 0 0-.422-.106.585.585 0 0 0-.375.27 1.46 1.46 0 0 0-.2.574 2.794 2.794 0 0 0-.034.762 6.25 6.25 0 0 0 .328 1.676c.082.246.187.48.304.703.094.176.223.34.375.469a.51.51 0 0 0 .422.128.512.512 0 0 0 .363-.293c.094-.199.153-.398.188-.62.035-.27.047-.551.023-.82a8.578 8.578 0 0 0-.128-.892Zm7.347-3.843c-.129-.2-.27-.293-.433-.258a.51.51 0 0 0-.293.152.638.638 0 0 0-.141.282 1.262 1.262 0 0 0-.012.363 5.048 5.048 0 0 0 .176.902c.047.152.07.305.094.422.035.094.07.176.129.258a.553.553 0 0 0 .175.152c.07.047.153.059.235.035a.336.336 0 0 0 .246-.187c.07-.117.105-.246.129-.375.023-.164.035-.34.023-.504a2.69 2.69 0 0 0-.058-.527 1.909 1.909 0 0 0-.27-.715Zm-15.703 5.46a5.92 5.92 0 0 0-.2-.785 2.662 2.662 0 0 0-.292-.644 1.536 1.536 0 0 0-.352-.422.497.497 0 0 0-.422-.105.585.585 0 0 0-.375.27 1.464 1.464 0 0 0-.199.573 4.145 4.145 0 0 0-.035.762c.035.574.14 1.137.328 1.676.082.246.188.48.305.703.094.176.223.34.375.469a.51.51 0 0 0 .422.129.512.512 0 0 0 .363-.293c.094-.2.152-.399.188-.621.035-.27.046-.551.023-.82a8.169 8.169 0 0 0-.129-.891Z" fill="#BC4CC6"/><path d="M56.285 19.285c-.726-3.773-4.64-6.246-8.976-5.835 2.109-3.399 1.066-7.57-2.555-9.633-3.621-2.063-8.555-1.313-11.473 1.629-1.195-3.563-5.367-5.707-9.75-4.852-4.383.856-7.464 4.383-7.242 8.133-3.797-1.64-8.66-.504-11.25 2.765-2.59 3.27-1.992 7.524 1.23 9.891-4.17 1.242-6.877 4.992-6.151 8.767.727 3.773 4.64 6.246 8.977 5.836-2.11 3.398-1.067 7.57 2.555 9.633 3.62 2.062 8.554 1.312 11.472-1.63 1.196 3.563 5.367 5.708 9.75 4.852 4.383-.855 7.453-4.394 7.242-8.144 3.797 1.64 8.66.504 11.25-2.766s1.992-7.523-1.23-9.89c4.172-1.243 6.879-4.993 6.152-8.755Zm-38.332 9.118c-.047.656-.21 1.3-.468 1.898a4.433 4.433 0 0 1-1.067 1.512 3.267 3.267 0 0 1-1.688.82 3.29 3.29 0 0 1-1.78-.117 3.951 3.951 0 0 1-1.454-.926 5.538 5.538 0 0 1-1.055-1.488 7.137 7.137 0 0 1-.609-1.828 6.45 6.45 0 0 1-.105-1.899c.047-.61.21-1.207.468-1.77a4.064 4.064 0 0 1 1.079-1.394 3.845 3.845 0 0 1 1.78-.797 3.507 3.507 0 0 1 3.223.88c.41.386.75.855 1.008 1.37.27.54.457 1.114.575 1.711.117.668.152 1.348.093 2.028Zm8.356-1.617a5.866 5.866 0 0 1-.47 1.898 4.433 4.433 0 0 1-1.066 1.512 3.268 3.268 0 0 1-1.687.82 3.29 3.29 0 0 1-1.781-.117 3.954 3.954 0 0 1-1.453-.926 5.581 5.581 0 0 1-1.067-1.488 7.137 7.137 0 0 1-.61-1.828 7.447 7.447 0 0 1-.105-1.91c.047-.61.2-1.208.457-1.77.258-.54.621-1.02 1.078-1.395a3.845 3.845 0 0 1 1.782-.797 3.507 3.507 0 0 1 3.223.88 4.47 4.47 0 0 1 1.007 1.37 6.69 6.69 0 0 1 .575 1.711c.14.668.175 1.36.117 2.04Zm7.933-3.399a4.611 4.611 0 0 1-.351 1.477 3.269 3.269 0 0 1-.82 1.171 2.61 2.61 0 0 1-1.301.633 2.898 2.898 0 0 1-.715.047 2.7 2.7 0 0 1-.598-.117c.094.387.176.738.235 1.055.058.316.128.586.175.808.059.27.117.504.164.715l-3.117.844a12.916 12.916 0 0 0-.176-.973c-.058-.328-.128-.644-.187-.973a108.554 108.554 0 0 0-1.219-5.484 77.542 77.542 0 0 0-.633-2.414l3.422-.855c0 .082.012.152.024.234l.023.14c.012.083.024.153.035.235.152-.246.34-.457.551-.645.27-.222.598-.375.95-.433.421-.094.855-.07 1.265.058.375.13.726.34 1.008.622.304.293.55.644.726 1.03.2.411.34.845.422 1.29.117.492.152 1.02.117 1.535Zm8.367 1.664a3.318 3.318 0 0 1-.375 1.102 3.276 3.276 0 0 1-.914 1.008 3.835 3.835 0 0 1-1.582.644 7.465 7.465 0 0 1-1.699.164 6.526 6.526 0 0 1-1.172-.14 2.865 2.865 0 0 1-.902-.364l.094-2.484c.433.035.855.035 1.289.023.316-.012.633-.047.949-.105a3.18 3.18 0 0 0 .656-.176c.14-.047.27-.117.399-.2a1.56 1.56 0 0 0 .27-.21c-1.009.199-1.817.246-2.438.164-.621-.082-1.125-.246-1.489-.504a2.245 2.245 0 0 1-.797-.89 4.531 4.531 0 0 1-.34-1.044 4.033 4.033 0 0 1 0-1.5c.094-.48.282-.949.551-1.359.258-.41.598-.773.996-1.055a3.819 3.819 0 0 1 2.977-.574c.41.106.809.27 1.184.48.363.247.68.54.96.868l-1.757 2.718a4.726 4.726 0 0 0-.656-.41c-.2-.093-.41-.175-.633-.234a1.534 1.534 0 0 0-.692-.023.64.64 0 0 0-.41.234.475.475 0 0 0-.082.375c.047.234.2.363.457.422.317.047.645.07.961.047.375-.024.785-.035 1.219-.047a4.61 4.61 0 0 1 1.265.14c.399.106.774.317 1.067.61.316.293.527.75.644 1.36.047.316.047.644 0 .96Zm.457-1.851c-.035-.211-.082-.422-.128-.633a46.826 46.826 0 0 0-.434-2.016 55.302 55.302 0 0 0-.445-1.77c-.164-.609-.34-1.195-.504-1.745l3.433-.797c.047.48.106.972.188 1.5.082.515.176 1.043.27 1.558.093.516.199.985.304 1.442.105.457.2.855.281 1.207.094.41.176.785.282 1.136l-3.141.75a36.58 36.58 0 0 0-.105-.633Zm3.762 2.32a1.216 1.216 0 0 1-.293.504 1.77 1.77 0 0 1-.492.398c-.2.117-.422.188-.656.235a2.028 2.028 0 0 1-.703.023 1.84 1.84 0 0 1-.61-.188 1.526 1.526 0 0 1-.457-.363 1.122 1.122 0 0 1-.234-.492 1.15 1.15 0 0 1 .035-.563c.059-.187.164-.351.293-.492.14-.164.316-.293.504-.398a2.32 2.32 0 0 1 .656-.235 1.97 1.97 0 0 1 .692-.023c.21.024.41.094.609.176.176.082.328.2.457.351.117.141.2.317.234.504.024.2.012.375-.035.563Z" fill="#BC4CC6"/></svg>