<svg width="24" height="25" fill="none" xmlns="http://www.w3.org/2000/svg"><path d="M6.693 12.703a.594.594 0 0 1-.3-.52V7.956l.001-.126a3.432 3.432 0 0 0-1.792 1.51 3.448 3.448 0 0 0 1.26 4.702l3.7 2.138a.054.054 0 0 0 .051-.005l1.546-.893-4.466-2.579Zm4.346-8.19a3.444 3.444 0 0 0-3.446 3.443v4.271a.055.055 0 0 0 .03.043l1.547.893v-.001l.002-5.157a.595.595 0 0 1 .301-.52l3.659-2.113c.032-.02.08-.046.109-.061a3.446 3.446 0 0 0-2.202-.797Zm.96 5.69-1.989 1.149v2.297L12 14.797l1.99-1.148V11.35L12 10.202Zm-2.476 6.994a.595.595 0 0 1-.601 0l-3.66-2.113-.108-.065c-.138.794.007 1.61.411 2.307a3.447 3.447 0 0 0 4.704 1.261l3.7-2.136a.056.056 0 0 0 .02-.047v-1.786l-4.466 2.58Zm6.85-4.468-1.546-.893v5.158a.594.594 0 0 1-.3.52l-3.66 2.114c-.031.02-.08.046-.108.061a3.43 3.43 0 0 0 2.204.797 3.447 3.447 0 0 0 3.44-3.443V12.77a.054.054 0 0 0-.03-.043Zm2.472-2.75h.001Zm-.41-2.302a3.443 3.443 0 0 0-4.704-1.263l-3.699 2.134a.056.056 0 0 0-.021.047v1.786l4.466-2.58a.597.597 0 0 1 .602 0l3.659 2.114.107.064a3.442 3.442 0 0 0-.41-2.302Zm-.297 3.278-3.7-2.135a.054.054 0 0 0-.051.004l-1.546.893 4.466 2.58a.592.592 0 0 1 .3.52v4.353a3.444 3.444 0 0 0 .531-6.215Zm0 0-3.7-2.135a.054.054 0 0 0-.051.004l-1.546.893 4.466 2.58a.592.592 0 0 1 .3.52v4.353a3.444 3.444 0 0 0 .531-6.215Zm-8.127-2.36v1.786l4.466-2.58a.597.597 0 0 1 .602 0l3.659 2.114.107.064a3.442 3.442 0 0 0-5.114-3.565l-3.699 2.134a.056.056 0 0 0-.021.047Zm8.835 1.385Zm-2.473 2.748-1.546-.893v5.16a.594.594 0 0 1-.3.52l-3.66 2.113c-.031.02-.08.046-.108.061a3.43 3.43 0 0 0 2.204.797 3.447 3.447 0 0 0 3.44-3.443V12.77a.054.054 0 0 0-.03-.043Zm-2.383 3.676v-1.786l-4.467 2.58a.595.595 0 0 1-.601 0l-3.66-2.114-.108-.065c-.138.794.007 1.61.411 2.307a3.447 3.447 0 0 0 4.704 1.261l3.7-2.136a.056.056 0 0 0 .02-.047Zm-3.98-2.755L12 14.797l1.99-1.148V11.35L12 10.202l-1.99 1.15v2.297Zm-2.387-1.38 1.547.894v-.001l.002-5.157a.595.595 0 0 1 .301-.52l3.659-2.113c.032-.02.08-.046.109-.061a3.446 3.446 0 0 0-5.648 2.645v4.271a.055.055 0 0 0 .03.043Zm-1.761 1.773 3.7 2.138a.054.054 0 0 0 .051-.005l1.546-.893-4.466-2.579a.594.594 0 0 1-.3-.52V7.956l.001-.126a3.432 3.432 0 0 0-1.792 1.51 3.448 3.448 0 0 0 1.26 4.702Zm12.276-3.087-3.7-2.135a.054.054 0 0 0-.051.004l-1.546.893 4.466 2.58a.592.592 0 0 1 .3.52v4.353a3.444 3.444 0 0 0 .531-6.215Zm-8.127-2.36v1.786l4.466-2.58a.597.597 0 0 1 .602 0l3.659 2.114.107.064a3.442 3.442 0 0 0-5.114-3.565l-3.699 2.134a.056.056 0 0 0-.021.047Zm8.835 1.385Zm-2.473 2.748-1.546-.893v5.16a.594.594 0 0 1-.3.52l-3.66 2.113c-.031.02-.08.046-.108.061a3.43 3.43 0 0 0 2.204.797 3.447 3.447 0 0 0 3.44-3.443V12.77a.054.054 0 0 0-.03-.043Zm-2.383 3.676v-1.786l-4.467 2.58a.595.595 0 0 1-.601 0l-3.66-2.114-.108-.065c-.138.794.007 1.61.411 2.307a3.447 3.447 0 0 0 4.704 1.261l3.7-2.136a.056.056 0 0 0 .02-.047Zm-3.98-2.755L12 14.797l1.99-1.148V11.35L12 10.202l-1.99 1.15v2.297Zm-2.387-1.38 1.547.894v-.001l.002-5.157a.595.595 0 0 1 .301-.52l3.659-2.113c.032-.02.08-.046.109-.061a3.446 3.446 0 0 0-5.648 2.645v4.271a.055.055 0 0 0 .03.043Zm-1.761 1.773 3.7 2.138a.054.054 0 0 0 .051-.005l1.546-.893-4.466-2.579a.594.594 0 0 1-.3-.52V7.956l.001-.126a3.432 3.432 0 0 0-1.792 1.51 3.448 3.448 0 0 0 1.26 4.702Zm.83-1.339a.594.594 0 0 1-.3-.52V7.956l.002-.126a3.432 3.432 0 0 0-1.792 1.51 3.448 3.448 0 0 0 1.26 4.702l3.7 2.138a.054.054 0 0 0 .051-.005l1.546-.893-4.466-2.579Zm4.347-8.19a3.444 3.444 0 0 0-3.446 3.443v4.271a.055.055 0 0 0 .03.043l1.547.893v-.001l.002-5.157a.595.595 0 0 1 .301-.52l3.659-2.113c.032-.02.08-.046.109-.061a3.446 3.446 0 0 0-2.202-.797Zm.96 5.69-1.989 1.149v2.297L12 14.797l1.99-1.148V11.35L12 10.202Zm-2.476 6.994a.595.595 0 0 1-.601 0l-3.66-2.113-.108-.065c-.138.794.007 1.61.411 2.307a3.447 3.447 0 0 0 4.704 1.261l3.7-2.136a.056.056 0 0 0 .02-.047v-1.786l-4.466 2.58Zm6.85-4.468-1.546-.893v5.158a.594.594 0 0 1-.3.52l-3.66 2.114c-.031.02-.08.046-.108.061a3.43 3.43 0 0 0 2.204.797 3.447 3.447 0 0 0 3.44-3.443V12.77a.054.054 0 0 0-.03-.043Zm2.472-2.75h.001Zm-.41-2.302a3.443 3.443 0 0 0-4.704-1.263l-3.699 2.134a.056.056 0 0 0-.021.047v1.786l4.466-2.58a.597.597 0 0 1 .602 0l3.659 2.114.107.064a3.442 3.442 0 0 0-.41-2.302Zm-.297 3.278-3.7-2.135a.054.054 0 0 0-.051.004l-1.546.893 4.466 2.58a.592.592 0 0 1 .3.52v4.353a3.444 3.444 0 0 0 .531-6.215Zm0 0-3.7-2.135a.054.054 0 0 0-.051.004l-1.546.893 4.466 2.58a.592.592 0 0 1 .3.52v4.353a3.444 3.444 0 0 0 .531-6.215Zm.296-3.278a3.443 3.443 0 0 0-4.703-1.263l-3.699 2.134a.056.056 0 0 0-.021.047v1.786l4.466-2.58a.597.597 0 0 1 .602 0l3.659 2.114.107.064a3.442 3.442 0 0 0-.41-2.302Zm.411 2.302h.001Zm-2.472 2.75-1.546-.893v5.158a.594.594 0 0 1-.3.52l-3.66 2.114c-.031.02-.08.046-.108.061a3.43 3.43 0 0 0 2.204.797 3.447 3.447 0 0 0 3.44-3.443V12.77a.054.054 0 0 0-.03-.043Zm-6.85 4.468a.595.595 0 0 1-.601 0l-3.66-2.113-.108-.065c-.138.794.007 1.61.411 2.307a3.447 3.447 0 0 0 4.704 1.261l3.7-2.136a.056.056 0 0 0 .02-.047v-1.786l-4.466 2.58ZM12 10.202l-1.989 1.15v2.297L12 14.797l1.99-1.148V11.35L12 10.202Zm-.96-5.688a3.444 3.444 0 0 0-3.446 3.442v4.271a.055.055 0 0 0 .03.043l1.547.893v-.001l.002-5.157a.595.595 0 0 1 .301-.52l3.659-2.113c.032-.02.08-.046.109-.061a3.446 3.446 0 0 0-2.202-.797Zm-4.346 8.19a.594.594 0 0 1-.3-.521V7.956l.001-.126a3.432 3.432 0 0 0-1.792 1.51 3.448 3.448 0 0 0 1.26 4.702l3.7 2.138a.054.054 0 0 0 .051-.005l1.546-.893-4.466-2.579Z" fill="#614D61"/><path d="M12 .5C5.373.5 0 5.873 0 12.5s5.373 12 12 12 12-5.373 12-12-5.373-12-12-12Zm5.606 16.67v-4.353a.594.594 0 0 0-.298-.52l-4.467-2.58 1.546-.892a.054.054 0 0 1 .052-.005l3.7 2.136a3.445 3.445 0 0 1-.533 6.214Zm-4.643 3.317a3.431 3.431 0 0 1-2.204-.797c.028-.015.077-.043.108-.062l3.66-2.113a.594.594 0 0 0 .3-.52v-5.16l1.546.894a.054.054 0 0 1 .03.042v4.272a3.448 3.448 0 0 1-3.44 3.444Zm-7.398-3.16a3.427 3.427 0 0 1-.41-2.308c.026.017.074.046.108.065l3.659 2.113a.595.595 0 0 0 .601 0l4.467-2.58v1.787a.057.057 0 0 1-.022.048l-3.699 2.135a3.447 3.447 0 0 1-4.704-1.26ZM4.602 9.34a3.432 3.432 0 0 1 1.792-1.51l-.002.126v4.227a.594.594 0 0 0 .3.52l4.467 2.58-1.546.893a.054.054 0 0 1-.052.004l-3.7-2.137a3.448 3.448 0 0 1-1.26-4.703Zm13.832-1.662c.402.695.547 1.51.411 2.302h.001a3.951 3.951 0 0 0-.108-.065l-3.66-2.113a.597.597 0 0 0-.6 0l-4.467 2.58V8.594a.057.057 0 0 1 .021-.047l3.7-2.134a3.443 3.443 0 0 1 4.703 1.264ZM12 10.203l1.99 1.148v2.298L12 14.797l-1.99-1.147v-2.297l1.99-1.15Zm1.242-4.892a3.328 3.328 0 0 0-.109.061l-3.66 2.113a.595.595 0 0 0-.301.52l-.002 5.157-1.547-.892a.054.054 0 0 1-.03-.042V7.956A3.444 3.444 0 0 1 13.24 5.31Z" fill="#fff"/><path d="M19.87 10.832a4.576 4.576 0 0 0-.393-3.759 4.63 4.63 0 0 0-4.987-2.221 4.58 4.58 0 0 0-3.453-1.54 4.63 4.63 0 0 0-4.416 3.206 4.58 4.58 0 0 0-3.061 2.22 4.631 4.631 0 0 0 .57 5.43 4.578 4.578 0 0 0 .393 3.76 4.63 4.63 0 0 0 4.986 2.22 4.579 4.579 0 0 0 3.453 1.54 4.631 4.631 0 0 0 4.418-3.208 4.58 4.58 0 0 0 3.061-2.22 4.631 4.631 0 0 0-.57-5.428Zm-1.435-3.154c.4.696.546 1.51.41 2.302h.001a3.768 3.768 0 0 0-.108-.065l-3.66-2.113a.597.597 0 0 0-.6 0l-4.467 2.58V8.594a.055.055 0 0 1 .021-.047l3.7-2.134a3.443 3.443 0 0 1 4.703 1.264ZM12 10.203l1.99 1.148v2.298L12 14.797l-1.99-1.148v-2.297l1.99-1.15ZM7.593 7.956a3.444 3.444 0 0 1 5.648-2.645 3.227 3.227 0 0 0-.109.061L9.473 7.485a.595.595 0 0 0-.3.52l-.003 5.157-1.547-.892a.054.054 0 0 1-.03-.042V7.956ZM4.6 9.34a3.432 3.432 0 0 1 1.793-1.51l-.002.126v4.227a.594.594 0 0 0 .3.52l4.468 2.58-1.547.893a.054.054 0 0 1-.052.004l-3.7-2.137A3.448 3.448 0 0 1 4.6 9.34Zm.965 7.987a3.427 3.427 0 0 1-.412-2.307l.109.064 3.659 2.113a.595.595 0 0 0 .601 0l4.467-2.58v1.787a.057.057 0 0 1-.022.048l-3.698 2.135a3.447 3.447 0 0 1-4.704-1.26Zm10.838-.284a3.447 3.447 0 0 1-3.44 3.444 3.43 3.43 0 0 1-2.205-.797 2.21 2.21 0 0 0 .109-.062l3.658-2.113a.594.594 0 0 0 .301-.52v-5.16l1.546.894a.054.054 0 0 1 .03.043v4.271Zm2.994-1.382a3.444 3.444 0 0 1-1.792 1.51v-4.354a.594.594 0 0 0-.298-.52l-4.467-2.58 1.546-.892a.054.054 0 0 1 .052-.005l3.7 2.136a3.445 3.445 0 0 1 1.26 4.705Z" fill="#fff"/></svg>