<svg width="16" height="16" viewBox="0 0 16 16" fill="none" xmlns="http://www.w3.org/2000/svg">
<path d="M7.25 2.75V6.25C7.25 6.51522 7.14464 6.76957 6.95711 6.95711C6.76957 7.14464 6.51522 7.25 6.25 7.25H2.75C2.48478 7.25 2.23043 7.14464 2.04289 6.95711C1.85536 6.76957 1.75 6.51522 1.75 6.25V2.75C1.75 2.48478 1.85536 2.23043 2.04289 2.04289C2.23043 1.85536 2.48478 1.75 2.75 1.75H6.25C6.51522 1.75 6.76957 1.85536 6.95711 2.04289C7.14464 2.23043 7.25 2.48478 7.25 2.75ZM13.25 1.75H9.75C9.48478 1.75 9.23043 1.85536 9.04289 2.04289C8.85536 2.23043 8.75 2.48478 8.75 2.75V6.25C8.75 6.51522 8.85536 6.76957 9.04289 6.95711C9.23043 7.14464 9.48478 7.25 9.75 7.25H13.25C13.5152 7.25 13.7696 7.14464 13.9571 6.95711C14.1446 6.76957 14.25 6.51522 14.25 6.25V2.75C14.25 2.48478 14.1446 2.23043 13.9571 2.04289C13.7696 1.85536 13.5152 1.75 13.25 1.75ZM6.25 8.75H2.75C2.48478 8.75 2.23043 8.85536 2.04289 9.04289C1.85536 9.23043 1.75 9.48478 1.75 9.75V13.25C1.75 13.5152 1.85536 13.7696 2.04289 13.9571C2.23043 14.1446 2.48478 14.25 2.75 14.25H6.25C6.51522 14.25 6.76957 14.1446 6.95711 13.9571C7.14464 13.7696 7.25 13.5152 7.25 13.25V9.75C7.25 9.48478 7.14464 9.23043 6.95711 9.04289C6.76957 8.85536 6.51522 8.75 6.25 8.75ZM11.5 8.75C10.9561 8.75 10.4244 8.91128 9.97218 9.21346C9.51995 9.51563 9.16747 9.94512 8.95933 10.4476C8.75119 10.9501 8.69673 11.503 8.80284 12.0365C8.90895 12.5699 9.17086 13.0599 9.55546 13.4445C9.94005 13.8291 10.4301 14.0911 10.9635 14.1972C11.497 14.3033 12.0499 14.2488 12.5524 14.0407C13.0549 13.8325 13.4844 13.4801 13.7865 13.0278C14.0887 12.5756 14.25 12.0439 14.25 11.5C14.25 10.7707 13.9603 10.0712 13.4445 9.55546C12.9288 9.03973 12.2293 8.75 11.5 8.75Z" fill="#7A7A7A"/>
</svg>
