<svg width="38" height="30" viewBox="0 0 38 30" fill="none" xmlns="http://www.w3.org/2000/svg">
<g clip-path="url(#clip0_1582_1274)">
<path d="M30.5001 29.2104H9.50009C8.30572 29.2104 7.24259 28.5935 6.65197 27.5566C6.06134 26.5197 6.06791 25.2925 6.67166 24.2622L17.1717 6.45817C17.4598 5.96439 17.8729 5.55521 18.3695 5.27181C18.866 4.98841 19.4284 4.84079 20.0001 4.8438C21.1748 4.8438 22.2313 5.44754 22.8285 6.45817L33.3285 24.2622C33.9323 25.286 33.9454 26.5197 33.3548 27.5566C32.7642 28.5935 31.701 29.2104 30.5067 29.2104H30.5001ZM20.0001 27.8979H30.5001C31.2154 27.8979 31.852 27.5304 32.2129 26.9069C32.5738 26.2835 32.5607 25.5485 32.1998 24.9316L21.6998 7.12754C21.5275 6.83141 21.2804 6.58579 20.9832 6.41532C20.686 6.24484 20.3493 6.15552 20.0067 6.1563C19.3045 6.1563 18.6679 6.51723 18.3135 7.12754L7.81353 24.9316C7.45259 25.5485 7.44603 26.29 7.80041 26.9069C7.96984 27.2099 8.21763 27.4617 8.51781 27.6361C8.81799 27.8104 9.15953 27.9008 9.50666 27.8979H20.0067H20.0001Z" fill="#333333"/>
<path d="M20 21.25C19.6391 21.25 19.3438 20.9547 19.3438 20.5938V11.4062C19.3438 11.0453 19.6391 10.75 20 10.75C20.3609 10.75 20.6562 11.0453 20.6562 11.4062V20.5938C20.6562 20.9547 20.3609 21.25 20 21.25Z" fill="#333333"/>
<path d="M20 24.6167C20.3624 24.6167 20.6562 24.3229 20.6562 23.9604C20.6562 23.598 20.3624 23.3042 20 23.3042C19.6376 23.3042 19.3438 23.598 19.3438 23.9604C19.3438 24.3229 19.6376 24.6167 20 24.6167Z" fill="#333333"/>
<path d="M2.92411 18.9004C2.34005 18.9004 1.79536 18.6444 1.41474 18.1785C0.955357 17.6141 0.837232 16.8726 1.11286 16.1966L4.92567 6.64159C5.18161 6.01159 5.73286 5.55878 6.40224 5.44065C7.07161 5.31597 7.74099 5.54565 8.20692 6.03784L12.571 10.7629C12.8204 11.0319 12.8007 11.4454 12.5316 11.6882C12.2626 11.931 11.8491 11.9179 11.6063 11.6488L7.24224 6.92378C7.08474 6.75315 6.86817 6.68097 6.63849 6.72034C6.4088 6.75972 6.23161 6.91065 6.1463 7.12065L2.33349 16.6757C2.20224 17.0038 2.35974 17.2466 2.43192 17.3385C2.50411 17.4304 2.71411 17.6338 3.06192 17.5682L8.41692 16.5773C8.7713 16.5116 9.11255 16.7479 9.18474 17.1023C9.25036 17.4566 9.01411 17.7979 8.65974 17.8701L3.30474 18.861C3.18005 18.8873 3.05536 18.8938 2.93067 18.8938L2.92411 18.9004Z" fill="#333333"/>
<path d="M7.74149 13.3552C7.43305 13.3552 7.15743 13.1321 7.09837 12.8171L6.50118 9.58833C6.43555 9.23396 6.6718 8.89271 7.02618 8.82052C7.38712 8.7549 7.7218 8.99115 7.79399 9.34552L8.39118 12.5743C8.408 12.669 8.40407 12.7662 8.37966 12.8592C8.35525 12.9523 8.31095 13.0389 8.24981 13.1132C8.18866 13.1874 8.11214 13.2475 8.02551 13.2893C7.93888 13.3311 7.84422 13.3536 7.74805 13.3552H7.74149Z" fill="#333333"/>
<path d="M8.10156 15.2915C8.464 15.2915 8.75781 14.9976 8.75781 14.6352C8.75781 14.2728 8.464 13.979 8.10156 13.979C7.73912 13.979 7.44531 14.2728 7.44531 14.6352C7.44531 14.9976 7.73912 15.2915 8.10156 15.2915Z" fill="#333333"/>
<path d="M35.3954 14.031C35.2773 14.031 35.1591 14.0179 35.041 13.9982L28.3276 12.7514C27.9732 12.6857 27.7369 12.3445 27.8026 11.9835C27.8682 11.6226 28.2094 11.3929 28.5704 11.4585L35.2838 12.7054C35.5201 12.7448 35.7563 12.6595 35.9138 12.4692C35.986 12.3773 36.1435 12.1345 36.0123 11.8129L32.1929 2.25788C32.1533 2.15431 32.0879 2.06258 32.0029 1.99138C31.9179 1.92017 31.8161 1.87185 31.7073 1.851C31.4841 1.81163 31.261 1.88381 31.1035 2.04788L25.9979 7.56694C25.9397 7.6306 25.8695 7.68202 25.7912 7.7182C25.713 7.75438 25.6283 7.77459 25.5421 7.77765C25.4559 7.7807 25.37 7.76654 25.2894 7.736C25.2088 7.70545 25.1351 7.65913 25.0726 7.59975C25.0092 7.54162 24.9578 7.47156 24.9215 7.39357C24.8852 7.31559 24.8646 7.2312 24.861 7.14526C24.8573 7.05931 24.8707 6.97349 24.9002 6.8927C24.9298 6.81191 24.9749 6.73774 25.0332 6.67444L30.1388 1.15538C30.3644 0.911738 30.648 0.729237 30.9632 0.62491C31.2784 0.520582 31.6149 0.497831 31.9413 0.558781C32.2676 0.619731 32.5733 0.762393 32.8296 0.973447C33.0859 1.18451 33.2845 1.45707 33.4069 1.76569L37.2263 11.3207C37.4954 11.9901 37.3838 12.7317 36.931 13.2895C36.5504 13.7554 35.986 14.0179 35.3954 14.0179V14.031Z" fill="#333333"/>
<path d="M30.5915 8.49223C30.5521 8.49223 30.5128 8.49223 30.4734 8.47911C30.119 8.41348 29.8828 8.07223 29.9484 7.71129L30.5456 4.48254C30.5835 4.31675 30.6842 4.17208 30.8265 4.07886C30.9687 3.98564 31.1415 3.95111 31.3087 3.98251C31.4759 4.0139 31.6244 4.10879 31.7231 4.24727C31.8219 4.38576 31.8632 4.55709 31.8384 4.72536L31.2412 7.95411C31.1821 8.26911 30.9065 8.49223 30.5981 8.49223H30.5915Z" fill="#333333"/>
<path d="M30.2373 10.4287C30.5998 10.4287 30.8936 10.1349 30.8936 9.77246C30.8936 9.41002 30.5998 9.11621 30.2373 9.11621C29.8749 9.11621 29.5811 9.41002 29.5811 9.77246C29.5811 10.1349 29.8749 10.4287 30.2373 10.4287Z" fill="#333333"/>
</g>
<defs>
<clipPath id="clip0_1582_1274">
<rect width="38" height="30" fill="white"/>
</clipPath>
</defs>
</svg>
