<svg width="72" height="72" viewBox="0 0 72 72" fill="none" xmlns="http://www.w3.org/2000/svg">
<path d="M32.6392 43.4277C36.5083 47.8126 39.5675 52.5262 40.324 56.0932L33.992 58.3453C32.3143 54.6797 29.0867 50.4057 25.4026 46.588C21.5827 42.9059 17.3066 39.68 13.639 38.0032L15.8922 31.6745C19.6173 32.4635 24.5925 35.7593 29.1359 39.8649M43.9628 22.3048L48.3994 16.9706C48.9627 16.4076 49.8837 16.4076 50.447 16.9706L54.9698 21.4871C55.5331 22.05 55.5331 22.9705 54.9698 23.5336L39.6004 36.2977M35.6284 32.332L40.7556 26.1678M31.1096 28.732C35.8792 21.0719 34.3743 13.7364 33.26 9.20773C31.9031 3.68456 24.2225 4.9956 25.7931 10.8393C27.1295 15.8241 27.7134 19.7568 26.7758 26.0733M43.3461 40.9949C51.1541 36.7827 58.3085 38.6361 62.7327 39.9635C68.185 41.5991 66.4868 49.1976 60.7263 47.336C55.9525 45.7908 52.1327 45.0099 46.0846 45.5319M37.7253 34.2717C29.872 26.6896 20.0696 21.0514 17.6684 26.8335C17.6396 26.8992 17.4094 27.5239 17.2325 27.9101L4.95905 62.3931C4.25593 64.3739 4.4656 65.8492 5.37853 66.6011C6.13087 67.5094 7.60701 67.723 9.58883 67.0203L44.0902 54.7535C44.4768 54.5767 45.1017 54.3467 45.1676 54.3178C50.9527 51.9179 45.3114 42.1208 37.7253 34.2717ZM18.3592 53.6275C20.8304 56.1877 23.0958 58.9535 24.8269 61.604L17.615 64.1644C16.254 62.3849 14.7121 60.6014 13.0756 58.9083C11.3815 57.2727 9.59713 55.7315 7.81668 54.3714L10.3783 47.1633C13.0303 48.8934 15.7975 51.1577 18.3592 53.6275ZM59.386 1.92984L58.5059 5.02429C58.4074 5.36122 58.4114 5.46402 58.0784 5.64894L55.1262 7.27639C54.5547 7.5928 54.5628 7.74481 55.1097 8.1065L57.803 10.0091C58.0907 10.2146 58.2018 10.5106 58.2717 10.8886L58.8433 13.9831C58.9419 14.6323 59.094 14.6735 59.6162 14.2789L62.0874 12.3763C62.3422 12.179 62.7988 12.0557 63.1194 12.1009L66.2072 12.5118C66.861 12.594 66.9679 12.483 66.7336 11.8707L65.6768 8.9037C65.5494 8.54215 65.5002 8.2339 65.648 7.9092L67.0255 4.91334C67.3173 4.32974 67.2517 4.19418 66.5938 4.20656L63.2263 4.27223C62.8439 4.27645 62.7946 4.18602 62.5437 3.94345L60.233 1.70386C59.7641 1.25175 59.5668 1.30519 59.386 1.92984ZM47.4661 4.27223L43.3543 1.89694C42.8897 1.62975 42.2031 1.75308 42.018 2.25863L39.7771 8.30774C39.588 8.81328 39.6701 9.3762 40.1347 9.64339L42.3634 10.9338C42.8322 11.2009 43.3584 10.9872 43.6997 10.5721L47.8238 5.60788C48.1692 5.19276 47.9348 4.53942 47.4661 4.27223ZM63.4236 19.9912H69.6489C70.356 19.9912 71.0508 20.5789 70.9317 21.2735L69.509 29.6117C69.3897 30.3061 68.9292 30.8937 68.2261 30.8937H64.8504C64.1432 30.8937 63.6868 30.3061 63.5674 29.6117L62.1408 21.2735C62.0216 20.5789 62.7206 19.9912 63.4236 19.9912ZM2.04812 22.0912L8.0594 20.4802C8.74199 20.2953 9.56437 20.6856 9.63018 21.3844L10.4154 29.8088C10.4812 30.5115 10.1893 31.1979 9.50685 31.3786L6.24619 32.254C5.5636 32.4348 4.97157 31.9869 4.67555 31.3458L1.13941 23.661C0.843391 23.0199 1.36553 22.272 2.04812 22.0912ZM52.6344 66.1697L48.5804 70.2216C48.1198 70.6819 47.2851 70.7518 46.911 70.2216L42.4046 63.8643C42.0261 63.3341 41.944 62.652 42.4046 62.1917L44.6001 59.9971C45.0607 59.5368 45.7433 59.6191 46.2737 59.9971L52.6344 64.5012C53.1647 64.8752 53.095 65.7094 52.6344 66.1697ZM14.5887 2.10239L15.5467 5.45981C15.6537 5.82557 15.6495 5.93652 16.0114 6.1379L19.2144 7.90499C19.8353 8.24614 19.827 8.41053 19.235 8.80498L16.3115 10.872C15.995 11.0939 15.8757 11.4146 15.7975 11.8255L15.1808 15.183C15.0698 15.8857 14.9053 15.9309 14.3379 15.5035L11.6612 13.4365C11.3815 13.2227 10.8882 13.0912 10.5388 13.1364L7.18767 13.5844C6.48047 13.6747 6.36122 13.5515 6.61617 12.8898L7.76325 9.67207C7.90317 9.27762 7.95646 8.94054 7.79615 8.59137L6.29948 5.3407C5.97872 4.70381 6.05283 4.55573 6.76411 4.57218L10.4236 4.64207C10.8388 4.65037 10.8882 4.55165 11.1637 4.28461L13.6717 1.85588C14.1816 1.36271 14.3954 1.42022 14.5887 2.10239ZM63.3825 51.8153L61.5858 54.8152C61.3883 55.1439 61.3637 55.2509 60.9607 55.3495L57.404 56.2289C56.7133 56.4015 56.6805 56.5617 57.1533 57.096L59.4435 59.8535C59.6901 60.1494 59.7232 60.4904 59.6901 60.9055L59.4187 64.3164C59.3407 65.0232 59.4888 65.1095 60.1508 64.8425L63.2756 63.5397C63.6046 63.404 64.1145 63.404 64.4393 63.5397L67.5684 64.8425C68.2261 65.1095 68.3741 65.0232 68.3002 64.3164L68.0247 60.9055C67.9918 60.4904 68.0247 60.1494 68.2715 59.8535L70.5656 57.096C71.0385 56.5617 71.0016 56.4015 70.3108 56.2289L66.7541 55.3495C66.3511 55.2509 66.3266 55.1439 66.1291 54.8152L64.3323 51.8153C63.9706 51.2071 63.7486 51.2071 63.3825 51.8153Z" stroke-width="1.4" stroke-miterlimit="10" stroke-linecap="round" stroke-linejoin="round"/>
</svg>
