<svg width="48" height="48" viewBox="0 0 48 48" fill="none" xmlns="http://www.w3.org/2000/svg">
<rect width="48" height="48" fill="white"/>
<path d="M30.1255 15.0045L27.1034 15C23.7081 15 21.5139 17.0961 21.5139 20.3404V22.8027H18.4752C18.2126 22.8027 18 23.0009 18 23.2454V26.8129C18 27.0574 18.2129 27.2554 18.4752 27.2554H21.5139V36.2575C21.5139 36.502 21.7265 36.7 21.9891 36.7H25.9536C26.2162 36.7 26.4289 36.5018 26.4289 36.2575V27.2554H29.9817C30.2443 27.2554 30.457 27.0574 30.457 26.8129L30.4584 23.2454C30.4584 23.128 30.4082 23.0156 30.3192 22.9325C30.2303 22.8494 30.109 22.8027 29.983 22.8027H26.4289V20.7154C26.4289 19.7121 26.6856 19.2028 28.0892 19.2028L30.125 19.2022C30.3874 19.2022 30.6 19.0039 30.6 18.7597V15.447C30.6 15.203 30.3876 15.005 30.1255 15.0045Z" fill="#333333"/>
</svg>
