<svg width="60" height="61" viewBox="0 0 60 61" fill="none" xmlns="http://www.w3.org/2000/svg">
<g clip-path="url(#clip0_1849_1654)">
<path fill-rule="evenodd" clip-rule="evenodd" d="M35.5642 6.86109C35.5642 7.39781 35.9993 7.83292 36.536 7.83292C37.0727 7.83292 37.5078 7.39781 37.5078 6.86109V2.97378C37.5078 2.43705 37.0727 2.00195 36.536 2.00195C35.9993 2.00195 35.5642 2.43705 35.5642 2.97378V6.86109ZM25.8464 20.4674C25.8464 26.3714 30.6325 31.1575 36.5365 31.1575C42.4376 31.1506 47.2196 26.3685 47.2266 20.4674C47.2266 14.5635 42.4404 9.77734 36.5365 9.77734C30.6325 9.77734 25.8464 14.5635 25.8464 20.4674ZM27.79 20.4674C27.79 15.6369 31.7059 11.721 36.5365 11.721C41.3645 11.7269 45.277 15.6394 45.2829 20.4674C45.2829 25.298 41.367 29.2139 36.5365 29.2139C31.7059 29.2139 27.79 25.298 27.79 20.4674ZM35.5642 37.9587V34.0714C35.5642 33.5347 35.9993 33.0996 36.536 33.0996C37.0727 33.0996 37.5078 33.5347 37.5078 34.0714V37.9587C37.5078 38.4955 37.0727 38.9306 36.536 38.9306C35.9993 38.9306 35.5642 38.4955 35.5642 37.9587ZM22.9305 21.4378C23.4672 21.4378 23.9023 21.0027 23.9023 20.466C23.9023 19.9292 23.4672 19.4941 22.9305 19.4941H19.0432C18.5065 19.4941 18.0714 19.9292 18.0714 20.466C18.0714 21.0027 18.5065 21.4378 19.0432 21.4378H22.9305ZM54.0291 21.4378H50.1418C49.6051 21.4378 49.17 21.0027 49.17 20.466C49.17 19.9292 49.6051 19.4941 50.1418 19.4941H54.0291C54.5659 19.4941 55.001 19.9292 55.001 20.466C55.001 21.0027 54.5659 21.4378 54.0291 21.4378ZM45.4818 11.5211C45.8567 11.896 46.4628 11.9013 46.8441 11.533L49.5934 8.78369C49.9617 8.40236 49.9564 7.79623 49.5816 7.42136C49.2067 7.04649 48.6006 7.04123 48.2192 7.40952L45.4699 10.1588C45.1017 10.5401 45.1069 11.1463 45.4818 11.5211ZM24.1678 33.808C23.7748 33.8079 23.4205 33.5711 23.2701 33.208C23.1197 32.8449 23.2028 32.427 23.4807 32.1491L26.23 29.3998C26.6113 29.0315 27.2174 29.0367 27.5923 29.4116C27.9672 29.7865 27.9724 30.3926 27.6042 30.7739L24.8549 33.5232C24.6726 33.7055 24.4255 33.8079 24.1678 33.808ZM26.229 11.5335C26.4112 11.7157 26.6583 11.8181 26.916 11.8182C27.3088 11.8181 27.6629 11.5816 27.8134 11.2189C27.964 10.8561 27.8814 10.4384 27.6041 10.1603L24.8538 7.40999C24.6098 7.15736 24.2485 7.05604 23.9087 7.14498C23.5689 7.23392 23.3036 7.49927 23.2146 7.83905C23.1257 8.17883 23.227 8.54015 23.4797 8.78416L26.229 11.5335ZM48.2178 33.5232L45.4685 30.7739C45.1002 30.3926 45.1055 29.7865 45.4803 29.4116C45.8552 29.0367 46.4613 29.0315 46.8427 29.3998L49.592 32.1491C49.8446 32.3931 49.9459 32.7544 49.857 33.0942C49.768 33.4339 49.5027 33.6993 49.1629 33.7882C48.8231 33.8772 48.4618 33.7758 48.2178 33.5232ZM18.6072 41.9383C14.2101 38.7469 11.5296 33.7069 11.3416 28.277C11.262 26.0385 11.6121 23.8054 12.3731 21.6987C12.5499 21.2124 12.4137 20.6675 12.0289 20.3216C11.654 19.981 11.1095 19.9032 10.6543 20.1253C2.84106 23.909 -1.3853 32.5329 0.411201 41.0262C2.2077 49.5195 9.56405 55.6934 18.2402 55.9894C18.4536 55.9963 18.6676 56.0001 18.8803 56.0001C25.6836 56.0118 31.9645 52.3539 35.3116 46.4309C35.5629 45.9911 35.5208 45.4426 35.2052 45.0463C34.8839 44.6378 34.3464 44.4658 33.8476 44.612C28.6269 46.1161 23.0042 45.1297 18.6072 41.9383ZM18.283 54.7312C9.20156 54.3742 1.86165 47.2061 1.2897 38.1357C0.873402 31.0212 4.78831 24.3577 11.2056 21.2581C10.3798 23.517 9.99876 25.9143 10.0834 28.3179C10.2844 34.136 13.1562 39.5367 17.8676 42.9563C22.5789 46.376 28.6036 47.4329 34.1976 45.8211C30.976 51.5332 24.8366 54.9705 18.283 54.7312Z" fill="#D2D2D2"/>
<path d="M36.5365 31.1575L36.5371 31.6575H36.5365V31.1575ZM47.2266 20.4674L47.7266 20.4674L47.7266 20.468L47.2266 20.4674ZM36.5365 11.721L36.5365 11.221L36.5371 11.221L36.5365 11.721ZM45.2829 20.4674L45.7829 20.4668V20.4674H45.2829ZM46.8441 11.533L47.1977 11.8866L47.1915 11.8926L46.8441 11.533ZM49.5934 8.78369L49.9531 9.13109L49.947 9.13724L49.5934 8.78369ZM49.5816 7.42136L49.228 7.77491L49.228 7.77491L49.5816 7.42136ZM48.2192 7.40952L47.8656 7.05592L47.8719 7.04988L48.2192 7.40952ZM45.4699 10.1588L45.1102 9.81141L45.1164 9.80527L45.4699 10.1588ZM23.2701 33.208L22.8082 33.3993L22.8082 33.3993L23.2701 33.208ZM24.1678 33.808L24.1679 34.308L24.1677 34.308L24.1678 33.808ZM23.4807 32.1491L23.1271 31.7956L23.1271 31.7955L23.4807 32.1491ZM26.23 29.3998L25.8764 29.0461L25.8826 29.0401L26.23 29.3998ZM27.6042 30.7739L27.9639 31.1213L27.9577 31.1275L27.6042 30.7739ZM24.8549 33.5232L24.5012 33.1697L24.5013 33.1697L24.8549 33.5232ZM26.916 11.8182L26.9162 12.3182L26.9159 12.3182L26.916 11.8182ZM26.229 11.5335L26.5825 11.1799L26.5826 11.18L26.229 11.5335ZM27.8134 11.2189L28.2753 11.4105L28.2752 11.4105L27.8134 11.2189ZM27.6041 10.1603L27.9577 9.80671L27.9582 9.80726L27.6041 10.1603ZM24.8538 7.40999L24.5002 7.7636L24.4942 7.75735L24.8538 7.40999ZM23.9087 7.14498L24.0353 7.62868L24.0353 7.62868L23.9087 7.14498ZM23.2146 7.83905L22.7309 7.71244L22.7309 7.71244L23.2146 7.83905ZM23.4797 8.78416L23.8271 8.42446L23.8332 8.4306L23.4797 8.78416ZM45.4685 30.7739L45.1149 31.1275L45.1089 31.1213L45.4685 30.7739ZM48.2178 33.5232L48.5714 33.1696L48.5774 33.1759L48.2178 33.5232ZM46.8427 29.3998L47.1901 29.0401L47.1962 29.0462L46.8427 29.3998ZM49.592 32.1491L49.2446 32.5088L49.2384 32.5026L49.592 32.1491ZM49.857 33.0942L50.3407 33.2208L50.3407 33.2208L49.857 33.0942ZM11.3416 28.277L11.8412 28.2592L11.8413 28.2597L11.3416 28.277ZM18.6072 41.9383L18.3135 42.343L18.3135 42.343L18.6072 41.9383ZM12.3731 21.6987L11.9029 21.5288L11.9032 21.5279L12.3731 21.6987ZM12.0289 20.3216L11.6946 20.6935L11.6926 20.6917L12.0289 20.3216ZM10.6543 20.1253L10.8735 20.5747L10.8722 20.5753L10.6543 20.1253ZM0.411201 41.0262L0.900378 40.9227L0.900378 40.9227L0.411201 41.0262ZM18.2402 55.9894L18.224 56.4891L18.2232 56.4891L18.2402 55.9894ZM18.8803 56.0001L18.8803 55.5001L18.8812 55.5001L18.8803 56.0001ZM35.3116 46.4309L34.8763 46.1849L34.8775 46.1829L35.3116 46.4309ZM35.2052 45.0463L34.8141 45.3577L34.8122 45.3554L35.2052 45.0463ZM33.8476 44.612L33.9883 45.0918L33.9861 45.0925L33.8476 44.612ZM1.2897 38.1357L0.790689 38.1671L0.790557 38.1649L1.2897 38.1357ZM18.283 54.7312L18.2648 55.2309L18.2634 55.2308L18.283 54.7312ZM11.2056 21.2581L10.9882 20.8079L12.0987 20.2715L11.6752 21.4298L11.2056 21.2581ZM10.0834 28.3179L10.5831 28.3003L10.5831 28.3007L10.0834 28.3179ZM17.8676 42.9563L18.1613 42.5517L18.1613 42.5517L17.8676 42.9563ZM34.1976 45.8211L34.0591 45.3406L35.2334 45.0022L34.6331 46.0667L34.1976 45.8211ZM36.536 8.33292C35.7231 8.33292 35.0642 7.67396 35.0642 6.86109H36.0642C36.0642 7.12167 36.2754 7.33292 36.536 7.33292V8.33292ZM38.0078 6.86109C38.0078 7.67396 37.3489 8.33292 36.536 8.33292V7.33292C36.7966 7.33292 37.0078 7.12167 37.0078 6.86109H38.0078ZM38.0078 2.97378V6.86109H37.0078V2.97378H38.0078ZM36.536 1.50195C37.3489 1.50195 38.0078 2.16091 38.0078 2.97378H37.0078C37.0078 2.7132 36.7966 2.50195 36.536 2.50195V1.50195ZM35.0642 2.97378C35.0642 2.16091 35.7231 1.50195 36.536 1.50195V2.50195C36.2754 2.50195 36.0642 2.7132 36.0642 2.97378H35.0642ZM35.0642 6.86109V2.97378H36.0642V6.86109H35.0642ZM36.5365 31.6575C30.3563 31.6575 25.3464 26.6476 25.3464 20.4674H26.3464C26.3464 26.0953 30.9086 30.6575 36.5365 30.6575V31.6575ZM47.7266 20.468C47.7193 26.6448 42.7138 31.6503 36.5371 31.6575L36.5359 30.6575C42.1613 30.6509 46.7199 26.0923 46.7266 20.4669L47.7266 20.468ZM36.5365 9.27734C42.7166 9.27734 47.7266 14.2873 47.7266 20.4674H46.7266C46.7266 14.8396 42.1643 10.2773 36.5365 10.2773V9.27734ZM25.3464 20.4674C25.3464 14.2873 30.3563 9.27734 36.5365 9.27734V10.2773C30.9086 10.2773 26.3464 14.8396 26.3464 20.4674H25.3464ZM36.5365 12.221C31.9821 12.221 28.29 15.9131 28.29 20.4674H27.29C27.29 15.3608 31.4298 11.221 36.5365 11.221V12.221ZM44.7829 20.4681C44.7774 15.9156 41.0883 12.2266 36.5359 12.221L36.5371 11.221C41.6408 11.2272 45.7767 15.3631 45.7829 20.4668L44.7829 20.4681ZM36.5365 28.7139C41.0908 28.7139 44.7829 25.0218 44.7829 20.4674H45.7829C45.7829 25.5741 41.6431 29.7139 36.5365 29.7139V28.7139ZM28.29 20.4674C28.29 25.0218 31.9821 28.7139 36.5365 28.7139V29.7139C31.4298 29.7139 27.29 25.5741 27.29 20.4674H28.29ZM36.0642 34.0714V37.9587H35.0642V34.0714H36.0642ZM36.536 33.5996C36.2754 33.5996 36.0642 33.8109 36.0642 34.0714H35.0642C35.0642 33.2586 35.7231 32.5996 36.536 32.5996V33.5996ZM37.0078 34.0714C37.0078 33.8109 36.7966 33.5996 36.536 33.5996V32.5996C37.3489 32.5996 38.0078 33.2586 38.0078 34.0714H37.0078ZM37.0078 37.9587V34.0714H38.0078V37.9587H37.0078ZM36.536 38.4306C36.7966 38.4306 37.0078 38.2193 37.0078 37.9587H38.0078C38.0078 38.7716 37.3489 39.4306 36.536 39.4306V38.4306ZM36.0642 37.9587C36.0642 38.2193 36.2754 38.4306 36.536 38.4306V39.4306C35.7231 39.4306 35.0642 38.7716 35.0642 37.9587H36.0642ZM24.4023 20.466C24.4023 21.2788 23.7434 21.9378 22.9305 21.9378V20.9378C23.1911 20.9378 23.4023 20.7266 23.4023 20.466H24.4023ZM22.9305 18.9941C23.7434 18.9941 24.4023 19.6531 24.4023 20.466H23.4023C23.4023 20.2054 23.1911 19.9941 22.9305 19.9941V18.9941ZM19.0432 18.9941H22.9305V19.9941H19.0432V18.9941ZM17.5714 20.466C17.5714 19.6531 18.2303 18.9941 19.0432 18.9941V19.9941C18.7826 19.9941 18.5714 20.2054 18.5714 20.466H17.5714ZM19.0432 21.9378C18.2303 21.9378 17.5714 21.2788 17.5714 20.466H18.5714C18.5714 20.7266 18.7826 20.9378 19.0432 20.9378V21.9378ZM22.9305 21.9378H19.0432V20.9378H22.9305V21.9378ZM50.1418 20.9378H54.0291V21.9378H50.1418V20.9378ZM49.67 20.466C49.67 20.7266 49.8813 20.9378 50.1418 20.9378V21.9378C49.329 21.9378 48.67 21.2788 48.67 20.466H49.67ZM50.1418 19.9941C49.8813 19.9941 49.67 20.2054 49.67 20.466H48.67C48.67 19.6531 49.329 18.9941 50.1418 18.9941V19.9941ZM54.0291 19.9941H50.1418V18.9941H54.0291V19.9941ZM54.501 20.466C54.501 20.2054 54.2897 19.9941 54.0291 19.9941V18.9941C54.842 18.9941 55.501 19.6531 55.501 20.466H54.501ZM54.0291 20.9378C54.2897 20.9378 54.501 20.7266 54.501 20.466H55.501C55.501 21.2788 54.842 21.9378 54.0291 21.9378V20.9378ZM47.1915 11.8926C46.614 12.4504 45.696 12.4424 45.1282 11.8747L45.8353 11.1676C46.0173 11.3496 46.3116 11.3521 46.4968 11.1733L47.1915 11.8926ZM49.947 9.13724L47.1977 11.8865L46.4906 11.1794L49.2399 8.43013L49.947 9.13724ZM49.9351 7.06781C50.5029 7.63554 50.5108 8.55353 49.9531 9.13104L49.2338 8.43633C49.4126 8.25119 49.41 7.95691 49.228 7.77491L49.9351 7.06781ZM47.8719 7.04988C48.4494 6.4921 49.3674 6.50007 49.9351 7.06781L49.228 7.77491C49.046 7.59291 48.7517 7.59036 48.5666 7.76917L47.8719 7.04988ZM45.1164 9.80527L47.8657 7.05597L48.5728 7.76308L45.8235 10.5124L45.1164 9.80527ZM45.1282 11.8747C44.5605 11.307 44.5525 10.389 45.1103 9.81146L45.8296 10.5062C45.6508 10.6913 45.6533 10.9856 45.8353 11.1676L45.1282 11.8747ZM23.7321 33.0167C23.8051 33.193 23.9771 33.3079 24.1679 33.308L24.1677 34.308C23.5725 34.3078 23.0359 33.9492 22.8082 33.3993L23.7321 33.0167ZM23.8343 32.5026C23.6994 32.6375 23.6591 32.8404 23.7321 33.0167L22.8082 33.3993C22.5804 32.8494 22.7063 32.2165 23.1271 31.7956L23.8343 32.5026ZM26.5835 29.7533L23.8342 32.5026L23.1271 31.7955L25.8764 29.0462L26.5835 29.7533ZM27.2388 29.7651C27.0568 29.5831 26.7625 29.5806 26.5773 29.7594L25.8826 29.0401C26.4601 28.4823 27.3781 28.4903 27.9459 29.058L27.2388 29.7651ZM27.2445 30.4266C27.4233 30.2414 27.4208 29.9471 27.2388 29.7651L27.9459 29.058C28.5136 29.6258 28.5216 30.5438 27.9638 31.1213L27.2445 30.4266ZM24.5013 33.1697L27.2506 30.4204L27.9577 31.1275L25.2084 33.8768L24.5013 33.1697ZM24.1677 33.308C24.2928 33.3079 24.4128 33.2582 24.5012 33.1697L25.2085 33.8767C24.9325 34.1528 24.5582 34.3079 24.1679 34.308L24.1677 33.308ZM26.9159 12.3182C26.5256 12.3181 26.1513 12.163 25.8754 11.887L26.5826 11.18C26.671 11.2684 26.791 11.3182 26.9162 11.3182L26.9159 12.3182ZM28.2752 11.4105C28.0472 11.9599 27.511 12.3181 26.9162 12.3182L26.9159 11.3182C27.1066 11.3182 27.2785 11.2033 27.3516 11.0272L28.2752 11.4105ZM27.9582 9.80726C28.3782 10.2285 28.5033 10.8611 28.2753 11.4105L27.3516 11.0272C27.4247 10.8511 27.3846 10.6483 27.25 10.5133L27.9582 9.80726ZM25.2074 7.05644L27.9577 9.80671L27.2505 10.5138L24.5003 7.76355L25.2074 7.05644ZM23.7821 6.66127C24.2967 6.52658 24.8439 6.68003 25.2135 7.06264L24.4942 7.75735C24.3757 7.63469 24.2003 7.5855 24.0353 7.62868L23.7821 6.66127ZM22.7309 7.71244C22.8656 7.19784 23.2675 6.79597 23.7821 6.66127L24.0353 7.62868C23.8704 7.67186 23.7415 7.80069 23.6983 7.96566L22.7309 7.71244ZM23.1323 9.1438C22.7497 8.77426 22.5962 8.22703 22.7309 7.71244L23.6983 7.96566C23.6552 8.13062 23.7044 8.30605 23.827 8.42451L23.1323 9.1438ZM25.8754 11.887L23.1261 9.13771L23.8332 8.4306L26.5825 11.1799L25.8754 11.887ZM45.8221 30.4204L48.5714 33.1697L47.8642 33.8768L45.1149 31.1275L45.8221 30.4204ZM45.8339 29.7651C45.6519 29.9471 45.6493 30.2414 45.8281 30.4266L45.1089 31.1213C44.5511 30.5438 44.5591 29.6258 45.1268 29.058L45.8339 29.7651ZM46.4953 29.7594C46.3102 29.5806 46.0159 29.5831 45.8339 29.7651L45.1268 29.058C45.6945 28.4903 46.6125 28.4823 47.19 29.0401L46.4953 29.7594ZM49.2384 32.5026L46.4891 29.7533L47.1962 29.0462L49.9455 31.7955L49.2384 32.5026ZM49.3733 32.9676C49.4165 32.8026 49.3673 32.6272 49.2446 32.5087L49.9393 31.7894C50.3219 32.1589 50.4754 32.7062 50.3407 33.2208L49.3733 32.9676ZM49.0363 33.3045C49.2013 33.2613 49.3301 33.1325 49.3733 32.9676L50.3407 33.2208C50.206 33.7354 49.8041 34.1372 49.2895 34.2719L49.0363 33.3045ZM48.5774 33.1759C48.6959 33.2985 48.8713 33.3477 49.0363 33.3045L49.2895 34.2719C48.7749 34.4066 48.2277 34.2532 47.8582 33.8706L48.5774 33.1759ZM11.8413 28.2597C12.024 33.5356 14.6285 38.4328 18.9009 41.5337L18.3135 42.343C13.7918 39.0611 11.0353 33.8782 10.8419 28.2943L11.8413 28.2597ZM12.8434 21.8686C12.1041 23.9152 11.7639 26.0846 11.8412 28.2592L10.8419 28.2948C10.76 25.9924 11.1202 23.6957 11.9029 21.5288L12.8434 21.8686ZM12.3631 19.9498C12.8995 20.432 13.0895 21.1916 12.843 21.8695L11.9032 21.5279C12.0103 21.2332 11.9278 20.9031 11.6946 20.6935L12.3631 19.9498ZM10.4351 19.6759C11.0742 19.3641 11.8388 19.4734 12.3651 19.9516L11.6926 20.6917C11.4692 20.4887 11.1447 20.4423 10.8735 20.5747L10.4351 19.6759ZM-0.0779753 41.1297C-1.92205 32.4115 2.41623 23.5592 10.4364 19.6752L10.8722 20.5753C3.26589 24.2589 -0.848546 32.6543 0.900378 40.9227L-0.0779753 41.1297ZM18.2232 56.4891C9.31725 56.1853 1.76609 49.8479 -0.0779753 41.1297L0.900378 40.9227C2.6493 49.1911 9.81085 55.2015 18.2573 55.4896L18.2232 56.4891ZM18.8803 56.5001C18.6617 56.5001 18.4423 56.4962 18.224 56.4891L18.2564 55.4896C18.4649 55.4964 18.6735 55.5001 18.8803 55.5001V56.5001ZM35.7469 46.6769C32.311 52.7571 25.8633 56.5121 18.8794 56.5001L18.8812 55.5001C25.5039 55.5114 31.618 51.9507 34.8763 46.1849L35.7469 46.6769ZM35.5964 44.7348C36.0394 45.2912 36.0986 46.0615 35.7457 46.679L34.8775 46.1829C35.0272 45.9208 35.0021 45.5939 34.8141 45.3577L35.5964 44.7348ZM33.707 44.1322C34.4018 43.9285 35.1506 44.1681 35.5982 44.7372L34.8122 45.3554C34.6172 45.1075 34.291 45.0031 33.9883 45.0918L33.707 44.1322ZM18.9009 41.5337C23.1732 44.6346 28.6365 45.593 33.7092 44.1315L33.9861 45.0925C28.6173 46.6392 22.8352 45.6249 18.3135 42.343L18.9009 41.5337ZM1.78871 38.1042C2.34452 46.9188 9.47738 53.8847 18.3027 54.2316L18.2634 55.2308C8.92574 54.8638 1.37877 47.4935 0.790694 38.1671L1.78871 38.1042ZM11.4231 21.7084C5.18807 24.7199 1.38437 31.1941 1.78885 38.1065L0.790557 38.1649C0.36243 30.8483 4.38855 23.9956 10.9882 20.8079L11.4231 21.7084ZM9.58374 28.3355C9.4968 25.8675 9.88808 23.4059 10.736 21.0865L11.6752 21.4298C10.8716 23.6281 10.5007 25.9612 10.5831 28.3003L9.58374 28.3355ZM17.5739 43.361C12.7379 39.8508 9.79002 34.3073 9.58373 28.3352L10.5831 28.3007C10.7788 33.9648 13.5746 39.2225 18.1613 42.5517L17.5739 43.361ZM34.336 46.3015C28.594 47.956 22.4099 46.8712 17.5739 43.361L18.1613 42.5517C22.7479 45.8809 28.6132 46.9098 34.0591 45.3406L34.336 46.3015ZM18.3013 54.2316C24.668 54.464 30.6324 51.1247 33.7621 45.5754L34.6331 46.0667C31.3197 51.9417 25.0052 55.477 18.2648 55.2309L18.3013 54.2316Z" fill="#D2D2D2"/>
</g>
<defs>
<clipPath id="clip0_1849_1654">
<rect width="60" height="61" fill="white"/>
</clipPath>
</defs>
</svg>
