<svg width="48" height="48" viewBox="0 0 48 48" fill="none" xmlns="http://www.w3.org/2000/svg">
<rect width="48" height="48" fill="white"/>
<path d="M31.2196 16H17.7796C16.8556 16 16.0996 16.756 16.0996 17.68V31.12C16.0996 32.044 16.8556 32.8 17.7796 32.8H31.2196C32.1436 32.8 32.8996 32.044 32.8996 31.12V17.68C32.8996 16.756 32.1436 16 31.2196 16ZM24.4996 21.04C26.3476 21.04 27.8596 22.552 27.8596 24.4C27.8596 26.248 26.3476 27.76 24.4996 27.76C22.6516 27.76 21.1396 26.248 21.1396 24.4C21.1396 22.552 22.6516 21.04 24.4996 21.04ZM18.1996 31.12C17.9476 31.12 17.7796 30.952 17.7796 30.7V23.56H19.5436C19.4596 23.812 19.4596 24.148 19.4596 24.4C19.4596 27.172 21.7276 29.44 24.4996 29.44C27.2716 29.44 29.5396 27.172 29.5396 24.4C29.5396 24.148 29.5396 23.812 29.4556 23.56H31.2196V30.7C31.2196 30.952 31.0516 31.12 30.7996 31.12H18.1996ZM31.2196 19.78C31.2196 20.032 31.0516 20.2 30.7996 20.2H29.1196C28.8676 20.2 28.6996 20.032 28.6996 19.78V18.1C28.6996 17.848 28.8676 17.68 29.1196 17.68H30.7996C31.0516 17.68 31.2196 17.848 31.2196 18.1V19.78Z" fill="#333333"/>
</svg>
