<svg width="17" height="16" viewBox="0 0 17 16" fill="none" xmlns="http://www.w3.org/2000/svg">
<path d="M1.67572 6.70312C0.75207 6.70312 0 7.4552 0 8.37885V13.7412C0 14.6649 0.75207 15.4169 1.67572 15.4169H3.68661C4.06399 15.4169 4.41118 15.2896 4.69205 15.0778V6.70312H1.67572Z" fill="white"/>
<path d="M16.087 9.21653C16.087 8.81369 15.9275 8.43832 15.6506 8.16148C15.9637 7.81897 16.1232 7.35979 16.0796 6.8819C16.0012 6.02994 15.2337 5.36233 14.3315 5.36233H10.1911C10.3962 4.73962 10.7246 3.59813 10.7246 2.68116C10.7246 1.2273 9.48929 0 8.71375 0C8.01733 0 7.51995 0.392122 7.49852 0.408209C7.41944 0.471897 7.37319 0.56842 7.37319 0.670283V2.94324L5.44274 7.12521L5.3623 7.16609V14.3503C5.90791 14.6077 6.59831 14.7465 7.03803 14.7465H13.1907C13.9206 14.7465 14.5594 14.2544 14.7095 13.5755C14.7866 13.2262 14.7417 12.8743 14.5882 12.5687C15.0836 12.3193 15.4167 11.8092 15.4167 11.2274C15.4167 10.9901 15.3624 10.7629 15.2592 10.5571C15.7545 10.3078 16.087 9.79767 16.087 9.21653Z" fill="white"/>
</svg>
