<svg width="48" height="48" viewBox="0 0 48 48" fill="none" xmlns="http://www.w3.org/2000/svg">
<rect width="48" height="48" fill="white"/>
<g clip-path="url(#clip0_1890_4145)">
<path d="M14.0391 21.7631V32.1275L20.7018 26.9453L14.0391 21.7631ZM31.4219 19.0668V22.2534L33.3896 20.7229L31.4219 19.0668ZM24.3773 13.1376C24.2717 13.0487 24.1381 13 24 13C23.8619 13 23.7283 13.0487 23.6227 13.1376L22.069 14.4453H25.931L24.3773 13.1376ZM16.5781 19.0668L14.6104 20.7229L16.5781 22.2534V19.0668ZM21.8573 27.5312L14.826 33H33.174L26.1427 27.5312H21.8573ZM27.2981 26.9453L33.9609 32.1275V21.7631L27.2981 26.9453ZM23.8523 20.0064C23.377 20.0064 22.8854 20.4685 22.8854 21.2418C22.8854 22.028 23.365 22.5561 23.8129 22.5561C24.2845 22.5561 24.6712 22.0043 24.6991 21.3104L24.6998 21.1631C24.6788 20.4786 24.3362 20.0064 23.8523 20.0064Z" fill="#333333"/>
<path d="M26.1427 26.3594L30.25 23.1648V16.2031C30.25 15.8795 29.9877 15.6172 29.6641 15.6172H18.3359C18.0123 15.6172 17.75 15.8795 17.75 16.2031V23.1648L21.8573 26.3594H26.1427ZM19.8695 22.3714C19.5896 21.3075 19.7304 20.186 20.2657 19.2134C20.8008 18.2411 21.6729 17.5219 22.7212 17.1882C23.8271 16.836 25.0015 16.9398 26.0277 17.4803C27.0541 18.0208 27.8039 18.93 28.139 20.0405C28.1409 20.0465 28.1426 20.0526 28.1442 20.0587C28.3669 20.893 28.301 21.6807 27.9304 22.6125C27.6798 23.2424 27.0657 23.9154 26.0932 23.9154C25.7404 23.9154 25.4021 23.7707 25.1406 23.508C25.079 23.4458 25.0229 23.3783 24.973 23.3063C24.6446 23.5734 24.2464 23.7279 23.8129 23.7279C23.2466 23.7279 22.6959 23.453 22.3022 22.9736C21.9226 22.5114 21.7136 21.8964 21.7136 21.2418C21.7136 20.5842 21.936 19.9757 22.3399 19.5285C22.7382 19.0875 23.2895 18.8345 23.8523 18.8345C24.1619 18.8345 24.4561 18.9083 24.7204 19.0473C24.7717 18.7757 25.0098 18.5705 25.2957 18.5705H25.2986C25.6222 18.5721 25.8833 18.8357 25.8817 19.1593L25.8655 22.4146C25.865 22.5146 25.9046 22.6143 25.9713 22.6813C25.9944 22.7045 26.0409 22.7435 26.0932 22.7435C26.566 22.7435 26.774 22.349 26.8414 22.1794C27.1151 21.4913 27.167 20.9494 27.0143 20.3699C26.7693 19.5665 26.2253 18.9088 25.4816 18.5171C24.7354 18.1241 23.8812 18.0487 23.0766 18.3048C21.4907 18.8096 20.5798 20.4649 21.0028 22.0733C21.3541 23.4089 22.5614 24.3683 23.9388 24.4064C24.2622 24.4154 24.5172 24.6849 24.5082 25.0084C24.4995 25.3263 24.2389 25.5781 23.9229 25.5781C23.9173 25.5781 23.9119 25.578 23.9063 25.5779C22.9983 25.5527 22.102 25.2302 21.3824 24.6696C20.6348 24.0872 20.1117 23.2925 19.8695 22.3714Z" fill="#333333"/>
</g>
<defs>
<clipPath id="clip0_1890_4145">
<rect width="20" height="20" fill="white" transform="translate(14 13)"/>
</clipPath>
</defs>
</svg>
