<svg width="20" height="20" viewBox="0 0 20 20" fill="none" xmlns="http://www.w3.org/2000/svg">
<path fill-rule="evenodd" clip-rule="evenodd" d="M0.0390625 19.1275V8.76313L6.70184 13.9453L0.0390625 19.1275ZM17.4219 9.25336V6.0668L19.3896 7.72293L17.4219 9.25336ZM10 5.66199e-06C10.1381 5.66199e-06 10.2717 0.0487396 10.3773 0.137617L11.931 1.44531H8.06898L9.6227 0.137617C9.72833 0.0487396 9.86195 5.66199e-06 10 5.66199e-06ZM0.61043 7.72293L2.57812 6.0668V9.25336L0.61043 7.72293ZM0.826016 20L7.85727 14.5312H12.1427L19.174 20H0.826016ZM19.9609 19.1275L13.2981 13.9453L19.9609 8.76309V19.1275ZM8.88543 8.2418C8.88543 7.46852 9.37703 7.00641 9.8523 7.00641C10.3362 7.00641 10.6788 7.47859 10.6998 8.16313L10.6991 8.31043C10.6712 9.00426 10.2845 9.55609 9.81285 9.55609C9.36496 9.55609 8.88543 9.02797 8.88543 8.2418ZM16.25 10.1648L12.1427 13.3594H7.85727L3.75 10.1648V3.20313C3.75 2.87953 4.01234 2.61719 4.33594 2.61719H15.6641C15.9877 2.61719 16.25 2.87953 16.25 3.20313V10.1648ZM6.2657 6.21336C5.73035 7.18598 5.58965 8.30754 5.86945 9.37141C6.11172 10.2925 6.63484 11.0872 7.38242 11.6696C8.10199 12.2302 8.99832 12.5527 9.90633 12.5779L9.92285 12.5781C10.2389 12.5781 10.4995 12.3263 10.5082 12.0084C10.5172 11.6849 10.2622 11.4154 9.93875 11.4064C8.56137 11.3683 7.35406 10.4089 7.00281 9.07328C6.5798 7.46492 7.49074 5.80961 9.07664 5.30477C9.88117 5.04871 10.7354 5.12406 11.4816 5.51711C12.2253 5.90875 12.7693 6.56652 13.0143 7.36988C13.167 7.94941 13.1151 8.49125 12.8414 9.17941C12.774 9.34898 12.566 9.74348 12.0932 9.74348C12.0409 9.74348 11.9944 9.70453 11.9713 9.68129C11.9046 9.61426 11.865 9.51457 11.8655 9.41461L11.8817 6.15934C11.8833 5.83574 11.6222 5.57211 11.2986 5.57051H11.2957C11.0098 5.57051 10.7717 5.7757 10.7204 6.04731C10.4561 5.90828 10.1619 5.83449 9.85234 5.83449C9.28949 5.83449 8.7382 6.08746 8.33992 6.52848C7.93602 6.9757 7.71359 7.58418 7.71359 8.24176C7.71359 8.89641 7.92262 9.51145 8.30223 9.97363C8.69594 10.453 9.24656 10.7279 9.81289 10.7279C10.2464 10.7279 10.6446 10.5734 10.973 10.3063C11.0229 10.3783 11.079 10.4458 11.1406 10.508C11.4021 10.7707 11.7404 10.9154 12.0932 10.9154C13.0657 10.9154 13.6798 10.2424 13.9304 9.61254C14.301 8.6807 14.3669 7.89305 14.1442 7.05867C14.1426 7.05258 14.1409 7.04648 14.139 7.04047C13.8039 5.93004 13.0541 5.02082 12.0277 4.48027C11.0015 3.93977 9.82715 3.83602 8.72117 4.18816C7.67285 4.52188 6.80082 5.24109 6.2657 6.21336Z" fill="#333333"/>
</svg>
