<svg width="16" height="16" viewBox="0 0 16 16" fill="none" xmlns="http://www.w3.org/2000/svg">
<path d="M8 1C5.24333 1 3 3.37174 3 6.28771C3 10.431 7.53 14.709 7.72278 14.8886C7.79898 14.9602 7.89763 14.9999 7.99989 15C8.10216 15.0001 8.20089 14.9607 8.27722 14.8892C8.47 14.709 13 10.431 13 6.28771C13 3.37174 10.7567 1 8 1ZM8 9.16635C6.46833 9.16635 5.22222 7.85798 5.22222 6.2498C5.22222 4.64161 6.46833 3.33324 8 3.33324C9.53167 3.33324 10.7778 4.64161 10.7778 6.2498C10.7778 7.85798 9.53167 9.16635 8 9.16635Z" fill="#7A7A7A"/>
</svg>
