<svg width="60" height="61" viewBox="0 0 60 61" fill="none" xmlns="http://www.w3.org/2000/svg">
<path d="M51.4617 41.9787H51.4615L51.4619 41.9843C51.4696 42.1202 51.4744 42.2563 51.4746 42.3934C51.4745 46.3238 48.2768 49.5214 44.3464 49.5214C40.416 49.5214 37.2183 46.3237 37.2183 42.3933C37.2183 38.4629 40.416 35.2651 44.3464 35.2651C46.1771 35.2651 47.8482 35.9593 49.112 37.0978L49.2789 37.2482V37.0235V19.0634V18.9419L49.1597 18.9652L23.4565 23.9978L23.3757 24.0136V24.0959V47.1617H23.348L23.3509 47.2646C23.3515 47.2855 23.3522 47.3059 23.3529 47.326C23.3546 47.3771 23.3563 47.4264 23.3563 47.4768C23.3563 51.4072 20.1586 54.605 16.2281 54.605C12.2977 54.605 9.1 51.4072 9.1 47.4768C9.1 43.5464 12.2977 40.3487 16.2281 40.3487C18.074 40.3487 19.7578 41.054 21.0254 42.2094L21.1928 42.3619V42.1354V13.0482L51.4617 7.12148V41.9787ZM23.3757 21.6676V21.7891L23.4949 21.7657L49.1982 16.733L49.2789 16.7172V16.6349V9.89475V9.77327L49.1597 9.79662L23.4565 14.8292L23.3757 14.845V14.9273V21.6676ZM49.2788 42.0603H49.279L49.2786 42.0535C49.1031 39.4848 46.9588 37.448 44.3463 37.448C41.6195 37.448 39.401 39.6665 39.401 42.3933C39.401 45.1201 41.6195 47.3385 44.3463 47.3385C46.959 47.3385 49.1033 45.3018 49.2786 42.7331L49.2788 42.7331V42.7263V42.0603ZM11.2827 47.4768C11.2827 50.2036 13.5012 52.4221 16.228 52.4221C18.9549 52.4221 21.1732 50.2036 21.1732 47.4768C21.1732 44.75 18.9548 42.5316 16.228 42.5316C13.5012 42.5316 11.2827 44.75 11.2827 47.4768Z" fill="#D2D2D2" stroke="white" stroke-width="0.2"/>
</svg>
