<svg width="43" height="48" viewBox="0 0 43 48" fill="none" xmlns="http://www.w3.org/2000/svg">
<path d="M42.4617 35.2736H42.4615L42.4619 35.2792C42.4696 35.4151 42.4744 35.5513 42.4746 35.6883C42.4745 39.6187 39.2768 42.8163 35.3464 42.8163C31.416 42.8163 28.2183 39.6186 28.2183 35.6882C28.2183 31.7578 31.416 28.5601 35.3464 28.5601C37.1771 28.5601 38.8482 29.2543 40.112 30.3927L40.2789 30.5431V30.3184V12.3583V12.2368L40.1597 12.2602L14.4565 17.2927L14.3757 17.3085V17.3908V40.4566H14.348L14.3509 40.5595C14.3515 40.5804 14.3522 40.6008 14.3529 40.6209C14.3546 40.6721 14.3563 40.7213 14.3563 40.7717C14.3563 44.7021 11.1586 47.8999 7.22814 47.8999C3.29773 47.8999 0.1 44.7021 0.1 40.7717C0.1 36.8413 3.29773 33.6436 7.22814 33.6436C9.07402 33.6436 10.7578 34.3489 12.0254 35.5043L12.1928 35.6568V35.4304V6.34308L42.4617 0.4164V35.2736ZM14.3757 14.9625V15.084L14.4949 15.0606L40.1982 10.0279L40.2789 10.0121V9.9298V3.18967V3.0682L40.1597 3.09154L14.4565 8.12407L14.3757 8.13989V8.22221V14.9625ZM40.2788 35.3552H40.279L40.2786 35.3484C40.1031 32.7797 37.9588 30.743 35.3463 30.743C32.6195 30.743 30.401 32.9614 30.401 35.6882C30.401 38.415 32.6195 40.6334 35.3463 40.6334C37.959 40.6334 40.1033 38.5967 40.2786 36.028L40.2788 36.028V36.0212V35.3552ZM2.28275 40.7717C2.28275 43.4985 4.5012 45.717 7.22799 45.717C9.95493 45.717 12.1732 43.4985 12.1732 40.7717C12.1732 38.0449 9.95477 35.8265 7.22799 35.8265C4.5012 35.8265 2.28275 38.0449 2.28275 40.7717Z" fill="#D2D2D2" stroke="white" stroke-width="0.2"/>
</svg>
