<svg width="72" height="72" viewBox="0 0 72 72" xmlns="http://www.w3.org/2000/svg">
<path d="M35.209 63.219C35.2994 63.3407 35.4166 63.4399 35.5515 63.5089C35.6864 63.578 35.8354 63.6151 35.9869 63.6173H35.9999C36.1491 63.6173 36.2965 63.5833 36.4307 63.5179C36.5648 63.4525 36.6824 63.3574 36.7744 63.2398C37.5889 62.2009 56.715 37.6185 56.715 22.0497C56.715 16.5557 54.5326 11.2867 50.6477 7.40181C46.7629 3.51696 41.4939 1.33447 35.9999 1.33447C30.5058 1.33447 25.2369 3.51696 21.352 7.40181C17.4672 11.2867 15.2847 16.5557 15.2847 22.0497C15.2847 28.0122 18.649 36.7675 25.2854 48.0709C30.1881 56.4218 35.1595 63.1521 35.209 63.219ZM35.9999 3.30322C40.9701 3.30873 45.7352 5.28564 49.2497 8.80021C52.7642 12.3148 54.7409 17.08 54.7463 22.0502C54.7463 35.1953 39.6848 56.0922 36.0201 60.9809C32.3999 55.9032 17.2534 33.9685 17.2534 22.0502C17.2588 17.08 19.2355 12.3148 22.75 8.80021C26.2645 5.28564 31.0296 3.30873 35.9999 3.30322Z" />
<path d="M47.9079 22.0503C47.908 19.6951 47.2097 17.3927 45.9013 15.4343C44.5929 13.476 42.7331 11.9496 40.5572 11.0482C38.3813 10.1468 35.987 9.91094 33.677 10.3703C31.367 10.8298 29.2451 11.9639 27.5797 13.6292C25.9142 15.2946 24.78 17.4164 24.3205 19.7264C23.861 22.0363 24.0968 24.4307 24.9981 26.6066C25.8993 28.7826 27.4256 30.6424 29.3839 31.9509C31.3422 33.2594 33.6446 33.9579 35.9998 33.9579C39.1569 33.9544 42.1837 32.6988 44.4161 30.4665C46.6486 28.2341 47.9043 25.2074 47.9079 22.0503ZM35.9998 31.9891C34.0339 31.9891 32.1122 31.4062 30.4777 30.314C28.8432 29.2218 27.5692 27.6695 26.8169 25.8532C26.0647 24.037 25.8679 22.0385 26.2514 20.1104C26.635 18.1824 27.5817 16.4114 28.9718 15.0213C30.3619 13.6313 32.133 12.6847 34.0611 12.3013C35.9891 11.9178 37.9876 12.1147 39.8038 12.8671C41.62 13.6195 43.1723 14.8935 44.2643 16.5281C45.3564 18.1627 45.9393 20.0844 45.9392 22.0503C45.936 24.6854 44.8878 27.2116 43.0245 29.0748C41.1612 30.9381 38.6349 31.9861 35.9998 31.9891ZM46.037 56.9062C45.7811 56.8809 45.5255 56.9568 45.3247 57.1176C45.124 57.2783 44.9941 57.5112 44.9628 57.7665C44.9315 58.0218 45.0013 58.2792 45.1573 58.4836C45.3132 58.6881 45.543 58.8235 45.7974 58.8609C54.2726 59.9009 57.0148 61.8629 57.0148 62.6499C57.0148 64.1275 49.5977 67.0036 35.9998 67.0036C22.4019 67.0036 14.9848 64.1253 14.9848 62.6499C14.9848 61.8061 17.6741 60.0798 24.8921 59.0358C25.1454 58.9927 25.3718 58.8524 25.5231 58.6447C25.6743 58.437 25.7385 58.1784 25.7018 57.9241C25.6651 57.6698 25.5305 57.44 25.3267 57.2835C25.1229 57.1271 24.866 57.0565 24.6109 57.0867C19.3234 57.8523 13.0166 59.438 13.0166 62.6499C13.0166 67.2888 26.7613 68.9724 36.0004 68.9724C45.2394 68.9724 58.9841 67.2888 58.9841 62.6499C58.9835 59.0352 50.8723 57.5002 46.037 56.9062Z" />
</svg>
