<svg width="60" height="61" viewBox="0 0 60 61" fill="none" xmlns="http://www.w3.org/2000/svg">
<path fill-rule="evenodd" clip-rule="evenodd" d="M9 24.8517C9 13.354 18.354 4 29.8517 4C41.3493 4 50.7033 13.354 50.7033 24.8515C50.7033 28.6171 49.7317 32.6142 47.8155 36.7323C46.3025 39.9839 44.1985 43.3214 41.5618 46.6523C37.0919 52.2991 32.685 55.9371 32.4996 56.0893C31.7836 56.6765 30.8433 57 29.8517 57C28.86 57 27.9197 56.6765 27.2038 56.0894C27.0183 55.9374 22.6114 52.2992 18.1415 46.6524C15.5049 43.3214 13.4008 39.9839 11.8878 36.7324C9.97163 32.6144 9 28.6171 9 24.8517ZM30.9786 54.2351C31.022 54.1995 35.4004 50.5809 39.7117 45.1256C43.6319 40.1651 48.3051 32.6211 48.3051 24.8517C48.3051 14.6764 40.0269 6.39819 29.8517 6.39819C19.6764 6.39819 11.3982 14.6764 11.3983 24.8517C11.3983 39.8473 28.5516 54.093 28.7249 54.2351C29.0088 54.4681 29.4195 54.6018 29.8517 54.6018C30.2838 54.6018 30.6945 54.4681 30.9786 54.2351ZM18.7654 24.8519C18.7654 18.7388 23.7388 13.7654 29.8518 13.7654C35.9648 13.7654 40.9381 18.7388 40.9381 24.8519C40.9381 30.9649 35.9648 35.9382 29.8518 35.9382C23.7388 35.9382 18.7654 30.9649 18.7654 24.8519ZM21.1636 24.8519C21.1636 29.6426 25.061 33.54 29.8518 33.54C34.6425 33.54 38.5399 29.6426 38.5399 24.8519C38.5399 20.0611 34.6425 16.1636 29.8518 16.1636C25.061 16.1636 21.1636 20.0611 21.1636 24.8519Z" fill="#D2D2D2"/>
</svg>
