<svg width="117" height="96" viewBox="0 0 117 96" fill="none" xmlns="http://www.w3.org/2000/svg">
<path d="M88.3161 -2.50762e-06C93.8516 -2.0237e-06 98.3807 1.14286 101.903 3.42857C105.426 5.71429 108.319 8.63492 110.584 12.1905C113.1 16.5079 114.861 20.9524 115.868 25.5238C116.623 30.3492 117 34.2857 117 37.3333C117 49.7778 113.855 61.0794 107.565 71.2381C101.274 81.3968 91.4613 89.6508 78.1258 96L74.729 89.1429C82.529 85.8413 89.3226 80.6349 95.1097 73.5238C100.645 66.4127 103.413 59.1746 103.413 51.8095C103.413 48.7619 103.035 46.0952 102.281 43.8095C98.2548 47.1111 93.6 48.7619 88.3161 48.7619C81.7742 48.7619 76.1129 46.6032 71.3323 42.2857C66.5516 37.9682 64.1613 32 64.1613 24.381C64.1613 17.2698 66.5516 11.4286 71.3323 6.85714C76.1129 2.28572 81.7742 -3.07954e-06 88.3161 -2.50762e-06ZM24.1549 -8.11678e-06C29.6903 -7.63285e-06 34.2194 1.14285 37.742 3.42857C41.2645 5.71428 44.1581 8.63491 46.4226 12.1905C48.9387 16.5079 50.7 20.9524 51.7065 25.5238C52.4613 30.3492 52.8387 34.2857 52.8387 37.3333C52.8387 49.7778 49.6936 61.0794 43.4032 71.2381C37.1129 81.3968 27.3 89.6508 13.9645 96L10.5677 89.1428C18.3677 85.8413 25.1613 80.6349 30.9484 73.5238C36.4839 66.4127 39.2516 59.1746 39.2516 51.8095C39.2516 48.7619 38.8742 46.0952 38.1194 43.8095C34.0936 47.1111 29.4387 48.7619 24.1549 48.7619C17.6129 48.7619 11.9516 46.6032 7.17099 42.2857C2.39035 37.9682 5.59506e-06 32 6.26114e-06 24.3809C6.88281e-06 17.2698 2.39035 11.4286 7.171 6.85714C11.9516 2.28571 17.6129 -8.6887e-06 24.1549 -8.11678e-06Z" fill="#333333" fill-opacity="0.06"/>
</svg>
