<svg width="19" height="19" viewBox="0 0 19 19" fill="none" xmlns="http://www.w3.org/2000/svg">
<path d="M17.6909 16.7314L14.9284 13.9689C16.2766 12.3732 16.956 10.3183 16.8247 8.23349C16.6933 6.14867 15.7614 4.19524 14.2237 2.78135C12.6859 1.36747 10.6613 0.602512 8.5728 0.646314C6.4843 0.690116 4.49352 1.53929 3.0164 3.0164C1.53929 4.49352 0.690116 6.4843 0.646314 8.5728C0.602512 10.6613 1.36747 12.6859 2.78135 14.2237C4.19524 15.7614 6.14867 16.6933 8.23349 16.8247C10.3183 16.956 12.3732 16.2766 13.9689 14.9284L16.7314 17.6909C16.8594 17.8145 17.0308 17.8829 17.2087 17.8813C17.3866 17.8798 17.5568 17.8084 17.6826 17.6826C17.8084 17.5568 17.8798 17.3866 17.8813 17.2087C17.8829 17.0308 17.8145 16.8594 17.6909 16.7314ZM8.75953 15.4835C7.42966 15.4835 6.12965 15.0891 5.0239 14.3503C3.91815 13.6115 3.05632 12.5613 2.5474 11.3327C2.03848 10.104 1.90532 8.75207 2.16477 7.44775C2.42421 6.14343 3.06461 4.94533 4.00497 4.00497C4.94533 3.06461 6.14343 2.42421 7.44775 2.16477C8.75207 1.90532 10.104 2.03848 11.3327 2.5474C12.5613 3.05632 13.6115 3.91815 14.3503 5.0239C15.0891 6.12965 15.4835 7.42966 15.4835 8.75953C15.4815 10.5422 14.7725 12.2514 13.5119 13.5119C12.2514 14.7725 10.5422 15.4815 8.75953 15.4835Z" fill="black"/>
</svg>
