<svg width="72" height="72" viewBox="0 0 72 72"  xmlns="http://www.w3.org/2000/svg">
<path fill-rule="evenodd" clip-rule="evenodd" d="M46.5548 7.01682C46.5548 7.71945 47.1243 8.28904 47.827 8.28904C48.5296 8.28904 49.0992 7.71945 49.0992 7.01682V1.92797C49.0992 1.22535 48.5296 0.655762 47.827 0.655762C47.1243 0.655762 46.5548 1.22535 46.5548 1.92797V7.01682ZM33.8333 24.8282C33.8333 32.557 40.0987 38.8225 47.8276 38.8225C55.5527 38.8134 61.8128 32.5533 61.8219 24.8282C61.8219 17.0993 55.5564 10.8338 47.8276 10.8338C40.0987 10.8338 33.8333 17.0993 33.8333 24.8282ZM36.3777 24.8282C36.3777 18.5046 41.504 13.3783 47.8276 13.3783C54.148 13.386 59.2698 18.5078 59.2775 24.8282C59.2775 31.1518 54.1512 36.2781 47.8276 36.2781C41.504 36.2781 36.3777 31.1518 36.3777 24.8282ZM46.5548 47.7278V42.639C46.5548 41.9364 47.1243 41.3668 47.827 41.3668C48.5296 41.3668 49.0992 41.9364 49.0992 42.639V47.7278C49.0992 48.4305 48.5296 49 47.827 49C47.1243 49 46.5548 48.4305 46.5548 47.7278ZM30.0168 26.0997C30.7194 26.0997 31.289 25.5301 31.289 24.8275C31.289 24.1249 30.7194 23.5553 30.0168 23.5553H24.9279C24.2253 23.5553 23.6557 24.1249 23.6557 24.8275C23.6557 25.5301 24.2253 26.0997 24.9279 26.0997H30.0168ZM70.7278 26.0997H65.6389C64.9363 26.0997 64.3667 25.5301 64.3667 24.8275C64.3667 24.1249 64.9363 23.5553 65.6389 23.5553H70.7278C71.4304 23.5553 72 24.1249 72 24.8275C72 25.5301 71.4304 26.0997 70.7278 26.0997ZM59.5385 13.1179C60.0292 13.6086 60.8227 13.6155 61.3219 13.1334L64.921 9.53432C65.4031 9.03513 65.3962 8.24165 64.9055 7.75091C64.4148 7.26018 63.6213 7.25328 63.1221 7.73541L59.523 11.3345C59.0409 11.8337 59.0478 12.6272 59.5385 13.1179ZM31.6358 42.2928C31.1213 42.2927 30.6576 41.9827 30.4607 41.5074C30.2638 41.0321 30.3726 40.485 30.7364 40.1211L34.3354 36.522C34.8346 36.0399 35.6281 36.0468 36.1189 36.5375C36.6096 37.0283 36.6165 37.8218 36.1344 38.321L32.5353 41.92C32.2967 42.1586 31.9732 42.2927 31.6358 42.2928ZM34.3344 13.1321C34.573 13.3707 34.8965 13.5048 35.2339 13.5049C35.748 13.5048 36.2116 13.1952 36.4087 12.7203C36.6057 12.2454 36.4976 11.6986 36.1346 11.3345L32.5342 7.73411C32.2148 7.40339 31.7418 7.27076 31.297 7.38718C30.8522 7.50361 30.5048 7.85098 30.3884 8.29578C30.272 8.74059 30.4046 9.2136 30.7353 9.53302L34.3344 13.1321ZM63.1208 41.92L59.5217 38.321C59.0396 37.8218 59.0465 37.0283 59.5372 36.5375C60.028 36.0468 60.8215 36.0399 61.3206 36.522L64.9197 40.1211C65.2505 40.4406 65.3831 40.9136 65.2667 41.3584C65.1502 41.8032 64.8029 42.1505 64.3581 42.267C63.9133 42.3834 63.4402 42.2508 63.1208 41.92ZM24.3574 52.9362C18.6013 48.7584 15.0923 42.1605 14.8461 35.0523C14.7419 32.1218 15.2003 29.1986 16.1965 26.4407C16.4279 25.8041 16.2495 25.0907 15.7458 24.6379C15.2551 24.192 14.5423 24.0902 13.9464 24.3809C3.71812 29.3342 -1.81458 40.6236 0.537209 51.7421C2.88899 62.8607 12.5191 70.9429 23.8771 71.3303C24.1564 71.3394 24.4365 71.3443 24.715 71.3443C33.6211 71.3596 41.8434 66.5712 46.2251 58.8174C46.5541 58.2417 46.4989 57.5236 46.0858 57.0048C45.6652 56.47 44.9615 56.2449 44.3086 56.4363C37.4741 58.4053 30.1136 57.114 24.3574 52.9362ZM23.9331 69.6833C12.0446 69.216 2.43598 59.8323 1.68725 47.9582C1.14227 38.6446 6.26726 29.9216 14.6681 25.8639C13.5871 28.821 13.0882 31.9593 13.1991 35.1058C13.4622 42.7223 17.2217 49.7922 23.3892 54.2689C29.5568 58.7456 37.4437 60.1291 44.7667 58.0191C40.5494 65.4968 32.5123 69.9965 23.9331 69.6833Z"/>
</svg>
