<svg width="72" height="72" viewBox="0 0 72 72" xmlns="http://www.w3.org/2000/svg">
<path d="M41.0625 64.2302C39.6501 64.2302 38.3671 63.0793 38.08 62.8036L28.1095 55.7661C28.0769 55.7431 28.0464 55.7173 28.0181 55.689C27.7167 55.3896 27.4777 55.0332 27.315 54.6407C27.1523 54.2482 27.0691 53.8273 27.0703 53.4023C27.0703 52.5383 27.4068 51.7261 28.0178 51.1151C29.2673 49.8655 31.2936 49.854 32.5572 51.0812L36.5988 54.1914C36.6991 53.5052 37.0186 52.8698 37.5096 52.3801C37.5346 52.355 37.5615 52.3318 37.59 52.3108L46.304 45.902C46.6275 45.5974 48.6325 43.8394 51.8205 43.8394C54.7547 43.8394 57.633 44.8608 58.2796 45.105H64.4766C64.865 45.105 65.1797 45.4198 65.1797 45.8082C65.1797 46.1966 64.865 46.5113 64.4766 46.5113H58.1484C58.059 46.5113 57.9704 46.4943 57.8873 46.4611C57.8572 46.449 54.8054 45.2457 51.8203 45.2457C48.9804 45.2457 47.2719 46.9212 47.2549 46.9381C47.2299 46.9632 47.2031 46.9864 47.1745 47.0074L38.4697 53.4095C37.7916 54.1247 37.803 55.2586 38.504 55.9602C38.6733 56.1304 38.8747 56.2654 39.0965 56.3573C39.3183 56.4492 39.5562 56.4962 39.7963 56.4955C40.0366 56.4961 40.2745 56.4491 40.4965 56.3571C40.7185 56.2652 40.92 56.1302 41.0895 55.9599C41.1041 55.9451 41.1196 55.9311 41.1356 55.9176L46.3068 51.5966C46.3777 51.5374 46.4595 51.4927 46.5476 51.4651C46.6358 51.4375 46.7284 51.4276 46.8204 51.4358C46.9124 51.4441 47.0018 51.4703 47.0836 51.5131C47.1655 51.556 47.238 51.6145 47.2972 51.6853C47.3565 51.7562 47.4011 51.838 47.4287 51.9261C47.4563 52.0142 47.4662 52.1069 47.458 52.1989C47.4498 52.2909 47.4235 52.3803 47.3807 52.4621C47.3379 52.5439 47.2794 52.6165 47.2085 52.6757L42.0598 56.9777C41.4565 57.5718 40.6431 57.9039 39.7963 57.9016C39.3714 57.9028 38.9504 57.8197 38.5578 57.6571C38.1652 57.4944 37.8088 57.2555 37.5092 56.9541C37.3026 56.7478 37.125 56.5145 36.9813 56.2604L31.6654 52.1693C31.6413 52.1508 31.6185 52.1307 31.597 52.1092C30.8845 51.3968 29.7248 51.3968 29.0121 52.1092C28.8417 52.2785 28.7067 52.48 28.6147 52.702C28.5228 52.9239 28.4758 53.1618 28.4764 53.4021C28.4764 53.8717 28.6525 54.3143 28.9732 54.6542L38.9365 61.6866C38.9693 61.7096 39 61.7355 39.0282 61.7639C39.3248 62.0578 40.2705 62.8235 41.0624 62.8235C41.7119 62.8235 43.9935 61.571 45.7349 60.4104C45.7466 60.4025 45.7585 60.3952 45.7706 60.388L53.3482 55.9678C53.5759 55.8193 55.5124 54.597 57.5156 54.597H64.4766C64.865 54.597 65.1797 54.9117 65.1797 55.3001C65.1797 55.6885 64.865 56.0032 64.4766 56.0032H57.5156C55.8599 56.0032 54.1253 57.1397 54.108 57.1513C54.0966 57.1588 54.0849 57.1661 54.0731 57.1731L46.4974 61.5922C45.7938 62.0608 42.4578 64.2302 41.0625 64.2302ZM37.1715 47.4508C35.3225 47.4508 33.497 46.7287 32.0569 45.3407C31.5509 44.853 31.0816 44.3263 30.6278 43.8168C29.8174 42.9069 29.052 42.0474 28.1042 41.4052C27.7249 41.1483 27.2361 40.9555 26.7186 40.7513C25.6501 40.3296 24.4391 39.8519 23.861 38.6191C23.0843 36.9633 23.5236 34.8737 24.9802 33.2959C25.2834 32.967 25.6122 32.6731 25.9301 32.3889C26.614 31.7776 27.2599 31.2003 27.5036 30.3898C27.615 30.0189 27.6573 29.5854 27.7021 29.1265C27.7937 28.1895 27.8975 27.1277 28.6563 26.2984C28.8026 26.1383 28.9669 25.9957 29.1461 25.8735C30.0209 25.2785 31.0821 25.2856 32.0986 25.382C33.7991 25.5427 35.3734 25.3311 36.7789 24.752C39.6429 23.5714 43.6524 23.4156 45.5279 26.8605C46.1282 27.9629 46.1791 29.1035 46.2285 30.2064C46.2864 31.5024 46.3365 32.6216 47.2531 33.5499C47.3968 33.6956 47.5498 33.8439 47.7063 33.996C48.5895 34.854 49.5906 35.8267 49.9206 37.109C50.1962 38.1795 49.9042 39.223 49.0981 40.047C48.1714 40.9943 46.9855 41.5336 45.8387 42.055C45.4072 42.2513 44.9997 42.4365 44.6115 42.6403C43.8524 43.0391 43.3273 43.7272 42.7714 44.4555C42.1473 45.2734 41.5018 46.1194 40.4699 46.6476C39.4154 47.187 38.2891 47.4508 37.1715 47.4508ZM29.9375 27.036C29.8483 27.0968 29.7666 27.1678 29.694 27.2476C29.2517 27.7308 29.179 28.4752 29.1021 29.2631C29.0526 29.7689 29.0015 30.292 28.8506 30.7945C28.4926 31.9847 27.6293 32.7565 26.8675 33.4373C26.561 33.7112 26.2714 33.9701 26.0139 34.2494C25.2034 35.1274 24.4869 36.6418 25.1342 38.022C25.4751 38.7488 26.3298 39.086 27.2348 39.4431C27.8006 39.6664 28.3856 39.8971 28.8931 40.2412C29.9858 40.9816 30.846 41.9476 31.678 42.8815C32.1344 43.3939 32.5654 43.8778 33.0328 44.3284C34.9329 46.1596 37.5377 46.5688 39.8296 45.3953C40.5778 45.0124 41.1005 44.3273 41.6541 43.602C42.2782 42.7842 42.9235 41.9383 43.9583 41.3949C44.382 41.1726 44.8269 40.9701 45.2571 40.7746C46.3335 40.2851 47.3505 39.8226 48.0933 39.0632C48.5615 38.5848 48.7139 38.06 48.5592 37.4591C48.3276 36.5597 47.4771 35.7334 46.7267 35.0042C46.5632 34.8453 46.4033 34.6899 46.253 34.5376C44.9563 33.2245 44.886 31.6543 44.8241 30.269C44.7799 29.2821 44.7383 28.3499 44.2932 27.5327C42.8635 24.9062 39.6406 25.0934 37.3153 26.0519C35.6962 26.7192 33.8965 26.9647 31.9665 26.7817C31.2633 26.7152 30.4691 26.6745 29.9375 27.036ZM37.7955 42.0327C36.6105 42.0327 35.9473 41.2317 35.4061 40.5782C35.228 40.3629 35.0596 40.1595 34.8801 39.9871C34.5914 39.7103 34.1921 39.6712 33.5649 39.6304C33.0711 39.5982 32.5114 39.5619 31.977 39.3157C30.717 38.7356 29.9475 37.7364 29.8659 36.5743C29.7845 35.414 30.4033 34.3205 31.5634 33.5742C31.6411 33.5236 31.728 33.4888 31.8191 33.4719C31.9103 33.455 32.0038 33.4562 32.0945 33.4756C32.1851 33.495 32.2711 33.5321 32.3473 33.5848C32.4236 33.6376 32.4886 33.7048 32.5388 33.7828C32.5889 33.8608 32.6232 33.9479 32.6395 34.0391C32.6559 34.1304 32.6541 34.2239 32.6341 34.3145C32.6142 34.405 32.5765 34.4907 32.5233 34.5666C32.4701 34.6425 32.4025 34.7072 32.3242 34.7569C31.6091 35.2169 31.2244 35.8435 31.2687 36.4759C31.3131 37.1101 31.7857 37.6796 32.5652 38.0384C32.8629 38.1756 33.2482 38.2005 33.6562 38.2272C34.335 38.2712 35.1796 38.3264 35.8538 38.9727C36.0915 39.201 36.2936 39.4453 36.4892 39.6814C37.0357 40.3415 37.3497 40.6808 37.9457 40.6181C38.8979 40.5145 39.9403 39.6073 39.8568 38.5937C39.8415 38.4078 39.9006 38.2235 40.0212 38.0812C40.1418 37.939 40.314 37.8505 40.4999 37.8352C40.6857 37.8198 40.8701 37.879 41.0123 37.9996C41.1546 38.1202 41.2431 38.2924 41.2584 38.4782C41.412 40.3436 39.7157 41.8397 38.0974 42.0161C37.9934 42.0273 37.8925 42.0327 37.7955 42.0327ZM41.0618 33.8552C40.8838 33.855 40.7125 33.7873 40.5825 33.6658C40.4524 33.5443 40.3733 33.378 40.3611 33.2004C40.3152 32.5354 40.086 32.0375 39.6603 31.6785C38.7135 30.8801 37.0974 31.0188 37.0817 31.0205C36.8976 31.0364 36.7147 30.9793 36.5724 30.8614C36.4302 30.7436 36.34 30.5745 36.3214 30.3907C36.3028 30.2069 36.3572 30.0232 36.4729 29.8792C36.5887 29.7352 36.7564 29.6426 36.9399 29.6213C37.0298 29.6121 39.1544 29.4124 40.5667 30.6032C41.2888 31.2121 41.6917 32.0534 41.7641 33.1035C41.7707 33.1998 41.7575 33.2964 41.7252 33.3873C41.6929 33.4782 41.6422 33.5615 41.5763 33.632C41.5105 33.7025 41.4308 33.7587 41.3423 33.7971C41.2538 33.8355 41.1583 33.8553 41.0618 33.8552ZM20.1797 28.1599C17.2454 28.1599 14.3671 27.1385 13.7205 26.8943H7.52344C7.33696 26.8943 7.15811 26.8202 7.02625 26.6883C6.89439 26.5564 6.82031 26.3776 6.82031 26.1911C6.82031 26.0046 6.89439 25.8258 7.02625 25.6939C7.15811 25.5621 7.33696 25.488 7.52344 25.488H13.8516C13.941 25.488 14.0297 25.5052 14.1127 25.5382C14.1428 25.5502 17.1948 26.7536 20.1797 26.7536C23.0196 26.7536 24.7281 25.0781 24.7449 25.0611C24.77 25.036 24.797 25.0128 24.8255 24.9919L33.5303 18.5896C34.2084 17.8746 34.197 16.7407 33.4959 16.0391C33.1508 15.6939 32.6919 15.5038 32.2035 15.5038C31.7152 15.5038 31.2559 15.694 30.9104 16.0394C30.8956 16.0542 30.8801 16.0682 30.8641 16.0816L25.6929 20.4026C25.622 20.4618 25.5402 20.5065 25.4521 20.534C25.364 20.5616 25.2713 20.5716 25.1793 20.5633C25.0873 20.5551 24.9979 20.5288 24.9161 20.486C24.8343 20.4432 24.7617 20.3847 24.7025 20.3138C24.6433 20.243 24.5986 20.1612 24.571 20.073C24.5434 19.9849 24.5335 19.8922 24.5417 19.8003C24.55 19.7083 24.5762 19.6188 24.619 19.537C24.6618 19.4552 24.7203 19.3826 24.7912 19.3234L29.9399 15.0214C30.5432 14.4273 31.3567 14.0954 32.2034 14.0977C32.6283 14.0964 33.0493 14.1796 33.4419 14.3422C33.8345 14.5048 34.1909 14.7437 34.4905 15.045C34.697 15.2514 34.8745 15.4848 35.0183 15.7389L40.3343 19.83C40.3584 19.8484 40.3812 19.8685 40.4025 19.89C41.1152 20.6027 42.2748 20.6027 42.9877 19.89C43.158 19.7206 43.293 19.5191 43.385 19.2972C43.4769 19.0753 43.5239 18.8373 43.5233 18.5971C43.5233 18.1274 43.3472 17.6849 43.0265 17.345L33.0632 10.3126C33.0305 10.2895 32.9998 10.2637 32.9715 10.2354C32.6751 9.94134 31.7294 9.17564 30.9375 9.17564C30.288 9.17564 28.0065 10.4283 26.265 11.5889C26.2533 11.5967 26.2414 11.6041 26.2294 11.6111L18.6518 16.0314C18.4241 16.1799 16.4876 17.4023 14.4844 17.4023H7.52344C7.33696 17.4023 7.15811 17.3283 7.02625 17.1964C6.89439 17.0645 6.82031 16.8857 6.82031 16.6992C6.82031 16.5127 6.89439 16.3339 7.02625 16.202C7.15811 16.0702 7.33696 15.9961 7.52344 15.9961H14.4844C16.1402 15.9961 17.8747 14.8594 17.892 14.848C17.9031 14.8406 17.9153 14.833 17.9269 14.8262L25.5026 10.4071C26.2063 9.93881 29.5424 7.76953 30.9375 7.76953C32.3499 7.76953 33.6329 8.92041 33.92 9.19617L43.8903 16.2335C43.923 16.2565 43.9536 16.2823 43.9817 16.3104C44.593 16.9208 44.9295 17.7331 44.9295 18.5971C44.9295 19.4611 44.593 20.2733 43.982 20.8844C42.7326 22.134 40.7064 22.1453 39.4428 20.9183L35.4012 17.808C35.3008 18.4942 34.9813 19.1295 34.4904 19.6193C34.4654 19.6443 34.4384 19.6675 34.4098 19.6885L25.6958 26.0975C25.3727 26.4019 23.3677 28.1599 20.1797 28.1599Z" />
</svg>
