<svg width="60" height="61" viewBox="0 0 60 61" fill="none" xmlns="http://www.w3.org/2000/svg">
<mask id="path-1-inside-1_1849_1659" fill="white">
<path fill-rule="evenodd" clip-rule="evenodd" d="M30.0995 33.0191H29.9272C26.7721 32.9652 24.22 31.8561 22.3463 29.7347C18.2005 25.0613 18.8897 17.0497 18.9651 16.2852C19.2343 10.5026 21.991 7.75668 24.2523 6.47525C26.5029 5.19383 28.8504 5 30.0456 5H30.1102H30.1533H30.2287C32.4039 5.04307 34.3529 5.55995 36.022 6.51833C38.2618 7.79975 40.9754 10.5457 41.2446 16.2852C41.32 17.0497 42.0092 25.0613 37.8634 29.7347C35.979 31.8561 33.4269 32.9652 30.2718 33.0191H30.1641H30.0995ZM21.8464 16.5028C21.8435 16.5188 21.8402 16.5366 21.8402 16.5544C21.8294 16.619 21.0972 23.9737 24.5107 27.8072C25.8568 29.3363 27.6766 30.0901 30.0456 30.1116H30.0995H30.1533C32.5331 30.0901 34.3422 29.3363 35.699 27.8072C39.1233 23.9522 38.3695 16.6297 38.3587 16.5544C38.348 16.5328 38.348 16.5005 38.348 16.4682C38.0142 9.16732 33.0715 7.98281 30.1641 7.9182H30.0779H30.0349C27.6874 7.9182 22.2063 8.74736 21.851 16.4682C21.851 16.4779 21.8488 16.4898 21.8464 16.5028ZM52.2282 46.2748V46.3071C52.239 46.8671 52.2498 49.7422 51.7114 51.1744C51.6037 51.4544 51.3991 51.6913 51.1514 51.8528L51.1468 51.8557C50.7617 52.0998 43.0303 57 30.1317 57C17.1775 57 9.43511 52.0681 9.11206 51.8528C8.85362 51.6913 8.6598 51.4544 8.55211 51.1744C7.98139 49.7314 7.99216 46.8563 8.00293 46.2964V46.264C8.0137 46.1779 8.0137 46.0918 8.0137 45.9948L8.01419 45.9786C8.07905 43.8482 8.23018 38.8837 12.8917 37.2833C12.924 37.2725 12.9563 37.2618 12.9994 37.251C17.8774 36.0126 21.894 33.2129 21.9371 33.1806C22.5939 32.7176 23.4985 32.8791 23.9615 33.5359C24.4246 34.1928 24.263 35.0973 23.6062 35.5604C23.598 35.5657 23.5815 35.5768 23.557 35.5933C23.0365 35.9441 18.8968 38.7342 13.7747 40.0508C11.2657 40.9445 10.9857 43.6258 10.9104 46.081C10.9104 46.1309 10.9075 46.1779 10.9047 46.2235C10.9021 46.2666 10.8996 46.3084 10.8996 46.3502C10.8781 47.3193 10.9534 48.8161 11.1257 49.6776C12.881 50.6683 19.7619 54.1034 30.121 54.1034C40.5231 54.1034 47.361 50.679 49.1054 49.6884C49.2777 48.8269 49.3423 47.3301 49.3316 46.361C49.3208 46.2748 49.3208 46.1887 49.3208 46.0918C49.2454 43.6366 48.9655 40.9553 46.4564 40.0615C41.0938 38.6832 36.8081 35.7004 36.625 35.5711C35.9681 35.1081 35.8066 34.2036 36.2697 33.5467C36.7327 32.8899 37.6372 32.7283 38.2941 33.1914C38.3372 33.2237 42.3753 36.0234 47.2318 37.2618C47.2479 37.2672 47.2667 37.2725 47.2856 37.2779C47.3044 37.2833 47.3233 37.2887 47.3394 37.2941C52.0018 38.884 52.1522 43.8498 52.217 45.9903L52.2175 46.0056C52.2175 46.0555 52.2203 46.1025 52.2231 46.1482C52.2257 46.1912 52.2282 46.233 52.2282 46.2748Z"/>
</mask>
<path fill-rule="evenodd" clip-rule="evenodd" d="M30.0995 33.0191H29.9272C26.7721 32.9652 24.22 31.8561 22.3463 29.7347C18.2005 25.0613 18.8897 17.0497 18.9651 16.2852C19.2343 10.5026 21.991 7.75668 24.2523 6.47525C26.5029 5.19383 28.8504 5 30.0456 5H30.1102H30.1533H30.2287C32.4039 5.04307 34.3529 5.55995 36.022 6.51833C38.2618 7.79975 40.9754 10.5457 41.2446 16.2852C41.32 17.0497 42.0092 25.0613 37.8634 29.7347C35.979 31.8561 33.4269 32.9652 30.2718 33.0191H30.1641H30.0995ZM21.8464 16.5028C21.8435 16.5188 21.8402 16.5366 21.8402 16.5544C21.8294 16.619 21.0972 23.9737 24.5107 27.8072C25.8568 29.3363 27.6766 30.0901 30.0456 30.1116H30.0995H30.1533C32.5331 30.0901 34.3422 29.3363 35.699 27.8072C39.1233 23.9522 38.3695 16.6297 38.3587 16.5544C38.348 16.5328 38.348 16.5005 38.348 16.4682C38.0142 9.16732 33.0715 7.98281 30.1641 7.9182H30.0779H30.0349C27.6874 7.9182 22.2063 8.74736 21.851 16.4682C21.851 16.4779 21.8488 16.4898 21.8464 16.5028ZM52.2282 46.2748V46.3071C52.239 46.8671 52.2498 49.7422 51.7114 51.1744C51.6037 51.4544 51.3991 51.6913 51.1514 51.8528L51.1468 51.8557C50.7617 52.0998 43.0303 57 30.1317 57C17.1775 57 9.43511 52.0681 9.11206 51.8528C8.85362 51.6913 8.6598 51.4544 8.55211 51.1744C7.98139 49.7314 7.99216 46.8563 8.00293 46.2964V46.264C8.0137 46.1779 8.0137 46.0918 8.0137 45.9948L8.01419 45.9786C8.07905 43.8482 8.23018 38.8837 12.8917 37.2833C12.924 37.2725 12.9563 37.2618 12.9994 37.251C17.8774 36.0126 21.894 33.2129 21.9371 33.1806C22.5939 32.7176 23.4985 32.8791 23.9615 33.5359C24.4246 34.1928 24.263 35.0973 23.6062 35.5604C23.598 35.5657 23.5815 35.5768 23.557 35.5933C23.0365 35.9441 18.8968 38.7342 13.7747 40.0508C11.2657 40.9445 10.9857 43.6258 10.9104 46.081C10.9104 46.1309 10.9075 46.1779 10.9047 46.2235C10.9021 46.2666 10.8996 46.3084 10.8996 46.3502C10.8781 47.3193 10.9534 48.8161 11.1257 49.6776C12.881 50.6683 19.7619 54.1034 30.121 54.1034C40.5231 54.1034 47.361 50.679 49.1054 49.6884C49.2777 48.8269 49.3423 47.3301 49.3316 46.361C49.3208 46.2748 49.3208 46.1887 49.3208 46.0918C49.2454 43.6366 48.9655 40.9553 46.4564 40.0615C41.0938 38.6832 36.8081 35.7004 36.625 35.5711C35.9681 35.1081 35.8066 34.2036 36.2697 33.5467C36.7327 32.8899 37.6372 32.7283 38.2941 33.1914C38.3372 33.2237 42.3753 36.0234 47.2318 37.2618C47.2479 37.2672 47.2667 37.2725 47.2856 37.2779C47.3044 37.2833 47.3233 37.2887 47.3394 37.2941C52.0018 38.884 52.1522 43.8498 52.217 45.9903L52.2175 46.0056C52.2175 46.0555 52.2203 46.1025 52.2231 46.1482C52.2257 46.1912 52.2282 46.233 52.2282 46.2748Z" fill="#D2D2D2"/>
<path d="M29.9272 33.0191L29.9204 33.4191H29.9272V33.0191ZM22.3463 29.7347L22.6461 29.4699L22.6455 29.4693L22.3463 29.7347ZM18.9651 16.2852L19.3631 16.3244L19.3642 16.3141L19.3646 16.3038L18.9651 16.2852ZM24.2523 6.47525L24.4495 6.82326L24.4502 6.82286L24.2523 6.47525ZM30.2287 5L30.2366 4.6H30.2287V5ZM36.022 6.51833L35.8228 6.86521L35.8234 6.86552L36.022 6.51833ZM41.2446 16.2852L40.8451 16.3039L40.8456 16.3142L40.8466 16.3244L41.2446 16.2852ZM37.8634 29.7347L38.1624 30.0004L38.1626 30.0002L37.8634 29.7347ZM30.2718 33.0191L30.2718 33.4191L30.2786 33.419L30.2718 33.0191ZM21.8402 16.5544L22.2348 16.6201L22.2402 16.5875V16.5544H21.8402ZM21.8464 16.5028L21.453 16.4306L21.453 16.4306L21.8464 16.5028ZM24.5107 27.8072L24.811 27.5429L24.8095 27.5412L24.5107 27.8072ZM30.0456 30.1116L30.042 30.5116H30.0456V30.1116ZM30.1533 30.1116V30.5116L30.1569 30.5116L30.1533 30.1116ZM35.699 27.8072L35.3999 27.5416L35.3998 27.5417L35.699 27.8072ZM38.3587 16.5544L38.7547 16.4978L38.7455 16.4335L38.7165 16.3755L38.3587 16.5544ZM38.348 16.4682H38.748V16.4591L38.7476 16.4499L38.348 16.4682ZM30.1641 7.9182L30.173 7.5182H30.1641V7.9182ZM21.851 16.4682L21.4514 16.4498L21.451 16.459V16.4682H21.851ZM52.2282 46.3071H51.8282L51.8283 46.3148L52.2282 46.3071ZM51.7114 51.1744L52.0847 51.318L52.0858 51.3151L51.7114 51.1744ZM51.1514 51.8528L51.3654 52.1907L51.3699 52.1878L51.1514 51.8528ZM51.1468 51.8557L50.9328 51.5178L50.9327 51.5178L51.1468 51.8557ZM9.11206 51.8528L9.33404 51.5198L9.32406 51.5136L9.11206 51.8528ZM8.55211 51.1744L8.92547 51.0308L8.92408 51.0273L8.55211 51.1744ZM8.00293 46.2964L8.40293 46.304V46.2964H8.00293ZM8.00293 46.264L7.60602 46.2144L7.60293 46.2391V46.264H8.00293ZM8.0137 45.9948L7.6137 45.9827V45.9948H8.0137ZM8.01419 45.9786L8.41401 45.9908L8.41401 45.9908L8.01419 45.9786ZM12.8917 37.2833L12.7652 36.9038L12.7618 36.905L12.8917 37.2833ZM12.9994 37.251L13.0964 37.6391L13.0978 37.6387L12.9994 37.251ZM21.9371 33.1806L21.7065 32.8535L21.6971 32.8606L21.9371 33.1806ZM23.9615 33.5359L24.2885 33.3055L24.2885 33.3055L23.9615 33.5359ZM23.6062 35.5604L23.8235 35.8962L23.8301 35.8919L23.8366 35.8873L23.6062 35.5604ZM23.557 35.5933L23.7806 35.925L23.7806 35.925L23.557 35.5933ZM13.7747 40.0508L13.6752 39.6633L13.6576 39.6679L13.6405 39.6739L13.7747 40.0508ZM10.9104 46.081L10.5104 46.0687V46.081H10.9104ZM10.9047 46.2235L10.5055 46.1993L10.5055 46.1993L10.9047 46.2235ZM10.8996 46.3502L11.2996 46.3591V46.3502H10.8996ZM11.1257 49.6776L10.7335 49.756L10.7695 49.9358L10.9291 50.0259L11.1257 49.6776ZM49.1054 49.6884L49.303 50.0362L49.4618 49.946L49.4977 49.7668L49.1054 49.6884ZM49.3316 46.361L49.7315 46.3565L49.7313 46.3338L49.7285 46.3113L49.3316 46.361ZM49.3208 46.0918H49.721L49.7206 46.0795L49.3208 46.0918ZM46.4564 40.0615L46.5907 39.6847L46.5736 39.6786L46.556 39.6741L46.4564 40.0615ZM36.625 35.5711L36.8557 35.2444L36.8555 35.2442L36.625 35.5711ZM36.2697 33.5467L35.9427 33.3163L35.9427 33.3163L36.2697 33.5467ZM38.2941 33.1914L38.5342 32.8712L38.5246 32.8644L38.2941 33.1914ZM47.2318 37.2618L47.3582 36.8823L47.3446 36.8777L47.3306 36.8742L47.2318 37.2618ZM47.2856 37.2779L47.1757 37.6625L47.1757 37.6625L47.2856 37.2779ZM47.3394 37.2941L47.4685 36.9155L47.466 36.9146L47.3394 37.2941ZM52.217 45.9903L52.6168 45.9783L52.6168 45.9782L52.217 45.9903ZM52.2175 46.0056H52.6177L52.6173 45.9935L52.2175 46.0056ZM52.2231 46.1482L52.6224 46.124L52.6224 46.1239L52.2231 46.1482ZM29.9272 33.4191H30.0995V32.6191H29.9272V33.4191ZM22.0465 29.9995C24.0032 32.2149 26.6667 33.3635 29.9204 33.419L29.934 32.6191C26.8774 32.567 24.4368 31.4973 22.6461 29.4699L22.0465 29.9995ZM18.567 16.2459C18.5278 16.6433 18.3342 18.8701 18.6759 21.5939C19.0165 24.3094 19.896 27.5753 22.0471 30.0002L22.6455 29.4693C20.6509 27.2208 19.802 24.1441 19.4697 21.4943C19.1383 18.8528 19.327 16.6915 19.3631 16.3244L18.567 16.2459ZM24.0551 6.12725C21.6844 7.47065 18.8416 10.3354 18.5655 16.2666L19.3646 16.3038C19.6269 10.6698 22.2975 8.04271 24.4495 6.82326L24.0551 6.12725ZM30.0456 4.6C28.8155 4.6 26.3895 4.7981 24.0544 6.12765L24.4502 6.82286C26.6163 5.58956 28.8852 5.4 30.0456 5.4V4.6ZM30.1102 4.6H30.0456V5.4H30.1102V4.6ZM30.1533 4.6H30.1102V5.4H30.1533V4.6ZM30.2287 4.6H30.1533V5.4H30.2287V4.6ZM36.2212 6.17144C34.4876 5.17601 32.4714 4.64433 30.2366 4.60008L30.2208 5.39992C32.3364 5.44181 34.2183 5.94389 35.8228 6.86521L36.2212 6.17144ZM41.6442 16.2664C41.3681 10.3806 38.5705 7.51551 36.2207 6.17113L35.8234 6.86552C37.9532 8.08399 40.5827 10.7108 40.8451 16.3039L41.6442 16.2664ZM38.1626 30.0002C40.3138 27.5753 41.1932 24.3094 41.5338 21.5939C41.8755 18.8701 41.6819 16.6433 41.6427 16.2459L40.8466 16.3244C40.8828 16.6915 41.0714 18.8528 40.7401 21.4943C40.4077 24.1441 39.5588 27.2208 37.5642 29.4693L38.1626 30.0002ZM30.2786 33.419C33.5324 33.3635 36.1954 32.2148 38.1624 30.0004L37.5644 29.4691C35.7625 31.4974 33.3213 32.567 30.2649 32.6191L30.2786 33.419ZM30.1641 33.4191H30.2718V32.6191H30.1641V33.4191ZM30.0995 33.4191H30.1641V32.6191H30.0995V33.4191ZM22.2402 16.5544C22.2402 16.5693 22.2389 16.5794 22.2385 16.582C22.2383 16.5835 22.2382 16.5839 22.2385 16.5827C22.2387 16.5812 22.239 16.5793 22.2398 16.575L21.453 16.4306C21.4511 16.441 21.4402 16.4943 21.4402 16.5544H22.2402ZM24.8095 27.5412C23.188 25.7203 22.529 23.0277 22.2892 20.726C22.0502 18.4311 22.236 16.6126 22.2348 16.6201L21.4457 16.4886C21.4336 16.5607 21.248 18.4519 21.4935 20.8089C21.7383 23.1591 22.4199 26.0606 24.212 28.0732L24.8095 27.5412ZM30.0493 29.7116C27.7727 29.6909 26.0689 28.972 24.811 27.5429L24.2105 28.0715C25.6446 29.7006 27.5805 30.4892 30.042 30.5116L30.0493 29.7116ZM30.0995 29.7116H30.0456V30.5116H30.0995V29.7116ZM30.1533 29.7116H30.0995V30.5116H30.1533V29.7116ZM35.3998 27.5417C34.1304 28.9724 32.4363 29.6909 30.1497 29.7116L30.1569 30.5116C32.6299 30.4892 34.554 29.7003 35.9982 28.0727L35.3998 27.5417ZM37.9628 16.6109C37.9623 16.6078 38.0109 17.0622 38.0294 17.8122C38.0477 18.557 38.0361 19.5824 37.9191 20.7226C37.6834 23.0195 37.0271 25.7097 35.3999 27.5416L35.998 28.0729C37.7952 26.0496 38.4741 23.1511 38.7149 20.8042C38.9568 18.4474 38.7643 16.5651 38.7547 16.4978L37.9628 16.6109ZM37.948 16.4682C37.948 16.4802 37.9477 16.5153 37.951 16.5515C37.954 16.5852 37.9627 16.6567 38.001 16.7333L38.7165 16.3755C38.7314 16.4052 38.7386 16.4306 38.7423 16.4464C38.746 16.4624 38.7472 16.4742 38.7477 16.4791C38.7481 16.4842 38.7481 16.4864 38.7481 16.4838C38.748 16.4808 38.748 16.4771 38.748 16.4682H37.948ZM30.1552 8.3181C31.5691 8.34953 33.4363 8.65396 34.9829 9.80089C36.511 10.9342 37.786 12.9347 37.9484 16.4865L38.7476 16.4499C38.5761 12.7009 37.2129 10.4587 35.4594 9.15831C33.7244 7.87162 31.6665 7.55149 30.173 7.5183L30.1552 8.3181ZM30.0779 8.3182H30.1641V7.5182H30.0779V8.3182ZM30.0349 8.3182H30.0779V7.5182H30.0349V8.3182ZM22.2506 16.4866C22.4233 12.7323 23.8323 10.719 25.4222 9.62768C27.0347 8.52095 28.8975 8.3182 30.0349 8.3182V7.5182C28.8247 7.5182 26.7733 7.73003 24.9695 8.9681C23.1432 10.2216 21.634 12.4833 21.4514 16.4498L22.2506 16.4866ZM22.2398 16.575C22.2399 16.5746 22.251 16.5223 22.251 16.4682H21.451C21.451 16.456 21.4516 16.4462 21.4522 16.4399C21.4528 16.4336 21.4534 16.4289 21.4537 16.4267C21.4541 16.4246 21.4543 16.4235 21.4541 16.4245C21.4539 16.4256 21.4536 16.427 21.453 16.4306L22.2398 16.575ZM52.6282 46.3071V46.2748H51.8282V46.3071H52.6282ZM52.0858 51.3151C52.3777 50.5386 52.5115 49.4093 52.5749 48.4398C52.6391 47.4572 52.6337 46.5865 52.6282 46.2994L51.8283 46.3148C51.8336 46.5877 51.8389 47.4345 51.7766 48.3876C51.7134 49.3536 51.5834 50.3779 51.3369 51.0336L52.0858 51.3151ZM51.3699 52.1878C51.6804 51.9853 51.9437 51.6846 52.0847 51.318L51.338 51.0308C51.2636 51.2242 51.1177 51.3972 50.9329 51.5177L51.3699 52.1878ZM51.3609 52.1936L51.3654 52.1907L50.9374 51.5149L50.9328 51.5178L51.3609 52.1936ZM30.1317 57.4C43.1332 57.4 50.9393 52.4608 51.361 52.1935L50.9327 51.5178C50.5841 51.7388 42.9274 56.6 30.1317 56.6V57.4ZM8.89018 52.1856C9.25756 52.4305 17.0763 57.4 30.1317 57.4V56.6C17.2788 56.6 9.61266 51.7058 9.33394 51.52L8.89018 52.1856ZM8.17877 51.318C8.31745 51.6785 8.56769 51.9843 8.90007 52.192L9.32406 51.5136C9.13956 51.3983 9.00214 51.2302 8.92545 51.0308L8.17877 51.318ZM7.603 46.2887C7.59748 46.5759 7.59204 47.4472 7.66043 48.432C7.72789 49.4034 7.87008 50.5376 8.18015 51.3215L8.92408 51.0273C8.66343 50.3683 8.52564 49.3433 8.4585 48.3765C8.39228 47.423 8.39761 46.5767 8.40286 46.304L7.603 46.2887ZM7.60293 46.264V46.2964H8.40293V46.264H7.60293ZM7.6137 45.9948C7.6137 46.0966 7.61316 46.1573 7.60602 46.2144L8.39984 46.3137C8.41424 46.1985 8.4137 46.0869 8.4137 45.9948H7.6137ZM7.61438 45.9664L7.61388 45.9827L8.41351 46.007L8.41401 45.9908L7.61438 45.9664ZM12.7618 36.905C10.2913 37.7532 9.01346 39.5022 8.35383 41.294C7.70007 43.0699 7.64671 44.9045 7.61438 45.9664L8.41401 45.9908C8.44654 44.9223 8.50117 43.2095 9.10457 41.5704C9.70212 39.9472 10.8306 38.4139 13.0216 37.6616L12.7618 36.905ZM12.9024 36.8629C12.8431 36.8778 12.7981 36.8929 12.7652 36.9038L13.0182 37.6628C13.05 37.6522 13.0696 37.6458 13.0964 37.6391L12.9024 36.8629ZM21.6971 32.8606C21.7005 32.858 21.4532 33.0318 20.9966 33.3167C20.5445 33.5989 19.8941 33.9858 19.0939 34.4102C17.4915 35.26 15.2987 36.2546 12.901 36.8633L13.0978 37.6387C18.0467 36.3824 22.1117 33.5496 22.1771 33.5006L21.6971 32.8606ZM24.2885 33.3055C23.6996 32.4701 22.5461 32.2619 21.7066 32.8537L22.1675 33.5075C22.6418 33.1732 23.2974 33.2881 23.6346 33.7664L24.2885 33.3055ZM23.8366 35.8873C24.672 35.2984 24.8802 34.1449 24.2885 33.3055L23.6346 33.7664C23.9689 34.2407 23.854 34.8963 23.3757 35.2334L23.8366 35.8873ZM23.7806 35.925C23.793 35.9166 23.8028 35.91 23.8105 35.9049C23.8143 35.9023 23.8173 35.9003 23.8197 35.8987C23.8209 35.8979 23.8218 35.8973 23.8225 35.8969C23.8228 35.8966 23.8231 35.8965 23.8232 35.8964C23.8234 35.8962 23.8235 35.8962 23.8235 35.8962L23.3888 35.2246C23.3766 35.2325 23.3557 35.2466 23.3335 35.2616L23.7806 35.925ZM13.8743 40.4382C19.0657 39.1038 23.2524 36.281 23.7806 35.925L23.3335 35.2616C22.8206 35.6073 18.7279 38.3647 13.6752 39.6633L13.8743 40.4382ZM11.3102 46.0933C11.3479 44.8659 11.4369 43.6393 11.8062 42.6161C12.1683 41.6128 12.7915 40.8256 13.909 40.4276L13.6405 39.6739C12.2489 40.1697 11.4776 41.17 11.0537 42.3445C10.6369 43.4993 10.5482 44.8409 10.5106 46.0687L11.3102 46.0933ZM11.304 46.2478C11.3067 46.2035 11.3104 46.1448 11.3104 46.081H10.5104C10.5104 46.1169 10.5083 46.1523 10.5055 46.1993L11.304 46.2478ZM11.2996 46.3502C11.2996 46.3226 11.3013 46.2929 11.304 46.2478L10.5055 46.1993C10.503 46.2402 10.4996 46.2942 10.4996 46.3502H11.2996ZM11.518 49.5991C11.3538 48.7782 11.2783 47.314 11.2995 46.3591L10.4997 46.3413C10.4778 47.3247 10.5531 48.8541 10.7335 49.756L11.518 49.5991ZM30.121 53.7034C19.8502 53.7034 13.0371 50.2971 11.3223 49.3292L10.9291 50.0259C12.7248 51.0394 19.6736 54.5034 30.121 54.5034V53.7034ZM48.9079 49.3405C47.2049 50.3076 40.4351 53.7034 30.121 53.7034V54.5034C40.6111 54.5034 47.517 51.0504 49.303 50.0362L48.9079 49.3405ZM48.9316 46.3654C48.9423 47.3272 48.8771 48.7903 48.7132 49.6099L49.4977 49.7668C49.6783 48.8635 49.7424 47.333 49.7315 46.3565L48.9316 46.3654ZM48.9208 46.0918C48.9208 46.1839 48.9203 46.2954 48.9347 46.4106L49.7285 46.3113C49.7213 46.2542 49.7208 46.1935 49.7208 46.0918H48.9208ZM46.3222 40.4383C47.4397 40.8364 48.0628 41.6235 48.425 42.6269C48.7943 43.65 48.8833 44.8767 48.921 46.104L49.7206 46.0795C49.6829 44.8517 49.5943 43.5101 49.1775 42.3553C48.7536 41.1808 47.9822 40.1804 46.5907 39.6847L46.3222 40.4383ZM36.3943 35.8979C36.5898 36.0359 40.9232 39.0523 46.3569 40.4489L46.556 39.6741C41.2645 38.314 37.0264 35.3648 36.8557 35.2444L36.3943 35.8979ZM35.9427 33.3163C35.351 34.1557 35.5591 35.3092 36.3945 35.8981L36.8555 35.2442C36.3771 34.907 36.2623 34.2515 36.5966 33.7772L35.9427 33.3163ZM38.5246 32.8644C37.6851 32.2727 36.5316 32.4809 35.9427 33.3163L36.5966 33.7772C36.9338 33.2988 37.5894 33.184 38.0636 33.5183L38.5246 32.8644ZM47.3306 36.8742C44.9435 36.2655 42.7505 35.2708 41.1451 34.4208C40.3434 33.9964 39.6909 33.6094 39.2371 33.3272C38.7782 33.0418 38.5302 32.8684 38.5341 32.8714L38.0541 33.5114C38.12 33.5608 42.2063 36.3931 47.1329 37.6494L47.3306 36.8742ZM47.3954 36.8933C47.3743 36.8873 47.3645 36.8844 47.3582 36.8823L47.1053 37.6413C47.1313 37.6499 47.1591 37.6578 47.1757 37.6625L47.3954 36.8933ZM47.466 36.9146C47.4399 36.9059 47.4121 36.898 47.3954 36.8933L47.1757 37.6625C47.1968 37.6685 47.2067 37.6714 47.2129 37.6735L47.466 36.9146ZM52.6168 45.9782C52.5845 44.9113 52.5314 43.0738 51.8777 41.2976C51.2181 39.5053 49.9399 37.7583 47.4685 36.9155L47.2103 37.6727C49.4013 38.4198 50.5295 39.9506 51.1269 41.5739C51.7302 43.2132 51.7847 44.9288 51.8172 46.0025L52.6168 45.9782ZM52.6173 45.9935L52.6168 45.9783L51.8172 46.0024L51.8177 46.0177L52.6173 45.9935ZM52.6224 46.1239C52.6195 46.0769 52.6175 46.0416 52.6175 46.0056H51.8175C51.8175 46.0694 51.8211 46.1282 51.8238 46.1724L52.6224 46.1239ZM52.6282 46.2748C52.6282 46.2188 52.6248 46.1649 52.6224 46.124L51.8238 46.1724C51.8266 46.2175 51.8282 46.2472 51.8282 46.2748H52.6282Z" fill="white" mask="url(#path-1-inside-1_1849_1659)"/>
</svg>
