<svg width="16" height="16" viewBox="0 0 16 16" fill="none" xmlns="http://www.w3.org/2000/svg">
<path d="M11.57 13.6946L7.15854 2.2838C7.11908 2.17972 7.04882 2.09016 6.95714 2.02706C6.86545 1.96396 6.75669 1.93033 6.64539 1.93067H4.9404C4.82925 1.93099 4.72079 1.96488 4.62923 2.02789C4.53767 2.0909 4.46727 2.1801 4.42726 2.2838L0.0184982 13.6946C0.00239448 13.7363 -0.00332019 13.7814 0.00184667 13.8258C0.00701353 13.8702 0.022907 13.9127 0.0481574 13.9497C0.0734078 13.9866 0.107258 14.0168 0.146791 14.0378C0.186324 14.0587 0.230354 14.0697 0.275087 14.0698H2.01595C2.0719 14.0698 2.12653 14.0529 2.17278 14.0214C2.21902 13.9899 2.25473 13.9453 2.27529 13.8933L3.19401 11.4875C3.21401 11.4356 3.24921 11.391 3.295 11.3595C3.34078 11.328 3.39502 11.3111 3.4506 11.3109H8.1352C8.19114 11.311 8.24578 11.3278 8.29202 11.3593C8.33826 11.3908 8.37398 11.4354 8.39454 11.4875L9.31325 13.8933C9.33326 13.9451 9.36846 13.9897 9.41424 14.0212C9.46003 14.0527 9.51426 14.0697 9.56984 14.0698H11.3107C11.3555 14.0697 11.3996 14.0587 11.4393 14.0379C11.4789 14.017 11.513 13.9869 11.5384 13.95C11.5639 13.9131 11.5801 13.8707 11.5856 13.8262C11.5911 13.7817 11.5857 13.7366 11.57 13.6946ZM7.25786 9.3797H4.3279C4.28074 9.37989 4.23425 9.36854 4.19248 9.34663C4.15071 9.32472 4.11494 9.29293 4.08827 9.25403C4.06161 9.21513 4.04487 9.17029 4.03951 9.12343C4.03415 9.07657 4.04034 9.02911 4.05753 8.9852L5.52249 5.15309C5.54296 5.09787 5.57984 5.05025 5.62817 5.01661C5.67651 4.98298 5.73398 4.96495 5.79287 4.96495C5.85175 4.96495 5.90923 4.98298 5.95756 5.01661C6.0059 5.05025 6.04277 5.09787 6.06324 5.15309L7.53098 8.9852C7.54755 9.02935 7.55318 9.07686 7.54738 9.12366C7.54158 9.17046 7.52453 9.21517 7.49768 9.25394C7.47084 9.29272 7.435 9.32441 7.39324 9.34631C7.35147 9.36821 7.30502 9.37967 7.25786 9.3797ZM15.9815 13.6946L13.744 7.80436C13.7043 7.6997 13.6336 7.6096 13.5415 7.54603C13.4493 7.48246 13.34 7.44843 13.2281 7.44845H12.428C12.3161 7.44843 12.2068 7.48247 12.1146 7.54604C12.0225 7.60961 11.9518 7.6997 11.9121 7.80436L10.9079 10.4474L11.5755 12.18C11.6182 12.1523 11.6681 12.1379 11.719 12.1386H13.9371C13.9924 12.1385 14.0464 12.1551 14.0921 12.1861C14.1379 12.217 14.1733 12.2611 14.1937 12.3124L14.8283 13.896C14.8487 13.9473 14.8841 13.9913 14.9298 14.0223C14.9756 14.0533 15.0296 14.0698 15.0848 14.0698H15.7249C15.7696 14.0696 15.8137 14.0586 15.8532 14.0377C15.8927 14.0168 15.9265 13.9865 15.9518 13.9496C15.977 13.9127 15.9929 13.8702 15.9981 13.8258C16.0033 13.7814 15.9976 13.7363 15.9815 13.6946ZM13.4902 11.035H12.1687C12.1457 11.0352 12.1229 11.0297 12.1025 11.0189C12.0822 11.0081 12.0648 10.9925 12.0519 10.9733C12.0391 10.9542 12.0312 10.9322 12.0289 10.9092C12.0267 10.8863 12.0301 10.8632 12.039 10.8419L12.6984 9.19206C12.7081 9.16543 12.7257 9.14243 12.7489 9.12617C12.7721 9.10991 12.7998 9.10119 12.8281 9.10119C12.8564 9.10119 12.8841 9.10991 12.9073 9.12617C12.9305 9.14243 12.9481 9.16543 12.9577 9.19206L13.6199 10.8419C13.6285 10.8632 13.6318 10.8862 13.6294 10.9091C13.627 10.9319 13.6191 10.9538 13.6063 10.9729C13.5935 10.9919 13.5762 11.0076 13.556 11.0184C13.5358 11.0292 13.5132 11.035 13.4902 11.035Z" fill="#7A7A7A"/>
</svg>
