<svg width="72" height="72" viewBox="0 0 72 72" fill="none" xmlns="http://www.w3.org/2000/svg">
<g clip-path="url(#clip0_1772_4474)">
<path d="M21.1006 27.7207V22.0777H50.8989V27.7207" stroke="" stroke-width="1.6" stroke-miterlimit="10"/>
<path d="M36 22L36 50" stroke="" stroke-width="1.6" stroke-miterlimit="10"/>
<path d="M30.2349 50.3223H41.765" stroke="" stroke-width="1.6" stroke-miterlimit="10"/>
<path d="M7.13672 14V58" stroke="" stroke-width="1.6" stroke-miterlimit="10"/>
<path d="M64.8633 14V59.8358" stroke="" stroke-width="1.6" stroke-miterlimit="10"/>
<path d="M13.5 7.13672H58" stroke="" stroke-width="1.6" stroke-miterlimit="10"/>
<path d="M13.5 64.8633H58" stroke="" stroke-width="1.6" stroke-miterlimit="10"/>
<path d="M14.1093 8.10935C14.1093 11.423 11.4229 14.1094 8.1094 14.1094C4.79573 14.1094 2.10938 11.423 2.10938 8.10935C2.10938 4.79567 4.79573 2.10932 8.1094 2.10932C11.4229 2.10932 14.1093 4.79567 14.1093 8.10935Z" stroke="" stroke-width="1.6" stroke-miterlimit="10"/>
<path d="M14.1093 63.8906C14.1093 67.2043 11.4229 69.8906 8.1094 69.8906C4.79573 69.8906 2.10938 67.2043 2.10938 63.8906C2.10938 60.5769 4.79573 57.8906 8.1094 57.8906C11.4229 57.8906 14.1093 60.5769 14.1093 63.8906Z" stroke="" stroke-width="1.6" stroke-miterlimit="10"/>
<path d="M69.8905 8.10935C69.8905 11.423 67.2042 14.1094 63.8905 14.1094C60.577 14.1094 57.8906 11.423 57.8906 8.10935C57.8906 4.79567 60.577 2.10932 63.8905 2.10932C67.2042 2.10932 69.8905 4.79567 69.8905 8.10935Z" stroke="" stroke-width="1.6" stroke-miterlimit="10"/>
<path d="M69.8905 63.8906C69.8905 67.2043 67.2042 69.8906 63.8905 69.8906C60.577 69.8906 57.8906 67.2043 57.8906 63.8906C57.8906 60.5769 60.577 57.8906 63.8905 57.8906C67.2042 57.8906 69.8905 60.5769 69.8905 63.8906Z" stroke="" stroke-width="1.6" stroke-miterlimit="10"/>
</g>
<defs>
<clipPath id="clip0_1772_4474">
<rect width="72" height="72" fill="white"/>
</clipPath>
</defs>
</svg>
